<?xml version="1.0" encoding="UTF-8"?> <svg xmlns="http://www.w3.org/2000/svg" width="72" height="72" viewBox="0 0 72 72" fill="none"><path d="M62.423 19.5728H9.57674C4.30953 19.6164 0 23.9417 0 29.2281V62.3883C0 67.6747 4.30953 71.9999 9.57674 71.9999H62.423C67.6902 71.9999 71.9997 67.6747 71.9997 62.3883V29.2281C71.9997 23.9417 67.6902 19.6164 62.423 19.5728ZM7.31315 32.4611V23.2427H25.9007V30.6262V32.4611H7.31315ZM45.4025 64.5728C35.6516 64.5728 27.7726 56.6213 27.7726 46.8786C27.7726 37.0922 35.6516 29.1844 45.4025 29.1844C55.1533 29.1844 63.0324 37.0922 63.0324 46.8786C63.0324 56.6213 55.1533 64.5728 45.4025 64.5728Z" fill="#82A6DD"></path><path d="M49.2765 0H47.4482H22.7664V14.3738H49.2765V0ZM45.6199 10.7039H26.4229V3.71359H45.6199V10.7039Z" fill="#82A6DD"></path></svg> 