<?xml version="1.0" encoding="UTF-8"?> <svg xmlns="http://www.w3.org/2000/svg" width="72" height="72" viewBox="0 0 72 72" fill="none"><path d="M71.9997 61.6171L48.6043 42.937C52.0048 38.3123 53.9091 32.7809 53.9091 26.932C53.9091 19.7229 51.098 12.9673 46.02 7.88917C35.5011 -2.62972 18.408 -2.62972 7.88914 7.88917C-2.62971 18.4081 -2.62971 35.5013 7.88914 46.0201C13.1486 51.2796 20.0402 53.9093 26.9319 53.9093C32.554 53.9093 38.1762 52.1411 42.9368 48.6045L61.6169 72L71.9997 61.6171ZM40.4885 40.9421C36.7706 44.7053 31.8739 46.7909 26.6145 46.7909C21.4004 46.7909 16.4584 44.7506 12.7405 40.9874C5.07806 33.2343 5.07806 20.5844 12.7405 12.8312C16.4584 9.02267 21.4004 6.98237 26.6598 6.98237C31.8739 6.98237 36.816 9.02267 40.5338 12.7859C48.1963 20.539 48.1509 33.1889 40.4885 40.9421ZM34.7303 18.4987L37.5867 20.8111L23.1233 38.4484L14.3727 27.4761L17.2291 25.1637L23.1687 32.5995L34.7303 18.4987Z" fill="#82A6DD"></path></svg> 