<?xml version="1.0" encoding="UTF-8"?> <svg xmlns="http://www.w3.org/2000/svg" width="194" height="48" viewBox="0 0 194 48" fill="none"><path d="M118.218 18.235H112.227L112.237 29.4644C112.237 32.7459 110.833 35.4006 107.557 35.4006C104.28 35.4006 102.863 32.7459 102.863 29.4644V18.2456H96.8879L96.8862 29.4644C96.8862 35.949 101.047 41.2046 107.521 41.2046C113.993 41.2046 118.216 35.949 118.216 29.4644L118.218 18.235Z" fill="#009CDE"></path><path d="M178.197 11.3923H172.235V40.6255H178.197V11.3923Z" fill="#009CDE"></path><path d="M182.598 12.4706V11.4203H187.243V12.4706H185.544V17.0996H184.298V12.4706H182.598Z" fill="#009CDE"></path><path d="M189.648 11.4207L190.975 15.3255H190.99L192.244 11.4207H194V17.0996H192.833V13.0748H192.816L191.427 17.0996H190.466L189.077 13.1147H189.061V17.0996H187.895V11.4207H189.648Z" fill="#009CDE"></path><path d="M92.0149 17.991C86.8764 16.8028 83.6352 21.9172 83.4999 22.1914C83.4339 22.3261 83.4315 22.4044 83.2042 22.3987C83.016 22.3946 82.9949 22.1914 82.9949 22.1914L82.3571 18.2791H77.0166V40.6065H83.003V28.521C83.003 27.5335 85.657 22.7986 90.8003 24.017C93.4013 24.634 94.5051 25.7398 94.5051 25.7398V18.9377C93.7231 18.5073 92.8849 18.1887 92.0149 17.991Z" fill="#009CDE"></path><path d="M132.143 23.6482C133.325 23.6479 134.48 23.9987 135.462 24.6561C136.444 25.3136 137.21 26.2481 137.662 27.3416C138.115 28.4351 138.233 29.6384 138.003 30.7992C137.772 31.9601 137.203 33.0265 136.368 33.8634C135.532 34.7004 134.468 35.2703 133.309 35.5012C132.151 35.732 130.949 35.6134 129.858 35.1604C128.767 34.7073 127.834 33.9401 127.177 32.9559C126.521 31.9716 126.171 30.8145 126.171 29.6309C126.172 28.0443 126.801 26.5228 127.921 25.401C129.041 24.2791 130.559 23.6486 132.143 23.6482ZM126.341 47.9602V39.9267L126.342 39.9283L126.344 36.9194C126.344 36.9194 126.353 36.6787 126.57 36.6762C126.763 36.6738 126.806 36.8019 126.853 36.9194C127.307 38.0513 129.803 42.3611 135.342 41.0096C137.455 40.4124 139.36 39.2363 140.843 37.6136C142.325 35.991 143.326 33.986 143.734 31.8244C144.141 29.6628 143.938 27.4302 143.148 25.3778C142.358 23.3254 141.011 21.5346 139.261 20.2069C137.51 18.8791 135.424 18.0671 133.238 17.8621C131.052 17.6571 128.852 18.0673 126.886 19.0466C124.92 20.0259 123.265 21.5353 122.109 23.4052C120.952 25.275 120.339 27.4311 120.339 29.6309V47.9603L126.341 47.9602Z" fill="#009CDE"></path><path d="M163.984 29.631C163.985 30.8146 163.634 31.9717 162.978 32.9559C162.322 33.9401 161.389 34.7073 160.298 35.1604C159.206 35.6135 158.005 35.7321 156.847 35.5014C155.688 35.2706 154.624 34.7007 153.788 33.8638C152.953 33.027 152.384 31.9607 152.153 30.7999C151.923 29.639 152.041 28.4358 152.493 27.3423C152.945 26.2488 153.711 25.3142 154.693 24.6566C155.675 23.9991 156.83 23.6482 158.012 23.6483C159.596 23.6486 161.114 24.279 162.234 25.4009C163.354 26.5228 163.984 28.0443 163.984 29.631ZM163.814 40.6164H169.816V29.631C169.816 27.4313 169.203 25.2753 168.046 23.4055C166.89 21.5357 165.236 20.0262 163.27 19.0469C161.303 18.0677 159.104 17.6574 156.918 17.8623C154.731 18.0672 152.646 18.8792 150.895 20.2068C149.144 21.5344 147.798 23.3251 147.008 25.3774C146.218 27.4297 146.015 29.6621 146.422 31.8237C146.829 33.9853 147.83 35.9901 149.312 37.6128C150.795 39.2355 152.7 40.4117 154.813 41.0089C160.352 42.3612 162.848 38.0506 163.302 36.9195C163.349 36.802 163.391 36.6738 163.585 36.6755C163.802 36.6788 163.811 36.9195 163.811 36.9195" fill="#009CDE"></path><path d="M59.8903 16.4403H57.484V35.5049L59.9555 35.5686C65.0247 35.5686 68.2896 35.1067 68.2896 25.9746C68.2896 17.218 65.4076 16.4402 59.8903 16.4402V16.4403ZM58.2652 40.5695H51.4561V11.3805H58.7621C67.6086 11.3805 74.3184 13.007 74.3184 25.9746C74.3184 38.8182 67.2111 40.5695 58.2652 40.5695" fill="#009CDE"></path><path d="M25.8793 10.2237C22.508 6.84779 19.2914 3.62956 18.3341 0C17.3768 3.62956 14.1597 6.84779 10.7889 10.2237C5.73268 15.286 0 21.0234 0 29.6284C-3.58781e-08 32.0406 0.47424 34.4291 1.39564 36.6577C2.31704 38.8862 3.66756 40.9112 5.37009 42.6168C7.07262 44.3225 9.09382 45.6755 11.3183 46.5986C13.5427 47.5217 15.9269 47.9968 18.3346 47.9968C20.7424 47.9968 23.1266 47.5217 25.351 46.5986C27.5755 45.6755 29.5967 44.3225 31.2992 42.6168C33.0017 40.9112 34.3523 38.8862 35.2737 36.6577C36.1951 34.4291 36.6693 32.0406 36.6693 29.6284C36.6693 21.0239 30.9371 15.286 25.8793 10.2237ZM7.7928 33.9086C6.6686 33.8703 2.51961 26.7058 10.2166 19.0774L15.3101 24.6513C15.3538 24.6946 15.3879 24.7467 15.4101 24.8041C15.4323 24.8615 15.4421 24.923 15.4389 24.9844C15.4357 25.0459 15.4195 25.106 15.3914 25.1608C15.3634 25.2156 15.3241 25.2638 15.2761 25.3022C14.0607 26.5511 8.88023 31.7556 8.23635 33.5551C8.10344 33.9266 7.90933 33.9125 7.7928 33.9086ZM18.3347 43.3512C17.5066 43.3512 16.6866 43.1878 15.9215 42.8703C15.1565 42.5528 14.4613 42.0875 13.8758 41.5009C13.2903 40.9142 12.8258 40.2178 12.5089 39.4514C12.192 38.6849 12.0289 37.8634 12.0289 37.0338C12.0522 35.502 12.608 34.0264 13.6006 32.861C14.7376 31.4681 18.3338 27.5505 18.3338 27.5505C18.3338 27.5505 21.875 31.5256 23.0586 32.8477C24.0896 33.9959 24.654 35.4894 24.6404 37.0338C24.6404 38.7093 23.9761 40.3161 22.7935 41.5008C21.611 42.6856 20.0071 43.3512 18.3347 43.3512ZM30.4039 33.1067C30.268 33.4044 29.9597 33.9016 29.5436 33.9167C28.8018 33.9438 28.7226 33.563 28.1744 32.7502C26.9708 30.9658 16.467 19.968 14.5024 17.841C12.7743 15.9702 14.259 14.6513 14.9478 13.9602C15.8118 13.093 18.334 10.5677 18.334 10.5677C18.334 10.5677 25.8546 17.7163 28.9874 22.6008C32.1201 27.4853 31.0405 31.7119 30.4039 33.1067Z" fill="#009CDE"></path></svg> 