<?xml version="1.0" encoding="UTF-8"?> <svg xmlns="http://www.w3.org/2000/svg" width="198" height="48" viewBox="0 0 198 48" fill="none"><path d="M66.4432 4.73489C66.2716 4.46192 65.864 4.31494 65.1776 4.31494H53.5728C52.8864 4.31494 52.4145 4.46192 52.2 4.73489C51.9494 5.10595 51.7948 5.53113 51.7495 5.97373L49.5401 21.2388C49.4972 21.5958 49.6688 21.7638 50.0549 21.7638H53.5728C53.7448 21.7864 53.9194 21.7492 54.0662 21.6588C54.1464 21.5309 54.1976 21.3877 54.2164 21.2388L56.0826 8.36743H61.5524L59.6863 21.2388C59.6434 21.5958 59.815 21.7638 60.2225 21.7638H63.719C63.9978 21.7638 64.1909 21.7218 64.2338 21.6588C64.3139 21.5309 64.3652 21.3877 64.3839 21.2388L66.5933 5.97373C66.6362 5.4278 66.6148 5.00785 66.4432 4.73489ZM79.3779 8.68239H76.0959C75.9104 8.66215 75.723 8.69884 75.5597 8.78738C75.4657 8.90031 75.4128 9.0407 75.4095 9.18633L74.101 18.3622C73.8596 18.403 73.6162 18.431 73.3717 18.4462C73.1143 18.4672 72.8998 18.4672 72.7497 18.4672C72.3915 18.4789 72.0344 18.4218 71.6986 18.2992C71.4571 18.204 71.2538 18.0345 71.1194 17.8163C70.9904 17.5776 70.931 17.3088 70.9478 17.0393C70.9482 16.6668 70.9769 16.2949 71.0336 15.9265L71.9989 9.18633C72.0418 8.85037 71.8702 8.68239 71.4841 8.68239H68.1592C67.9805 8.66103 67.7996 8.69793 67.6444 8.78738C67.5504 8.90031 67.4976 9.0407 67.4943 9.18633L66.6148 15.5065C66.4244 16.5254 66.4027 17.5676 66.5504 18.5932C66.6384 19.3577 66.9727 20.0751 67.5049 20.6413C68.0371 21.2075 68.7396 21.5933 69.5106 21.7428C70.5565 21.9907 71.631 22.1036 72.7067 22.0787C72.9856 22.0787 73.3074 22.0787 73.6935 22.0577C74.0796 22.0367 74.4657 22.0157 74.8733 21.9947C75.2594 21.9737 75.624 21.9317 75.9672 21.8897C76.3104 21.8477 76.5679 21.8058 76.7395 21.7848C77.3401 21.6588 77.7262 21.4278 77.9407 21.0918C78.1727 20.6986 78.3188 20.2624 78.3697 19.811L79.8927 9.18633C79.9141 8.85037 79.764 8.68239 79.3779 8.68239ZM91.3259 16.2414C91.2704 16.0073 91.1684 15.7861 91.0255 15.5905C90.8804 15.3854 90.6988 15.2076 90.4893 15.0656C90.2153 14.8908 89.9094 14.7696 89.5884 14.7086L89.6098 14.6247C90.1359 14.4499 90.6032 14.1377 90.9612 13.7218C91.3112 13.3198 91.5805 12.8568 91.7549 12.3569L93.1492 9.10234C93.1889 9.01667 93.1965 8.92 93.1706 8.82938C93.1555 8.77703 93.1202 8.73246 93.0722 8.70505C93.0242 8.67763 92.9672 8.66951 92.9132 8.68239H89.2451C89.1647 8.68426 89.0851 8.69843 89.0092 8.72439C88.9066 8.78728 88.8305 8.88414 88.7947 8.99736L87.6578 11.517C87.3575 12.189 87.0357 12.6299 86.6925 12.8399C86.3595 13.048 85.9722 13.1574 85.5771 13.1548H84.9121L85.4913 9.08135C85.5342 8.89237 85.5127 8.78738 85.4484 8.74539C85.3343 8.6942 85.2088 8.67251 85.0837 8.68239H81.5229C81.4121 8.67874 81.302 8.7003 81.2012 8.74539C81.1497 8.78614 81.1078 8.83721 81.0782 8.89516C81.0486 8.95311 81.032 9.0166 81.0296 9.08135L79.2706 21.3438C79.2277 21.5328 79.2492 21.6378 79.335 21.6798C79.4351 21.7271 79.5458 21.7488 79.6567 21.7428H83.2175C83.3425 21.7503 83.4674 21.7287 83.5822 21.6798C83.6297 21.6371 83.6676 21.5851 83.6935 21.5273C83.7193 21.4694 83.7326 21.407 83.7323 21.3438L84.4188 16.5564H85.4269C85.8428 16.5385 86.2564 16.6252 86.6282 16.8084C86.9285 16.9764 87.1215 17.3123 87.2073 17.7953L87.7865 21.4278C87.7968 21.5134 87.8405 21.5917 87.9085 21.6465C87.9764 21.7013 88.0634 21.7282 88.1512 21.7218H91.7549C91.9479 21.7218 92.0552 21.6588 92.0766 21.5538C92.0999 21.4573 92.1143 21.3589 92.1195 21.2598L91.4117 16.9554C91.4339 16.7141 91.4047 16.471 91.3259 16.2414ZM102.995 17.7533C102.952 17.5223 102.888 17.3963 102.78 17.3963C102.627 17.4009 102.475 17.4292 102.33 17.4803C101.894 17.6122 101.45 17.7174 101 17.7953C100.514 17.8961 100.017 17.9453 99.52 17.9422C98.7692 17.9422 98.2758 17.7743 98.0184 17.4173C97.761 17.0603 97.6323 16.5564 97.6323 15.9055C97.6323 14.8136 97.8254 13.9527 98.2329 13.3018C98.6405 12.6719 99.284 12.3359 100.185 12.3359C100.501 12.3372 100.817 12.3653 101.129 12.4199C101.515 12.4829 101.944 12.5459 102.416 12.6299C102.673 12.6719 102.866 12.7139 103.016 12.7349C103.167 12.7559 103.295 12.6299 103.381 12.3779L104.196 9.85825C104.275 9.69455 104.297 9.51052 104.261 9.33331C104.187 9.2022 104.064 9.10433 103.917 9.06035C103.309 8.80975 102.677 8.61981 102.03 8.49342C101.331 8.35293 100.619 8.28258 99.9061 8.28344C98.9402 8.27592 97.9809 8.43953 97.0746 8.76638C96.2324 9.07332 95.4756 9.56958 94.8652 10.2152C94.2099 10.9431 93.7266 11.8034 93.4495 12.7349C93.0808 13.9398 92.907 15.1939 92.9346 16.4514C92.9346 20.147 94.7579 21.9947 98.426 21.9947C98.7692 21.9947 99.1339 21.9737 99.5629 21.9527C99.9704 21.9107 100.399 21.8687 100.85 21.7848C101.3 21.7096 101.744 21.6044 102.18 21.4698C102.625 21.3457 103.057 21.1768 103.467 20.9659C103.746 20.8399 103.874 20.7139 103.874 20.6089C103.874 20.5039 103.853 20.3569 103.832 20.168L102.995 17.7533ZM108.722 16.5774C109.065 16.6194 109.409 16.6404 109.73 16.6614C110.052 16.6824 110.374 16.6824 110.696 16.6824C112.691 16.6824 114.214 16.3044 115.265 15.5485C116.316 14.7926 116.852 13.6798 116.852 12.21C116.876 11.5587 116.721 10.9131 116.402 10.3412C116.116 9.84522 115.702 9.43221 115.2 9.14434C114.664 8.83466 114.076 8.62133 113.463 8.51442C112.784 8.38717 112.095 8.32388 111.404 8.32544C109.065 8.32544 107.242 9.06035 105.955 10.5302C104.668 12 104.003 14.1417 104.003 16.9344C103.987 17.6717 104.081 18.4074 104.282 19.1181C104.454 19.7148 104.771 20.2621 105.204 20.7139C105.672 21.1709 106.246 21.5096 106.878 21.7008C107.704 21.9472 108.566 22.0606 109.43 22.0367C109.795 22.0367 110.202 22.0157 110.674 21.9737C111.164 21.9316 111.651 21.8615 112.133 21.7638C112.618 21.6627 113.098 21.5366 113.57 21.3858C113.99 21.2573 114.393 21.0811 114.771 20.8609C114.885 20.7931 114.986 20.708 115.072 20.6089C115.108 20.5531 115.13 20.489 115.133 20.4227C115.137 20.3564 115.123 20.2904 115.093 20.231L114.128 17.9002C114.114 17.8478 114.09 17.7984 114.057 17.7552C114.024 17.7119 113.982 17.6756 113.935 17.6483C113.849 17.6063 113.699 17.6483 113.463 17.7323C112.999 17.884 112.526 18.0102 112.047 18.1102C111.632 18.2017 111.207 18.251 110.782 18.2572C110.46 18.2572 110.181 18.2362 109.924 18.2152C109.7 18.1998 109.482 18.1428 109.28 18.0472C109.098 17.9608 108.948 17.8214 108.851 17.6483C108.739 17.4268 108.688 17.181 108.701 16.9344C108.696 16.8775 108.703 16.8203 108.722 16.7664V16.5774ZM109.859 12.3569C110.215 12.0363 110.684 11.8632 111.168 11.874C111.597 11.874 111.875 11.958 112.026 12.126C112.174 12.2877 112.258 12.4965 112.262 12.7139C112.268 12.8961 112.224 13.0766 112.133 13.2358C112.042 13.395 111.909 13.5268 111.747 13.6168C111.404 13.8268 110.739 13.9317 109.752 13.9317H109.43C109.33 13.9345 109.229 13.9275 109.13 13.9107C109.28 13.1968 109.516 12.6929 109.859 12.3569ZM129.915 9.08135C129.744 8.82938 129.336 8.70339 128.671 8.70339H121.335C120.649 8.70339 120.198 8.82938 119.941 9.06035C119.705 9.29132 119.533 9.69027 119.448 10.2782L118.997 13.1128C118.825 14.1417 118.654 14.9816 118.482 15.6325C118.35 16.1866 118.148 16.7226 117.882 17.2283C117.672 17.614 117.379 17.9507 117.024 18.2152C116.638 18.493 116.22 18.7255 115.78 18.9081C115.592 18.9749 115.438 19.1104 115.35 19.2861C115.335 19.4635 115.357 19.6422 115.415 19.811L116.209 22.0367C116.237 22.1927 116.32 22.3339 116.444 22.4357C116.552 22.5197 116.745 22.5197 117.002 22.4357C117.97 22.1516 118.888 21.7269 119.726 21.1758C120.413 20.6929 120.984 20.0695 121.4 19.3491C121.852 18.5383 122.184 17.6687 122.386 16.7664C122.622 15.7585 122.858 14.5617 123.094 13.1758L123.244 12.2519H125.304L124.038 21.2178C123.999 21.3565 124.007 21.5036 124.059 21.6378C124.102 21.7218 124.252 21.7848 124.51 21.7848H127.835C128.006 21.8007 128.179 21.764 128.328 21.6798C128.421 21.5584 128.474 21.4116 128.478 21.2598L130.066 10.3622C130.13 9.75326 130.087 9.33331 129.915 9.08135ZM141.413 13.1968C140.987 12.7798 140.465 12.47 139.89 12.2939C139.111 12.0648 138.3 11.9584 137.487 11.979C136.797 11.9832 136.108 12.0465 135.428 12.168L135.857 9.18633C135.899 9.0551 135.891 8.91361 135.836 8.78738C135.793 8.72439 135.621 8.68239 135.321 8.68239H132.039C131.963 8.67405 131.886 8.68047 131.812 8.70129C131.739 8.72211 131.67 8.75692 131.611 8.80373C131.551 8.85054 131.501 8.90842 131.464 8.97408C131.427 9.03973 131.404 9.11186 131.396 9.18633L129.851 20.042C129.808 20.2144 129.808 20.3945 129.851 20.5669C129.887 20.6598 129.942 20.7448 130.012 20.8169C130.082 20.8889 130.166 20.9467 130.259 20.9869C131.074 21.3934 131.95 21.6699 132.854 21.8058C133.832 21.9644 134.823 22.0417 135.814 22.0367C137.144 22.0367 138.26 21.8477 139.118 21.4698C139.896 21.1471 140.592 20.6595 141.156 20.042C141.64 19.5007 141.998 18.8631 142.207 18.1732C142.396 17.5528 142.497 16.9098 142.507 16.2624C142.508 15.6945 142.429 15.1292 142.271 14.5827C142.087 14.067 141.795 13.5949 141.413 13.1968ZM137.659 17.1233C137.59 17.3243 137.48 17.5099 137.337 17.6693C137.167 17.8468 136.963 17.9895 136.737 18.0892C136.451 18.2052 136.145 18.2624 135.836 18.2572C135.664 18.2591 135.492 18.2521 135.321 18.2362C135.076 18.2254 134.832 18.1973 134.592 18.1522L134.978 15.8215C135.259 15.723 135.546 15.6389 135.836 15.5695C136.09 15.5185 136.349 15.4904 136.608 15.4855C137.38 15.4855 137.788 15.8425 137.788 16.5354C137.766 16.7352 137.722 16.9322 137.659 17.1233ZM162.306 7.71652L162.713 4.92387C162.756 4.6509 162.735 4.46192 162.67 4.41993C162.549 4.34518 162.405 4.31538 162.263 4.33594H149.264C149.122 4.32139 148.98 4.35077 148.856 4.41993C148.736 4.56058 148.675 4.74068 148.685 4.92387L148.277 7.71652C148.213 8.09447 148.363 8.28344 148.706 8.28344H152.825L150.937 21.2178C150.894 21.5748 151.066 21.7428 151.452 21.7428H154.97C155.142 21.7654 155.316 21.7282 155.463 21.6378C155.543 21.5099 155.594 21.3667 155.613 21.2178L157.501 8.28344H161.727C162.027 8.28344 162.241 8.09447 162.306 7.71652ZM174.747 8.70339H170.8C170.457 8.70339 170.243 8.74539 170.135 8.85037C169.989 9.00359 169.873 9.18145 169.792 9.37531L168.183 13.3648L166.467 17.6063H166.317L165.867 13.4698L165.438 9.29132C165.395 9.01835 165.33 8.87137 165.223 8.80838C165.01 8.73398 164.783 8.70534 164.558 8.72439H161.062C160.926 8.724 160.792 8.76032 160.676 8.82938C160.568 8.91337 160.547 9.06035 160.611 9.29132L162.864 19.916C162.903 20.2231 163.013 20.5174 163.185 20.7769C163.314 20.9449 163.593 21.0289 164.043 21.0289H164.816L164.279 22.1207C164.156 22.3828 164.012 22.6355 163.85 22.8766C163.741 23.0464 163.595 23.1899 163.421 23.2966C163.269 23.4022 163.092 23.4673 162.906 23.4855C162.665 23.5238 162.421 23.5379 162.177 23.5275C162.005 23.531 161.833 23.524 161.662 23.5065C161.491 23.4855 161.276 23.4645 161.019 23.4226C160.863 23.3928 160.705 23.3787 160.547 23.3806C160.461 23.3806 160.375 23.5065 160.332 23.7375L159.753 26.1312C159.704 26.2878 159.697 26.454 159.732 26.6142C159.779 26.6702 159.838 26.716 159.904 26.7485C159.971 26.7811 160.044 26.7997 160.118 26.8031C160.634 26.9276 161.157 27.0257 161.684 27.0971C162.146 27.1545 162.612 27.1826 163.078 27.1811C163.659 27.1899 164.237 27.112 164.794 26.9501C165.258 26.8175 165.694 26.6041 166.081 26.3202C166.462 26.0375 166.796 25.6973 167.068 25.3123C167.364 24.8868 167.622 24.4372 167.84 23.9685L175.047 9.16533C175.176 8.87137 175.112 8.70339 174.747 8.70339ZM186.588 9.08135C186.416 8.82938 186.009 8.70339 185.344 8.70339H178.008C177.321 8.70339 176.871 8.82938 176.613 9.06035C176.377 9.29132 176.206 9.69027 176.12 10.2782L175.67 13.1128C175.498 14.1417 175.326 14.9816 175.155 15.6325C175.022 16.1866 174.821 16.7226 174.554 17.2283C174.344 17.614 174.051 17.9507 173.696 18.2152C173.31 18.493 172.893 18.7255 172.452 18.9081C172.264 18.9749 172.11 19.1104 172.023 19.2861C171.996 19.4635 172.018 19.6448 172.087 19.811L172.881 22.0367C172.909 22.1927 172.993 22.3339 173.117 22.4357C173.224 22.5197 173.417 22.5197 173.675 22.4357C174.642 22.1516 175.56 21.7269 176.399 21.1758C177.085 20.6929 177.656 20.0695 178.072 19.3491C178.524 18.5383 178.856 17.6687 179.059 16.7664C179.295 15.7585 179.531 14.5617 179.767 13.1758L179.917 12.2519H181.976L180.71 21.2178C180.672 21.3565 180.679 21.5036 180.732 21.6378C180.775 21.7218 180.925 21.7848 181.182 21.7848H184.507C184.679 21.8007 184.851 21.764 185.001 21.6798C185.094 21.5584 185.146 21.4116 185.151 21.2598L186.738 10.3622C186.824 9.75326 186.781 9.33331 186.588 9.08135ZM193.903 12.3569C194.219 12.3582 194.535 12.3863 194.846 12.4409C195.232 12.5039 195.661 12.5669 196.133 12.6509C196.391 12.6929 196.584 12.7349 196.734 12.7559C196.884 12.7769 197.013 12.6509 197.099 12.3989L197.914 9.87925C197.992 9.71554 198.015 9.53152 197.978 9.35431C197.904 9.2232 197.781 9.12533 197.635 9.08135C197.027 8.83074 196.394 8.64081 195.747 8.51442C195.049 8.37393 194.337 8.30357 193.624 8.30444C192.658 8.29692 191.699 8.46053 190.792 8.78738C189.95 9.09431 189.193 9.59058 188.583 10.2362C187.928 10.9641 187.444 11.8244 187.167 12.7559C186.798 13.9608 186.625 15.2149 186.652 16.4724C186.652 20.168 188.476 22.0157 192.144 22.0157C192.487 22.0157 192.851 21.9947 193.28 21.9737C193.688 21.9317 194.117 21.8897 194.567 21.8058C195.018 21.7306 195.462 21.6254 195.897 21.4908C196.343 21.3667 196.774 21.1978 197.184 20.9869C197.463 20.8609 197.592 20.7349 197.592 20.6299C197.592 20.5249 197.571 20.3779 197.549 20.189L196.734 17.7323C196.691 17.5013 196.627 17.3753 196.519 17.3753C196.366 17.3799 196.214 17.4082 196.069 17.4593C195.633 17.5912 195.189 17.6964 194.739 17.7743C194.253 17.8751 193.756 17.9243 193.259 17.9212C192.508 17.9212 192.015 17.7533 191.757 17.3963C191.5 17.0393 191.371 16.5354 191.371 15.8845C191.371 14.7926 191.564 13.9317 191.972 13.2808C192.358 12.6719 193.002 12.3569 193.903 12.3569Z" fill="#333333"></path><path d="M47.824 30.6456L47.2234 31.4645H47.1805L47.4379 30.7086L48.4461 26.0472H47.6309L46.1294 32.9134H46.6442L50.8271 28.3569L51.4277 27.538H51.4706L51.2346 28.3359L50.2479 32.9134H51.063L52.5431 26.0472H52.0283L47.824 30.6456ZM56.1254 30.0577H53.9589L54.3879 28.021H53.6371L52.5646 32.9134H53.3153L53.7873 30.7506H55.9538L55.4818 32.9134H56.2326L57.3051 28.021H56.5544L56.1254 30.0577ZM60.7372 27.895C60.3783 27.8962 60.0249 27.9827 59.7076 28.147C59.3592 28.3109 59.0572 28.556 58.8281 28.8609C58.561 29.1933 58.3575 29.5703 58.2275 29.9737C58.0678 30.4551 57.9881 30.9584 57.9916 31.4645C57.9918 31.6428 58.0208 31.82 58.0774 31.9895C58.1235 32.1742 58.2114 32.3465 58.3348 32.4934C58.4647 32.6574 58.6343 32.7873 58.8281 32.8714C59.0843 32.9823 59.3635 33.0326 59.6433 33.0183C59.7659 33.016 59.8881 33.0019 60.0079 32.9764C60.1492 32.9537 60.2865 32.9112 60.4155 32.8504C60.5496 32.8072 60.679 32.7509 60.8016 32.6824C60.9325 32.6205 61.055 32.5429 61.1663 32.4514L60.9732 31.9685C60.8041 32.0766 60.6245 32.168 60.4369 32.2414C60.2427 32.3312 60.0295 32.3744 59.8149 32.3674C59.6765 32.3755 59.5381 32.3512 59.4112 32.2964C59.2844 32.2416 59.1727 32.158 59.0855 32.0525C58.8828 31.779 58.7842 31.4447 58.8067 31.1076C58.8146 30.7738 58.865 30.4423 58.9568 30.1207C59.0553 29.8283 59.1847 29.5468 59.343 29.2808C59.4902 29.0461 59.6878 28.8455 59.9221 28.6929C60.1133 28.5492 60.3461 28.4683 60.5871 28.4619C60.7678 28.4609 60.948 28.482 61.1233 28.5249C61.2658 28.554 61.4032 28.6035 61.5309 28.6719L61.8098 28.063C61.6693 27.9891 61.5169 27.9394 61.3593 27.916C61.1877 27.916 60.9946 27.895 60.7372 27.895ZM68.009 27.895C67.8321 27.8974 67.6573 27.933 67.4942 28C67.3201 28.0555 67.1542 28.1331 67.0008 28.2309C66.8486 28.3312 66.7051 28.4436 66.5718 28.5669L66.2071 28.9239C66.2136 28.6574 66.1624 28.3927 66.057 28.147C65.989 28.0551 65.8981 27.9817 65.793 27.9339C65.6878 27.8862 65.572 27.8655 65.4564 27.874C65.2516 27.8764 65.0487 27.9119 64.8557 27.979C64.68 28.0302 64.5135 28.1081 64.3624 28.2099C64.2136 28.2978 64.0767 28.4036 63.9548 28.5249C63.8261 28.6509 63.7189 28.7559 63.5902 28.8609H63.5473L63.6116 28.021H63.0754L62.0028 32.9134H62.7536L63.4186 29.7638C63.4897 29.6236 63.5839 29.4959 63.6974 29.3858C63.8261 29.2598 63.9334 29.1128 64.0835 28.9868C64.2337 28.8609 64.3838 28.7559 64.534 28.6509C64.6845 28.5677 64.8545 28.5243 65.0274 28.5249C65.0906 28.5193 65.1542 28.5277 65.2137 28.5495C65.2731 28.5714 65.3267 28.606 65.3706 28.6509C65.4439 28.7714 65.481 28.9096 65.4778 29.0498C65.4723 29.2045 65.458 29.3587 65.4349 29.5118C65.4064 29.7174 65.3634 29.9209 65.3062 30.1207L64.7056 32.8924H65.4564L66.0999 29.8057C66.1747 29.655 66.2683 29.5139 66.3787 29.3858C66.5074 29.2388 66.6362 29.0918 66.7649 28.9659C66.9057 28.8423 67.0563 28.73 67.2153 28.6299C67.3483 28.5429 67.5059 28.4988 67.6658 28.5039C67.7323 28.4965 67.7998 28.5039 67.8629 28.5258C67.9261 28.5476 67.9834 28.5832 68.0304 28.6299C68.1204 28.7437 68.166 28.8851 68.1591 29.0288C68.1555 29.1558 68.1411 29.2822 68.1162 29.4068C68.0948 29.5538 68.0519 29.7428 68.009 29.9107L67.3869 32.8504H68.1377L68.7598 29.9107C68.8501 29.5603 68.9004 29.2012 68.9099 28.8399C68.9383 28.5606 68.8535 28.2817 68.674 28.063C68.4728 27.9469 68.2424 27.8887 68.009 27.895ZM74.0581 28.6719C74.0081 28.5012 73.9202 28.3435 73.8006 28.2099C73.6993 28.101 73.5748 28.015 73.436 27.958C73.2939 27.898 73.1402 27.8693 72.9855 27.874C72.803 27.8694 72.6212 27.8979 72.4493 27.958C72.2914 28.011 72.1403 28.0814 71.9988 28.168C71.8607 28.2614 71.7315 28.3668 71.6127 28.4829C71.484 28.6089 71.3982 28.7139 71.2909 28.8399H71.248L71.3124 28H70.7976L69.296 34.8661H70.0468L70.4758 32.8294C70.5843 32.9013 70.7099 32.9446 70.8405 32.9554C71.0373 33.0005 71.239 33.0217 71.4411 33.0183C71.7792 33.0142 72.111 32.9276 72.4064 32.7664C72.7399 32.5892 73.0321 32.3461 73.2644 32.0525C73.543 31.7086 73.754 31.317 73.8864 30.8976C74.0461 30.4018 74.1257 29.8846 74.1224 29.3648C74.1371 29.132 74.1154 28.8983 74.0581 28.6719ZM73.1571 30.6456C73.0506 30.9788 72.8991 31.2966 72.7067 31.5905C72.5561 31.8369 72.3415 32.0398 72.0846 32.1784C71.856 32.3084 71.598 32.3805 71.3338 32.3884C71.2023 32.3897 71.0717 32.3684 70.9477 32.3254C70.8222 32.2781 70.7003 32.222 70.5831 32.1575L71.0764 29.8477C71.151 29.7015 71.2371 29.5611 71.3338 29.4278C71.4437 29.2785 71.5656 29.138 71.6985 29.0078C71.8389 28.8776 71.9895 28.7582 72.1489 28.6509C72.3032 28.558 72.483 28.514 72.6638 28.5249C72.7611 28.5225 72.8574 28.5444 72.9437 28.5885C73.03 28.6325 73.1035 28.6974 73.1571 28.7769C73.2791 28.9717 73.3319 29.2006 73.3073 29.4278C73.3369 29.8394 73.2859 30.2528 73.1571 30.6456ZM78.3053 28L76.6536 31.1706L76.2889 32.1155H76.2246L76.1602 31.1706L75.6668 28H74.8517L75.7097 32.8924C75.5457 33.2503 75.3289 33.5828 75.0662 33.8792C74.9942 33.9631 74.9059 34.0322 74.8065 34.0826C74.7072 34.1331 74.5986 34.1639 74.4871 34.1732C74.4069 34.1694 74.3275 34.1553 74.2511 34.1312L74.0152 34.8031C74.0809 34.8436 74.1536 34.872 74.2297 34.8871C74.3285 34.9062 74.4294 34.9132 74.53 34.9081C74.7472 34.899 74.9566 34.8258 75.1306 34.6981C75.3476 34.5328 75.5359 34.3343 75.6883 34.1102C75.8864 33.8498 76.0656 33.5762 76.2246 33.2913C76.3962 32.9764 76.5678 32.6824 76.7394 32.3464L79.0989 27.979H78.2838V28H78.3053ZM82.1449 30.1837L81.7374 30.7716H81.7159L81.5658 30.2047L80.7292 28H80.0428L78.9702 32.8924H79.6781L80.3002 29.9737L80.4289 29.0498H80.4718L80.6219 29.8057L81.4156 31.7375H81.673L83.2389 29.8057L83.7537 29.0498H83.7966L83.5392 29.9737L82.9171 32.8924H83.6679L84.7404 28H83.9039L82.1449 30.1837ZM89.052 28.2519C88.9308 28.1367 88.784 28.0504 88.623 28C88.4236 27.9293 88.213 27.8937 88.0009 27.895C87.6589 27.9015 87.3223 27.9803 87.0142 28.126C86.6851 28.2823 86.3985 28.5125 86.1776 28.7979C85.9107 29.1149 85.707 29.4781 85.577 29.8687C85.4155 30.3352 85.3357 30.8251 85.3411 31.3176C85.3105 31.7727 85.456 32.2225 85.7486 32.5774C86.0275 32.8924 86.4136 33.0183 86.9498 33.0183C87.2766 33.009 87.6009 32.9596 87.9151 32.8714C88.2192 32.7757 88.5028 32.6263 88.7517 32.4304L88.5157 31.9685C88.3426 32.1002 88.1463 32.1998 87.9366 32.2624C87.677 32.3601 87.3992 32.4031 87.1215 32.3884C86.9695 32.3962 86.818 32.3677 86.6797 32.3056C86.5415 32.2434 86.4207 32.1494 86.3278 32.0315C86.1102 31.6867 86.0264 31.2768 86.0918 30.8766C86.1133 30.7506 86.1347 30.6456 86.1562 30.5197C86.2634 30.5197 86.3278 30.5407 86.435 30.5407H86.6924C87.5719 30.5407 88.2583 30.4147 88.7088 30.1417C88.9139 30.038 89.0861 29.8816 89.2071 29.6892C89.328 29.4968 89.3931 29.2757 89.3952 29.0498C89.4 28.8985 89.3707 28.7479 89.3094 28.6089C89.2435 28.4773 89.1566 28.3568 89.052 28.2519ZM88.4085 29.6168C88.2466 29.7487 88.0557 29.8421 87.8508 29.8897C87.607 29.9599 87.3541 29.9953 87.1 29.9947C86.8211 30.0157 86.5637 30.0157 86.3063 30.0157C86.4119 29.609 86.6182 29.234 86.9069 28.9239C87.1683 28.6854 87.5151 28.5571 87.8722 28.5669C87.9969 28.5636 88.1209 28.585 88.2369 28.6299C88.3164 28.6572 88.3894 28.7 88.4514 28.7559C88.5086 28.8083 88.5527 28.873 88.5801 28.9449C88.6024 29.0059 88.6168 29.0693 88.623 29.1338C88.6216 29.2242 88.602 29.3134 88.5652 29.3963C88.5283 29.4792 88.4751 29.5542 88.4085 29.6168ZM93.3421 30.0577H91.1756L91.6046 28.021H90.8539L89.7813 32.9134H90.5321L91.004 30.7506H93.192L92.7201 32.9134H93.4708L94.5434 28.021H93.7926L93.3421 30.0577ZM101 27.895C100.823 27.8974 100.648 27.933 100.485 28C100.311 28.0555 100.145 28.1331 99.9918 28.2309C99.8396 28.3312 99.6961 28.4436 99.5628 28.5669L99.1981 28.9239C99.2046 28.6574 99.1534 28.3927 99.048 28.147C98.98 28.0551 98.8891 27.9817 98.784 27.9339C98.6788 27.8862 98.563 27.8655 98.4474 27.874C98.2426 27.8764 98.0397 27.9119 97.8467 27.979C97.671 28.0302 97.5045 28.1081 97.3534 28.2099C97.2046 28.2978 97.0677 28.4036 96.9458 28.5249C96.8171 28.6509 96.7099 28.7559 96.5812 28.8609H96.5383L96.6026 28.021H96.0663L95.0153 32.9344H95.766L96.431 29.7847C96.5021 29.6446 96.5963 29.5169 96.7099 29.4068C96.8386 29.2808 96.9458 29.1338 97.096 29.0078C97.2461 28.8819 97.3963 28.7769 97.5464 28.6719C97.6969 28.5887 97.867 28.5453 98.0398 28.5459C98.103 28.5403 98.1667 28.5487 98.2261 28.5705C98.2855 28.5924 98.3391 28.627 98.383 28.6719C98.4563 28.7924 98.4935 28.9306 98.4903 29.0708C98.4847 29.2255 98.4704 29.3797 98.4474 29.5328C98.4188 29.7384 98.3758 29.9419 98.3187 30.1417L97.718 32.9134H98.4688L99.1123 29.8267C99.1871 29.676 99.2808 29.5349 99.3912 29.4068C99.5199 29.2598 99.6486 29.1128 99.7773 28.9868C99.9181 28.8633 100.069 28.751 100.228 28.6509C100.361 28.5639 100.518 28.5198 100.678 28.5249C100.745 28.5175 100.812 28.5249 100.875 28.5468C100.939 28.5686 100.996 28.6042 101.043 28.6509C101.127 28.7677 101.172 28.907 101.172 29.0498C101.168 29.1768 101.154 29.3032 101.129 29.4278C101.107 29.5748 101.064 29.7638 101.021 29.9317L100.399 32.8714H101.15L101.772 29.9317C101.863 29.5813 101.913 29.2222 101.922 28.8609C101.956 28.7332 101.957 28.5991 101.924 28.4711C101.891 28.3432 101.825 28.2255 101.733 28.1291C101.641 28.0326 101.526 27.9606 101.397 27.9197C101.269 27.8787 101.132 27.8702 101 27.895ZM105.076 29.8267C104.903 29.832 104.732 29.846 104.561 29.8687C104.407 29.8864 104.256 29.9217 104.11 29.9737L104.582 28.042H103.831L102.973 31.8215C102.946 31.9386 102.932 32.0583 102.931 32.1784C102.925 32.2922 102.946 32.4057 102.99 32.511C103.034 32.6162 103.102 32.7106 103.188 32.7874C103.422 32.9596 103.712 33.0418 104.003 33.0183C104.294 33.0208 104.584 32.9783 104.861 32.8924C105.139 32.8023 105.4 32.6675 105.633 32.4934C105.863 32.3168 106.053 32.0951 106.191 31.8425C106.33 31.5608 106.403 31.2524 106.406 30.9396C106.41 30.8003 106.386 30.6614 106.335 30.5314C106.283 30.4015 106.205 30.2832 106.105 30.1837C105.912 29.9107 105.548 29.8267 105.076 29.8267ZM105.483 31.5695C105.407 31.7242 105.298 31.8605 105.161 31.9685C105.025 32.091 104.865 32.184 104.689 32.2414C104.504 32.3104 104.308 32.346 104.11 32.3464C104.044 32.3499 103.978 32.3406 103.915 32.319C103.853 32.2974 103.795 32.2639 103.746 32.2204C103.707 32.1822 103.677 32.1361 103.658 32.0852C103.64 32.0344 103.633 31.9802 103.638 31.9265V31.8425C103.637 31.8063 103.644 31.7703 103.66 31.7375L103.917 30.5617C104.169 30.4606 104.439 30.4106 104.711 30.4147C104.946 30.3878 105.183 30.4477 105.376 30.5826C105.436 30.6435 105.483 30.7161 105.512 30.7957C105.542 30.8753 105.554 30.9601 105.548 31.0446C105.576 31.1315 105.585 31.2233 105.574 31.3139C105.563 31.4045 105.532 31.4917 105.483 31.5695ZM106.77 32.9134H107.521L108.593 28.021H107.843L106.77 32.9134ZM116.144 28.6929C116.148 28.339 116.104 27.9861 116.015 27.643C115.943 27.3271 115.796 27.0322 115.586 26.7821C115.375 26.5254 115.103 26.3235 114.793 26.1942C114.402 26.0508 113.987 25.9796 113.57 25.9842L113.441 26.6141C113.94 26.5847 114.431 26.7424 114.814 27.0551C114.986 27.2022 115.124 27.3828 115.22 27.5853C115.316 27.7878 115.368 28.0077 115.372 28.2309H115.308C115.206 28.1572 115.089 28.1069 114.964 28.084C114.79 28.0371 114.609 28.0159 114.428 28.021C114.053 28.0242 113.685 28.118 113.356 28.2939C113.03 28.475 112.751 28.7263 112.54 29.0288C112.318 29.3452 112.145 29.6919 112.026 30.0577C111.904 30.4453 111.846 30.8492 111.854 31.2546C111.826 31.7291 111.954 32.2 112.219 32.5984C112.476 32.9344 112.862 33.0813 113.42 33.0813C113.791 33.0781 114.154 32.9765 114.471 32.7874C114.811 32.573 115.097 32.2858 115.308 31.9475C115.571 31.5241 115.766 31.0639 115.887 30.5826C116.061 29.9673 116.147 29.3314 116.144 28.6929ZM115.243 30.0997C115.195 30.4846 115.086 30.8599 114.921 31.2126C114.811 31.534 114.619 31.8229 114.364 32.0525C114.256 32.1645 114.127 32.2539 113.983 32.3153C113.839 32.3766 113.684 32.4087 113.527 32.4094C113.399 32.4161 113.271 32.3883 113.158 32.3291C113.044 32.2699 112.949 32.1815 112.884 32.0735C112.745 31.8226 112.678 31.5396 112.691 31.2546C112.687 30.8937 112.73 30.5339 112.819 30.1837C112.903 29.8893 113.025 29.6069 113.184 29.3438C113.323 29.1279 113.505 28.9422 113.72 28.7979C113.904 28.6758 114.12 28.61 114.342 28.6089C114.54 28.6073 114.737 28.643 114.921 28.7139C115.073 28.779 115.206 28.88 115.308 29.0078C115.315 29.3729 115.293 29.7379 115.243 30.0997ZM125.089 27.979C124.96 27.958 124.832 27.937 124.724 27.916C124.596 27.8991 124.467 27.8921 124.338 27.895C124.033 27.8941 123.73 27.9366 123.437 28.021C123.169 28.1085 122.915 28.2359 122.687 28.3989C122.477 28.5596 122.302 28.7594 122.172 28.9868C122.038 29.2395 121.971 29.5212 121.979 29.8057C121.973 29.9402 121.995 30.0744 122.043 30.2006C122.091 30.3268 122.164 30.4423 122.258 30.5407C122.439 30.7169 122.671 30.8342 122.922 30.8766L122.429 31.2336L120.97 32.9134H121.936L123.545 31.0026L124.317 30.8766L123.888 32.8924H124.639L125.668 28.105C125.604 28.084 125.539 28.063 125.432 28.021C125.317 28.0161 125.202 28.002 125.089 27.979ZM124.424 30.4147C124.295 30.4147 124.188 30.4357 124.102 30.4357H123.802C123.116 30.4357 122.751 30.2047 122.751 29.7218C122.745 29.5611 122.775 29.4011 122.838 29.2525C122.901 29.104 122.995 28.9704 123.116 28.8609C123.392 28.6358 123.743 28.5165 124.102 28.5249C124.254 28.523 124.405 28.5371 124.553 28.5669C124.635 28.5743 124.712 28.6118 124.767 28.6719L124.424 30.4147ZM133.154 28.126C132.924 27.9629 132.644 27.8814 132.361 27.895C132.149 27.8956 131.939 27.9311 131.739 28C131.558 28.0553 131.385 28.1329 131.224 28.2309C131.079 28.3242 130.943 28.4295 130.816 28.5459C130.688 28.6719 130.602 28.7769 130.495 28.8819H130.473L130.516 28.042H130.001L128.929 32.9344H129.679L130.344 29.7847C130.434 29.6314 130.535 29.4841 130.645 29.3438C130.762 29.2011 130.892 29.0677 131.031 28.9449C131.171 28.823 131.33 28.7238 131.503 28.6509C131.661 28.5676 131.838 28.5243 132.018 28.5249C132.111 28.5163 132.204 28.5269 132.293 28.5558C132.382 28.5847 132.463 28.6314 132.532 28.6929C132.632 28.826 132.678 28.9906 132.661 29.1548C132.656 29.2608 132.642 29.3662 132.618 29.4698C132.6 29.5909 132.571 29.7103 132.532 29.8267L131.867 32.9344H132.618L133.326 29.6798C133.389 29.4464 133.425 29.207 133.433 28.9659C133.455 28.5669 133.347 28.2729 133.154 28.126ZM138.367 28.2309C138.266 28.122 138.141 28.036 138.002 27.979C137.86 27.919 137.706 27.8903 137.552 27.895C137.369 27.8904 137.187 27.9189 137.016 27.979C136.859 28.0362 136.709 28.1064 136.565 28.1889C136.427 28.2824 136.298 28.3878 136.179 28.5039C136.05 28.6299 135.964 28.7349 135.857 28.8609H135.814L135.879 28.021H135.364L133.862 34.8871H134.613L135.042 32.8504C135.151 32.9222 135.276 32.9656 135.407 32.9764C135.603 33.0215 135.805 33.0427 136.007 33.0393C136.345 33.0352 136.677 32.9486 136.973 32.7874C137.306 32.6102 137.598 32.3671 137.831 32.0735C138.109 31.7296 138.32 31.338 138.453 30.9186C138.612 30.4228 138.692 29.9056 138.689 29.3858C138.691 29.1507 138.655 28.9167 138.581 28.6929C138.573 28.5176 138.496 28.3522 138.367 28.2309H138.367ZM137.766 30.6456C137.66 30.9788 137.508 31.2966 137.316 31.5905C137.165 31.837 136.951 32.0398 136.694 32.1784C136.465 32.3084 136.207 32.3805 135.943 32.3884C135.811 32.3897 135.681 32.3684 135.557 32.3254C135.431 32.2781 135.309 32.222 135.192 32.1575L135.686 29.8477C135.76 29.7015 135.846 29.5611 135.943 29.4278C136.053 29.2785 136.175 29.138 136.308 29.0078C136.448 28.8776 136.599 28.7582 136.758 28.6509C136.912 28.558 137.092 28.514 137.273 28.5249C137.37 28.5225 137.467 28.5444 137.553 28.5885C137.639 28.6325 137.713 28.6974 137.766 28.7769C137.888 28.9717 137.941 29.2006 137.916 29.4278C137.914 29.838 137.864 30.2466 137.766 30.6456ZM143.279 28.3989C143.151 28.2465 142.99 28.1244 142.807 28.042C142.586 27.9422 142.342 27.8988 142.099 27.916C141.74 27.9147 141.386 28.0013 141.07 28.168C140.739 28.3402 140.453 28.5844 140.233 28.8819C139.985 29.2154 139.79 29.5835 139.654 29.9737C139.511 30.429 139.445 30.9044 139.461 31.3805C139.456 31.5798 139.485 31.7785 139.547 31.9685C139.609 32.1574 139.704 32.3348 139.826 32.4934C139.96 32.6527 140.129 32.7817 140.319 32.8714C140.555 32.9729 140.813 33.0162 141.07 32.9973C141.424 32.9912 141.771 32.8973 142.078 32.7244C142.403 32.5433 142.682 32.292 142.893 31.9895C143.135 31.6586 143.316 31.2892 143.429 30.8976C143.561 30.4542 143.626 29.9945 143.622 29.5328C143.627 29.3266 143.598 29.1211 143.536 28.9239C143.518 28.7242 143.427 28.5377 143.279 28.3989ZM142.7 30.6456C142.612 30.9519 142.49 31.2477 142.335 31.5275C142.21 31.7642 142.035 31.9719 141.82 32.1365C141.645 32.2791 141.426 32.3604 141.198 32.3674C141.063 32.3778 140.927 32.3544 140.803 32.2993C140.679 32.2442 140.572 32.1593 140.49 32.0525C140.339 31.7828 140.265 31.4781 140.276 31.1706C140.275 30.8237 140.318 30.4781 140.405 30.1417C140.488 29.8473 140.611 29.5649 140.769 29.3018C140.908 29.0739 141.09 28.8742 141.306 28.7139C141.483 28.5769 141.702 28.5029 141.928 28.5039C142.292 28.5039 142.528 28.6089 142.636 28.7979C142.759 29.0459 142.818 29.32 142.807 29.5958C142.828 29.9491 142.792 30.3034 142.7 30.6456ZM148.921 27.937C148.834 27.9335 148.748 27.9406 148.663 27.958C148.555 27.963 148.447 27.977 148.341 28L148.749 26.0682H148.02L147.612 28C147.097 27.9054 146.564 27.9714 146.089 28.1889C145.742 28.3448 145.439 28.5829 145.21 28.8819C144.942 29.2143 144.739 29.5913 144.609 29.9947C144.466 30.4792 144.393 30.9812 144.395 31.4855C144.374 31.9011 144.52 32.308 144.802 32.6194C145.081 32.9134 145.488 33.0603 146.046 33.0603C146.133 33.0647 146.219 33.0576 146.304 33.0393C146.389 33.0183 146.454 32.9973 146.561 32.9764L146.153 34.9081H146.883L147.29 32.9973C147.374 33.026 147.46 33.047 147.548 33.0603C147.633 33.0754 147.719 33.0825 147.805 33.0813C148.145 33.0721 148.479 33.0009 148.792 32.8714C149.137 32.7317 149.44 32.5075 149.671 32.2204C149.95 31.8998 150.161 31.5289 150.293 31.1286C150.458 30.6122 150.537 30.0736 150.529 29.5328C150.54 29.3302 150.509 29.1276 150.439 28.9366C150.369 28.7456 150.261 28.57 150.122 28.4199C149.97 28.2576 149.784 28.1301 149.577 28.0466C149.369 27.9631 149.145 27.9256 148.921 27.937ZM146.668 32.3464C146.561 32.3674 146.497 32.3674 146.411 32.3884C146.234 32.4235 146.052 32.4149 145.88 32.3636C145.707 32.3123 145.551 32.2198 145.424 32.0945C145.25 31.8638 145.16 31.5831 145.167 31.2966C145.163 30.9053 145.221 30.5158 145.338 30.1417C145.435 29.831 145.588 29.5396 145.789 29.2808C145.951 29.0623 146.155 28.8769 146.389 28.7349C146.577 28.6239 146.792 28.5658 147.011 28.5669C147.091 28.5613 147.17 28.5684 147.247 28.5879C147.312 28.6089 147.376 28.6089 147.462 28.6299L146.668 32.3464ZM149.521 30.8136C149.415 31.1272 149.263 31.4242 149.071 31.6955C148.909 31.9084 148.704 32.087 148.47 32.2204C148.267 32.3322 148.038 32.3901 147.805 32.3884C147.733 32.3919 147.661 32.3848 147.591 32.3674C147.524 32.3658 147.459 32.3516 147.398 32.3254L148.213 28.5879C148.29 28.5673 148.369 28.5533 148.449 28.5459C148.519 28.5275 148.591 28.5204 148.663 28.5249C149.392 28.5249 149.736 28.8609 149.736 29.5118C149.731 29.9538 149.659 30.3926 149.521 30.8136H149.521ZM155.013 28.2519C154.891 28.1367 154.744 28.0504 154.584 28C154.384 27.9293 154.174 27.8937 153.961 27.895C153.619 27.9015 153.283 27.9803 152.975 28.126C152.646 28.2823 152.359 28.5125 152.138 28.7979C151.871 29.1149 151.668 29.4781 151.538 29.8687C151.376 30.3352 151.296 30.8251 151.302 31.3176C151.271 31.7727 151.416 32.2225 151.709 32.5774C151.988 32.8924 152.374 33.0183 152.91 33.0183C153.237 33.009 153.561 32.9596 153.876 32.8714C154.18 32.7757 154.463 32.6263 154.712 32.4304L154.476 31.9685C154.303 32.1002 154.107 32.1998 153.897 32.2624C153.637 32.3601 153.36 32.4031 153.082 32.3884C152.93 32.3962 152.778 32.3677 152.64 32.3056C152.502 32.2434 152.381 32.1494 152.288 32.0315C152.071 31.6867 151.987 31.2768 152.052 30.8766C152.074 30.7506 152.095 30.6456 152.117 30.5197C152.224 30.5197 152.288 30.5407 152.396 30.5407H152.653C153.532 30.5407 154.219 30.4147 154.669 30.1417C154.874 30.038 155.047 29.8816 155.168 29.6892C155.289 29.4968 155.354 29.2757 155.356 29.0498C155.361 28.8985 155.331 28.7479 155.27 28.6089C155.204 28.4773 155.117 28.3568 155.013 28.2519ZM154.326 29.6168C154.164 29.7487 153.973 29.8421 153.768 29.8897C153.525 29.9599 153.272 29.9953 153.018 29.9947C152.739 30.0157 152.481 30.0157 152.224 30.0157C152.33 29.609 152.536 29.234 152.825 28.9239C153.086 28.6854 153.433 28.5571 153.79 28.5669C153.915 28.5636 154.039 28.585 154.155 28.6299C154.234 28.6572 154.307 28.7 154.369 28.7559C154.426 28.8083 154.47 28.873 154.498 28.9449C154.52 29.0059 154.534 29.0693 154.541 29.1338C154.554 29.2259 154.541 29.3197 154.503 29.405C154.465 29.4902 154.404 29.5635 154.326 29.6168ZM158.681 27.895C158.322 27.8962 157.968 27.9827 157.651 28.147C157.303 28.3109 157.001 28.556 156.771 28.8609C156.504 29.1933 156.301 29.5703 156.171 29.9737C156.011 30.4551 155.931 30.9584 155.935 31.4645C155.935 31.6428 155.964 31.82 156.021 31.9895C156.067 32.1742 156.155 32.3465 156.278 32.4934C156.408 32.6574 156.578 32.7873 156.771 32.8714C157.028 32.9823 157.307 33.0326 157.587 33.0183C157.709 33.016 157.831 33.0019 157.951 32.9764C158.093 32.9537 158.23 32.9112 158.359 32.8504C158.493 32.8072 158.622 32.7509 158.745 32.6824C158.876 32.6205 158.998 32.5429 159.11 32.4514L158.917 31.9685C158.747 32.0766 158.568 32.168 158.38 32.2414C158.186 32.3312 157.973 32.3744 157.758 32.3674C157.62 32.3755 157.481 32.3512 157.355 32.2964C157.228 32.2416 157.116 32.158 157.029 32.0525C156.826 31.779 156.728 31.4447 156.75 31.1076C156.758 30.7738 156.808 30.4423 156.9 30.1207C156.999 29.8283 157.128 29.5468 157.286 29.2808C157.434 29.0461 157.631 28.8455 157.865 28.6929C158.057 28.5492 158.289 28.4683 158.53 28.4619C158.711 28.4609 158.891 28.482 159.067 28.5249C159.209 28.554 159.347 28.6035 159.474 28.6719L159.753 28.063C159.613 27.9891 159.46 27.9394 159.303 27.916C159.131 27.916 158.917 27.895 158.681 27.895ZM162.585 27.895C162.226 27.8962 161.872 27.9827 161.555 28.147C161.207 28.3109 160.905 28.556 160.675 28.8609C160.408 29.1933 160.205 29.5703 160.075 29.9737C159.915 30.4551 159.835 30.9584 159.839 31.4645C159.839 31.6428 159.868 31.82 159.925 31.9895C159.971 32.1742 160.059 32.3465 160.182 32.4934C160.312 32.6574 160.482 32.7873 160.675 32.8714C160.932 32.9823 161.211 33.0326 161.491 33.0183C161.613 33.016 161.735 33.0019 161.855 32.9764C161.997 32.9537 162.134 32.9112 162.263 32.8504C162.397 32.8072 162.526 32.7509 162.649 32.6824C162.78 32.6205 162.902 32.5429 163.014 32.4514L162.821 31.9685C162.651 32.0766 162.472 32.168 162.284 32.2414C162.09 32.3312 161.877 32.3744 161.662 32.3674C161.524 32.3755 161.385 32.3512 161.259 32.2964C161.132 32.2416 161.02 32.158 160.933 32.0525C160.73 31.779 160.632 31.4447 160.654 31.1076C160.662 30.7738 160.712 30.4423 160.804 30.1207C160.903 29.8283 161.032 29.5468 161.19 29.2808C161.338 29.0461 161.535 28.8455 161.769 28.6929C161.961 28.5492 162.193 28.4683 162.434 28.4619C162.615 28.4609 162.795 28.482 162.971 28.5249C163.113 28.554 163.251 28.6035 163.378 28.6719L163.657 28.063C163.517 27.9891 163.364 27.9394 163.207 27.916C163.057 27.916 162.842 27.895 162.585 27.895ZM167.089 31.1286C166.999 31.2865 166.891 31.4344 166.767 31.5695C166.648 31.7178 166.511 31.8517 166.36 31.9685C166.213 32.0876 166.055 32.193 165.888 32.2834C165.736 32.3642 165.567 32.4074 165.395 32.4094C165.321 32.42 165.245 32.4099 165.177 32.3802C165.108 32.3504 165.05 32.3023 165.008 32.2414C164.918 32.104 164.873 31.9427 164.88 31.7795C164.881 31.6166 164.903 31.4544 164.944 31.2966L165.652 28.042H164.901L164.215 31.2126C164.152 31.4672 164.116 31.7276 164.108 31.9895C164.096 32.1453 164.117 32.3018 164.169 32.4497C164.22 32.5976 164.302 32.7338 164.408 32.8504C164.508 32.9309 164.625 32.9883 164.751 33.0183C164.882 33.0613 165.02 33.0826 165.159 33.0813C165.356 33.077 165.552 33.0416 165.738 32.9764C165.92 32.9251 166.094 32.8473 166.253 32.7454C166.405 32.6451 166.548 32.5327 166.682 32.4094C166.81 32.2834 166.918 32.1575 167.046 32.0315H167.089V32.9554H167.69V32.8294C167.687 32.6821 167.694 32.5348 167.711 32.3884C167.733 32.2204 167.754 32.0315 167.776 31.8635C167.792 31.6937 167.821 31.5253 167.861 31.3596C167.883 31.2126 167.926 31.0656 167.947 30.9606L168.569 28.042H167.819L167.089 31.1286ZM172.967 28.3989C172.839 28.2465 172.678 28.1244 172.495 28.042C172.27 27.9521 172.029 27.9092 171.787 27.916C171.428 27.9147 171.074 28.0013 170.757 28.168C170.426 28.3402 170.14 28.5844 169.921 28.8819C169.673 29.2154 169.478 29.5835 169.342 29.9737C169.209 30.4312 169.144 30.905 169.148 31.3805C169.144 31.5798 169.173 31.7785 169.234 31.9685C169.297 32.1574 169.391 32.3348 169.513 32.4934C169.648 32.6527 169.816 32.7817 170.007 32.8714C170.242 32.9729 170.5 33.0162 170.757 32.9973C171.111 32.9912 171.458 32.8973 171.765 32.7244C172.091 32.5433 172.37 32.292 172.581 31.9895C172.823 31.6586 173.004 31.2892 173.117 30.8976C173.248 30.4542 173.313 29.9945 173.31 29.5328C173.315 29.3266 173.286 29.1211 173.224 28.9239C173.187 28.7297 173.098 28.5485 172.967 28.3989ZM172.366 30.6456C172.278 30.9519 172.156 31.2477 172.001 31.5275C171.876 31.7642 171.701 31.9719 171.487 32.1365C171.311 32.2791 171.092 32.3604 170.865 32.3674C170.729 32.3778 170.593 32.3544 170.469 32.2993C170.345 32.2442 170.238 32.1593 170.157 32.0525C170.005 31.7828 169.931 31.4781 169.942 31.1706C169.941 30.8237 169.985 30.4781 170.071 30.1417C170.154 29.8473 170.277 29.5649 170.436 29.3018C170.574 29.0739 170.756 28.8742 170.972 28.7139C171.149 28.5769 171.368 28.5029 171.594 28.5039C171.959 28.5039 172.194 28.6089 172.302 28.7979C172.425 29.0459 172.484 29.32 172.473 29.5958C172.505 29.9492 172.468 30.3053 172.366 30.6456H172.366ZM177.514 30.0577H175.348L175.777 28.021H175.026L173.953 32.9134H174.704L175.176 30.7506H177.343L176.871 32.9134H177.621L178.694 28.021H177.943L177.514 30.0577ZM182.855 27.958C182.629 27.9199 182.399 27.8989 182.169 27.895C181.71 27.8883 181.257 28.0045 180.86 28.2309C180.512 28.4496 180.213 28.7354 179.981 29.0708C179.75 29.4275 179.576 29.8171 179.466 30.2257C179.352 30.643 179.301 31.0747 179.316 31.5065C179.316 32.5354 179.702 33.0393 180.517 33.0393C180.693 33.044 180.868 33.0154 181.032 32.9554C181.188 32.8981 181.339 32.8279 181.483 32.7454C181.621 32.652 181.75 32.5465 181.869 32.4304C181.975 32.3167 182.075 32.1975 182.169 32.0735H182.212L182.341 32.9134H182.898C182.881 32.8377 182.873 32.76 182.877 32.6824V32.4094C182.877 32.1994 182.898 31.9685 182.92 31.7165C182.94 31.4682 182.983 31.2223 183.048 30.9816L183.671 28.126C183.403 28.052 183.131 27.9959 182.855 27.958ZM182.19 31.2756C182.127 31.4037 182.048 31.5236 181.954 31.6325C181.85 31.7667 181.727 31.8868 181.59 31.9895C181.47 32.1014 181.332 32.1936 181.182 32.2624C181.047 32.3452 180.891 32.3889 180.732 32.3884C180.637 32.3931 180.543 32.372 180.46 32.3276C180.376 32.2831 180.307 32.217 180.26 32.1365C180.15 31.9445 180.098 31.7262 180.11 31.5065C180.11 31.1459 180.153 30.7865 180.238 30.4357C180.311 30.098 180.434 29.7726 180.603 29.4698C180.744 29.195 180.95 28.9574 181.204 28.7769C181.439 28.6034 181.724 28.5077 182.019 28.5039C182.282 28.4957 182.545 28.5386 182.791 28.6299L182.19 31.2756ZM192.937 28.3989C192.81 28.2465 192.648 28.1244 192.465 28.042C192.244 27.9422 192 27.8988 191.757 27.916C191.398 27.9147 191.044 28.0013 190.728 28.168C190.397 28.3402 190.111 28.5844 189.891 28.8819C189.643 29.2154 189.448 29.5835 189.312 29.9737C189.179 30.4312 189.114 30.905 189.119 31.3805C189.114 31.5798 189.143 31.7785 189.205 31.9685C189.267 32.1574 189.362 32.3348 189.484 32.4934C189.612 32.6586 189.782 32.7888 189.977 32.8714C190.213 32.9729 190.471 33.0162 190.728 32.9973C191.082 32.9912 191.429 32.8973 191.736 32.7244C192.061 32.5433 192.34 32.292 192.551 31.9895C192.793 31.6586 192.974 31.2892 193.087 30.8976C193.219 30.4542 193.284 29.9945 193.28 29.5328C193.285 29.3266 193.256 29.1211 193.195 28.9239C193.167 28.7268 193.077 28.5432 192.937 28.3989ZM192.358 30.6456C192.27 30.9519 192.148 31.2477 191.993 31.5275C191.868 31.7642 191.693 31.9719 191.479 32.1365C191.303 32.2791 191.084 32.3604 190.856 32.3674C190.721 32.3778 190.585 32.3544 190.461 32.2993C190.337 32.2442 190.23 32.1593 190.149 32.0525C189.997 31.7828 189.923 31.4781 189.934 31.1706C189.933 30.8237 189.977 30.4781 190.063 30.1417C190.146 29.8473 190.269 29.5649 190.427 29.3018C190.566 29.0739 190.748 28.8742 190.964 28.7139C191.141 28.5769 191.36 28.5029 191.586 28.5039C191.95 28.5039 192.186 28.6089 192.294 28.7979C192.417 29.0459 192.476 29.32 192.465 29.5958C192.486 29.9491 192.45 30.3034 192.358 30.6456ZM196.691 30.3307L196.712 30.2887C197.065 30.1918 197.384 30.0031 197.635 29.7428C197.869 29.4978 197.999 29.1752 198 28.8399C198.003 28.7179 197.981 28.5964 197.935 28.4829C197.889 28.3693 197.815 28.2685 197.721 28.1889C197.609 28.0973 197.477 28.0326 197.335 28C197.132 27.944 196.923 27.9157 196.712 27.916C196.152 27.8973 195.605 28.0931 195.189 28.4619C194.782 28.8189 194.503 29.3648 194.331 30.0997C194.289 30.2887 194.246 30.4567 194.203 30.6036C194.181 30.7296 194.16 30.8766 194.138 30.9606C194.117 31.0656 194.117 31.1496 194.096 31.2546C194.096 31.3386 194.074 31.4225 194.074 31.5275C194.072 31.7626 194.108 31.9966 194.181 32.2204C194.237 32.392 194.341 32.5448 194.482 32.6614C194.602 32.7738 194.749 32.8534 194.911 32.8924C195.092 32.9424 195.28 32.9706 195.468 32.9764C195.752 32.9788 196.035 32.9363 196.305 32.8504C196.565 32.7831 196.806 32.6613 197.013 32.4934C197.216 32.3405 197.384 32.1473 197.506 31.9265C197.633 31.6795 197.692 31.4046 197.678 31.1286C197.683 31.0179 197.663 30.9075 197.618 30.8057C197.573 30.7038 197.506 30.6132 197.42 30.5407C197.2 30.4093 196.949 30.3369 196.691 30.3307ZM195.082 29.9317C195.174 29.5619 195.35 29.2173 195.597 28.9239C195.718 28.8056 195.862 28.7129 196.02 28.6515C196.179 28.5901 196.349 28.5613 196.519 28.5669C196.708 28.5431 196.899 28.5879 197.056 28.6929C197.106 28.7458 197.144 28.8091 197.166 28.8781C197.188 28.9471 197.195 29.0202 197.184 29.0918C197.188 29.2351 197.143 29.3755 197.056 29.4908C196.954 29.6107 196.831 29.7105 196.691 29.7847C196.559 29.8688 196.414 29.9325 196.262 29.9737C196.145 30.017 196.022 30.0452 195.897 30.0577L194.996 30.1627L195.082 29.9317ZM196.798 31.7375C196.725 31.8698 196.631 31.9902 196.519 32.0945C196.401 32.1926 196.262 32.2643 196.112 32.3044C195.952 32.3545 195.786 32.3827 195.618 32.3884C195.082 32.3884 194.803 32.0945 194.803 31.5485C194.8 31.4361 194.808 31.3237 194.825 31.2126C194.846 31.0866 194.868 30.9396 194.911 30.7716C195.125 30.7506 195.297 30.7296 195.447 30.7296C195.576 30.7296 195.683 30.7086 195.769 30.7086C195.819 30.7065 195.87 30.6995 195.919 30.6876H196.005C196.257 30.6724 196.508 30.7231 196.734 30.8346C196.797 30.8821 196.849 30.9423 196.886 31.0112C196.923 31.08 196.944 31.1559 196.948 31.2336C196.924 31.4079 196.874 31.5778 196.798 31.7375ZM185.129 30.2047C185.013 30.6425 184.863 31.0707 184.679 31.4855C184.602 31.7209 184.461 31.9313 184.271 32.0945C184.157 32.1884 184.013 32.2403 183.864 32.2414C183.783 32.2377 183.704 32.2236 183.628 32.1994L183.392 32.8294C183.457 32.8698 183.53 32.8983 183.606 32.9134C183.712 32.9315 183.82 32.9386 183.928 32.9344C184.214 32.9362 184.49 32.8311 184.7 32.6404C184.947 32.4033 185.15 32.1263 185.301 31.8215C185.502 31.3873 185.667 30.9379 185.794 30.4777C185.944 29.9317 186.116 29.3228 186.287 28.6299H187.617L186.695 32.9134H187.446L188.518 28.021H185.751C185.472 28.9239 185.301 29.6378 185.129 30.2047H185.129ZM117.603 30.2047C117.487 30.6425 117.336 31.0707 117.152 31.4855C117.075 31.7209 116.934 31.9313 116.745 32.0945C116.63 32.1884 116.486 32.2403 116.337 32.2414C116.257 32.2377 116.178 32.2236 116.101 32.1994L115.865 32.8294C115.931 32.8698 116.004 32.8983 116.08 32.9134C116.186 32.9315 116.294 32.9386 116.401 32.9344C116.688 32.9362 116.964 32.8311 117.174 32.6404C117.421 32.4033 117.624 32.1263 117.774 31.8215C117.976 31.3873 118.141 30.9379 118.268 30.4777C118.418 29.9317 118.589 29.3228 118.761 28.6299H120.091L119.169 32.9134H119.919L120.992 28.021H118.225C117.946 28.9239 117.774 29.6378 117.603 30.2047Z" fill="#333333"></path><path d="M19.9379 4H12.3229C10.564 4 8.82648 5.42782 8.44037 7.14961L6.65997 14.8136C6.64678 14.8698 6.64689 14.9282 6.6603 14.9842C6.67371 15.0403 6.70006 15.0927 6.73732 15.1373C6.77459 15.1819 6.8218 15.2175 6.87531 15.2415C6.92883 15.2655 6.98725 15.2771 7.04608 15.2756H17.5354C17.6234 15.2734 17.7084 15.2437 17.7778 15.1908C17.8473 15.1379 17.8977 15.0646 17.9215 14.9816L20.3454 4.48294C20.3529 4.42473 20.3481 4.36564 20.3314 4.3093C20.3147 4.25296 20.2863 4.20057 20.2482 4.15534C20.21 4.11011 20.1628 4.07299 20.1094 4.04628C20.0561 4.01957 19.9977 4.00382 19.9379 4V4ZM15.9052 21.5118H5.43729C5.34929 21.514 5.26433 21.5437 5.19485 21.5966C5.12537 21.6495 5.07502 21.7228 5.05118 21.8058L0.0102913 43.5381C-0.00386025 43.5934 -0.00341014 43.6513 0.0115993 43.7064C0.0266088 43.7615 0.0556847 43.8119 0.0960936 43.853C0.132706 43.8969 0.178398 43.9327 0.23016 43.958C0.281922 43.9833 0.33858 43.9977 0.396402 44H7.45364C9.49145 44 11.5936 42.3622 12.0441 40.3465L16.2913 21.9528C16.3024 21.8979 16.3007 21.8413 16.2863 21.7872C16.2718 21.733 16.2449 21.6828 16.2078 21.6404C16.1706 21.5979 16.124 21.5643 16.0716 21.542C16.0192 21.5197 15.9623 21.5094 15.9052 21.5118ZM33.8808 21.5118L23.3914 21.4908C23.3034 21.493 23.2185 21.5227 23.149 21.5756C23.0795 21.6285 23.0292 21.7018 23.0053 21.7848L20.5385 32.2835C20.5243 32.3388 20.5248 32.3967 20.5398 32.4518C20.5548 32.5069 20.5839 32.5574 20.6243 32.5984C20.6609 32.6423 20.7066 32.6781 20.7584 32.7034C20.8101 32.7287 20.8668 32.7431 20.9246 32.7454L28.4323 32.7244C30.1913 32.7244 32.036 31.3386 32.4436 29.6168L34.2454 21.9318C34.2596 21.8764 34.2591 21.8185 34.2441 21.7634C34.2291 21.7083 34.2 21.6579 34.1596 21.6168C34.0836 21.5485 33.9839 21.511 33.8808 21.5118ZM35.3179 4H27.467C27.379 4.00221 27.2941 4.03194 27.2246 4.08483C27.1551 4.13773 27.1048 4.21102 27.0809 4.29396L24.5712 14.8136C24.5585 14.869 24.5596 14.9266 24.5745 14.9815C24.5895 15.0363 24.6178 15.0868 24.657 15.1286C24.692 15.1742 24.7373 15.2113 24.7894 15.2368C24.8416 15.2623 24.899 15.2756 24.9573 15.2756H35.4895C35.5775 15.2734 35.6625 15.2437 35.732 15.1908C35.8015 15.1379 35.8518 15.0646 35.8757 14.9816L37.7419 7.12861C38.1494 5.42782 37.0554 4 35.3179 4Z" fill="#E32D35"></path></svg> 