<?xml version="1.0" encoding="UTF-8"?> <svg xmlns="http://www.w3.org/2000/svg" width="198" height="48" viewBox="0 0 198 48" fill="none"><path d="M150.751 36.4413H157.876V32.888H154.313V29.3333L150.751 29.3173V25.764H147.189V18.6787L150.751 18.6507V15.1173L161.437 15.132V18.6627H154.313V22.2173H157.876V25.776L161.409 25.7893V29.348H165V36.4373H161.437L161.409 39.996H150.751V36.4413ZM147.189 32.9173H150.723V36.448H147.189V32.9173ZM161.467 18.6907L165 18.6787V22.2093L161.467 22.2213V18.6907ZM134.249 18.6667H130.688V15.1107H134.249V11.584L137.812 11.5587V8.024L148.499 8V11.5293L141.375 11.5547V15.1107H144.936V18.6667H141.375V40H134.249V18.6667ZM127.837 29.3333V18.6667H124.277V15.1107H110.028V18.6667H106.466V36.444H110.028V40H124.277V36.444H113.591V29.3333H127.837ZM113.59 18.6667H120.713V25.7773H113.591L113.59 18.6667ZM127.839 36.444H124.277V32.888H127.839V36.444ZM85.5626 15.1107H92.6866V18.6667H96.2492V15.1107H103.373V22.2213H92.6866V40H85.5626V15.1107ZM59.9536 8H67.0775V15.1107H77.7641V18.6667H81.3267V40H74.2082V18.6667H67.0775V40H59.9536V8Z" fill="#054ADA"></path><path d="M37.5626 25.7774H48.2492V18.6667H37.5626V15.1107H51.8105V18.6667H55.3731V40H37.5653V36.4414H34V29.3334H37.5626V25.7774ZM41.1239 29.3334V36.4441H48.2492V29.3334H41.1239ZM34 18.6667H37.5626V22.2214H34V18.6667Z" fill="#FF8800"></path></svg> 