<?xml version="1.0" encoding="UTF-8"?> <svg xmlns="http://www.w3.org/2000/svg" width="198" height="48" viewBox="0 0 198 48" fill="none"><path d="M132.898 4.28418C128.764 4.28418 125.41 7.63889 125.41 11.7738C125.41 15.9086 128.764 19.2633 132.898 19.2633C137.032 19.2633 140.386 15.9086 140.386 11.7738C140.386 7.63889 137.032 4.28418 132.898 4.28418ZM136.382 16.7668C137.214 15.7006 137.734 14.3483 137.734 12.892C137.734 9.84935 135.55 7.30081 132.664 6.72869C132.95 6.36462 133.236 6.00054 133.574 5.66247C136.538 6.15657 138.8 8.73112 138.8 11.8258C138.774 13.8282 137.838 15.5966 136.382 16.7668Z" fill="#BA4818"></path><path d="M140.802 3.50458C137.864 0.435931 133.834 -0.604289 128.738 0.331909C128.738 0.331909 122.602 1.78822 117.194 1.89224C114.88 1.94425 112.93 1.2421 111.292 0.878024C112.202 2.30832 113.58 3.29653 115.114 3.89466C116.57 4.44077 118.598 5.24694 117.688 6.65124C116.674 8.23757 115.114 6.91129 114.698 6.57322C113.242 5.48099 112.54 4.62281 109.94 3.08849C107.054 1.39813 103.024 1.34612 98.994 1.76221C98.994 1.76221 102.296 2.46436 103.778 3.94667C103.778 3.94667 97.382 2.6464 93.222 4.67482C99.28 4.90887 105.936 5.87107 107.08 6.36518C108.224 6.85928 107.652 7.27537 106.56 7.50942C103.856 8.08154 98.89 8.28958 95.796 7.4054C91.35 6.13113 87.58 2.41235 81.21 3.42656C86.826 4.59681 89.816 9.87592 95.952 11.1242C102.088 12.3724 106.196 9.92793 107.6 9.58986C109.004 9.25179 110.226 9.71988 110.564 10.6821C110.876 11.6443 109.654 12.8145 107.99 13.1266C106.742 13.3607 106.326 13.3867 104.09 13.6207C99.41 14.1148 96.03 13.5167 93.04 12.7105C87.32 11.2022 83.368 7.4314 81.496 6.44319C79.598 5.42898 77.518 4.96088 75.906 4.72683C75.906 4.72683 79 6.33917 80.17 8.31559C77.414 7.24936 73.332 6.62523 68.002 7.71746C65.168 8.26358 59.734 9.56385 53 12.2164C56.354 13.2046 60.618 12.4505 62.464 12.2944C72.5 11.4883 75.854 13.6987 79.026 14.817C88.802 18.3017 92.156 15.155 92.832 16.1952C93.3 16.9234 90.18 18.2237 89.322 18.3797C84.928 19.2119 82.77 18.4317 78.688 17.4435C80.716 19.4719 84.564 20.9282 88.958 20.7462C93.43 20.5122 98.136 19.836 101.88 18.2497C106.3 16.3773 108.146 15.8052 110.122 15.207C110.98 14.973 114.022 14.1668 114.672 14.999C115.036 15.4671 114.438 15.8832 113.476 16.2733C112.722 16.5853 111.734 16.9234 110.798 17.2875C108.64 18.1197 104.584 19.628 103.284 20.6942C103.284 20.6942 109.004 19.81 114.568 19.81C120.132 19.81 123.954 20.9803 128.166 22.5666C132.69 24.2309 136.616 23.6588 139.996 20.8502C143.012 18.3277 144.468 15.3371 144.39 11.9043C144.286 8.60165 143.064 5.79306 140.802 3.50458ZM132.898 21.2663C127.646 21.2663 123.408 17.0274 123.408 11.7743C123.408 6.52121 127.646 2.28232 132.898 2.28232C138.15 2.28232 142.388 6.52121 142.388 11.7743C142.388 17.0274 138.15 21.2663 132.898 21.2663Z" fill="#BA4818"></path><path d="M94.7102 33.723H74.5602L69.3862 47.974H73.3122L77.2382 37.1557H82.1522C82.6982 37.1557 82.9842 37.5978 82.7762 38.144L79.1882 47.974H83.1402L86.7282 38.144C86.9362 37.5978 87.5342 37.1557 88.0802 37.1557H91.9802C92.5262 37.1557 92.8122 37.5978 92.6042 38.144L89.0162 47.974H92.9422L97.0502 36.6616C97.6742 35.0493 96.6082 33.723 94.7102 33.723Z" fill="#BA4818"></path><path d="M122.088 43.5531C121.88 44.0992 121.282 44.5413 120.736 44.5413H115.822C115.276 44.5413 114.99 44.0992 115.198 43.5531L118.786 33.723H114.86L110.752 45.0354C110.154 46.6738 111.22 47.974 113.118 47.974H121.958C123.31 47.974 124.74 47.0898 125.13 45.9976L129.602 33.723H125.676L122.088 43.5531Z" fill="#BA4818"></path><path d="M56.7498 43.5531L57.1138 42.5649H68.9178L70.1658 39.1322L71.0498 36.6876C71.6478 35.0493 70.5818 33.749 68.6838 33.749H58.8298C57.4778 33.749 56.0478 34.6332 55.6578 35.7254L52.2518 45.0614C51.6538 46.6997 52.7198 48 54.6178 48H66.8898L68.1378 44.5673H57.3218C56.8278 44.5413 56.5418 44.0992 56.7498 43.5531ZM58.6998 38.17C58.9078 37.6238 59.5058 37.1817 60.0518 37.1817H65.9538C66.4998 37.1817 66.7858 37.6238 66.5778 38.17L66.2138 39.1582H58.3618L58.6998 38.17Z" fill="#BA4818"></path><path d="M160.074 33.723L158.098 39.1322H151.234L153.184 33.723H149.258L144.084 48H148.01L149.96 42.5909H156.85L154.874 48H158.826L164 33.723H160.074Z" fill="#BA4818"></path><path d="M99.8841 35.6994L95.4121 47.974H99.3381L102.926 38.144C103.134 37.5978 103.732 37.1557 104.278 37.1557H111.168L112.416 33.723H103.082C101.704 33.723 100.3 34.6072 99.8841 35.6994Z" fill="#BA4818"></path><path d="M38.472 35.6995L37.042 39.6263C36.444 41.2647 37.51 42.565 39.408 42.565H45.804C46.35 42.565 46.636 43.007 46.428 43.5532C46.22 44.0993 45.622 44.5414 45.076 44.5414H35.248L34 48.0001H46.272C47.624 48.0001 49.054 47.1159 49.444 46.0237L50.874 42.0969C51.472 40.4585 50.406 39.1582 48.508 39.1582H42.138C41.592 39.1582 41.306 38.7161 41.514 38.17C41.722 37.6239 42.32 37.1818 42.866 37.1818H52.694L53.942 33.7491H41.644C40.292 33.7231 38.862 34.6073 38.472 35.6995Z" fill="#BA4818"></path><path d="M131.344 35.6994L129.914 39.6263C129.316 41.2646 130.382 42.5649 132.28 42.5649H138.676C139.222 42.5649 139.508 43.007 139.3 43.5531C139.092 44.0992 138.494 44.5413 137.948 44.5413H128.12L126.872 47.974H139.144C140.496 47.974 141.926 47.0898 142.316 45.9976L143.746 42.0708C144.344 40.4324 143.278 39.1322 141.38 39.1322H134.984C134.438 39.1322 134.152 38.6901 134.36 38.144C134.568 37.5978 135.166 37.1557 135.712 37.1557H145.54L146.788 33.723H134.516C133.164 33.723 131.734 34.6072 131.344 35.6994Z" fill="#BA4818"></path></svg> 