<?xml version="1.0" encoding="UTF-8"?> <svg xmlns="http://www.w3.org/2000/svg" width="198" height="44" viewBox="0 0 198 44" fill="none"><g clip-path="url(#clip0)"><path fill-rule="evenodd" clip-rule="evenodd" d="M43.885 12.5443C42.6654 13.0113 41.7222 13.6624 41.0542 14.4989C40.3874 15.3373 40.0527 16.3046 40.0527 17.3983C40.0527 19.597 41.3926 21.3256 44.0685 22.584C44.8924 22.9712 45.9499 23.3763 47.2465 23.7907C48.542 24.209 49.4487 24.6103 49.9628 25.0003C50.4797 25.3894 50.7353 25.9311 50.7353 26.629C50.7353 27.2441 50.4965 27.7217 50.019 28.0609C49.5407 28.4 48.8919 28.5705 48.0673 28.5705C46.7824 28.5705 45.8516 28.3192 45.2799 27.8174C44.7064 27.3156 44.421 26.5346 44.421 25.477H39.4282C39.4282 26.78 39.7716 27.9308 40.4563 28.9318C41.142 29.9311 42.1642 30.7189 43.5229 31.2926C44.8789 31.868 46.3952 32.1556 48.0692 32.1556C50.4435 32.1556 52.3121 31.664 53.6732 30.6774C55.0351 29.6882 55.714 28.3301 55.714 26.6023C55.714 24.4403 54.5997 22.7421 52.3668 21.5126C51.4503 21.0058 50.278 20.532 48.8483 20.094C47.4227 19.654 46.4242 19.2303 45.8558 18.8176C45.2875 18.406 45.0053 17.9464 45.0053 17.4386C45.0053 16.8602 45.2629 16.3826 45.778 16.0077C46.294 15.6318 46.9954 15.4434 47.8853 15.4434C48.7646 15.4434 49.4632 15.6657 49.9781 16.1093C50.4923 16.5531 50.7518 17.1767 50.7518 17.9822H55.714C55.714 16.7799 55.3894 15.707 54.7362 14.7719C54.084 13.8352 53.1685 13.1137 51.9913 12.6069C50.812 12.0995 49.4817 11.8462 47.9971 11.8462C46.4757 11.8462 45.1042 12.0789 43.8847 12.5443H43.885ZM61.714 11.8462V32.1539H75.4018V28.387H66.5041V23.5341H74.038V19.9085H66.5037V15.6257H75.4283V11.8462H61.714ZM81.4284 11.8462V32.1539H86.2984V24.9714H88.9321L92.4987 32.1539H97.7141V31.9439L93.4983 23.7441C94.709 23.1682 95.5974 22.4172 96.1667 21.488C96.735 20.5581 97.0196 19.387 97.0196 17.9765C97.0196 16.0253 96.3442 14.5157 94.9945 13.4479C93.6444 12.3801 91.7724 11.8462 89.3784 11.8462H81.4284ZM86.2984 15.6122H89.3778C90.2924 15.6122 90.986 15.8599 91.4578 16.3603C91.9305 16.8587 92.1658 17.5466 92.1658 18.4224C92.1658 19.2982 91.9334 19.9802 91.4645 20.4693C90.9976 20.96 90.302 21.2046 89.3778 21.2046H86.2984V15.6116V15.6122ZM102.857 11.8462V32.1539H107.844V25.2628H111.03C113.547 25.2628 115.53 24.6703 116.975 23.4857C118.419 22.3011 119.143 20.7167 119.143 18.7364C119.143 17.397 118.81 16.1996 118.14 15.1447C117.472 14.0887 116.53 13.2757 115.313 12.7047C114.095 12.1317 112.694 11.8462 111.113 11.8462H102.857ZM107.844 15.6257H111.17C112.07 15.6353 112.78 15.9238 113.301 16.49C113.822 17.0586 114.082 17.815 114.082 18.7627C114.082 19.6292 113.83 20.2985 113.323 20.7732C112.815 21.2479 112.079 21.4848 111.113 21.4848H107.844V15.626L107.844 15.6257Z" fill="#004683"></path><path fill-rule="evenodd" clip-rule="evenodd" d="M127.025 12.5443C125.805 13.0113 124.863 13.6624 124.196 14.4989C123.527 15.3373 123.195 16.3046 123.195 17.3983C123.195 19.597 124.533 21.3256 127.209 22.584C128.032 22.9712 129.092 23.3763 130.387 23.7907C131.682 24.209 132.587 24.6103 133.103 25.0003C133.618 25.3894 133.877 25.9311 133.877 26.629C133.877 27.2441 133.638 27.7217 133.16 28.0609C132.681 28.4 132.033 28.5705 131.21 28.5705C129.923 28.5705 128.996 28.3192 128.422 27.8174C127.851 27.3156 127.564 26.5346 127.564 25.477H122.571C122.571 26.78 122.915 27.9308 123.599 28.9318C124.286 29.9311 125.307 30.7189 126.665 31.2926C128.02 31.868 129.536 32.1556 131.21 32.1556C133.584 32.1556 135.451 31.664 136.814 30.6774C138.176 29.6882 138.857 28.3301 138.857 26.6023C138.857 24.4403 137.74 22.7419 135.51 21.5126C134.591 21.0058 133.418 20.532 131.991 20.0939C130.563 19.6539 129.564 19.2302 128.998 18.8176C128.431 18.4055 128.147 17.946 128.147 17.4383C128.147 16.8596 128.403 16.3823 128.919 16.0075C129.434 15.6309 130.137 15.4431 131.026 15.4431C131.906 15.4431 132.602 15.6656 133.12 16.109C133.633 16.5524 133.891 17.176 133.891 17.9816H138.855C138.855 16.7792 138.529 15.7063 137.877 14.7713C137.225 13.8346 136.31 13.1128 135.132 12.606C133.954 12.0991 132.623 11.8462 131.141 11.8462C129.617 11.8462 128.244 12.0789 127.025 12.5443ZM142.286 11.8462V15.6257H148.329V32.1539H153.273V15.6257H159.429V11.8462H142.286ZM167.794 11.8462L160.286 32.1539H165.559L166.74 28.3599H173.503L174.699 32.1539H180L172.434 11.8462H167.794H167.794ZM170.114 17.5362L172.322 24.5805H167.921L170.114 17.5362H170.114ZM180.857 11.8462V15.6257H186.901V32.1539H191.845V15.6257H198V11.8462" fill="#006EC2"></path><path fill-rule="evenodd" clip-rule="evenodd" d="M31.0708 11H11.0417L11.0428 11.0047C10.7011 11.018 10.4267 11.2924 10.4267 11.6326C10.4267 11.8128 10.5045 11.9734 10.6273 12.0883L10.6244 12.0912L14.9598 16.3429C15.2118 16.5909 15.2118 16.9945 14.9607 17.2424L7.82666 24.2443C7.64323 24.4257 7.6878 24.7315 7.9158 24.8531L8.80294 25.3278C8.9658 25.415 9.22123 25.3972 9.38066 25.3033C9.60095 25.173 9.85723 25.0968 10.1324 25.0968C10.3209 25.0968 10.4992 25.1349 10.6647 25.2001C10.7572 25.2373 10.8635 25.2254 10.9381 25.1586L12.631 23.644C12.6292 23.6127 12.6215 23.5822 12.6215 23.5501C12.6215 22.7428 13.2824 22.0879 14.0975 22.0879C14.7841 22.0879 15.3567 22.5533 15.5213 23.182L17.1627 23.8716C17.2133 23.8919 17.269 23.8834 17.3153 23.853C17.5518 23.6897 17.8381 23.5915 18.1475 23.5915C18.2941 23.5915 18.4364 23.6152 18.5701 23.6558C18.6201 23.6719 18.6738 23.6601 18.7121 23.6245L21.5476 20.8906C21.5887 20.8517 21.6097 20.7933 21.6088 20.7374C21.5839 19.3015 22.6556 19.1351 23.0768 19.1213C23.7162 19.0976 24.2537 19.5334 24.4522 20.1045C24.4726 20.1587 24.5139 20.2035 24.5696 20.223L26.3658 20.8305C26.4339 20.8542 26.5059 20.8353 26.5595 20.7888C26.8207 20.5553 27.1651 20.4119 27.5441 20.4119C27.6787 20.4119 27.9127 20.4957 28.0489 20.3493L31.613 16.7549C31.6749 16.6931 31.7098 16.6093 31.7098 16.5208V11.6363C31.7137 11.2849 31.4257 11 31.0708 11Z" fill="#004683"></path><path fill-rule="evenodd" clip-rule="evenodd" d="M31.7032 19.6759C31.7032 19.4845 31.468 19.3888 31.3326 19.5267L29.0341 21.8432C28.9838 21.8929 28.9644 21.9648 28.9761 22.0347C29.035 22.4156 28.9567 22.8416 28.4449 23.3107C28.1751 23.5586 27.8316 23.729 27.463 23.7204C26.8622 23.7041 26.3563 23.3337 26.1357 22.8138C26.1126 22.7593 26.0689 22.7143 26.0109 22.6942L24.1119 22.05C24.0461 22.028 23.9756 22.0449 23.9204 22.0889C23.6649 22.2937 23.3409 22.4181 22.9869 22.4181C22.8262 22.4181 22.6743 22.3868 22.5292 22.3394C22.5292 22.3394 20.3624 24.4141 19.5922 25.1638C19.4983 25.2569 19.4974 25.2637 19.5187 25.4507C19.5187 26.2647 18.8531 26.9238 18.0298 26.9238C17.3343 26.9238 16.7539 26.4508 16.5904 25.8137C16.5733 25.7485 16.5304 25.6935 16.4678 25.6664L15.0578 25.075C14.9867 25.0437 14.9061 25.0589 14.8435 25.1063C14.5941 25.295 14.2847 25.4101 13.9478 25.4101C13.7875 25.4101 13.6324 25.3847 13.4875 25.3364C13.4018 25.3085 13.3075 25.3229 13.2398 25.3821L11.5238 26.9171C11.4655 26.9687 11.4347 27.0406 11.4261 27.1176C11.3507 27.8605 10.7198 28.441 9.94837 28.441C9.35094 28.441 8.84094 28.0907 8.60437 27.5872C8.54265 27.4552 8.42865 27.3554 8.30094 27.286L6.36893 26.2537C6.21722 26.1724 6.03036 26.2004 5.90865 26.3197L0.190544 31.9084L0.188487 31.9104L0.180773 31.918L0.18283 31.9188C0.070544 32.0339 9.34966e-07 32.1888 9.34966e-07 32.3614C-0.000599067 32.7137 0.287659 33 0.645689 33H19.3966C19.7556 33 20.2576 32.796 20.513 32.5463L20.8808 32.1854L20.8913 32.1748L25.2919 27.8605C25.5465 27.6117 25.9613 27.6117 26.2159 27.8605L30.604 32.1657C30.7221 32.2859 30.8846 32.3612 31.0674 32.3612C31.4231 32.3612 31.7137 32.0761 31.7137 31.7241L31.7026 19.6774L31.7032 19.6759Z" fill="#006EC2"></path></g><defs><clipPath id="clip0"><rect width="198" height="44" fill="white"></rect></clipPath></defs></svg> 