<?xml version="1.0" encoding="UTF-8"?> <svg xmlns="http://www.w3.org/2000/svg" width="198" height="57" viewBox="0 0 198 57" fill="none"><g clip-path="url(#clip0)"><path d="M42.7089 10.6399C42.6706 10.3608 42.4268 10.206 42.2245 10.1892C42.0237 10.1723 38.09 10.1126 38.09 10.1126C38.09 10.1126 34.8002 6.9178 34.4752 6.5928C34.1503 6.26781 33.5156 6.36592 33.2688 6.4395C33.2657 6.44104 32.651 6.63113 31.6163 6.95152C31.443 6.39045 31.1885 5.7006 30.8252 5.0077C29.654 2.77261 27.9386 1.59068 25.866 1.58762C25.8629 1.58762 25.8614 1.58762 25.8583 1.58762C25.7142 1.58762 25.5717 1.60141 25.4276 1.61367C25.3663 1.54009 25.305 1.46805 25.2406 1.39752C24.3376 0.431746 23.1803 -0.0388799 21.7929 0.00251057C19.1163 0.0791597 16.4505 2.01225 14.289 5.44613C12.7682 7.86211 11.6108 10.8975 11.2828 13.2475C8.20913 14.1995 6.05988 14.8647 6.01236 14.8801C4.46098 15.3676 4.41193 15.4151 4.20957 16.8776C4.05934 17.9828 0 49.3723 0 49.3723L34.0184 55.2558L48.7626 51.5904C48.7626 51.5904 42.7472 10.9189 42.7089 10.6399ZM29.9131 7.47886C29.1298 7.72108 28.239 7.99702 27.2733 8.29595C27.2534 6.94079 27.0924 5.05523 26.4608 3.42566C28.492 3.81044 29.4915 6.10838 29.9131 7.47886ZM25.4935 8.84782C23.7106 9.39966 21.7653 10.0021 19.8138 10.6062C20.3626 8.50443 21.4035 6.41191 22.6821 5.03989C23.1573 4.52941 23.8225 3.96067 24.6105 3.63568C25.3509 5.18092 25.5119 7.36849 25.4935 8.84782ZM21.8465 1.78383C22.475 1.77004 23.0039 1.90801 23.4562 2.20541C22.7326 2.58099 22.0335 3.1206 21.3775 3.82424C19.6773 5.64849 18.3743 8.47991 17.8546 11.2117C16.2343 11.7129 14.6491 12.2051 13.1897 12.6558C14.1111 8.35574 17.7151 1.90341 21.8465 1.78383Z" fill="#95BF47"></path><path d="M42.2259 10.1907C42.0252 10.1739 38.0915 10.1141 38.0915 10.1141C38.0915 10.1141 34.8018 6.91935 34.4768 6.59436C34.3557 6.47325 34.1917 6.4104 34.0199 6.38435L34.0215 55.2543L48.7642 51.5905C48.7642 51.5905 42.7487 10.9205 42.7104 10.6414C42.672 10.3624 42.4268 10.2076 42.2259 10.1907Z" fill="#5E8E3E"></path><path d="M25.8476 17.7714L24.1353 24.1776C24.1353 24.1776 22.2252 23.3085 19.961 23.451C16.6405 23.6611 16.6052 25.7551 16.639 26.281C16.8199 29.1461 24.3575 29.7716 24.7807 36.4829C25.1133 41.7625 21.9798 45.3742 17.4653 45.6593C12.0461 46.0012 9.06296 42.8049 9.06296 42.8049L10.2112 37.9209C10.2112 37.9209 13.2142 40.1866 15.618 40.0349C17.1878 39.9352 17.7488 38.6583 17.6921 37.7553C17.456 34.0179 11.318 34.2386 10.9302 28.0975C10.6036 22.9299 13.9977 17.6932 21.4862 17.221C24.3713 17.0355 25.8476 17.7714 25.8476 17.7714Z" fill="white"></path><path d="M68.1785 31.1861C66.4832 30.2662 65.6119 29.4908 65.6119 28.4249C65.6119 27.0686 66.8221 26.1973 68.7122 26.1973C70.9123 26.1973 72.8767 27.1173 72.8767 27.1173L74.4261 22.3703C74.4261 22.3703 73.0014 21.2558 68.8079 21.2558C62.9723 21.2558 58.9278 24.5978 58.9278 29.2961C58.9278 31.96 60.8163 33.9944 63.3357 35.4464C65.3701 36.6081 66.0969 37.4322 66.0969 38.6425C66.0969 39.9015 65.0797 40.9187 63.1913 40.9187C60.3768 40.9187 57.719 39.4651 57.719 39.4651L56.0724 44.212C56.0724 44.212 58.528 45.8587 62.6591 45.8587C68.665 45.8587 72.9756 42.9044 72.9756 37.5766C72.9741 34.7212 70.7952 32.6868 68.1785 31.1861Z" fill="black"></path><path d="M92.105 21.2087C89.1505 21.2087 86.8257 22.6136 85.0345 24.7438L84.9372 24.6951L87.5037 11.2799H80.8197L74.3303 45.4239H81.0143L83.2419 33.7526C84.1131 29.3448 86.3892 26.6338 88.521 26.6338C90.0217 26.6338 90.6041 27.6509 90.6041 29.1045C90.6041 30.0244 90.5067 31.139 90.3136 32.0589L87.7957 45.4254H94.4801L97.0946 31.6224C97.3856 30.1688 97.5799 28.4264 97.5799 27.2632C97.5772 23.4848 95.5916 21.2087 92.105 21.2087Z" fill="black"></path><path d="M112.688 21.2087C104.647 21.2087 99.3214 28.4736 99.3214 36.561C99.3214 41.7428 102.517 45.9075 108.523 45.9075C116.418 45.9075 121.745 38.8372 121.745 30.5551C121.745 25.761 118.935 21.2087 112.688 21.2087ZM109.395 40.7758C107.118 40.7758 106.149 38.8387 106.149 36.4165C106.149 32.591 108.136 26.3434 111.768 26.3434C114.141 26.3434 114.915 28.3777 114.915 30.3635C114.915 34.4794 112.931 40.7758 109.395 40.7758Z" fill="black"></path><path d="M138.841 21.2087C134.33 21.2087 131.769 25.1802 131.769 25.1802H131.674L132.061 21.5964H126.153C125.863 24.0185 125.328 27.6981 124.797 30.4593L120.147 54.9163H126.831L128.671 45.0362H128.817C128.817 45.0362 130.188 45.9075 132.74 45.9075C140.586 45.9075 145.719 37.8687 145.719 29.731C145.719 25.2289 143.732 21.2087 138.841 21.2087ZM132.448 40.8715C130.713 40.8715 129.686 39.903 129.686 39.903L130.801 33.6554C131.576 29.4908 133.755 26.7295 136.08 26.7295C138.115 26.7295 138.744 28.618 138.744 30.4107C138.744 34.7212 136.177 40.8715 132.448 40.8715Z" fill="black"></path><path d="M155.26 11.619C153.13 11.619 151.434 13.3144 151.434 15.4932C151.434 17.479 152.693 18.8352 154.582 18.8352H154.679C156.762 18.8352 158.553 17.4303 158.602 14.9611C158.602 13.0239 157.294 11.619 155.26 11.619Z" fill="black"></path><path d="M145.913 45.4239H152.595L157.149 21.7423H150.416L145.913 45.4239Z" fill="black"></path><path d="M174.149 21.6937H169.499L169.74 20.5792C170.128 18.303 171.485 16.2686 173.712 16.2686C174.901 16.2686 175.842 16.6077 175.842 16.6077L177.15 11.3773C177.15 11.3773 175.988 10.7964 173.517 10.7964C171.144 10.7964 168.772 11.4745 166.979 13.0239C164.703 14.9611 163.637 17.7693 163.105 20.5792L162.913 21.6937H159.812L158.843 26.7311H161.944L158.408 45.4254H165.092L168.628 26.7311H173.229L174.149 21.6937Z" fill="black"></path><path d="M190.227 21.7424C190.227 21.7424 186.049 32.2687 184.173 38.0146H184.076C183.948 36.1642 182.429 21.7424 182.429 21.7424H175.406L179.428 43.4868C179.525 43.9704 179.476 44.2623 179.282 44.6013C178.506 46.102 177.199 47.5556 175.649 48.6215C174.39 49.5413 172.986 50.1222 171.872 50.5099L173.712 56.1767C175.069 55.8864 177.877 54.7719 180.25 52.5443C183.302 49.6873 186.11 45.2795 189.015 39.2735L197.201 21.7409H190.227V21.7424Z" fill="black"></path></g><defs><clipPath id="clip0"><rect width="198" height="56.1767" fill="white"></rect></clipPath></defs></svg> 