<?xml version="1.0" encoding="UTF-8"?> <svg xmlns="http://www.w3.org/2000/svg" width="179" height="48" viewBox="0 0 179 48" fill="none"><path d="M25.2102 21.2963V37.9376H22.1016V20.1287L25.2102 21.2963Z" fill="black"></path><path d="M12.7915 19.7446C12.7915 15.4893 15.1151 13.1696 17.8391 13.1696C20.563 13.1696 20.9477 13.5615 24.0406 15.1053C27.1335 16.6491 27.9185 17.041 29.4728 17.041C31.0271 17.041 31.7964 15.8655 31.7964 13.5536H34.5047C34.8972 18.193 32.1811 20.1286 29.4571 20.1286C26.7331 20.1286 25.9638 19.7368 23.2556 18.193C20.5473 16.6491 19.7623 16.2573 18.208 16.2573C16.6537 16.2573 15.8844 17.4328 15.4998 20.1286L12.7915 19.7446Z" fill="black"></path><path d="M24.0407 48C19.2859 48 14.6379 46.5924 10.6844 43.9553C6.73094 41.3181 3.64958 37.5698 1.83 33.1844C0.0104165 28.799 -0.465669 23.9734 0.461946 19.3178C1.38956 14.6623 3.67921 10.3859 7.04136 7.02945C10.4035 3.67299 14.6872 1.38721 19.3506 0.461164C24.014 -0.464881 28.8478 0.0103989 33.2407 1.8269C37.6335 3.64341 41.3882 6.71955 44.0298 10.6663C46.6714 14.6131 48.0814 19.2533 48.0814 24C48.0741 30.363 45.5389 36.4633 41.032 40.9626C36.5251 45.4619 30.4144 47.9928 24.0407 48ZM24.0407 1.56736C19.5933 1.56736 15.2458 2.88393 11.5479 5.35058C7.85006 7.81724 4.96793 11.3232 3.26599 15.4251C1.56405 19.527 1.11874 24.0406 1.98638 28.3951C2.85403 32.7497 4.99565 36.7496 8.14042 39.8891C11.2852 43.0285 15.2919 45.1665 19.6538 46.0327C24.0157 46.8988 28.537 46.4543 32.6459 44.7552C36.7547 43.0562 40.2666 40.1789 42.7374 36.4873C45.2083 32.7957 46.5271 28.4555 46.5271 24.0157C46.5229 18.0633 44.1525 12.3559 39.9364 8.14691C35.7203 3.93793 30.0032 1.57151 24.0407 1.56736Z" fill="black"></path><path d="M63.3342 20.3011V31.9974H61.878V20.3011H58.6987V18.9297H66.5134V20.3011H63.3342Z" fill="black"></path><path d="M69.08 19.7877C69.2789 19.787 69.4735 19.8451 69.6393 19.9549C69.805 20.0646 69.9344 20.221 70.0111 20.4042C70.0877 20.5875 70.1082 20.7893 70.0699 20.9841C70.0315 21.179 69.9361 21.3581 69.7958 21.4987C69.6554 21.6394 69.4764 21.7353 69.2814 21.7744C69.0864 21.8134 68.8841 21.7938 68.7003 21.7179C68.5165 21.6421 68.3593 21.5136 68.2487 21.3485C68.1381 21.1835 68.0791 20.9894 68.0791 20.7908C68.0801 20.5258 68.1858 20.2718 68.3731 20.084C68.5605 19.8963 68.8145 19.7898 69.08 19.7877ZM69.7865 23.8667V31.9974H68.3735V23.8667H69.7865Z" fill="black"></path><path d="M74.1239 17.7111V31.9974H72.7109V17.7111H74.1239Z" fill="black"></path><path d="M83.2886 17.7111H84.7016V31.9974H83.2886V30.8611C82.9647 31.2922 82.5436 31.6411 82.0595 31.8794C81.5753 32.1177 81.0416 32.2387 80.5019 32.2325C78.4412 32.2325 76.5376 30.7827 76.5376 27.9223C76.5376 25.0619 78.4216 23.6709 80.5019 23.6709C81.0408 23.6571 81.5753 23.7726 82.0602 24.0079C82.5451 24.2431 82.9664 24.5912 83.2886 25.0227V17.7111ZM77.9898 27.9223C77.9898 29.666 78.9711 30.9786 80.6589 30.9786C82.3466 30.9786 83.3671 29.5484 83.3671 27.9419C83.3671 25.8456 81.9149 24.9248 80.6589 24.9248C79.2851 24.9248 77.9898 25.9435 77.9898 27.9223Z" fill="black"></path><path d="M93.8667 23.8668H95.2797V31.9974H93.8667V30.8611C93.5429 31.2923 93.1218 31.6411 92.6376 31.8794C92.1534 32.1177 91.6198 32.2387 91.08 32.2325C89.0194 32.2325 87.1157 30.7827 87.1157 27.9223C87.1157 25.0619 88.9997 23.6709 91.08 23.6709C91.619 23.6571 92.1534 23.7726 92.6383 24.0079C93.1233 24.2431 93.5445 24.5912 93.8667 25.0227V23.8668ZM88.568 27.9223C88.568 29.666 89.5492 30.9787 91.237 30.9787C92.9247 30.9787 93.9452 29.5485 93.9452 27.9419C93.9452 25.8456 92.493 24.9248 91.237 24.9248C89.8436 24.9248 88.568 25.9436 88.568 27.9223Z" fill="black"></path><path d="M105.759 18.9297C107.074 18.9297 108.173 19.0825 109.056 19.8505C109.443 20.2053 109.749 20.6393 109.952 21.1228C110.155 21.6064 110.251 22.128 110.234 22.6521C110.234 24.4938 109.076 26.3158 106.093 26.3158H104.837V31.9974H103.385V18.9297H105.759ZM104.837 24.9444H106.015C107.742 24.9444 108.782 24.0823 108.782 22.5934C108.782 20.5166 106.839 20.3207 105.897 20.3207H104.837V24.9444Z" fill="black"></path><path d="M113.649 28.6041C113.649 29.1723 113.649 29.8384 114.041 30.3478C114.225 30.5435 114.447 30.6996 114.693 30.8063C114.94 30.9129 115.205 30.968 115.474 30.968C115.743 30.968 116.008 30.9129 116.255 30.8063C116.501 30.6996 116.723 30.5435 116.907 30.3478C117.299 29.8384 117.299 29.1723 117.299 28.6041V23.8668H118.712V28.7648C118.712 29.764 118.614 30.5085 117.966 31.2138C117.302 31.867 116.407 32.2332 115.474 32.2332C114.541 32.2332 113.646 31.867 112.982 31.2138C112.334 30.5085 112.236 29.764 112.236 28.7648V23.8668H113.649V28.6041Z" fill="black"></path><path d="M123.049 31.9974H121.636V17.7111H123.049V25.0031C123.38 24.5831 123.804 24.2445 124.287 24.0135C124.77 23.7826 125.3 23.6653 125.835 23.6709C128.387 23.6709 129.8 25.7868 129.8 27.9811C129.8 30.1754 128.367 32.2325 125.894 32.2325C125.345 32.2461 124.8 32.1288 124.305 31.8903C123.811 31.6518 123.38 31.299 123.049 30.8611V31.9974ZM128.347 27.9811C128.347 25.9827 126.993 24.9248 125.678 24.9248C124.364 24.9248 122.97 26.0023 122.97 27.9615C122.97 29.6268 124.03 30.9787 125.698 30.9787C127.366 30.9787 128.347 29.6072 128.347 27.9811Z" fill="black"></path><path d="M133.627 17.7111V31.9974H132.214V17.7111H133.627Z" fill="black"></path><path d="M137.258 19.7877C137.457 19.787 137.651 19.8451 137.817 19.9549C137.983 20.0646 138.112 20.221 138.189 20.4042C138.265 20.5875 138.286 20.7893 138.248 20.9841C138.209 21.179 138.114 21.3581 137.974 21.4987C137.833 21.6394 137.654 21.7353 137.459 21.7744C137.264 21.8134 137.062 21.7938 136.878 21.7179C136.694 21.6421 136.537 21.5136 136.426 21.3485C136.316 21.1835 136.257 20.9894 136.257 20.7908C136.258 20.5258 136.364 20.2718 136.551 20.084C136.738 19.8963 136.992 19.7898 137.258 19.7877ZM137.964 23.8667V31.9974H136.551V23.8667H137.964Z" fill="black"></path><path d="M144.244 25.7476C144.159 25.5122 144.005 25.3078 143.802 25.161C143.599 25.0143 143.356 24.9319 143.106 24.9247C142.978 24.9128 142.849 24.9285 142.727 24.9707C142.605 25.013 142.494 25.0808 142.401 25.1696C142.308 25.2584 142.235 25.3661 142.188 25.4854C142.14 25.6047 142.118 25.7329 142.125 25.8612C142.125 26.449 142.517 26.6449 143.44 27.0367C144.617 27.5265 145.166 27.8988 145.48 28.2906C145.782 28.6597 145.936 29.1274 145.912 29.6033C145.912 31.3078 144.676 32.2678 143.106 32.2678C142.469 32.2796 141.847 32.083 141.333 31.708C140.819 31.3329 140.442 30.8001 140.26 30.191L141.477 29.6816C141.634 30.1127 142.105 31.0139 143.125 31.0139C143.3 31.0237 143.475 30.9973 143.638 30.9363C143.802 30.8753 143.951 30.7811 144.077 30.6595C144.202 30.538 144.301 30.3919 144.367 30.2303C144.433 30.0687 144.465 29.8952 144.46 29.7208C144.46 28.9371 143.911 28.702 143.145 28.369C142.164 27.938 141.536 27.6245 141.163 27.1935C140.897 26.8539 140.764 26.4288 140.79 25.9984C140.79 24.5682 141.791 23.7257 143.165 23.7257C143.643 23.7148 144.113 23.8495 144.513 24.112C144.913 24.3745 145.223 24.7523 145.402 25.1951L144.244 25.7476Z" fill="black"></path><path d="M148.051 17.7111H149.464V24.8072C149.737 24.448 150.09 24.1579 150.496 23.9605C150.902 23.7631 151.348 23.6639 151.8 23.6709C152.251 23.6511 152.7 23.7426 153.107 23.9374C153.515 24.1322 153.868 24.4242 154.135 24.7876C154.547 25.395 154.606 26.0611 154.606 26.9623V31.9974H153.193V27.0015C153.236 26.4778 153.105 25.9544 152.82 25.5125C152.66 25.3158 152.456 25.1599 152.224 25.0577C151.992 24.9555 151.739 24.9099 151.486 24.9248C151.215 24.9136 150.945 24.9643 150.697 25.0729C150.448 25.1816 150.228 25.3453 150.053 25.5517C149.504 26.1982 149.464 27.1582 149.464 27.746V31.9974H148.051V17.7111Z" fill="black"></path><path d="M158.237 19.7877C158.436 19.787 158.63 19.8451 158.796 19.9549C158.962 20.0646 159.091 20.221 159.168 20.4042C159.244 20.5875 159.265 20.7893 159.227 20.9841C159.188 21.179 159.093 21.3581 158.953 21.4987C158.812 21.6394 158.633 21.7353 158.438 21.7744C158.243 21.8134 158.041 21.7938 157.857 21.7179C157.673 21.6421 157.516 21.5136 157.405 21.3485C157.295 21.1835 157.236 20.9894 157.236 20.7908C157.237 20.5258 157.343 20.2718 157.53 20.084C157.717 19.8963 157.971 19.7898 158.237 19.7877ZM158.963 23.8667V31.9974H157.55V23.8667H158.963Z" fill="black"></path><path d="M161.867 23.8668H163.28V24.8072C163.553 24.448 163.906 24.1579 164.312 23.9605C164.718 23.763 165.164 23.6638 165.616 23.6709C166.067 23.651 166.516 23.7426 166.923 23.9373C167.331 24.1321 167.684 24.4242 167.951 24.7876C168.363 25.3949 168.422 26.0611 168.422 26.9623V31.9974H167.009V27.0015C167.052 26.4777 166.921 25.9544 166.636 25.5125C166.476 25.3158 166.272 25.1599 166.04 25.0577C165.808 24.9555 165.555 24.9099 165.302 24.9247C165.031 24.9136 164.761 24.9643 164.513 25.0729C164.264 25.1815 164.044 25.3453 163.869 25.5517C163.319 26.1982 163.28 27.1582 163.28 27.746V31.9974H161.867V23.8668Z" fill="black"></path><path d="M177.587 23.8668H179V31.8015C179 32.6832 179 33.937 178.215 34.995C177.83 35.4849 177.334 35.8769 176.767 36.1391C176.201 36.4013 175.581 36.5262 174.957 36.5036C174.425 36.5213 173.894 36.4334 173.395 36.2451C172.897 36.0568 172.441 35.7718 172.053 35.4064C171.711 35.0609 171.441 34.6508 171.259 34.2001C171.077 33.7494 170.987 33.267 170.993 32.7811H172.387C172.385 33.4001 172.608 33.9987 173.015 34.466C173.265 34.7305 173.571 34.9375 173.91 35.0728C174.248 35.2081 174.613 35.2685 174.977 35.2497C175.408 35.2834 175.839 35.1946 176.221 34.9934C176.603 34.7923 176.92 34.4872 177.136 34.1134C177.482 33.4784 177.639 32.7577 177.587 32.0366V30.8611C177.263 31.2923 176.842 31.6411 176.358 31.8794C175.874 32.1177 175.34 32.2387 174.8 32.2325C174.286 32.242 173.776 32.1499 173.297 31.9616C172.819 31.7733 172.383 31.4926 172.014 31.1354C171.613 30.7053 171.302 30.1995 171.1 29.6477C170.897 29.0959 170.808 28.5092 170.836 27.9223C170.808 27.3443 170.897 26.7666 171.1 26.2243C171.302 25.682 171.613 25.1865 172.014 24.7681C172.766 24.0572 173.765 23.6641 174.8 23.6709C175.339 23.6587 175.873 23.775 176.358 24.0101C176.842 24.2452 177.264 24.5924 177.587 25.0228V23.8668ZM173.113 25.6889C172.834 25.9884 172.618 26.34 172.477 26.7234C172.335 27.1067 172.271 27.5142 172.288 27.9223C172.265 28.3631 172.335 28.8039 172.494 29.2158C172.653 29.6277 172.897 30.0014 173.211 30.3125C173.683 30.755 174.31 30.9942 174.957 30.9787C175.286 30.9922 175.614 30.9383 175.921 30.8203C176.229 30.7024 176.508 30.5229 176.743 30.293C177.044 29.9809 177.281 29.6126 177.439 29.2091C177.597 28.8057 177.674 28.3751 177.666 27.9419C177.692 27.094 177.382 26.27 176.802 25.6497C176.307 25.1753 175.644 24.9148 174.957 24.9248C174.614 24.9202 174.273 24.9855 173.956 25.1169C173.639 25.2483 173.352 25.4429 173.113 25.6889Z" fill="black"></path></svg> 