<?xml version="1.0" encoding="UTF-8"?> <svg xmlns="http://www.w3.org/2000/svg" width="198" height="40" viewBox="0 0 198 40" fill="none"><path d="M5.30435 26.2502C3.72664 26.2502 2.4751 27.4588 2.4751 29.1069C2.4751 29.7668 2.60202 30.3575 2.9996 30.7821L8.88617 36.985C9.28787 37.4095 10.0485 37.5 10.6484 37.5C12.2013 37.5 13.6126 36.1253 13.6126 34.4815V28.9617C13.6116 27.3138 12.0646 26.25 10.5135 26.25C8.78621 26.2502 7.03276 26.2502 5.30435 26.2502Z" fill="#607081"></path><path d="M27.225 19.999C27.225 15.8542 23.9041 12.5 19.7995 12.5C15.6949 12.5 12.375 15.8519 12.375 19.999C12.375 24.146 15.6948 27.5 19.7995 27.5C23.9031 27.4989 27.225 24.1437 27.225 19.999ZM21.9645 15.625C23.1702 15.625 24.1313 16.5942 24.1313 17.8125C24.1313 19.0308 23.1722 20 21.9645 20C20.7588 20 19.8 19.0298 19.8 17.8125C19.7989 16.594 20.7567 15.625 21.9645 15.625Z" fill="#607081"></path><path d="M19.9114 0C9.06129 0 0 9.12698 0 20.0623V20.6555C0 22.5846 1.86543 24.173 3.7811 24.173C5.69793 24.173 7.56221 22.5868 7.56221 20.6555V20.0623C7.56221 13.0527 12.6585 7.35233 19.6139 7.35233C26.5684 7.35233 32.1751 12.8591 32.1751 19.8678C32.1751 26.8765 26.4665 32.3813 19.5121 32.3813H18.9223C17.0075 32.3813 15.8878 34.2616 15.8878 36.1916C15.8878 38.1216 17.4644 40 19.3802 40H19.97C30.8209 40 39.6 30.9354 39.6 20.0001C39.6 9.06669 30.8209 0 19.97 0H19.9114Z" fill="#607081"></path><path d="M63.118 29.3977C63.118 29.754 62.8345 30 62.5146 30L58.7612 30.0017C58.4058 30.0017 58.1578 29.7173 58.1578 29.3977L58.1626 15L52.5785 15.0039C52.2231 15.0039 51.9751 14.7196 51.9751 14.3989V11.856C51.9751 11.5009 52.2598 11.25 52.5785 11.25H68.6955C69.0509 11.25 69.2989 11.5358 69.2989 11.856V14.3989C69.2989 14.7554 69.0153 15.0039 68.6955 15.0039L63.1126 15L63.118 29.3977Z" fill="#607081"></path><path d="M172.978 34.4158C172.978 34.7593 172.706 35 172.402 35H168.873C168.535 35 168.3 34.7267 168.3 34.4158V17.1056C168.3 16.7643 168.57 16.5242 168.873 16.5242H172.402C172.639 16.5242 172.843 16.6593 172.943 16.8656C173.145 16.764 173.381 16.6593 173.616 16.5578C174.189 16.3526 174.795 16.25 175.47 16.25C176.339 16.25 177.137 16.3311 177.859 16.4917C179.127 16.7735 180.161 17.3002 180.934 18.0627C182.183 19.2617 182.79 21.0745 182.79 23.4369C182.79 24.5311 182.619 25.4882 182.284 26.3428C181.946 27.2004 181.408 27.9502 180.733 28.5662C180.058 29.1829 179.249 29.6279 178.305 29.9349C177.391 30.2437 176.349 30.3789 175.235 30.3789C174.697 30.3789 174.19 30.3454 173.652 30.2427C173.416 30.2072 173.177 30.1382 172.979 30.0701L172.978 30.0386L172.978 34.4158ZM172.94 26.4098C173.127 26.5146 173.351 26.587 173.577 26.6563C173.912 26.7622 174.246 26.7969 174.657 26.7969C175.447 26.7969 176.083 26.7255 176.608 26.585C177.094 26.4444 177.505 26.2326 177.806 25.9828C178.105 25.7384 178.331 25.3849 178.478 24.959C178.627 24.5016 178.741 23.9371 178.741 23.3012C178.741 22.6287 178.666 22.0632 178.515 21.6026C178.366 21.1799 178.177 20.8252 177.878 20.5788C177.618 20.3312 177.202 20.1191 176.717 19.9775C176.156 19.8369 175.48 19.7656 174.655 19.7656C174.282 19.7656 173.944 19.8358 173.646 19.9428C173.447 20.0142 173.212 20.1204 172.941 20.2617L172.94 26.4098Z" fill="#607081"></path><path d="M148.217 23.2819C148.526 23.5912 148.737 23.9028 148.875 24.2479C149.048 24.5942 149.119 24.9732 149.119 25.3533C149.119 26.1105 148.945 26.7682 148.632 27.3531C148.319 27.9401 147.831 28.4216 147.171 28.8356C146.58 29.2168 145.851 29.4923 145.017 29.6644C144.216 29.8375 143.313 29.9432 142.302 29.9432C139.976 29.9432 137.995 29.4576 136.392 28.4566C136.116 28.2836 136.046 27.9053 136.219 27.6278C136.219 27.595 136.252 27.595 136.252 27.595L137.922 25.3166C138.13 25.0421 138.475 25.0052 138.754 25.1803C139.278 25.5573 139.868 25.8698 140.495 26.0421C141.117 26.2522 141.812 26.3198 142.542 26.3198C143.797 26.3198 144.386 26.0084 144.386 25.3537C144.386 25.0085 144.245 24.7675 143.968 24.5965C143.586 24.3547 142.961 24.2513 142.092 24.2513C141.709 24.2513 141.36 24.2513 141.081 24.2513C140.804 24.2513 140.646 24.285 140.33 24.3189C140.021 24.3537 139.708 24.113 139.672 23.7676V21.4204C139.672 21.0752 139.952 20.8342 140.262 20.8342C140.296 20.8342 140.597 20.8342 140.909 20.8342C141.118 20.8342 141.605 20.8342 142.298 20.8342C142.962 20.8342 143.446 20.7318 143.723 20.5565H143.757C143.932 20.4531 144.037 20.2801 144.037 20.038C144.037 19.9346 144.001 19.8311 143.967 19.7277C143.931 19.6253 143.829 19.5567 143.723 19.4859C143.586 19.4174 143.445 19.3486 143.272 19.279H143.239C143.031 19.2462 142.787 19.2105 142.473 19.2105C141.883 19.2105 141.29 19.279 140.703 19.4174C140.112 19.5577 139.519 19.7986 138.927 20.1089C138.649 20.2472 138.268 20.1427 138.129 19.8672L136.913 17.5539C136.776 17.2784 136.88 16.8982 137.156 16.761C137.191 16.761 137.191 16.7272 137.225 16.7272C138.129 16.383 139.031 16.1063 139.936 15.9014C140.878 15.7284 141.781 15.625 142.682 15.625C143.554 15.625 144.317 15.7284 145.014 15.9014H145.047C145.744 16.0744 146.367 16.3481 146.926 16.7272C147.481 17.1075 147.899 17.5539 148.214 18.0375C148.523 18.557 148.662 19.1071 148.662 19.7288C148.662 20.904 148.176 21.8342 147.204 22.4539C147.692 22.8228 148.03 23.0988 148.217 23.2819Z" fill="#607081"></path><path d="M133.063 29.7237H129.669C129.323 29.7237 129.081 29.4455 129.081 29.1328V22.8475L121.359 29.8618C121.255 29.9649 121.119 30 120.943 30H120.009C119.663 30 119.419 29.7218 119.419 29.4091V16.492C119.419 16.1455 119.698 15.9019 120.009 15.9019H123.4C123.748 15.9019 123.989 16.1801 123.989 16.492V22.7785L131.71 15.7632C131.814 15.6601 131.952 15.625 132.124 15.625H133.061C133.406 15.625 133.65 15.9032 133.65 16.2179V29.1339C133.649 29.4814 133.373 29.724 133.063 29.724L133.063 29.7237Z" fill="#607081"></path><path d="M95.9697 30C95.5914 30 95.3292 29.7232 95.3292 29.4121L95.2877 20H90.3377L90.3601 29.4271C90.3601 29.7739 90.0578 30 89.7182 30H86.0283C85.6521 30 85.3877 29.7382 85.3877 29.4271V16.8229C85.3877 16.4783 85.6669 16.25 86.0064 16.25H99.6189C99.9963 16.25 100.239 16.5127 100.239 16.8229V29.4271C100.239 29.7739 99.9552 30 99.6189 30H95.9697Z" fill="#607081"></path><path d="M68.5718 20.3538C68.9078 19.5202 69.4142 18.7857 70.0892 18.1513C70.7642 17.517 71.5413 17.0502 72.4511 16.717C73.3273 16.4167 74.3402 16.25 75.4194 16.25C76.5671 16.25 77.579 16.4155 78.4909 16.717C79.3999 17.0172 80.2104 17.4851 80.8518 18.1177C81.4921 18.752 81.9996 19.4875 82.3366 20.3211C82.6746 21.1576 82.8094 22.0913 82.8094 23.0945C82.8094 24.1591 82.6398 25.1274 82.304 25.962C81.966 26.8322 81.4605 27.5648 80.75 28.1663L80.7163 28.1981C80.0444 28.7997 79.2673 29.2329 78.3891 29.5342C77.513 29.8325 76.501 30 75.4197 30C73.1242 30 71.3382 29.3675 70.023 28.1297C69.348 27.4973 68.8762 26.7619 68.5382 25.8936C68.2002 25.0598 68.0618 24.0924 68.0625 23.0915C68.0633 22.0906 68.2329 21.1895 68.5718 20.3538ZM73.3266 25.7585C73.7765 26.2947 74.501 26.5625 75.4356 26.5625C75.8855 26.5625 76.2655 26.4947 76.612 26.3613C76.9554 26.2278 77.2327 26.0276 77.4766 25.7238L77.5111 25.6919C77.7539 25.4239 77.9265 25.0881 78.0647 24.6518C78.2037 24.2165 78.2719 23.6774 78.2719 23.0766C78.2719 21.8991 78.0312 21.0292 77.5475 20.4576C77.0965 19.9215 76.372 19.6875 75.4019 19.6875C74.5385 19.6875 73.8465 19.9544 73.3274 20.5272C73.0855 20.796 72.8774 21.1639 72.7413 21.5644C72.6478 21.856 72.6007 22.3604 72.6 23.0776C72.6002 24.284 72.843 25.1876 73.3266 25.7585Z" fill="#607081"></path><path d="M151.484 20.3538C151.82 19.5202 152.327 18.7857 153.002 18.1513C153.677 17.517 154.454 17.0502 155.364 16.717C156.24 16.4167 157.253 16.25 158.332 16.25C159.48 16.25 160.492 16.4155 161.404 16.717C162.313 17.0172 163.123 17.4851 163.764 18.1177C164.405 18.752 164.912 19.4875 165.249 20.3211C165.587 21.1576 165.722 22.0913 165.722 23.0945C165.722 24.1591 165.552 25.1274 165.217 25.962C164.879 26.8322 164.373 27.5648 163.663 28.1663L163.629 28.1981C162.957 28.7997 162.18 29.2329 161.302 29.5342C160.426 29.8325 159.414 30 158.332 30C156.037 30 154.251 29.3675 152.936 28.1297C152.261 27.4973 151.789 26.7619 151.451 25.8936C151.113 25.0598 150.974 24.0924 150.975 23.0915C150.976 22.0906 151.145 21.1895 151.484 20.3538ZM156.239 25.7585C156.689 26.2947 157.414 26.5625 158.348 26.5625C158.798 26.5625 159.178 26.4947 159.525 26.3613C159.868 26.2278 160.145 26.0276 160.389 25.7238L160.424 25.6919C160.667 25.4239 160.839 25.0881 160.977 24.6518C161.116 24.2165 161.184 23.6774 161.184 23.0766C161.184 21.8991 160.944 21.0292 160.46 20.4576C160.009 19.9215 159.285 19.6875 158.315 19.6875C157.451 19.6875 156.759 19.9544 156.24 20.5272C155.998 20.796 155.79 21.1639 155.654 21.5644C155.56 21.856 155.513 22.3604 155.513 23.0776C155.513 24.284 155.756 25.1876 156.239 25.7585Z" fill="#607081"></path><path d="M116.325 23.4273C116.927 24.1019 117.211 24.883 117.211 25.8063C117.211 26.4809 117.071 27.0502 116.748 27.5824C116.467 28.1148 116.041 28.5733 115.434 28.9294C114.868 29.2835 114.193 29.5693 113.375 29.7485C112.593 29.9214 111.707 29.994 110.676 29.994H103.997C103.643 29.994 103.395 29.7105 103.395 29.39V16.5051C103.395 16.151 103.678 15.901 103.997 15.901H104.033C105.382 15.8313 106.625 15.7956 107.725 15.7597C108.86 15.725 109.822 15.725 110.531 15.725C111.418 15.725 112.239 15.7955 112.949 15.9737C113.693 16.1528 114.331 16.4333 114.866 16.7906L114.902 16.8253C115.432 17.2166 115.86 17.6422 116.109 18.1387V18.1755C116.393 18.7079 116.532 19.276 116.532 19.8778C116.532 20.2343 116.463 20.5535 116.355 20.9096C116.25 21.2269 116.072 21.5127 115.821 21.8319C115.61 22.0806 115.396 22.2924 115.148 22.4707V22.5044C115.615 22.7549 116.006 23.0732 116.325 23.4273ZM107.662 20.7654H108.052C108.335 20.7654 108.969 20.7654 109.959 20.7654C110.597 20.7654 111.055 20.6461 111.339 20.4468C111.549 20.2885 111.622 20.0489 111.622 19.769C111.622 19.6498 111.588 19.5305 111.551 19.4504V19.4103C111.515 19.3323 111.446 19.2533 111.34 19.1718C111.235 19.0938 111.057 19.0125 110.879 18.9724C110.669 18.9323 110.422 18.8909 110.139 18.8909C109.504 18.8909 108.938 18.8909 108.478 18.9321C108.195 18.9321 107.947 18.9722 107.666 18.9722V20.7659H107.663L107.662 20.7654ZM107.662 26.6082C108.035 26.6082 108.374 26.6409 108.679 26.6409C109.085 26.6409 109.523 26.6409 109.996 26.6409C110.742 26.6409 111.281 26.538 111.621 26.3311C111.856 26.1589 111.994 25.9204 111.994 25.5788C111.994 25.4057 111.961 25.2679 111.893 25.1681C111.826 25.0633 111.724 24.9602 111.554 24.8572C111.35 24.7543 111.15 24.6514 110.878 24.6188C110.608 24.5484 110.304 24.5159 109.999 24.5159H109.964L107.7 24.5485V26.6085H107.662L107.662 26.6082Z" fill="#607081"></path><path d="M191.194 13.75C194.953 13.75 198 10.672 198 6.875C198 3.07804 194.953 0 191.194 0C187.435 0 184.388 3.07804 184.388 6.875C184.388 10.672 187.435 13.75 191.194 13.75ZM191.194 12.5C188.118 12.5 185.625 9.9816 185.625 6.875C185.625 3.7684 188.118 1.25 191.194 1.25C194.269 1.25 196.763 3.7684 196.763 6.875C196.763 9.9816 194.269 12.5 191.194 12.5Z" fill="#607081"></path><path d="M190.416 6.61337H191.165C191.667 6.61337 192.031 6.50735 192.257 6.29531C192.482 6.08328 192.595 5.76864 192.595 5.3514C192.595 4.92732 192.473 4.62295 192.23 4.43827C191.986 4.25359 191.619 4.16125 191.129 4.16125H190.416V6.61337ZM190.416 7.6291V10.625H189.337V3.125H191.201C192.052 3.125 192.683 3.30626 193.092 3.66878C193.501 4.03129 193.705 4.57848 193.705 5.31036C193.705 6.24402 193.278 6.9092 192.424 7.30592L194.287 10.625H193.06L191.481 7.6291H190.416Z" fill="#607081"></path></svg> 