<?xml version="1.0" encoding="UTF-8"?> <svg xmlns="http://www.w3.org/2000/svg" width="693" height="92" viewBox="0 0 693 92" fill="none"><path d="M0.09375 72V3.75H24C32.2812 3.75 38.5625 5.34375 42.8438 8.53125C47.125 11.6875 49.2656 16.3281 49.2656 22.4531C49.2656 25.7969 48.4062 28.75 46.6875 31.3125C44.9688 33.8438 42.5781 35.7031 39.5156 36.8906C43.0156 37.7656 45.7656 39.5312 47.7656 42.1875C49.7969 44.8438 50.8125 48.0938 50.8125 51.9375C50.8125 58.5 48.7188 63.4688 44.5312 66.8438C40.3438 70.2188 34.375 71.9375 26.625 72H0.09375ZM14.1562 42.2812V60.7031H26.2031C29.5156 60.7031 32.0938 59.9219 33.9375 58.3594C35.8125 56.7656 36.75 54.5781 36.75 51.7969C36.75 45.5469 33.5156 42.375 27.0469 42.2812H14.1562ZM14.1562 32.3438H24.5625C31.6562 32.2188 35.2031 29.3906 35.2031 23.8594C35.2031 20.7656 34.2969 18.5469 32.4844 17.2031C30.7031 15.8281 27.875 15.1406 24 15.1406H14.1562V32.3438ZM58.4062 46.1719C58.4062 41.1406 59.375 36.6562 61.3125 32.7188C63.25 28.7812 66.0312 25.7344 69.6562 23.5781C73.3125 21.4219 77.5469 20.3438 82.3594 20.3438C89.2031 20.3438 94.7812 22.4375 99.0938 26.625C103.438 30.8125 105.859 36.5 106.359 43.6875L106.453 47.1562C106.453 54.9375 104.281 61.1875 99.9375 65.9062C95.5938 70.5938 89.7656 72.9375 82.4531 72.9375C75.1406 72.9375 69.2969 70.5938 64.9219 65.9062C60.5781 61.2188 58.4062 54.8438 58.4062 46.7812V46.1719ZM71.9531 47.1562C71.9531 51.9688 72.8594 55.6562 74.6719 58.2188C76.4844 60.75 79.0781 62.0156 82.4531 62.0156C85.7344 62.0156 88.2969 60.7656 90.1406 58.2656C91.9844 55.7344 92.9062 51.7031 92.9062 46.1719C92.9062 41.4531 91.9844 37.7969 90.1406 35.2031C88.2969 32.6094 85.7031 31.3125 82.3594 31.3125C79.0469 31.3125 76.4844 32.6094 74.6719 35.2031C72.8594 37.7656 71.9531 41.75 71.9531 47.1562ZM145.172 66.8438C141.828 70.9062 137.203 72.9375 131.297 72.9375C125.859 72.9375 121.703 71.375 118.828 68.25C115.984 65.125 114.531 60.5469 114.469 54.5156V21.2812H128.016V54.0469C128.016 59.3281 130.422 61.9688 135.234 61.9688C139.828 61.9688 142.984 60.375 144.703 57.1875V21.2812H158.297V72H145.547L145.172 66.8438ZM166.406 46.2656C166.406 38.3594 168.172 32.0625 171.703 27.375C175.266 22.6875 180.125 20.3438 186.281 20.3438C191.219 20.3438 195.297 22.1875 198.516 25.875V0H212.109V72H199.875L199.219 66.6094C195.844 70.8281 191.5 72.9375 186.188 72.9375C180.219 72.9375 175.422 70.5938 171.797 65.9062C168.203 61.1875 166.406 54.6406 166.406 46.2656ZM179.953 47.25C179.953 52 180.781 55.6406 182.438 58.1719C184.094 60.7031 186.5 61.9688 189.656 61.9688C193.844 61.9688 196.797 60.2031 198.516 56.6719V36.6562C196.828 33.125 193.906 31.3594 189.75 31.3594C183.219 31.3594 179.953 36.6562 179.953 47.25ZM220.5 46.1719C220.5 41.1406 221.469 36.6562 223.406 32.7188C225.344 28.7812 228.125 25.7344 231.75 23.5781C235.406 21.4219 239.641 20.3438 244.453 20.3438C251.297 20.3438 256.875 22.4375 261.188 26.625C265.531 30.8125 267.953 36.5 268.453 43.6875L268.547 47.1562C268.547 54.9375 266.375 61.1875 262.031 65.9062C257.688 70.5938 251.859 72.9375 244.547 72.9375C237.234 72.9375 231.391 70.5938 227.016 65.9062C222.672 61.2188 220.5 54.8438 220.5 46.7812V46.1719ZM234.047 47.1562C234.047 51.9688 234.953 55.6562 236.766 58.2188C238.578 60.75 241.172 62.0156 244.547 62.0156C247.828 62.0156 250.391 60.7656 252.234 58.2656C254.078 55.7344 255 51.7031 255 46.1719C255 41.4531 254.078 37.7969 252.234 35.2031C250.391 32.6094 247.797 31.3125 244.453 31.3125C241.141 31.3125 238.578 32.6094 236.766 35.2031C234.953 37.7656 234.047 41.75 234.047 47.1562ZM291.188 72H277.594V21.2812H291.188V72ZM276.797 8.15625C276.797 6.125 277.469 4.45312 278.812 3.14062C280.188 1.82812 282.047 1.17188 284.391 1.17188C286.703 1.17188 288.547 1.82812 289.922 3.14062C291.297 4.45312 291.984 6.125 291.984 8.15625C291.984 10.2188 291.281 11.9062 289.875 13.2188C288.5 14.5312 286.672 15.1875 284.391 15.1875C282.109 15.1875 280.266 14.5312 278.859 13.2188C277.484 11.9062 276.797 10.2188 276.797 8.15625ZM330.891 33.9844C329.047 33.7344 327.422 33.6094 326.016 33.6094C320.891 33.6094 317.531 35.3438 315.938 38.8125V72H302.391V21.2812H315.188L315.562 27.3281C318.281 22.6719 322.047 20.3438 326.859 20.3438C328.359 20.3438 329.766 20.5469 331.078 20.9531L330.891 33.9844ZM382.406 53.5781L389.062 21.2812H402.141L389.203 72H377.859L368.25 40.0781L358.641 72H347.344L334.406 21.2812H347.484L354.094 53.5312L363.375 21.2812H373.172L382.406 53.5781ZM432.234 72.9375C424.797 72.9375 418.734 70.6562 414.047 66.0938C409.391 61.5312 407.062 55.4531 407.062 47.8594V46.5469C407.062 41.4531 408.047 36.9062 410.016 32.9062C411.984 28.875 414.766 25.7812 418.359 23.625C421.984 21.4375 426.109 20.3438 430.734 20.3438C437.672 20.3438 443.125 22.5312 447.094 26.9062C451.094 31.2812 453.094 37.4844 453.094 45.5156V51.0469H420.797C421.234 54.3594 422.547 57.0156 424.734 59.0156C426.953 61.0156 429.75 62.0156 433.125 62.0156C438.344 62.0156 442.422 60.125 445.359 56.3438L452.016 63.7969C449.984 66.6719 447.234 68.9219 443.766 70.5469C440.297 72.1406 436.453 72.9375 432.234 72.9375ZM430.688 31.3125C428 31.3125 425.812 32.2188 424.125 34.0312C422.469 35.8438 421.406 38.4375 420.938 41.8125H439.781V40.7344C439.719 37.7344 438.906 35.4219 437.344 33.7969C435.781 32.1406 433.562 31.3125 430.688 31.3125ZM458.719 46.2656C458.719 38.3594 460.484 32.0625 464.016 27.375C467.578 22.6875 472.438 20.3438 478.594 20.3438C483.531 20.3438 487.609 22.1875 490.828 25.875V0H504.422V72H492.188L491.531 66.6094C488.156 70.8281 483.812 72.9375 478.5 72.9375C472.531 72.9375 467.734 70.5938 464.109 65.9062C460.516 61.1875 458.719 54.6406 458.719 46.2656ZM472.266 47.25C472.266 52 473.094 55.6406 474.75 58.1719C476.406 60.7031 478.812 61.9688 481.969 61.9688C486.156 61.9688 489.109 60.2031 490.828 56.6719V36.6562C489.141 33.125 486.219 31.3594 482.062 31.3594C475.531 31.3594 472.266 36.6562 472.266 47.25ZM512.812 46.2656C512.812 38.3594 514.578 32.0625 518.109 27.375C521.672 22.6875 526.531 20.3438 532.688 20.3438C537.625 20.3438 541.703 22.1875 544.922 25.875V0H558.516V72H546.281L545.625 66.6094C542.25 70.8281 537.906 72.9375 532.594 72.9375C526.625 72.9375 521.828 70.5938 518.203 65.9062C514.609 61.1875 512.812 54.6406 512.812 46.2656ZM526.359 47.25C526.359 52 527.188 55.6406 528.844 58.1719C530.5 60.7031 532.906 61.9688 536.062 61.9688C540.25 61.9688 543.203 60.2031 544.922 56.6719V36.6562C543.234 33.125 540.312 31.3594 536.156 31.3594C529.625 31.3594 526.359 36.6562 526.359 47.25ZM583.312 72H569.719V21.2812H583.312V72ZM568.922 8.15625C568.922 6.125 569.594 4.45312 570.938 3.14062C572.312 1.82812 574.172 1.17188 576.516 1.17188C578.828 1.17188 580.672 1.82812 582.047 3.14062C583.422 4.45312 584.109 6.125 584.109 8.15625C584.109 10.2188 583.406 11.9062 582 13.2188C580.625 14.5312 578.797 15.1875 576.516 15.1875C574.234 15.1875 572.391 14.5312 570.984 13.2188C569.609 11.9062 568.922 10.2188 568.922 8.15625ZM606.984 21.2812L607.406 27.1406C611.031 22.6094 615.891 20.3438 621.984 20.3438C627.359 20.3438 631.359 21.9219 633.984 25.0781C636.609 28.2344 637.953 32.9531 638.016 39.2344V72H624.469V39.5625C624.469 36.6875 623.844 34.6094 622.594 33.3281C621.344 32.0156 619.266 31.3594 616.359 31.3594C612.547 31.3594 609.688 32.9844 607.781 36.2344V72H594.234V21.2812H606.984ZM646.359 46.2656C646.359 38.4844 648.203 32.2188 651.891 27.4688C655.609 22.7188 660.609 20.3438 666.891 20.3438C672.453 20.3438 676.781 22.25 679.875 26.0625L680.438 21.2812H692.719V70.3125C692.719 74.75 691.703 78.6094 689.672 81.8906C687.672 85.1719 684.844 87.6719 681.188 89.3906C677.531 91.1094 673.25 91.9688 668.344 91.9688C664.625 91.9688 661 91.2188 657.469 89.7188C653.938 88.25 651.266 86.3438 649.453 84L655.453 75.75C658.828 79.5312 662.922 81.4219 667.734 81.4219C671.328 81.4219 674.125 80.4531 676.125 78.5156C678.125 76.6094 679.125 73.8906 679.125 70.3594V67.6406C676 71.1719 671.891 72.9375 666.797 72.9375C660.703 72.9375 655.766 70.5625 651.984 65.8125C648.234 61.0312 646.359 54.7031 646.359 46.8281V46.2656ZM659.906 47.25C659.906 51.8438 660.828 55.4531 662.672 58.0781C664.516 60.6719 667.047 61.9688 670.266 61.9688C674.391 61.9688 677.344 60.4219 679.125 57.3281V36C677.312 32.9062 674.391 31.3594 670.359 31.3594C667.109 31.3594 664.547 32.6875 662.672 35.3438C660.828 38 659.906 41.9688 659.906 47.25Z" fill="black"></path></svg> 