<?xml version="1.0" encoding="UTF-8"?> <svg xmlns="http://www.w3.org/2000/svg" width="148" height="48" viewBox="0 0 148 48" fill="none"><path fill-rule="evenodd" clip-rule="evenodd" d="M26.9365 27.4149V0H21.7055V27.4149H26.9365ZM18.0835 11.3932H12.9211V13.5983L12.8907 13.562C12.5038 13.0993 12.1761 12.7075 11.6782 12.312C10.0654 11.0257 8.27348 10.9874 7.54145 10.9874C5.60081 10.9874 3.91561 11.5387 2.48967 12.936C0.110567 15.2866 0 18.3761 0 19.4787C0 22.6371 1.3535 25.9448 4.39219 27.3383C5.67325 27.9623 6.9543 28.0006 7.4652 28.0006C9.62317 28.0006 11.1978 27.1545 11.8574 26.7143C12.1293 26.5417 12.3667 26.3362 12.6044 26.1304L12.6044 26.1304L12.6045 26.1304L12.6045 26.1303L12.6046 26.1302L12.6047 26.1302L12.6048 26.1301L12.6049 26.13L12.605 26.13L12.605 26.1299L12.6051 26.1298C12.7205 26.0299 12.8359 25.93 12.9554 25.8338V27.4149H18.0835V11.3932ZM5.45211 19.4787C5.45211 18.9657 5.45211 17.7521 6.40528 16.6495C7.43088 15.4704 8.71194 15.3594 9.25715 15.3632C11.6706 15.3632 13.2452 17.3463 13.2452 19.6624C13.2452 21.8676 11.8193 23.8507 9.44016 23.8507C8.38024 23.8507 7.57577 23.4487 7.28219 23.2267C6.51203 22.7481 5.45211 21.6455 5.45211 19.4787ZM35.7209 0V27.4149H30.4899V0H35.7209ZM8.60133 33.6858C9.58881 33.6858 10.4657 34.2371 10.6869 34.3825L10.725 29.0917C10.6934 29.0917 10.6606 29.0916 10.6266 29.0915C9.75389 29.0888 8.10802 29.0837 6.69881 30.7456C6.49809 30.987 6.24235 31.3505 6.046 31.6295L6.04595 31.6296C5.88426 31.8594 5.76286 32.0319 5.74564 32.0319V29.421H0.62142V45.4082H0.632869V48H148V45.0407H84.073V39.7116C84.073 36.8825 84.1836 35.3013 85.2816 34.3098C85.8688 33.7585 86.5627 33.6858 86.8563 33.6858C87.8438 33.6858 88.7207 34.2371 88.9418 34.3825L88.9799 29.0917C88.9484 29.0917 88.9156 29.0916 88.8816 29.0915C88.0089 29.0888 86.363 29.0837 84.9538 30.7456C84.7531 30.987 84.4973 31.3504 84.301 31.6295L84.3009 31.6296C84.1392 31.8594 84.0178 32.0319 84.0006 32.0319V29.421H78.8764V45.0407H72.2809C73.1837 44.6135 74.0148 44.0266 74.7359 43.272C75.1685 42.8376 75.4207 42.4622 75.6124 42.177C75.6792 42.0775 75.7387 41.9891 75.7958 41.9129L71.5866 39.8915L71.5848 39.8945C71.2929 40.3766 70.3395 41.9512 68.3306 41.9512C67.0152 41.9512 65.8066 41.2889 65.1852 40.1136C64.8954 39.6006 64.7848 39.0493 64.6743 38.498V38.4942H76.2343C76.2686 36.8748 76.2343 35.5884 75.9407 34.4131C75.5365 33.0541 74.3279 30.1483 70.5229 29.0841L70.4934 29.0768C70.0456 28.9672 69.178 28.7548 68.0332 28.7548C65.9477 28.7548 64.4112 29.4899 63.7516 29.8574C61.7766 30.9982 60.9722 32.4683 60.6062 33.2761C59.7292 35.0754 59.6911 36.5838 59.6911 37.3916C59.6911 39.815 60.4994 41.5415 61.0103 42.3149C61.5387 43.113 62.5598 44.2572 64.1846 45.0407H56.1072V33.28H59.0353V29.421H56.1453V23.6516H50.9105V29.421H48.7144V33.28H50.9105V45.0407H46.4459V35.1559C46.4459 33.6858 46.3734 32.2884 45.5308 31.0021C44.9818 30.1905 43.5559 28.9424 41.0662 28.9424C38.2641 28.9058 36.5688 30.6221 35.7865 31.4141L35.7315 31.4698L35.6865 31.5151V29.421H30.4899V45.0407H23.7876C24.6904 44.6135 25.5215 44.0266 26.2426 43.272C26.6752 42.8376 26.9275 42.4622 27.1191 42.177C27.1859 42.0775 27.2454 41.9891 27.3025 41.9129L23.0934 39.8915L23.0915 39.8945C22.7996 40.3766 21.8463 41.9512 19.8373 41.9512C18.5182 41.9512 17.3095 41.2889 16.6881 40.1136C16.399 39.6018 16.2883 39.0518 16.1779 38.5018H27.7448C27.7791 36.8824 27.7448 35.5961 27.4512 34.4208C27.0471 33.0617 25.8385 30.156 22.0334 29.0841L22.0039 29.0768C21.5562 28.9672 20.6885 28.7548 19.5438 28.7548C17.4582 28.7548 15.9217 29.4899 15.2621 29.8574C13.2834 30.9982 12.4789 32.4683 12.1129 33.2761C11.236 35.0754 11.1978 36.5838 11.1978 37.3916C11.1978 39.815 12.0061 41.5415 12.517 42.3149C13.0454 43.113 14.0665 44.2572 15.6914 45.0407H5.81808V39.7116C5.81808 36.8825 5.92865 35.3013 7.0267 34.3098C7.61385 33.7585 8.30775 33.6858 8.60133 33.6858ZM35.6103 45.0407H41.2492V36.6259C41.2492 35.6689 41.2111 34.6429 40.4066 33.9078C39.747 33.3565 39.0531 33.3565 38.7595 33.3565C38.4317 33.3565 37.6234 33.3948 36.8913 33.9805C35.7209 34.8611 35.6103 36.1474 35.6103 37.4337V45.0407ZM22.7273 35.4506C22.6549 35.0104 22.2889 33.4292 20.9354 32.7325C20.6799 32.587 20.1309 32.365 19.3989 32.365C18.7393 32.365 17.3858 32.587 16.5813 34.1643C16.4708 34.4591 16.3602 34.7883 16.1772 35.4506H22.7273ZM69.4325 32.7325C70.786 33.4292 71.152 35.0104 71.2244 35.4506H64.6743C64.8573 34.7883 64.9678 34.4591 65.0784 34.1643C65.8829 32.587 67.2364 32.365 67.896 32.365C68.628 32.365 69.177 32.587 69.4325 32.7325Z" fill="url(#paint0_linear)"></path><path d="M132.522 45.6625H102.707C101.899 45.6625 101.239 45.004 101.239 44.1924V4.71432C101.239 3.90271 101.895 3.24423 102.707 3.24423H132.522C133.33 3.24423 133.99 3.90271 133.99 4.71432C133.99 7.98757 133.99 11.2608 133.99 14.5302C133.99 24.4189 133.99 34.3037 133.99 44.1924C133.99 44.2919 133.979 44.8126 132.522 45.6625Z" fill="white"></path><path fill-rule="evenodd" clip-rule="evenodd" d="M102.462 4.71995C102.462 4.59734 102.56 4.49361 102.689 4.49361H114.781C114.141 5.20757 113.435 6.08334 112.733 7.26765C111.73 8.96075 111.131 10.9137 110.928 12.3493C110.821 13.106 110.585 14.5901 109.248 15.9434C108.185 17.0209 106.751 17.6368 105.049 17.6368C103.944 17.6368 103.073 17.5796 102.462 17.4218V4.71995ZM102.462 18.9911V24.7478C102.608 24.5345 102.758 24.3446 102.911 24.1802L102.911 24.181L103.462 24.7071L102.911 24.1802C103.73 23.3003 104.569 22.783 105.213 22.4845C105.535 22.3354 105.808 22.2407 106.007 22.1824C106.107 22.1532 106.188 22.133 106.247 22.1196C106.277 22.1128 106.301 22.1078 106.32 22.1042L106.333 22.1015L106.343 22.0998L106.351 22.0983L106.355 22.0977L106.356 22.0975L106.357 22.0974L106.481 22.8542L106.605 23.6112L106.606 23.611C106.605 23.6111 106.605 23.6112 106.481 22.8542C106.357 22.0972 106.357 22.0973 106.357 22.0974C106.613 22.0542 106.816 22.0432 106.954 22.0359L106.982 22.0344L106.984 22.0342C108.481 21.9563 109.656 22.4423 110.47 22.7788C110.646 22.8514 110.804 22.917 110.946 22.9685L110.946 22.9687C112.534 23.5483 114.411 23.4551 115.738 22.8587L115.739 22.8583C116.884 22.3461 117.539 21.4922 117.771 21.1904L117.774 21.1857L118.375 21.6534L117.777 21.1824L117.776 21.184C119.078 19.4679 118.858 17.366 118.417 14.878C118.385 14.7002 118.353 14.5203 118.32 14.3388C118.131 13.2983 117.933 12.204 117.874 11.1465C117.804 9.89012 117.924 8.6054 118.521 7.40514C119.034 6.37468 119.926 5.34241 121.506 4.49361H116.867C116.765 4.60348 116.661 4.71301 116.557 4.82349C115.767 5.65951 114.925 6.54989 114.032 8.05716C113.141 9.56099 112.604 11.3165 112.428 12.5663C112.309 13.4109 112.014 15.3127 110.32 17.0285C108.959 18.4063 107.135 19.1714 105.049 19.1714C104.131 19.1714 103.232 19.1374 102.462 18.9911ZM126.546 4.49361C122.004 5.26759 120.473 6.89174 119.873 8.09612C119.44 8.96739 119.325 9.95207 119.387 11.0602C119.44 12.0131 119.618 12.9983 119.807 14.0431L119.807 14.0431C119.84 14.229 119.874 14.4168 119.908 14.6067C120.337 17.0244 120.737 19.8018 118.976 22.1212L118.973 22.1245L118.96 22.1411C118.694 22.4881 117.847 23.5928 116.352 24.2619C114.656 25.0231 112.375 25.1216 110.433 24.4125L110.689 23.6905L110.432 24.4123C110.218 24.3342 110.009 24.249 109.799 24.1637C108.997 23.837 108.19 23.5082 107.063 23.5667L107.064 23.5666L107.023 22.8005L107.062 23.5668L107.041 23.5679C106.907 23.5752 106.778 23.5822 106.609 23.6104L106.609 23.6105L106.607 23.6108C106.603 23.6117 106.593 23.6138 106.577 23.6172C106.547 23.624 106.497 23.6364 106.429 23.6562C106.294 23.6959 106.091 23.7653 105.844 23.8799C105.35 24.1088 104.679 24.5178 104.013 25.2333L104.013 25.2341C103.52 25.7621 102.942 26.8671 102.478 28.5176C102.473 28.5367 102.467 28.5559 102.462 28.5751V36.6725C102.765 36.1587 102.998 35.7705 103.093 35.6256C103.334 35.2595 104.005 34.329 104.621 33.4744L104.621 33.474L104.622 33.4734C104.993 32.9589 105.344 32.472 105.569 32.1525C106.13 31.3569 107.198 30.4688 108.37 29.9213C109.521 29.3833 111.008 29.0712 112.257 29.8306C113.391 30.5194 114.098 31.531 114.298 32.9193C114.49 34.2517 114.207 35.8778 113.529 37.8392C112.198 41.6916 110.86 43.8527 110.432 44.5064H113.88C115.181 43.2446 116.509 41.6496 117.63 39.6607C119.905 35.6224 120.342 31.7283 120.644 28.7153L120.644 28.7148C120.723 27.9279 120.772 25.62 120.869 20.958L120.869 20.9576L120.869 20.9573L120.883 20.3098C120.889 19.988 120.895 19.681 120.901 19.3876L120.901 19.3866C120.979 15.3997 121.007 13.9314 121.947 12.1202L121.952 12.1091C122.315 11.4119 123.858 8.44113 127.39 7.29609C129.394 6.64587 131.223 6.84906 132.538 7.20348V4.71995C132.538 4.59946 132.438 4.49361 132.311 4.49361H126.546ZM132.538 8.80148C131.419 8.44165 129.721 8.15134 127.852 8.75751C124.918 9.70881 123.618 12.199 123.288 12.834C122.52 14.315 122.498 15.3846 122.41 19.7461V19.7461L122.404 20.0154L122.398 20.3421L122.38 21.1987L122.38 21.199L122.38 21.1994C122.286 25.6753 122.237 28.0188 122.151 28.8703C121.847 31.9034 121.391 36.0809 118.946 40.4211C118.051 42.0102 117.033 43.3629 115.999 44.5064H121.521C122.292 43.6019 123.166 42.4066 123.929 41.0238C125.085 38.9271 125.953 36.461 125.883 33.9631C125.788 30.5966 125.693 29.4585 125.541 28.641C125.482 28.3287 125.416 28.0657 125.331 27.7238L125.331 27.7235L125.331 27.7235L125.33 27.7227C125.302 27.6104 125.272 27.4896 125.239 27.3558C125.108 26.8233 124.951 26.1359 124.759 25.0631C124.447 23.3291 124.298 22.2332 124.254 21.2931C124.211 20.3468 124.276 19.5789 124.371 18.5264C124.444 17.7079 124.835 15.5844 126.95 14.8058C128.1 14.3819 129.758 14.1862 131.109 14.0901C131.63 14.0531 132.12 14.0301 132.538 14.0158V8.80148ZM132.538 15.5512C132.147 15.5651 131.695 15.5868 131.215 15.6209C129.867 15.7167 128.4 15.9045 127.467 16.2479C126.248 16.6969 125.944 17.9494 125.88 18.6654C125.785 19.7229 125.73 20.3936 125.768 21.2216C125.806 22.0558 125.941 23.0699 126.249 24.7886C126.435 25.8258 126.586 26.4811 126.71 26.9856C126.738 27.0997 126.765 27.209 126.792 27.3153L126.792 27.3155C126.881 27.6703 126.962 27.9927 127.029 28.3558C127.208 29.3126 127.303 30.5722 127.397 33.9193C127.479 36.7922 126.484 39.5371 125.251 41.7722C124.691 42.7872 124.075 43.7098 123.473 44.5064H131.965C132.286 44.2976 132.455 44.1445 132.538 44.0568V15.5512ZM108.561 44.5064C108.779 44.2172 109.005 43.9078 109.154 43.6818C109.503 43.1509 110.798 41.0983 112.099 37.3322C112.747 35.4573 112.938 34.1102 112.799 33.1408C112.667 32.2273 112.238 31.6084 111.478 31.1464C110.876 30.7806 109.995 30.8521 109.005 31.3147C108.035 31.7679 107.188 32.4974 106.802 33.0444C106.55 33.4022 106.178 33.9183 105.795 34.448L105.795 34.4484L105.795 34.4486C105.199 35.2743 104.58 36.133 104.354 36.4768C104.163 36.7667 103.289 38.263 102.462 39.6885V44.28C102.462 44.4006 102.562 44.5064 102.689 44.5064H108.561ZM102.689 2C101.205 2 100 3.21596 100 4.71995V44.28C100 45.7861 101.211 47 102.689 47H132.642L132.929 46.8312C133.732 46.3585 134.25 45.9138 134.569 45.4803C134.927 44.9938 135 44.5702 135 44.28V4.71995C135 3.21384 133.789 2 132.311 2H102.689Z" fill="url(#paint1_linear)"></path><path d="M141.169 45.8318H129.64C128.992 45.8318 128.469 45.3073 128.469 44.6564V20.9474C128.469 20.2966 128.992 19.7721 129.64 19.7721H141.169C141.817 19.7721 142.34 20.2966 142.34 20.9474V44.6564C142.34 45.3034 141.814 45.8318 141.169 45.8318Z" fill="white"></path><path fill-rule="evenodd" clip-rule="evenodd" d="M130.019 20.916C129.903 20.916 129.812 21.012 129.812 21.1344V22.9425C130.418 23.4451 131.109 24.0977 131.801 24.9257C131.99 25.1499 132.802 26.1341 133.635 27.6412L133.635 27.6412L133.65 27.6669C134.197 28.656 134.744 29.6455 135.113 31.1024C135.255 31.6616 135.58 33.1251 135.428 35.0057L135.428 35.0061L135.425 35.0528C135.344 36.0555 135.267 37.0046 134.69 38.0453L134.689 38.0472C134.024 39.2377 133.102 39.8363 132.692 40.1012L132.689 40.1026C131.604 40.7981 130.538 41.0037 129.812 41.06V44.8656C129.812 44.988 129.903 45.084 130.019 45.084H134.601C135.164 44.6919 135.906 44.0765 136.595 43.312C137.459 42.3533 138.173 41.2312 138.405 40.0875C138.619 39.0329 138.656 38.2183 138.524 37.3157C138.388 36.3888 138.071 35.3401 137.529 33.8113C136.45 30.7702 135.701 27.8526 136.628 25.4021C137.094 24.1702 138.163 23.3894 139.206 22.9021C139.859 22.5973 140.55 22.3839 141.188 22.2411V21.1344C141.188 21.012 141.097 20.916 140.981 20.916H139.003C139.004 20.9349 139.005 20.954 139.005 20.9734V21.3643C139.005 21.6977 138.752 21.9659 138.436 21.9659H132.6C132.285 21.9659 132.031 21.6977 132.031 21.3643V20.9734C132.031 20.954 132.032 20.9349 132.033 20.916H130.019ZM129.812 39.522V24.9597C130.107 25.2512 130.411 25.5776 130.716 25.9415L130.716 25.9423C130.87 26.1249 131.615 27.0258 132.384 28.4148C132.934 29.4097 133.395 30.2474 133.712 31.4986L133.712 31.4993C133.831 31.9676 134.115 33.2397 133.984 34.876C133.899 35.917 133.839 36.5485 133.44 37.2692C132.967 38.1157 132.31 38.5515 131.937 38.7924C131.154 39.2938 130.378 39.4661 129.812 39.522ZM140.981 45.084H136.951C137.184 44.8612 137.417 44.6222 137.645 44.3691C138.594 43.316 139.511 41.9473 139.823 40.4087C140.066 39.2073 140.12 38.2018 139.957 37.0818C139.797 35.9861 139.432 34.8098 138.887 33.2731C137.79 30.1831 137.281 27.8051 137.975 25.9713C138.234 25.2872 138.887 24.7269 139.792 24.3041C140.242 24.0941 140.723 23.9328 141.188 23.813V44.8656C141.188 44.9841 141.093 45.084 140.981 45.084ZM128 21.1344C128 19.9539 128.902 19 130.019 19H140.981C142.098 19 143 19.9539 143 21.1344V44.8656C143 46.0423 142.094 47 140.981 47H130.019C128.902 47 128 46.0461 128 44.8656V21.1344Z" fill="url(#paint2_linear)"></path><defs><linearGradient id="paint0_linear" x1="74" y1="0" x2="74" y2="48" gradientUnits="userSpaceOnUse"><stop stop-color="#ACA5EE"></stop><stop offset="1" stop-color="#8880E0"></stop></linearGradient><linearGradient id="paint1_linear" x1="117.5" y1="2" x2="117.5" y2="47" gradientUnits="userSpaceOnUse"><stop stop-color="#ACA5EE"></stop><stop offset="1" stop-color="#8880E0"></stop></linearGradient><linearGradient id="paint2_linear" x1="135.5" y1="19" x2="135.5" y2="47" gradientUnits="userSpaceOnUse"><stop stop-color="#ACA5EE"></stop><stop offset="1" stop-color="#8880E0"></stop></linearGradient></defs></svg> 