<svg width="72" height="72" viewBox="0 0 72 72" fill="none" xmlns="http://www.w3.org/2000/svg">
<path d="M34.1432 0V15.9839C23.9678 16.9497 15.9142 25.5453 15.9142 36.0241C15.9142 39.2113 16.6858 42.2535 18.0361 44.9577L4.43669 53.3602C1.59142 48.1932 0 42.3018 0 36.0241C0 16.7565 15.1426 0.965795 34.1432 0ZM6.41391 56.499L20.0133 48.0966C23.3408 52.4909 28.3562 55.4849 34.1432 56.0161V72C22.6657 71.4205 12.5867 65.4326 6.41391 56.499ZM37.8565 72V56.0161C48.0802 55.0503 56.0855 46.4547 56.0855 36.0241C56.0855 25.5936 48.0802 16.9497 37.9047 16.0322V0C56.8571 1.01408 71.9997 16.7565 71.9997 36.0241C71.9997 55.2435 56.8571 71.0342 37.8565 72Z" fill="#82A6DD"/>
</svg>
