<svg width="168" height="168" viewBox="0 0 168 168" fill="none" xmlns="http://www.w3.org/2000/svg">
<g filter="url(#filter0_ii)">
<path fill-rule="evenodd" clip-rule="evenodd" d="M157.908 0L168 0.181813V77.2729L0.00171124 77.2729L0.00171463 0.181806L10.0935 0.181806L10.0935 67.9092H78.0052V11.5455L87.8595 11.5455V67.9092L157.908 67.9092V0ZM157.907 100.273L87.2641 100.273V158.909H77.1724V100.273H0L1.37726e-05 90.9089L167.998 90.9089V168H157.907V100.273ZM45.7933 34.1694C44.6841 35.1027 43.0438 35.5694 40.8722 35.5694H34.6552V25.1394H40.8897C41.9288 25.1394 42.857 25.2561 43.6742 25.4894C44.4915 25.7227 45.1803 26.0611 45.7407 26.5044C46.3011 26.9361 46.7273 27.4669 47.0192 28.0969C47.3227 28.7152 47.4745 29.4152 47.4745 30.1969C47.4745 31.9002 46.9141 33.2244 45.7933 34.1694ZM34.6552 23.8269V13.6594H39.979C42.1856 13.6594 43.8143 14.0911 44.8651 14.9544C45.9275 15.8061 46.4588 17.0661 46.4588 18.7344C46.4588 19.3761 46.3362 20.0002 46.091 20.6069C45.8458 21.2136 45.4605 21.7561 44.9351 22.2344C44.4214 22.7127 43.756 23.0977 42.9387 23.3894C42.1331 23.6811 41.1582 23.8269 40.0141 23.8269H34.6552ZM43.6567 12.6619C42.6176 12.3819 41.3917 12.2419 39.979 12.2419H32.8514V37.0044H40.8897C42.209 37.0044 43.3882 36.8527 44.4273 36.5494C45.4664 36.2344 46.342 35.7852 47.0542 35.2019C47.7664 34.6186 48.3093 33.9069 48.6829 33.0669C49.0565 32.2269 49.2433 31.2819 49.2433 30.2319C49.2433 28.5869 48.7179 27.2627 47.6671 26.2594C46.628 25.2444 45.1336 24.5969 43.1839 24.3169C43.9895 24.1186 44.7016 23.8327 45.3204 23.4594C45.9509 23.0744 46.4763 22.6252 46.8966 22.1119C47.3286 21.5986 47.6554 21.0386 47.8773 20.4319C48.1108 19.8252 48.2275 19.1952 48.2275 18.5419C48.2275 17.5502 48.0641 16.6636 47.7372 15.8819C47.4103 15.1002 46.9082 14.4411 46.2311 13.9044C45.5539 13.3561 44.6958 12.9419 43.6567 12.6619ZM138.865 12.2419V37.0044H138.025C137.873 37.0044 137.745 36.9811 137.64 36.9344C137.546 36.8761 137.453 36.7827 137.359 36.6544L121.265 15.1644C121.3 15.5144 121.318 15.8469 121.318 16.1619V37.0044H119.742V12.2419H120.635C120.798 12.2419 120.921 12.2652 121.002 12.3119C121.096 12.3469 121.195 12.4344 121.3 12.5744L137.359 34.0119C137.324 33.6619 137.307 33.3294 137.307 33.0144L137.307 12.2419H138.865ZM39.3483 132.965H41.1521V108.202H39.3483L39.3483 132.965ZM132.334 114.775H123.63V138.015H121.826V114.775H113.07V113.253H132.334V114.775Z" fill="#E7E8E9"/>
</g>
<defs>
<filter id="filter0_ii" x="-2" y="-2" width="172" height="172" filterUnits="userSpaceOnUse" color-interpolation-filters="sRGB">
<feFlood flood-opacity="0" result="BackgroundImageFix"/>
<feBlend mode="normal" in="SourceGraphic" in2="BackgroundImageFix" result="shape"/>
<feColorMatrix in="SourceAlpha" type="matrix" values="0 0 0 0 0 0 0 0 0 0 0 0 0 0 0 0 0 0 127 0" result="hardAlpha"/>
<feOffset dx="-2" dy="-2"/>
<feGaussianBlur stdDeviation="2"/>
<feComposite in2="hardAlpha" operator="arithmetic" k2="-1" k3="1"/>
<feColorMatrix type="matrix" values="0 0 0 0 1 0 0 0 0 1 0 0 0 0 1 0 0 0 1 0"/>
<feBlend mode="normal" in2="shape" result="effect1_innerShadow"/>
<feColorMatrix in="SourceAlpha" type="matrix" values="0 0 0 0 0 0 0 0 0 0 0 0 0 0 0 0 0 0 127 0" result="hardAlpha"/>
<feOffset dx="2" dy="2"/>
<feGaussianBlur stdDeviation="2"/>
<feComposite in2="hardAlpha" operator="arithmetic" k2="-1" k3="1"/>
<feColorMatrix type="matrix" values="0 0 0 0 0.266667 0 0 0 0 0.266667 0 0 0 0 0.266667 0 0 0 0.25 0"/>
<feBlend mode="normal" in2="effect1_innerShadow" result="effect2_innerShadow"/>
</filter>
</defs>
</svg>
