<svg width="36" height="28" viewBox="0 0 36 28" fill="none" xmlns="http://www.w3.org/2000/svg">
<path d="M32.4 0.5H3.6C1.62 0.5 0 2.01875 0 3.875V24.125C0 25.9812 1.62 27.5 3.6 27.5H32.4C34.38 27.5 36 25.9812 36 24.125V3.875C36 2.01875 34.38 0.5 32.4 0.5ZM31.68 7.67187L19.908 14.5737C18.738 15.2656 17.262 15.2656 16.092 14.5737L4.32 7.67187C4.13951 7.57689 3.98145 7.44855 3.8554 7.29464C3.72934 7.14073 3.63791 6.96444 3.58664 6.77644C3.53536 6.58844 3.52531 6.39264 3.55708 6.20089C3.58886 6.00914 3.66181 5.82543 3.77151 5.66088C3.88121 5.49633 4.02538 5.35436 4.19531 5.24355C4.36523 5.13275 4.55737 5.05542 4.76009 5.01625C4.96282 4.97708 5.17191 4.97688 5.37472 5.01566C5.57753 5.05444 5.76983 5.1314 5.94 5.24187L18 12.3125L30.06 5.24187C30.2302 5.1314 30.4225 5.05444 30.6253 5.01566C30.8281 4.97688 31.0372 4.97708 31.2399 5.01625C31.4426 5.05542 31.6348 5.13275 31.8047 5.24355C31.9746 5.35436 32.1188 5.49633 32.2285 5.66088C32.3382 5.82543 32.4111 6.00914 32.4429 6.20089C32.4747 6.39264 32.4646 6.58844 32.4134 6.77644C32.3621 6.96444 32.2707 7.14073 32.1446 7.29464C32.0185 7.44855 31.8605 7.57689 31.68 7.67187Z" fill="#82A6DD"/>
</svg>
