<svg width="24" height="24" viewBox="0 0 24 24" fill="none" xmlns="http://www.w3.org/2000/svg">
<path fill-rule="evenodd" clip-rule="evenodd" d="M12.5749 1.56611C13.5705 0.563347 14.9208 0 16.3288 0C17.7368 0 19.0871 0.563347 20.0827 1.56611C21.0783 2.56887 21.6376 3.92891 21.6376 5.34703C21.6376 6.76515 21.0783 8.12519 20.0827 9.12796L10.9001 18.3766C10.6166 18.6623 10.28 18.8889 9.90955 19.0435C9.53909 19.1982 9.14201 19.2778 8.741 19.2779C7.93112 19.278 7.15435 18.9541 6.58156 18.3774C6.00878 17.8007 5.68692 17.0185 5.68677 16.2028C5.68662 15.3871 6.0082 14.6047 6.58077 14.0278L15.489 5.05384L16.6183 6.19125L7.70845 15.1636C7.57304 15.3 7.46562 15.4619 7.39233 15.6401C7.31904 15.8183 7.28132 16.0093 7.28132 16.2022C7.28132 16.3951 7.31904 16.5861 7.39233 16.7643C7.46562 16.9425 7.57304 17.1044 7.70845 17.2408C7.84387 17.3772 8.00463 17.4854 8.18157 17.5592C8.3585 17.633 8.54813 17.671 8.73964 17.671C8.93115 17.671 9.12078 17.633 9.29771 17.5592C9.47465 17.4854 9.63541 17.3772 9.77083 17.2408L18.9534 7.99215C19.2983 7.64479 19.5719 7.23241 19.7585 6.77856C19.9452 6.32471 20.0412 5.83828 20.0412 5.34703C20.0412 4.85579 19.9452 4.36935 19.7585 3.9155C19.5719 3.46165 19.2983 3.04927 18.9534 2.70191C18.6085 2.35455 18.1991 2.07901 17.7485 1.89102C17.2979 1.70303 16.8149 1.60627 16.3272 1.60627C15.8395 1.60627 15.3565 1.70303 14.9059 1.89102C14.4553 2.07901 14.0459 2.35455 13.701 2.70191L4.24564 12.2269C3.14878 13.3592 2.53912 14.8813 2.54879 16.4632C2.55846 18.0451 3.18669 19.5595 4.29731 20.6781C5.40793 21.7968 6.91149 22.4295 8.48212 22.4392C10.0527 22.449 11.5639 21.8349 12.6881 20.7302L21.8707 11.4799L23 12.6173L13.8158 21.866C12.3885 23.2518 10.4781 24.018 8.49569 23.9997C6.51324 23.9813 4.61716 23.1799 3.2154 21.7678C1.81365 20.3558 1.01824 18.4459 1.00031 16.4492C0.982384 14.4525 1.74338 12.5285 3.11955 11.0911L12.5749 1.5645V1.56611Z" fill="#82A6DD"/>
</svg>
