<svg width="130" height="48" viewBox="0 0 130 48" fill="none" xmlns="http://www.w3.org/2000/svg">
<path fill-rule="evenodd" clip-rule="evenodd" d="M45.0839 0L47.9651 0.0519466V22.078L0.00048857 22.078L0.000489537 0.0519446L2.88176 0.0519447L2.88176 19.4026H22.271V3.2987L25.0845 3.29871V19.4026L45.0839 19.4026V0ZM45.0834 28.6493L24.9145 28.6493V45.4026H22.0332V28.6493H0L3.93217e-06 25.974L47.9646 25.974V48H45.0834V28.6493ZM13.0743 9.76268C12.7576 10.0293 12.2893 10.1627 11.6693 10.1627H9.89428V7.18268H11.6743C11.9709 7.18268 12.2359 7.21602 12.4693 7.28268C12.7026 7.34935 12.8993 7.44602 13.0593 7.57268C13.2193 7.69602 13.3409 7.84768 13.4243 8.02768C13.5109 8.20435 13.5543 8.40435 13.5543 8.62768C13.5543 9.11435 13.3943 9.49268 13.0743 9.76268ZM9.89428 6.80768V3.90268H11.4143C12.0443 3.90268 12.5093 4.02602 12.8093 4.27268C13.1126 4.51602 13.2643 4.87602 13.2643 5.35268C13.2643 5.53602 13.2293 5.71435 13.1593 5.88768C13.0893 6.06102 12.9793 6.21602 12.8293 6.35268C12.6826 6.48935 12.4926 6.59935 12.2593 6.68268C12.0293 6.76602 11.7509 6.80768 11.4243 6.80768H9.89428ZM12.4643 3.61768C12.1676 3.53768 11.8176 3.49768 11.4143 3.49768H9.37928V10.5727H11.6743C12.051 10.5727 12.3876 10.5293 12.6843 10.4427C12.981 10.3527 13.231 10.2243 13.4343 10.0577C13.6376 9.89102 13.7926 9.68768 13.8993 9.44768C14.0059 9.20768 14.0593 8.93768 14.0593 8.63768C14.0593 8.16768 13.9093 7.78935 13.6093 7.50268C13.3126 7.21268 12.8859 7.02768 12.3293 6.94768C12.5593 6.89102 12.7626 6.80935 12.9393 6.70268C13.1193 6.59268 13.2693 6.46435 13.3893 6.31768C13.5126 6.17102 13.6059 6.01102 13.6693 5.83768C13.7359 5.66435 13.7693 5.48435 13.7693 5.29768C13.7693 5.01435 13.7226 4.76102 13.6293 4.53768C13.5359 4.31435 13.3926 4.12602 13.1993 3.97268C13.0059 3.81602 12.7609 3.69768 12.4643 3.61768ZM39.647 3.49768V10.5727H39.407C39.3637 10.5727 39.327 10.566 39.297 10.5527C39.2703 10.536 39.2437 10.5094 39.217 10.4727L34.622 4.33268C34.632 4.43268 34.637 4.52768 34.637 4.61768V10.5727H34.187V3.49768L34.442 3.49768C34.4887 3.49768 34.5237 3.50435 34.547 3.51768C34.5737 3.52768 34.602 3.55268 34.632 3.59268L39.217 9.71768C39.207 9.61768 39.202 9.52268 39.202 9.43268L39.202 3.49768H39.647ZM11.2342 37.9899H11.7492L11.7492 30.9149H11.2342L11.2342 37.9899ZM37.7821 32.7929H35.2971V39.4328H34.7821V32.7929H32.2821V32.3579H37.7821V32.7929ZM72.0305 12.1917C71.7011 11.6943 71.3341 11.3444 70.9296 11.142C70.5308 10.9396 70.0743 10.8384 69.56 10.8384C69.0514 10.8384 68.6065 10.931 68.2251 11.116C67.8437 11.3011 67.5229 11.5642 67.2629 11.9054C67.0086 12.2408 66.815 12.6456 66.6821 13.1199C66.555 13.5883 66.4914 14.1059 66.4914 14.6726C66.4914 15.9565 66.7254 16.902 67.1935 17.5092C67.6674 18.1106 68.3493 18.4114 69.2393 18.4114C69.8056 18.4114 70.3228 18.2639 70.7909 17.969C71.259 17.674 71.6722 17.2605 72.0305 16.7285V12.1917ZM72.854 6.34497V18.9665H72.4032C72.2529 18.9665 72.1663 18.8914 72.1432 18.741L72.0565 17.3791C71.6751 17.8996 71.2301 18.3131 70.7215 18.6196C70.213 18.9261 69.6409 19.0793 69.0052 19.0793C67.9419 19.0793 67.1155 18.7121 66.5261 17.9776C65.9366 17.2432 65.6419 16.1415 65.6419 14.6726C65.6419 14.0423 65.7228 13.4553 65.8846 12.9117C66.0522 12.3623 66.2949 11.8881 66.6128 11.489C66.9306 11.0842 67.3207 10.7661 67.783 10.5348C68.2511 10.3035 68.7885 10.1878 69.3953 10.1878C69.979 10.1878 70.4846 10.2948 70.9122 10.5088C71.3399 10.7228 71.7126 11.0408 72.0305 11.463V6.34497H72.854ZM79.2127 10.3353V18.9665H78.3892V10.3353H79.2127ZM79.5681 7.3599C79.5681 7.464 79.545 7.56231 79.4988 7.65484C79.4583 7.74158 79.4034 7.81966 79.3341 7.88905C79.2647 7.95845 79.1838 8.01339 79.0914 8.05387C78.9989 8.09435 78.9007 8.11459 78.7966 8.11459C78.6926 8.11459 78.5944 8.09435 78.5019 8.05387C78.4094 8.01339 78.3285 7.95845 78.2592 7.88905C78.1898 7.81966 78.1349 7.74158 78.0945 7.65484C78.054 7.56231 78.0338 7.464 78.0338 7.3599C78.0338 7.25581 78.054 7.15749 78.0945 7.06496C78.1349 6.96665 78.1898 6.8828 78.2592 6.8134C78.3285 6.744 78.4094 6.68906 78.5019 6.64858C78.5944 6.6081 78.6926 6.58786 78.7966 6.58786C78.9007 6.58786 78.9989 6.6081 79.0914 6.64858C79.1838 6.68906 79.2647 6.744 79.3341 6.8134C79.4034 6.8828 79.4583 6.96665 79.4988 7.06496C79.545 7.15749 79.5681 7.25581 79.5681 7.3599ZM88.5599 14.9936C88.2709 15.0977 87.9415 15.1497 87.5717 15.1497C87.2076 15.1497 86.8811 15.0977 86.5922 14.9936C86.309 14.8837 86.0663 14.7333 85.864 14.5425C85.6675 14.3516 85.5173 14.1232 85.4133 13.8572C85.3092 13.5912 85.2572 13.2962 85.2572 12.9724C85.2572 12.6485 85.3092 12.3536 85.4133 12.0876C85.5173 11.8158 85.6675 11.5844 85.864 11.3936C86.0663 11.2028 86.309 11.0553 86.5922 10.9512C86.8811 10.8471 87.2076 10.7951 87.5717 10.7951C87.9358 10.7951 88.2594 10.8471 88.5425 10.9512C88.8315 11.0553 89.0742 11.2028 89.2707 11.3936C89.4729 11.5844 89.6261 11.8158 89.7301 12.0876C89.8399 12.3536 89.8948 12.6485 89.8948 12.9724C89.8948 13.2962 89.8428 13.5912 89.7388 13.8572C89.6348 14.1232 89.4845 14.3516 89.288 14.5425C89.0915 14.7333 88.8488 14.8837 88.5599 14.9936ZM90.5796 18.8971C90.7241 19.0591 90.7963 19.2759 90.7963 19.5477C90.7963 19.8427 90.7154 20.1145 90.5536 20.3632C90.3976 20.6118 90.178 20.8258 89.8948 21.0051C89.6174 21.1844 89.288 21.3232 88.9066 21.4215C88.531 21.5198 88.1236 21.5689 87.6844 21.5689C87.2105 21.5689 86.7915 21.5227 86.4275 21.4301C86.0634 21.3376 85.7542 21.2104 85.5 21.0485C85.2515 20.8923 85.0608 20.7044 84.9278 20.4846C84.8007 20.2706 84.7371 20.0364 84.7371 19.782C84.7371 19.5853 84.7747 19.4003 84.8498 19.2268C84.925 19.0591 85.029 18.9029 85.1619 18.7584C85.2948 18.6138 85.4537 18.4865 85.6386 18.3767C85.8236 18.261 86.0258 18.1598 86.2454 18.0731C86.5459 18.1251 86.8667 18.1598 87.2076 18.1772C87.5486 18.1945 87.8866 18.2119 88.2218 18.2292C88.5628 18.2466 88.8864 18.2755 89.1927 18.3159C89.5047 18.3506 89.7792 18.4143 90.0162 18.5068C90.2531 18.5993 90.4409 18.7294 90.5796 18.8971ZM91.6978 11.0032V10.717H89.4874C89.2331 10.5493 88.9442 10.4192 88.6206 10.3266C88.3027 10.2341 87.9531 10.1878 87.5717 10.1878C87.1094 10.1878 86.6875 10.2543 86.3061 10.3873C85.9305 10.5204 85.6069 10.7083 85.3353 10.9512C85.0637 11.1941 84.8527 11.4861 84.7025 11.8273C84.558 12.1628 84.4858 12.5387 84.4858 12.955C84.4858 13.4813 84.5984 13.941 84.8238 14.3343C85.055 14.7275 85.3757 15.0427 85.786 15.2798C85.6184 15.3724 85.4682 15.4765 85.3353 15.5921C85.2023 15.7078 85.0897 15.8321 84.9972 15.9651C84.9047 16.0924 84.8354 16.2225 84.7892 16.3555C84.7429 16.4885 84.7198 16.6157 84.7198 16.7372C84.7198 17.061 84.8065 17.3184 84.9799 17.5092C85.159 17.6943 85.3931 17.836 85.682 17.9343C85.1619 18.1193 84.7516 18.3767 84.4511 18.7063C84.1506 19.0302 84.0003 19.4205 84.0003 19.8774C84.0003 20.1897 84.0784 20.4846 84.2344 20.7622C84.3904 21.0398 84.6216 21.2827 84.9278 21.4909C85.2399 21.7048 85.6242 21.8725 86.0807 21.994C86.5373 22.1212 87.0689 22.1848 87.6757 22.1848C88.2709 22.1848 88.8084 22.1068 89.288 21.9506C89.7677 21.8003 90.1751 21.5978 90.5103 21.3434C90.8512 21.0889 91.1113 20.7969 91.2904 20.4673C91.4695 20.1376 91.5591 19.7935 91.5591 19.435C91.5591 19.0475 91.4695 18.7381 91.2904 18.5068C91.117 18.2697 90.8859 18.0875 90.5969 17.9603C90.3138 17.8273 89.9873 17.7347 89.6174 17.6827C89.2533 17.6307 88.8806 17.596 88.4992 17.5786C88.1178 17.5555 87.7422 17.5352 87.3723 17.5179C87.0082 17.5005 86.6817 17.4629 86.3928 17.4051C86.1096 17.3415 85.8785 17.2432 85.6993 17.1102C85.526 16.9772 85.4393 16.7863 85.4393 16.5377C85.4393 16.3526 85.5086 16.1675 85.6473 15.9825C85.7918 15.7916 85.9854 15.6268 86.2281 15.488C86.6326 15.6384 87.0805 15.7136 87.5717 15.7136C88.0282 15.7136 88.4443 15.6471 88.8199 15.514C89.2013 15.381 89.5249 15.196 89.7908 14.9589C90.0624 14.716 90.2704 14.4268 90.4149 14.0914C90.5651 13.7502 90.6403 13.3714 90.6403 12.955C90.6403 12.637 90.5969 12.342 90.5103 12.0702C90.4236 11.7984 90.2993 11.5526 90.1375 11.3329L91.4551 11.2375C91.6169 11.2085 91.6978 11.1305 91.6978 11.0032ZM97.1284 10.3353V18.9665H96.3049V10.3353H97.1284ZM97.4838 7.3599C97.4838 7.464 97.4607 7.56231 97.4144 7.65484C97.374 7.74158 97.3191 7.81966 97.2497 7.88905C97.1804 7.95845 97.0995 8.01339 97.007 8.05387C96.9146 8.09435 96.8163 8.11459 96.7123 8.11459C96.6083 8.11459 96.51 8.09435 96.4176 8.05387C96.3251 8.01339 96.2442 7.95845 96.1749 7.88905C96.1055 7.81966 96.0506 7.74158 96.0102 7.65484C95.9697 7.56231 95.9495 7.464 95.9495 7.3599C95.9495 7.25581 95.9697 7.15749 96.0102 7.06496C96.0506 6.96665 96.1055 6.8828 96.1749 6.8134C96.2442 6.744 96.3251 6.68906 96.4176 6.64858C96.51 6.6081 96.6083 6.58786 96.7123 6.58786C96.8163 6.58786 96.9146 6.6081 97.007 6.64858C97.0995 6.68906 97.1804 6.744 97.2497 6.8134C97.3191 6.8828 97.374 6.96665 97.4144 7.06496C97.4607 7.15749 97.4838 7.25581 97.4838 7.3599ZM103.658 18.6196C103.988 18.9434 104.444 19.1053 105.028 19.1053C105.392 19.1053 105.742 19.0331 106.077 18.8885C106.418 18.7381 106.698 18.5415 106.918 18.2986L106.692 17.9343C106.646 17.8764 106.6 17.8475 106.554 17.8475C106.513 17.8475 106.458 17.8793 106.389 17.9429C106.32 18.0008 106.23 18.0673 106.12 18.1425C106.01 18.2119 105.88 18.2784 105.73 18.342C105.58 18.3998 105.401 18.4287 105.193 18.4287C105.025 18.4287 104.869 18.4027 104.725 18.3506C104.58 18.2986 104.453 18.2176 104.343 18.1078C104.239 17.9979 104.155 17.8591 104.092 17.6914C104.034 17.5179 104.005 17.3126 104.005 17.0755V11.2201H106.727V10.6042H104.005V7.30785H103.615C103.551 7.30785 103.502 7.32809 103.468 7.36858C103.433 7.40906 103.41 7.45532 103.398 7.50737L103.19 10.5955L101.717 10.6996V11.0206C101.717 11.0842 101.737 11.1334 101.777 11.1681C101.818 11.2028 101.87 11.2201 101.933 11.2201H103.173V17.1189C103.173 17.7955 103.335 18.2957 103.658 18.6196ZM116.041 14.7941C115.221 14.823 114.513 14.8895 113.918 14.9936C113.328 15.0919 112.84 15.2278 112.453 15.4013C112.071 15.5748 111.788 15.783 111.603 16.0258C111.418 16.263 111.326 16.5348 111.326 16.8413C111.326 17.1304 111.372 17.382 111.465 17.596C111.563 17.8041 111.69 17.9776 111.846 18.1164C112.008 18.2494 112.193 18.3478 112.401 18.4114C112.609 18.475 112.826 18.5068 113.051 18.5068C113.386 18.5068 113.692 18.4721 113.97 18.4027C114.253 18.3275 114.513 18.2263 114.75 18.0991C114.993 17.9661 115.218 17.8099 115.426 17.6307C115.634 17.4514 115.839 17.2576 116.041 17.0495V14.7941ZM110.97 11.5584C111.421 11.1073 111.895 10.7661 112.392 10.5348C112.889 10.3035 113.453 10.1878 114.082 10.1878C114.545 10.1878 114.949 10.263 115.296 10.4134C115.643 10.5579 115.929 10.769 116.154 11.0466C116.385 11.3184 116.559 11.6509 116.674 12.0442C116.79 12.4317 116.848 12.8654 116.848 13.3454V18.9665H116.518C116.345 18.9665 116.238 18.8856 116.197 18.7237L116.076 17.6133C115.839 17.8446 115.602 18.0528 115.365 18.2379C115.134 18.4229 114.891 18.5791 114.637 18.7063C114.383 18.8335 114.108 18.9318 113.814 19.0012C113.519 19.0706 113.195 19.1053 112.843 19.1053C112.548 19.1053 112.262 19.062 111.985 18.9752C111.707 18.8885 111.459 18.7555 111.239 18.5762C111.025 18.3969 110.852 18.1685 110.719 17.8909C110.592 17.6075 110.528 17.2692 110.528 16.876C110.528 16.5116 110.632 16.1733 110.84 15.861C111.048 15.5487 111.375 15.2769 111.82 15.0456C112.265 14.8143 112.834 14.6292 113.528 14.4904C114.227 14.3516 115.065 14.2707 116.041 14.2476V13.3454C116.041 12.5473 115.868 11.9343 115.521 11.5064C115.18 11.0726 114.672 10.8558 113.996 10.8558C113.58 10.8558 113.224 10.9136 112.93 11.0293C112.641 11.1449 112.395 11.2722 112.193 11.4109C111.99 11.5497 111.826 11.677 111.699 11.7926C111.571 11.9083 111.465 11.9661 111.378 11.9661C111.314 11.9661 111.262 11.9517 111.222 11.9228C111.181 11.8938 111.147 11.8562 111.118 11.81L110.97 11.5584ZM123.121 18.9665V6.34497H122.289V18.9665H123.121ZM70.9729 32.1433C70.1523 32.1722 69.4444 32.2387 68.8492 32.3428C68.2597 32.4411 67.7714 32.577 67.3842 32.7505C67.0028 32.924 66.7197 33.1322 66.5347 33.3751C66.3498 33.6122 66.2574 33.884 66.2574 34.1905C66.2574 34.4797 66.3036 34.7312 66.396 34.9452C66.4943 35.1534 66.6214 35.3269 66.7775 35.4657C66.9393 35.5987 67.1242 35.697 67.3322 35.7606C67.5403 35.8242 67.757 35.856 67.9824 35.856C68.3175 35.856 68.6238 35.8213 68.9012 35.7519C69.1844 35.6768 69.4444 35.5756 69.6813 35.4483C69.9241 35.3153 70.1494 35.1592 70.3575 34.9799C70.5655 34.8006 70.7707 34.6069 70.9729 34.3987V32.1433ZM65.902 28.9077C66.3527 28.4566 66.8266 28.1154 67.3236 27.8841C67.8205 27.6527 68.384 27.5371 69.0139 27.5371C69.4762 27.5371 69.8807 27.6122 70.2274 27.7626C70.5742 27.9072 70.8602 28.1183 71.0856 28.3959C71.3168 28.6677 71.4901 29.0002 71.6057 29.3934C71.7213 29.7809 71.7791 30.2146 71.7791 30.6946V36.3158H71.4497C71.2763 36.3158 71.1694 36.2348 71.129 36.0729L71.0076 34.9625C70.7707 35.1939 70.5337 35.4021 70.2968 35.5871C70.0656 35.7722 69.8229 35.9283 69.5687 36.0555C69.3144 36.1828 69.0399 36.2811 68.7452 36.3505C68.4504 36.4199 68.1268 36.4546 67.7743 36.4546C67.4796 36.4546 67.1935 36.4112 66.9161 36.3245C66.6388 36.2377 66.3903 36.1047 66.1707 35.9254C65.9569 35.7462 65.7835 35.5177 65.6506 35.2401C65.5234 34.9568 65.4599 34.6185 65.4599 34.2252C65.4599 33.8609 65.5639 33.5226 65.7719 33.2103C65.98 32.898 66.3065 32.6262 66.7514 32.3949C67.1964 32.1635 67.7656 31.9785 68.4591 31.8397C69.1584 31.7009 69.9963 31.6199 70.9729 31.5968V30.6946C70.9729 29.8966 70.7996 29.2836 70.4528 28.8556C70.1119 28.4219 69.6033 28.205 68.9272 28.205C68.5111 28.205 68.1557 28.2628 67.861 28.3785C67.5721 28.4942 67.3264 28.6214 67.1242 28.7602C66.9219 28.899 66.7572 29.0262 66.6301 29.1419C66.503 29.2575 66.396 29.3154 66.3094 29.3154C66.2458 29.3154 66.1938 29.3009 66.1533 29.272C66.1129 29.2431 66.0782 29.2055 66.0493 29.1592L65.902 28.9077ZM80.948 32.3428C80.6591 32.4469 80.3297 32.499 79.9598 32.499C79.5957 32.499 79.2692 32.4469 78.9803 32.3428C78.6971 32.2329 78.4544 32.0826 78.2522 31.8917C78.0557 31.7009 77.9054 31.4725 77.8014 31.2064C77.6974 30.9404 77.6454 30.6455 77.6454 30.3216C77.6454 29.9978 77.6974 29.7028 77.8014 29.4368C77.9054 29.165 78.0557 28.9337 78.2522 28.7428C78.4544 28.552 78.6971 28.4045 78.9803 28.3004C79.2692 28.1963 79.5957 28.1443 79.9598 28.1443C80.3239 28.1443 80.6475 28.1963 80.9307 28.3004C81.2196 28.4045 81.4623 28.552 81.6588 28.7428C81.8611 28.9337 82.0142 29.165 82.1182 29.4368C82.228 29.7028 82.2829 29.9978 82.2829 30.3216C82.2829 30.6455 82.2309 30.9404 82.1269 31.2064C82.0229 31.4725 81.8726 31.7009 81.6761 31.8917C81.4797 32.0826 81.2369 32.2329 80.948 32.3428ZM82.9677 36.2464C83.1122 36.4083 83.1844 36.6252 83.1844 36.897C83.1844 37.1919 83.1035 37.4637 82.9417 37.7124C82.7857 37.9611 82.5661 38.175 82.2829 38.3543C82.0055 38.5336 81.6761 38.6724 81.2947 38.7707C80.9191 38.869 80.5117 38.9182 80.0725 38.9182C79.5986 38.9182 79.1797 38.8719 78.8156 38.7794C78.4515 38.6869 78.1424 38.5596 77.8881 38.3977C77.6396 38.2416 77.4489 38.0536 77.316 37.8338C77.1888 37.6199 77.1253 37.3857 77.1253 37.1312C77.1253 36.9346 77.1628 36.7495 77.238 36.576C77.3131 36.4083 77.4171 36.2522 77.55 36.1076C77.6829 35.963 77.8419 35.8358 78.0268 35.7259C78.2117 35.6103 78.414 35.509 78.6336 35.4223C78.9341 35.4743 79.2548 35.509 79.5957 35.5264C79.9367 35.5437 80.2748 35.5611 80.6099 35.5784C80.9509 35.5958 81.2745 35.6247 81.5808 35.6652C81.8929 35.6999 82.1674 35.7635 82.4043 35.856C82.6412 35.9486 82.829 36.0787 82.9677 36.2464ZM84.0859 28.3525V28.0662H81.8755C81.6212 27.8985 81.3323 27.7684 81.0087 27.6759C80.6908 27.5833 80.3412 27.5371 79.9598 27.5371C79.4975 27.5371 79.0756 27.6036 78.6942 27.7366C78.3186 27.8696 77.995 28.0576 77.7234 28.3004C77.4518 28.5433 77.2408 28.8354 77.0906 29.1766C76.9461 29.512 76.8739 29.8879 76.8739 30.3043C76.8739 30.8305 76.9866 31.2903 77.212 31.6835C77.4431 32.0768 77.7638 32.392 78.1741 32.6291C78.0065 32.7216 77.8563 32.8257 77.7234 32.9414C77.5905 33.057 77.4778 33.1814 77.3853 33.3144C77.2929 33.4416 77.2235 33.5717 77.1773 33.7047C77.1311 33.8377 77.1079 33.965 77.1079 34.0864C77.1079 34.4103 77.1946 34.6676 77.368 34.8585C77.5471 35.0435 77.7812 35.1852 78.0701 35.2835C77.55 35.4686 77.1397 35.7259 76.8392 36.0555C76.5387 36.3794 76.3885 36.7698 76.3885 37.2266C76.3885 37.5389 76.4665 37.8338 76.6225 38.1114C76.7785 38.389 77.0097 38.6319 77.316 38.8401C77.628 39.0541 78.0123 39.2218 78.4689 39.3432C78.9254 39.4705 79.457 39.5341 80.0638 39.5341C80.6591 39.5341 81.1965 39.456 81.6761 39.2999C82.1558 39.1495 82.5632 38.9471 82.8984 38.6926C83.2393 38.4382 83.4994 38.1461 83.6785 37.8165C83.8577 37.4869 83.9472 37.1428 83.9472 36.7842C83.9472 36.3968 83.8577 36.0874 83.6785 35.856C83.5052 35.6189 83.274 35.4368 82.9851 35.3095C82.7019 35.1765 82.3754 35.084 82.0055 35.0319C81.6415 34.9799 81.2687 34.9452 80.8873 34.9278C80.5059 34.9047 80.1303 34.8845 79.7604 34.8671C79.3964 34.8498 79.0699 34.8122 78.7809 34.7544C78.4978 34.6907 78.2666 34.5924 78.0875 34.4594C77.9141 34.3264 77.8274 34.1356 77.8274 33.8869C77.8274 33.7018 77.8968 33.5168 78.0354 33.3317C78.1799 33.1409 78.3735 32.9761 78.6162 32.8373C79.0207 32.9876 79.4686 33.0628 79.9598 33.0628C80.4163 33.0628 80.8324 32.9963 81.2081 32.8633C81.5895 32.7303 81.9131 32.5452 82.1789 32.3081C82.4505 32.0652 82.6586 31.7761 82.803 31.4407C82.9533 31.0995 83.0284 30.7207 83.0284 30.3043C83.0284 29.9862 82.9851 29.6913 82.8984 29.4195C82.8117 29.1477 82.6874 28.9019 82.5256 28.6821L83.8432 28.5867C84.005 28.5578 84.0859 28.4797 84.0859 28.3525ZM94.5296 31.1284C94.5296 30.6657 94.4632 30.2522 94.3303 29.8879C94.2031 29.5178 94.0211 29.2055 93.7842 28.951C93.5472 28.6966 93.2641 28.5028 92.9347 28.3698C92.6111 28.231 92.2528 28.1616 91.8598 28.1616C91.4148 28.1616 91.0161 28.231 90.6636 28.3698C90.3111 28.5086 90.0048 28.7081 89.7447 28.9684C89.4905 29.2286 89.2853 29.5409 89.1293 29.9052C88.9733 30.2696 88.8692 30.6773 88.8172 31.1284H94.5296ZM88.7739 31.6575V31.8223C88.7739 32.47 88.849 33.0397 88.9993 33.5312C89.1495 34.0228 89.3633 34.4363 89.6407 34.7717C89.9181 35.1013 90.2533 35.35 90.6462 35.5177C91.0392 35.6854 91.4784 35.7693 91.9638 35.7693C92.3972 35.7693 92.7729 35.723 93.0907 35.6305C93.4085 35.5322 93.6744 35.4252 93.8882 35.3095C94.1078 35.1881 94.2812 35.0811 94.4083 34.9886C94.5354 34.8903 94.6279 34.8411 94.6857 34.8411C94.7608 34.8411 94.8186 34.87 94.859 34.9278L95.0844 35.2054C94.9457 35.3789 94.7608 35.5409 94.5296 35.6912C94.3043 35.8416 94.05 35.9717 93.7668 36.0816C93.4894 36.1857 93.1889 36.2695 92.8653 36.3331C92.5475 36.3968 92.2268 36.4286 91.9031 36.4286C91.3137 36.4286 90.7763 36.3274 90.2908 36.1249C89.8054 35.9168 89.3893 35.616 89.0426 35.2228C88.6959 34.8295 88.4271 34.3495 88.2364 33.7828C88.0515 33.2103 87.9591 32.5568 87.9591 31.8223C87.9591 31.2035 88.0457 30.6339 88.2191 30.1134C88.3982 29.5872 88.6525 29.1361 88.9819 28.7602C89.3171 28.3785 89.7245 28.0807 90.2041 27.8667C90.6896 27.6527 91.2386 27.5457 91.8511 27.5457C92.3366 27.5457 92.7873 27.6296 93.2034 27.7973C93.6195 27.965 93.9807 28.2108 94.2869 28.5347C94.5932 28.8527 94.833 29.246 95.0064 29.7144C95.1855 30.1828 95.2751 30.7207 95.2751 31.3279C95.2751 31.4551 95.2578 31.5419 95.2231 31.5881C95.1884 31.6344 95.1306 31.6575 95.0497 31.6575H88.7739ZM102.288 27.9968C101.767 28.2975 101.308 28.6966 100.909 29.1939L100.831 27.9014C100.808 27.7568 100.724 27.6845 100.58 27.6845H100.12V36.3158H100.953V29.8272C101.334 29.3183 101.767 28.9221 102.253 28.6388C102.744 28.3496 103.27 28.205 103.83 28.205C104.588 28.205 105.151 28.4363 105.521 28.899C105.891 29.3559 106.076 29.9891 106.076 30.7987V36.3158H106.908V30.7987C106.908 30.2956 106.847 29.8445 106.726 29.4455C106.604 29.0465 106.425 28.7053 106.188 28.4219C105.951 28.1385 105.651 27.9216 105.287 27.7713C104.928 27.6209 104.512 27.5457 104.039 27.5457C103.397 27.5457 102.813 27.6961 102.288 27.9968ZM118.052 28.8383C118.023 28.8672 117.994 28.8932 117.965 28.9163C117.942 28.9337 117.907 28.9424 117.861 28.9424C117.803 28.9424 117.725 28.9048 117.627 28.8296C117.529 28.7486 117.396 28.6619 117.228 28.5693C117.061 28.4768 116.85 28.393 116.596 28.3178C116.347 28.2368 116.044 28.1963 115.685 28.1963C115.188 28.1963 114.746 28.286 114.359 28.4653C113.978 28.6388 113.654 28.8903 113.388 29.2199C113.122 29.5496 112.92 29.9486 112.781 30.417C112.649 30.8855 112.582 31.4117 112.582 31.9958C112.582 32.6031 112.651 33.1409 112.79 33.6093C112.935 34.0777 113.137 34.4739 113.397 34.7977C113.657 35.1158 113.972 35.3587 114.342 35.5264C114.712 35.6941 115.122 35.778 115.573 35.778C115.989 35.778 116.335 35.7288 116.613 35.6305C116.896 35.5322 117.127 35.4252 117.306 35.3095C117.491 35.1939 117.636 35.0869 117.74 34.9886C117.844 34.8903 117.93 34.8411 118 34.8411C118.069 34.8411 118.127 34.87 118.173 34.9278L118.39 35.2054C118.257 35.3789 118.089 35.5409 117.887 35.6912C117.685 35.8416 117.457 35.9717 117.202 36.0816C116.948 36.1915 116.671 36.2753 116.37 36.3331C116.075 36.3968 115.766 36.4286 115.443 36.4286C114.894 36.4286 114.391 36.3302 113.934 36.1336C113.484 35.9312 113.094 35.6421 112.764 35.2662C112.441 34.8845 112.186 34.4189 112.001 33.8695C111.822 33.3202 111.733 32.6956 111.733 31.9958C111.733 31.3366 111.819 30.7351 111.993 30.1915C112.166 29.6479 112.42 29.1795 112.755 28.7862C113.091 28.393 113.498 28.0894 113.978 27.8754C114.463 27.6556 115.018 27.5457 115.642 27.5457C116.203 27.5457 116.7 27.6354 117.133 27.8147C117.566 27.9939 117.945 28.2368 118.269 28.5433L118.052 28.8383ZM125.042 39.0917L130 27.6845H129.367C129.304 27.6845 129.246 27.7048 129.194 27.7453C129.142 27.78 129.101 27.8291 129.072 27.8927L126.203 34.6069C126.169 34.6936 126.134 34.7833 126.099 34.8758C126.07 34.9625 126.041 35.0522 126.012 35.1447C125.989 35.0522 125.963 34.9625 125.934 34.8758C125.911 34.7833 125.882 34.6936 125.848 34.6069L122.944 27.8927C122.927 27.8407 122.892 27.7944 122.84 27.7539C122.788 27.7077 122.719 27.6845 122.632 27.6845H121.947L125.596 35.9948L124.079 39.3693H124.669C124.773 39.3693 124.851 39.3432 124.903 39.2912C124.961 39.2391 125.007 39.1726 125.042 39.0917Z" fill="url(#paint0_linear)"/>
<defs>
<linearGradient id="paint0_linear" x1="97.0954" y1="-17.7391" x2="3.66613" y2="54.8278" gradientUnits="userSpaceOnUse">
<stop stop-color="#EB93B8"/>
<stop offset="0.1953" stop-color="#AB9EE1"/>
<stop offset="0.393225" stop-color="#A880FF"/>
<stop offset="0.617192" stop-color="#8AA1F4"/>
<stop offset="0.8047" stop-color="#8BABDA"/>
<stop offset="1" stop-color="#829ACA"/>
</linearGradient>
</defs>
</svg>
