<svg width="24" height="18" viewBox="0 0 24 18" fill="none" xmlns="http://www.w3.org/2000/svg">
<path d="M21.6 0H2.4C1.08 0 0 1.0125 0 2.25V15.75C0 16.9875 1.08 18 2.4 18H21.6C22.92 18 24 16.9875 24 15.75V2.25C24 1.0125 22.92 0 21.6 0ZM21.12 4.78125L13.272 9.3825C12.492 9.84375 11.508 9.84375 10.728 9.3825L2.88 4.78125C2.75967 4.71793 2.6543 4.63237 2.57027 4.52976C2.48623 4.42715 2.42527 4.30963 2.39109 4.18429C2.35691 4.05896 2.3502 3.92843 2.37139 3.8006C2.39257 3.67276 2.4412 3.55029 2.51434 3.44059C2.58747 3.33089 2.68359 3.23624 2.79687 3.16237C2.91015 3.0885 3.03825 3.03695 3.17339 3.01084C3.30854 2.98472 3.44794 2.98459 3.58315 3.01044C3.71835 3.0363 3.84656 3.0876 3.96 3.16125L12 7.875L20.04 3.16125C20.1534 3.0876 20.2817 3.0363 20.4169 3.01044C20.5521 2.98459 20.6915 2.98472 20.8266 3.01084C20.9618 3.03695 21.0898 3.0885 21.2031 3.16237C21.3164 3.23624 21.4125 3.33089 21.4857 3.44059C21.5588 3.55029 21.6074 3.67276 21.6286 3.8006C21.6498 3.92843 21.6431 4.05896 21.6089 4.18429C21.5747 4.30963 21.5138 4.42715 21.4297 4.52976C21.3457 4.63237 21.2403 4.71793 21.12 4.78125Z" fill="#82A6DD"/>
</svg>
