<?xml version="1.0" encoding="UTF-8" standalone="no"?>
<!DOCTYPE svg PUBLIC "-//W3C//DTD SVG 1.1//EN" "http://www.w3.org/Graphics/SVG/1.1/DTD/svg11.dtd">
<svg width="100%" height="100%" viewBox="0 0 23 24" version="1.1" xmlns="http://www.w3.org/2000/svg" xmlns:xlink="http://www.w3.org/1999/xlink" xml:space="preserve" xmlns:serif="http://www.serif.com/" style="fill-rule:evenodd;clip-rule:evenodd;stroke-linejoin:round;stroke-miterlimit:2;">
    <path d="M4.731,12.8L3.885,12.8L3.885,11.2L4.731,11.2C4.955,11.2 5.17,11.284 5.329,11.434C5.488,11.584 5.577,11.788 5.577,12C5.577,12.212 5.488,12.416 5.329,12.566C5.17,12.716 4.955,12.8 4.731,12.8Z" style="fill:rgb(91,91,91);fill-rule:nonzero;"/>
    <path d="M10.654,16L10.654,11.2L11.5,11.2C11.725,11.2 11.94,11.284 12.098,11.434C12.257,11.584 12.346,11.788 12.346,12L12.346,15.2C12.346,15.412 12.257,15.616 12.098,15.766C11.94,15.916 11.725,16 11.5,16L10.654,16Z" style="fill:rgb(91,91,91);fill-rule:nonzero;"/>
    <path d="M0.5,2.4C0.5,1.763 0.767,1.153 1.244,0.703C1.72,0.253 2.365,0 3.038,0L16.927,0L22.5,5.269L22.5,21.6C22.5,22.237 22.233,22.847 21.757,23.297C21.28,23.747 20.635,24 19.962,24L3.038,24C2.365,24 1.72,23.747 1.244,23.297C0.767,22.847 0.5,22.237 0.5,21.6L0.5,2.4ZM4.731,9.6L2.192,9.6L2.192,17.6L3.885,17.6L3.885,14.4L4.731,14.4C5.404,14.4 6.05,14.147 6.526,13.697C7.002,13.247 7.269,12.637 7.269,12C7.269,11.364 7.002,10.753 6.526,10.303C6.05,9.853 5.404,9.6 4.731,9.6ZM11.5,9.6L8.962,9.6L8.962,17.6L11.5,17.6C12.173,17.6 12.819,17.347 13.295,16.897C13.771,16.447 14.039,15.836 14.039,15.2L14.039,12C14.039,11.364 13.771,10.753 13.295,10.303C12.819,9.853 12.173,9.6 11.5,9.6ZM15.731,17.6L15.731,9.6L20.808,9.6L20.808,11.2L17.423,11.2L17.423,12.8L19.115,12.8L19.115,14.4L17.423,14.4L17.423,17.6L15.731,17.6Z" style="fill:rgb(91,91,91);"/>
</svg>
