<?xml version="1.0" encoding="UTF-8" standalone="no"?>
<!DOCTYPE svg PUBLIC "-//W3C//DTD SVG 1.1//EN" "http://www.w3.org/Graphics/SVG/1.1/DTD/svg11.dtd">
<svg width="100%" height="100%" viewBox="0 0 18 18" version="1.1" xmlns="http://www.w3.org/2000/svg" xmlns:xlink="http://www.w3.org/1999/xlink" xml:space="preserve" xmlns:serif="http://www.serif.com/" style="fill-rule:evenodd;clip-rule:evenodd;stroke-linejoin:round;stroke-miterlimit:2;">
    <path d="M7.5,7.5L7.5,1.5C7.5,0.672 8.172,0 9,0C9.828,0 10.5,0.672 10.5,1.5L10.5,7.5L16.5,7.5C17.328,7.5 18,8.172 18,9C18,9.828 17.328,10.5 16.5,10.5L10.5,10.5L10.5,16.5C10.5,17.328 9.828,18 9,18C8.172,18 7.5,17.328 7.5,16.5L7.5,10.5L1.5,10.5C0.672,10.5 0,9.828 0,9C0,8.172 0.672,7.5 1.5,7.5L7.5,7.5Z" style="fill:rgb(130,166,221);"/>
</svg>
