<svg width="354" height="158" viewBox="0 0 354 158" fill="none" xmlns="http://www.w3.org/2000/svg">
<g filter="url(#filter0_dd)">
<path d="M55.4628 74.9993C59.6807 74.9993 63.2568 74.4781 66.191 73.4358C69.1863 72.3322 71.6315 70.83 73.5265 68.9293C75.4215 67.0286 76.7969 64.8213 77.6527 62.3075C78.5085 59.7323 78.9364 56.9732 78.9364 54.0302C78.9364 48.1441 77.0109 43.5456 73.1597 40.2347C69.3697 36.9238 63.4708 35.2684 55.4628 35.2684H42.9925V74.9993H55.4628ZM121.299 146H93.2406C88.0447 146 84.3158 144.038 82.054 140.114L59.8641 101.211C58.8249 99.5552 57.6635 98.3596 56.3798 97.6239C55.0961 96.8268 53.2622 96.4283 50.8781 96.4283H42.9925V146H12V12H55.4628C65.1212 12 73.3431 13.0117 80.1284 15.035C86.9749 16.997 92.5377 19.7561 96.8167 23.3123C101.157 26.8684 104.305 31.0684 106.261 35.9121C108.217 40.7559 109.195 46.0288 109.195 51.7309C109.195 56.0842 108.615 60.1922 107.453 64.0549C106.292 67.9176 104.58 71.5045 102.318 74.8154C100.057 78.065 97.2446 80.9773 93.8825 83.5525C90.5815 86.1277 86.761 88.243 82.4208 89.8984C84.438 90.9407 86.3331 92.259 88.1058 93.8531C89.8785 95.3859 91.4679 97.2253 92.8739 99.3713L121.299 146Z" fill="url(#paint0_linear)"/>
<path d="M172.872 35.9121V67.1819H214.868V90.1743H172.872V122.088H227.705V146H141.696V12H227.705V35.9121H172.872Z" fill="url(#paint1_linear)"/>
<path d="M287.167 35.9121V69.849H332.831V93.8531H287.167V146H255.991V12H342V35.9121H287.167Z" fill="url(#paint2_linear)"/>
</g>
<defs>
<filter id="filter0_dd" x="0" y="0" width="354" height="158" filterUnits="userSpaceOnUse" color-interpolation-filters="sRGB">
<feFlood flood-opacity="0" result="BackgroundImageFix"/>
<feColorMatrix in="SourceAlpha" type="matrix" values="0 0 0 0 0 0 0 0 0 0 0 0 0 0 0 0 0 0 127 0"/>
<feOffset dx="4" dy="4"/>
<feGaussianBlur stdDeviation="4"/>
<feColorMatrix type="matrix" values="0 0 0 0 0.519688 0 0 0 0 0.53901 0 0 0 0 0.596979 0 0 0 0.35 0"/>
<feBlend mode="normal" in2="BackgroundImageFix" result="effect1_dropShadow"/>
<feColorMatrix in="SourceAlpha" type="matrix" values="0 0 0 0 0 0 0 0 0 0 0 0 0 0 0 0 0 0 127 0"/>
<feOffset dx="-4" dy="-4"/>
<feGaussianBlur stdDeviation="4"/>
<feColorMatrix type="matrix" values="0 0 0 0 1 0 0 0 0 1 0 0 0 0 1 0 0 0 1 0"/>
<feBlend mode="normal" in2="effect1_dropShadow" result="effect2_dropShadow"/>
<feBlend mode="normal" in="SourceGraphic" in2="effect2_dropShadow" result="shape"/>
</filter>
<linearGradient id="paint0_linear" x1="258.473" y1="-37.5217" x2="4.77516" y2="141.654" gradientUnits="userSpaceOnUse">
<stop stop-color="#F5C7DA" stop-opacity="0.75"/>
<stop offset="0.1953" stop-color="#BFB5E8" stop-opacity="0.75"/>
<stop offset="0.393225" stop-color="#D2BDFF" stop-opacity="0.75"/>
<stop offset="0.617192" stop-color="#B9C7F9" stop-opacity="0.75"/>
<stop offset="0.8047" stop-color="#97B3DD" stop-opacity="0.75"/>
<stop offset="1" stop-color="#90A6D0" stop-opacity="0.75"/>
</linearGradient>
<linearGradient id="paint1_linear" x1="258.473" y1="-37.5217" x2="4.77516" y2="141.654" gradientUnits="userSpaceOnUse">
<stop stop-color="#F5C7DA" stop-opacity="0.75"/>
<stop offset="0.1953" stop-color="#BFB5E8" stop-opacity="0.75"/>
<stop offset="0.393225" stop-color="#D2BDFF" stop-opacity="0.75"/>
<stop offset="0.617192" stop-color="#B9C7F9" stop-opacity="0.75"/>
<stop offset="0.8047" stop-color="#97B3DD" stop-opacity="0.75"/>
<stop offset="1" stop-color="#90A6D0" stop-opacity="0.75"/>
</linearGradient>
<linearGradient id="paint2_linear" x1="258.473" y1="-37.5217" x2="4.77516" y2="141.654" gradientUnits="userSpaceOnUse">
<stop stop-color="#F5C7DA" stop-opacity="0.75"/>
<stop offset="0.1953" stop-color="#BFB5E8" stop-opacity="0.75"/>
<stop offset="0.393225" stop-color="#D2BDFF" stop-opacity="0.75"/>
<stop offset="0.617192" stop-color="#B9C7F9" stop-opacity="0.75"/>
<stop offset="0.8047" stop-color="#97B3DD" stop-opacity="0.75"/>
<stop offset="1" stop-color="#90A6D0" stop-opacity="0.75"/>
</linearGradient>
</defs>
</svg>
