<svg width="78" height="92" viewBox="0 0 78 92" fill="none" xmlns="http://www.w3.org/2000/svg">
<g filter="url(#filter0_dd)">
<path d="M62.925 6H15.075C10.0689 6 6 10.11 6 15.1667V76.8333C6 81.89 10.0689 86 15.075 86H62.925C67.9311 86 72 81.89 72 76.8333V15.1667C72 10.11 67.9311 6 62.925 6ZM34.875 49.3333V32.92C42.795 34.1367 48.9 41 48.9 49.3333C48.9 58.5233 41.4981 66 32.4 66C28.7436 66 25.3941 64.7533 22.6551 62.71L34.149 51.1C34.6143 50.6333 34.875 49.9967 34.875 49.3333ZM29.925 32.92V48.3L19.1571 59.1767C17.1342 56.41 15.9 53.0267 15.9 49.3333C15.9 41 22.005 34.1367 29.925 32.92ZM59.625 76.8333H18.375C17.0088 76.8333 15.9 75.7133 15.9 74.3333C15.9 72.9533 17.0088 71.8333 18.375 71.8333H59.625C60.9912 71.8333 62.1 72.9533 62.1 74.3333C62.1 75.7133 60.9912 76.8333 59.625 76.8333ZM59.625 66H54.675C53.3088 66 52.2 64.88 52.2 63.5C52.2 62.12 53.3088 61 54.675 61H59.625C60.9912 61 62.1 62.12 62.1 63.5C62.1 64.88 60.9912 66 59.625 66ZM59.625 56.8333H54.675C53.3088 56.8333 52.2 55.7133 52.2 54.3333C52.2 52.9533 53.3088 51.8333 54.675 51.8333H59.625C60.9912 51.8333 62.1 52.9533 62.1 54.3333C62.1 55.7133 60.9912 56.8333 59.625 56.8333ZM59.625 46.8333H54.675C53.3088 46.8333 52.2 45.7133 52.2 44.3333C52.2 42.9533 53.3088 41.8333 54.675 41.8333H59.625C60.9912 41.8333 62.1 42.9533 62.1 44.3333C62.1 45.7133 60.9912 46.8333 59.625 46.8333ZM59.625 37.6667H54.675C53.3088 37.6667 52.2 36.5467 52.2 35.1667C52.2 33.7867 53.3088 32.6667 54.675 32.6667H59.625C60.9912 32.6667 62.1 33.7867 62.1 35.1667C62.1 36.5467 60.9912 37.6667 59.625 37.6667Z" fill="#82A6DD"/>
</g>
<defs>
<filter id="filter0_dd" x="0" y="0" width="78" height="92" filterUnits="userSpaceOnUse" color-interpolation-filters="sRGB">
<feFlood flood-opacity="0" result="BackgroundImageFix"/>
<feColorMatrix in="SourceAlpha" type="matrix" values="0 0 0 0 0 0 0 0 0 0 0 0 0 0 0 0 0 0 127 0"/>
<feOffset dx="-2" dy="-2"/>
<feGaussianBlur stdDeviation="2"/>
<feColorMatrix type="matrix" values="0 0 0 0 1 0 0 0 0 1 0 0 0 0 1 0 0 0 1 0"/>
<feBlend mode="normal" in2="BackgroundImageFix" result="effect1_dropShadow"/>
<feColorMatrix in="SourceAlpha" type="matrix" values="0 0 0 0 0 0 0 0 0 0 0 0 0 0 0 0 0 0 127 0"/>
<feOffset dx="2" dy="2"/>
<feGaussianBlur stdDeviation="2"/>
<feColorMatrix type="matrix" values="0 0 0 0 0.521569 0 0 0 0 0.537255 0 0 0 0 0.596078 0 0 0 0.5 0"/>
<feBlend mode="normal" in2="effect1_dropShadow" result="effect2_dropShadow"/>
<feBlend mode="normal" in="SourceGraphic" in2="effect2_dropShadow" result="shape"/>
</filter>
</defs>
</svg>
