<svg width="36" height="28" viewBox="0 0 36 28" fill="none" xmlns="http://www.w3.org/2000/svg">
<path d="M8.36513 27.125C8.14813 27.125 7.96369 27.0375 7.81179 26.8625C7.6599 26.6875 7.58395 26.475 7.58395 26.225V6.8L2.63648 11.1875C2.50628 11.3125 2.35439 11.375 2.18079 11.375C1.9204 11.375 1.7034 11.2375 1.52981 10.9625L0.162746 8.9375C0.0542486 8.7375 0 8.55 0 8.375C0 8.075 0.119347 7.825 0.35804 7.625L7.64905 1.1375C7.84434 0.9625 8.11558 0.875 8.46278 0.875H11.3271C11.5658 0.875 11.7502 0.9625 11.8804 1.1375C12.0323 1.2875 12.1083 1.5 12.1083 1.775V26.225C12.1083 26.475 12.0323 26.6875 11.8804 26.8625C11.7502 27.0375 11.5658 27.125 11.3271 27.125H8.36513Z" fill="#82A6DD"/>
<path d="M26.3938 27.5C23.3993 27.5 21.0774 26.6125 19.4283 24.8375C17.8008 23.0625 16.9328 20.5625 16.8243 17.3375C16.8026 16.6625 16.7918 15.5625 16.7918 14.0375C16.7918 12.4875 16.8026 11.3625 16.8243 10.6625C16.9328 7.4625 17.8117 4.975 19.4608 3.2C21.1317 1.4 23.4427 0.5 26.3938 0.5C28.325 0.5 30.0067 0.8875 31.4389 1.6625C32.8711 2.4125 33.9777 3.45 34.7589 4.775C35.5401 6.075 35.9524 7.55 35.9958 9.2V9.275C35.9958 9.475 35.9198 9.65 35.7679 9.8C35.6377 9.925 35.4858 9.9875 35.3123 9.9875H32.2201C31.9597 9.9875 31.7644 9.925 31.6342 9.8C31.504 9.675 31.3955 9.4375 31.3087 9.0875C30.9615 7.5125 30.3865 6.4125 29.5836 5.7875C28.7807 5.1375 27.7066 4.8125 26.3612 4.8125C23.2365 4.8125 21.6091 6.825 21.4789 10.85C21.4572 11.525 21.4463 12.5625 21.4463 13.9625C21.4463 15.3625 21.4572 16.425 21.4789 17.15C21.6091 21.175 23.2365 23.1875 26.3612 23.1875C27.7066 23.1875 28.7807 22.8625 29.5836 22.2125C30.4082 21.5625 30.9832 20.4625 31.3087 18.9125C31.3738 18.5625 31.4715 18.325 31.6016 18.2C31.7535 18.075 31.9597 18.0125 32.2201 18.0125H35.3123C35.5075 18.0125 35.6703 18.0875 35.8005 18.2375C35.9524 18.3875 36.0175 18.575 35.9958 18.8C35.9524 20.45 35.5401 21.9375 34.7589 23.2625C33.9777 24.5625 32.8711 25.6 31.4389 26.375C30.0067 27.125 28.325 27.5 26.3938 27.5Z" fill="#82A6DD"/>
</svg>
