<svg width="110" height="48" viewBox="0 0 110 48" fill="none" xmlns="http://www.w3.org/2000/svg">
<path d="M0 0H49.4546V48H0V0Z" fill="#8E44AC"/>
<path d="M60.9016 41.0115L58.5145 43.5714C58.1716 43.9297 57.9343 44.1729 57.3407 44.7363H61.0335V46.5922H54.5188V44.8642L57.064 42.1762C57.3277 41.8946 57.5123 41.7153 57.974 41.3056H54.7036V39.4753H60.9018V41.0752L60.9016 41.0115ZM69.012 46.4899H66.7437L66.3876 45.4787H64.027L63.6708 46.4899H61.4026L64.0402 39.3986H66.2557L69.012 46.4899ZM65.504 42.7395C65.3895 42.3873 65.297 42.0282 65.227 41.6644C65.1084 42.1508 65.0687 42.3173 64.9236 42.7523C64.9236 42.7523 64.7652 43.2387 64.528 43.9555H65.8467L65.504 42.7395ZM73.4036 39.3986C74.6168 39.3986 76.0411 39.7057 76.0411 41.1778C76.0502 41.7832 75.6945 42.3384 75.1311 42.5986C75.9455 42.7946 76.4999 43.5266 76.4498 44.3394C76.4498 46.0035 75.1311 46.4899 73.6538 46.4899H69.8162V39.3986H73.4955H73.4036ZM71.9003 42.1122H73.219C73.5354 42.162 73.8333 41.9532 73.8844 41.646C73.8883 41.6223 73.8906 41.5984 73.8916 41.5744C73.8916 41.2031 73.6278 41.0113 73.1136 41.0113H71.953V42.112H71.9003V42.1122ZM71.9003 44.813H73.219C73.5858 44.9049 73.9598 44.691 74.0545 44.335C74.0696 44.278 74.0771 44.2192 74.0764 44.1601C74.0773 43.7784 73.7592 43.4682 73.3659 43.4673C73.3167 43.4671 73.2675 43.4719 73.2192 43.4817H71.9005V44.813H71.9003ZM84.7057 42.9444C84.6254 44.9293 82.9025 46.4752 80.8574 46.3973C78.8122 46.3195 77.2196 44.647 77.2999 42.6621C77.3789 40.7132 79.0435 39.1805 81.0528 39.2068C83.0109 39.1431 84.6516 40.6323 84.7171 42.5328C84.7215 42.67 84.7178 42.8074 84.7057 42.9444ZM79.5756 42.9444C79.5756 44.2243 80.1031 44.9411 81.0261 44.9411C81.9492 44.9411 82.4372 44.2371 82.4372 42.8932C82.4372 41.5493 81.9098 40.9987 81.0261 40.9987C80.1425 40.9987 79.5756 41.69 79.5756 42.906V42.9444ZM91.8797 41.2291H89.8225V46.5027H87.5806V41.2291H85.5364V39.4116H91.8665V41.2291H91.8797ZM93.7788 46.4899H91.6687V44.4419H93.7788V46.4899ZM99.3572 39.3986C100.584 39.1931 101.751 39.992 101.963 41.1831C101.981 41.2828 101.991 41.3838 101.995 41.4849C102.014 42.2168 101.592 42.8923 100.913 43.2129C101.591 43.5461 102.007 44.2301 101.982 44.9665L102.048 45.7089C102.045 45.9762 102.108 46.24 102.232 46.4769H99.9374C99.8581 46.2635 99.8135 46.0387 99.8055 45.8112V45.4143C99.8055 44.5952 99.6077 43.9806 98.5658 43.9806H97.6162V46.5406H95.4007V39.4493H99.357V39.3986H99.3572ZM97.6429 42.4963H98.8695C99.2753 42.5814 99.6753 42.3312 99.7631 41.9374C99.7765 41.8771 99.7819 41.8155 99.7795 41.7539C99.7795 41.2803 99.4366 41.0371 98.7376 41.0371H97.6297V42.4963H97.6429ZM109.855 43.597C109.855 45.837 108.628 46.6305 106.532 46.6305C104.435 46.6305 103.221 45.6066 103.221 43.7249V39.4114H105.463V43.7507C105.369 44.2657 105.722 44.7577 106.252 44.8495C106.362 44.8686 106.474 44.8691 106.584 44.8514C107.113 44.9025 107.585 44.5277 107.638 44.0141C107.647 43.9262 107.643 43.8374 107.626 43.7505V39.4112H109.868V43.6096L109.855 43.597ZM63.961 17.946C67.0866 17.946 70.6606 18.7395 70.6606 22.5285C70.6794 24.0988 69.7514 25.5348 68.2867 26.2021C70.3478 26.7522 71.7225 28.6381 71.5704 30.7077C71.5704 35.0084 68.023 36.2628 64.3302 36.2628H54.4526V17.946H63.961ZM60.0048 24.9475H63.2622C64.0634 25.0961 64.837 24.5859 64.99 23.8082C65.0067 23.7238 65.0153 23.6382 65.0162 23.5522C65.0162 22.605 64.3569 22.1058 62.9985 22.1058H60.0707V24.9345L60.0048 24.9475ZM60.0048 31.9235H63.5787C65.0424 31.9235 65.781 31.3603 65.781 30.221C65.781 29.0817 65.0819 28.493 63.6446 28.493H60.0707V31.9362L60.0048 31.9235ZM90.2576 22.4004H80.3139V24.6531H89.387V28.9027H80.3798V31.5779H90.5873V36.2372H74.6301V17.946H90.2709V22.4004H90.2576ZM109.38 22.093L103.235 28.5953C102.364 29.517 101.718 30.1441 100.215 31.6033C102.364 31.5266 103.235 31.4752 104.29 31.4752H109.75V36.2623H92.8952V31.7823L99.4891 24.8319C100.175 24.1151 100.65 23.6543 101.85 22.5664C99.6737 22.5664 100.333 22.6431 98.3812 22.6431H93.3962V17.9074H109.406V22.093H109.38ZM68.0097 14.413H63.8686L63.2093 12.5699H58.9101L58.2508 14.413H54.0967L59.0552 1.47227H63.1171L68.0097 14.413ZM61.5874 7.56515C61.3807 6.91884 61.2133 6.26056 61.0862 5.59395C60.8619 6.49004 60.7827 6.78439 60.519 7.57794C60.519 7.57794 60.242 8.47403 59.7805 9.77957H62.2994C62.0619 9.07553 61.5874 7.60352 61.5874 7.60352V7.56515ZM81.4747 9.15226C81.4747 13.2484 79.2459 14.6946 75.395 14.6946C71.2277 14.6946 69.3286 12.8129 69.3286 9.36965V1.47227H73.4168V9.42104C73.2434 10.3604 73.8871 11.2586 74.855 11.4269C75.0554 11.4618 75.2602 11.4629 75.461 11.4306C76.424 11.532 77.2893 10.8563 77.3937 9.9214C77.4123 9.75445 77.4053 9.58589 77.3733 9.4208V1.47227H81.4747V9.15226ZM94.8867 4.81295H91.1282V14.413H87.0401V4.81295H83.3078V1.48506H94.8867V4.81295ZM110 8.01297C110 12.0705 107.362 14.8097 103.274 14.8097C99.3958 14.6464 96.3881 11.4627 96.5562 7.69815C96.7141 4.16239 99.6314 1.3309 103.274 1.17745C107.323 1.12676 110 3.87873 110 8.01297ZM100.61 7.93624C100.61 10.253 101.586 11.5843 103.248 11.5843C104.909 11.5843 105.885 10.3043 105.885 7.83393C105.885 5.67067 104.923 4.36514 103.248 4.36514C101.573 4.36514 100.61 5.67067 100.61 7.89787V7.93624Z" fill="#181818"/>
<path d="M11.4331 19.0508H38.1871V29.0177H11.4331V19.0508Z" fill="#181713"/>
<path d="M16.2959 25.6106L15.6865 27.284H13.6797L16.2959 20.7651H18.8351L21.4882 27.284H19.4062L18.7459 25.6106H16.2959ZM18.4673 24.5078L17.9334 23.1249C17.7811 22.7382 17.6285 22.2544 17.5011 21.867H17.4765C17.3502 22.2544 17.2225 22.7477 17.0825 23.1249L16.5745 24.5078H18.4673ZM22.3986 20.8516C22.9065 20.7744 23.9345 20.7163 24.8994 20.7163C26.08 20.7163 26.8031 20.803 27.4251 21.0839C28.0222 21.3257 28.4545 21.7705 28.4545 22.3601C28.4545 22.941 28.0097 23.4827 27.0448 23.7533V23.7724C28.0222 23.9761 28.7454 24.5369 28.7454 25.3781C28.7454 25.9684 28.3914 26.4323 27.8574 26.7618C27.2357 27.1389 26.1937 27.3514 24.4931 27.3514C23.5406 27.3514 22.8294 27.3028 22.3986 27.2551V20.8516ZM24.3146 23.3469H24.95C25.9657 23.3469 26.5106 23.0279 26.5106 22.5441C26.5106 22.0507 26.0166 21.7898 25.1409 21.7898C24.7209 21.7898 24.4792 21.8096 24.3146 21.8289V23.3469ZM24.3146 26.2391C24.5054 26.2582 24.7346 26.2582 25.064 26.2582C25.9397 26.2582 26.714 26.0068 26.714 25.32C26.714 24.6627 25.9397 24.4011 24.9749 24.4011H24.3146V26.2391ZM29.2875 26.4907L33.3629 22.0221V21.983H29.6678V20.7647H35.8774V21.6154L31.8901 26.0266V26.0649H35.9406V27.2837H29.2875V26.4907Z" fill="white"/>
<path d="M23.6926 39.5387C15.4397 39.0111 8.90665 32.2661 8.90665 24.0001C8.90665 15.7342 15.4397 8.98916 23.6926 8.4616V7.22884C14.7486 7.75873 7.65576 15.0535 7.65576 24.0001C7.65576 32.9468 14.7488 40.2416 23.6926 40.7715V39.5387ZM25.5961 7.2207V8.45346C33.927 8.90058 40.5481 15.6791 40.5481 24.0001C40.5481 32.3212 33.927 39.1 25.5961 39.5468V40.7796C34.6182 40.3311 41.799 33.002 41.799 24.0001C41.799 14.9983 34.6182 7.66921 25.5961 7.2207Z" fill="#181713"/>
</svg>
