<svg width="36" height="36" viewBox="0 0 36 36" fill="none" xmlns="http://www.w3.org/2000/svg">
<path d="M12.8099 16.0462C12.6599 15.5692 12.5249 15.1077 12.3749 14.6308C12.2249 14.1538 12.0899 13.7077 11.97 13.2615C11.85 12.8308 11.745 12.4308 11.64 12.0615H11.61C11.475 12.7231 11.31 13.3846 11.1 14.0462C10.875 14.7846 10.65 15.5538 10.41 16.3231C10.215 17.1077 9.97496 17.8308 9.74996 18.4769H13.5599C13.4699 18.1538 13.3499 17.7692 13.2149 17.3692C13.0799 16.9538 12.9449 16.5077 12.8099 16.0462ZM25.6799 15.6C24.8549 15.5538 24.0749 16 23.6849 16.7692C23.5049 17.1231 23.3999 17.4923 23.3549 17.8769H26.5184C26.9084 17.8769 27.1934 17.8769 27.3734 17.8615C27.4934 17.8462 27.6134 17.8154 27.7184 17.7385V17.5846C27.7126 17.3167 27.6551 17.0526 27.5493 16.8076C27.4435 16.5626 27.2915 16.3415 27.102 16.157C26.9125 15.9725 26.6893 15.8283 26.4452 15.7327C26.2012 15.6371 25.941 15.592 25.6799 15.6ZM29.6249 0H6.37497C2.84999 0 0 2.92308 0 6.53846V29.4615C0 33.0769 2.84999 36 6.37497 36H29.6249C33.1499 36 35.9999 33.0769 35.9999 29.4615V6.53846C35.9999 2.92308 33.1499 0 29.6249 0ZM19.0649 25.4015H15.9299C15.8249 25.4169 15.7199 25.3385 15.6899 25.2323L14.4599 21.54H8.87996L7.73997 25.1708C7.70997 25.3092 7.58997 25.4015 7.45497 25.3862H4.63498C4.46998 25.3862 4.42498 25.2938 4.46998 25.1092L9.29996 10.9077C9.34496 10.7538 9.38996 10.6154 9.44996 10.4308C9.50996 10.1077 9.53996 9.76923 9.53996 9.43077C9.52496 9.35384 9.58496 9.27692 9.65996 9.26154H13.5449C13.6499 9.26154 13.7249 9.30769 13.7399 9.38461L19.2149 25.1538C19.2599 25.3231 19.2164 25.4015 19.0649 25.4015ZM30.8414 19.2615C30.8099 19.5523 30.7949 19.7692 30.7799 19.9077C30.7649 20.0154 30.6764 20.1077 30.5699 20.1077C30.4799 20.1077 30.3149 20.1231 30.0749 20.14C29.8364 20.1708 29.5499 20.1846 29.2064 20.1846C28.8614 20.1846 28.4999 20.1231 28.1114 20.1231H23.3564C23.4149 20.6 23.5664 21.0769 23.8214 21.4923C24.0868 21.9064 24.468 22.2286 24.9149 22.4169C25.5149 22.6785 26.1764 22.8169 26.8364 22.8015C27.3614 22.7846 27.8849 22.74 28.3949 22.6323C28.8531 22.5723 29.3021 22.4535 29.7314 22.2785C29.8064 22.2185 29.8514 22.2477 29.8514 22.4015V24.7569C29.8514 24.8169 29.8364 24.88 29.8199 24.94C29.7929 24.9828 29.7577 25.0194 29.7164 25.0477C29.2364 25.2631 28.7414 25.4169 28.2164 25.5092C27.5099 25.6477 26.8064 25.7092 26.0864 25.6938C24.9449 25.6938 23.9864 25.5092 23.2064 25.1554C22.4726 24.8276 21.8245 24.3269 21.3149 23.6938C20.8364 23.0938 20.4899 22.4169 20.2799 21.6785C20.07 20.9487 19.9644 20.1916 19.9664 19.4308C19.9664 18.6015 20.0864 17.7846 20.3414 16.9846C20.5814 16.2154 20.9564 15.5077 21.4664 14.8769C21.9614 14.2615 22.5749 13.7692 23.2799 13.4154C23.9864 13.0615 24.8249 12.9385 25.7849 12.9385C26.5847 12.9193 27.3788 13.0822 28.1099 13.4154C28.7249 13.6923 29.2649 14.1077 29.6849 14.6462C30.0749 15.1692 30.3899 15.7538 30.5864 16.4C30.7799 17.0154 30.8699 17.6462 30.8699 18.2769C30.8699 18.6462 30.8549 18.9692 30.8414 19.2615Z" fill="#82A6DD"/>
</svg>
