<svg width="131" height="32" viewBox="0 0 131 32" fill="none" xmlns="http://www.w3.org/2000/svg">
<path d="M116.751 28.4413H123.876V24.888H120.313V21.3333L116.751 21.3173V17.764H113.189V10.6787L116.751 10.6507V7.11733L127.437 7.132V10.6627H120.313V14.2173H123.876V17.776L127.409 17.7893V21.348H131V28.4373H127.437L127.409 31.996H116.751V28.4413ZM113.189 24.9173H116.723V28.448H113.189V24.9173ZM127.467 10.6907L131 10.6787V14.2093L127.467 14.2213V10.6907ZM100.249 10.6667H96.688V7.11067H100.249V3.584L103.812 3.55867V0.0240011L114.499 0V3.52933L107.375 3.55467V7.11067H110.936V10.6667H107.375V32H100.249V10.6667ZM93.8374 21.3333V10.6667H90.2774V7.11067H76.0282V10.6667H72.4656V28.444H76.0282V32H90.2774V28.444H79.5908V21.3333H93.8374ZM79.5895 10.6667H86.7134V17.7773H79.5908L79.5895 10.6667ZM93.8387 28.444H90.2774V24.888H93.8387V28.444ZM51.5626 7.11067H58.6866V10.6667H62.2492V7.11067H69.3731V14.2213H58.6866V32H51.5626V7.11067ZM25.9536 0H33.0775V7.11067H43.7641V10.6667H47.3267V32H40.2082V10.6667H33.0775V32H25.9536V0Z" fill="#054ADA"/>
<path d="M3.56263 17.7774H14.2492V10.6667H3.56263V7.11072H17.8105V10.6667H21.3731V32H3.56531V28.4414H0V21.3334H3.56263V17.7774ZM7.12393 21.3334V28.4441H14.2492V21.3334H7.12393ZM0 10.6667H3.56263V14.2214H0V10.6667Z" fill="#FF8800"/>
</svg>
