<svg width="36" height="36" viewBox="0 0 36 36" fill="none" xmlns="http://www.w3.org/2000/svg">
<path d="M15.7949 16.0462C15.6449 15.5692 15.5099 15.1077 15.3599 14.6308C15.2099 14.1538 15.0749 13.7077 14.9549 13.2615C14.8349 12.8308 14.7299 12.4308 14.6249 12.0615H14.5949C14.4599 12.7231 14.2949 13.3846 14.0849 14.0462C13.8599 14.7846 13.6349 15.5538 13.3949 16.3231C13.1849 17.1077 12.9599 17.8308 12.7349 18.4769H16.5449C16.4549 18.1523 16.3349 17.7692 16.1999 17.3677C16.0649 16.9538 15.9299 16.5077 15.7949 16.0462ZM29.6249 0H6.37497C2.84999 0 0 2.92308 0 6.53846V29.4615C0 33.0769 2.84999 36 6.37497 36H29.6249C33.1499 36 35.9999 33.0769 35.9999 29.4615V6.53846C35.9999 2.92308 33.1499 0 29.6249 0ZM22.0499 25.4308H18.9134C18.8099 25.4462 18.7049 25.3692 18.6749 25.2615L17.4449 21.6H11.865L10.725 25.2154C10.695 25.3538 10.575 25.4461 10.44 25.4323H7.61997C7.45497 25.4323 7.40997 25.3385 7.45497 25.1554L12.2849 10.8923C12.3299 10.7385 12.3749 10.5692 12.4349 10.3846C12.4949 10.0615 12.5249 9.72308 12.5249 9.38461C12.5099 9.30769 12.5699 9.23077 12.6449 9.21538H16.5299C16.6499 9.21538 16.7099 9.26154 16.7249 9.33846L22.1999 25.1846C22.2449 25.3523 22.1999 25.4308 22.0499 25.4308ZM27.1499 25.2C27.1499 25.3692 27.0914 25.4462 26.9564 25.4462H24.0149C23.8649 25.4462 23.7899 25.3523 23.7899 25.2V13.3538C23.7899 13.2 23.8514 13.1385 23.9864 13.1385H26.9564C27.0914 13.1385 27.1499 13.2154 27.1499 13.3538V25.2ZM26.8364 11.3077C26.6592 11.4922 26.4457 11.6357 26.21 11.7286C25.9743 11.8215 25.7219 11.8616 25.4699 11.8462C24.9749 11.8615 24.4949 11.6615 24.1334 11.3077C23.7897 10.9223 23.6067 10.4143 23.6234 9.89231C23.6084 9.36923 23.8034 8.87692 24.1619 8.52308C24.5249 8.16923 25.0049 7.98461 25.4999 7.98461C26.0864 7.98461 26.5334 8.16923 26.8649 8.52308C27.1949 8.89231 27.3749 9.38461 27.3599 9.89231C27.3749 10.4154 27.1949 10.9231 26.8364 11.3077Z" fill="#82A6DD"/>
</svg>
