<svg width="336" height="336" viewBox="0 0 336 336" fill="none" xmlns="http://www.w3.org/2000/svg">
<path d="M0 12C0 5.37258 5.37258 0 12 0H324C330.627 0 336 5.37258 336 12V336H0V12Z" fill="#D2BDFF"/>
<path d="M94 136H160.539V200H94V136Z" fill="#8E44AC"/>
<path d="M175.94 190.682L172.728 194.095C172.267 194.573 171.948 194.897 171.149 195.648H176.117V198.123H167.352V195.819L170.777 192.235C171.131 191.859 171.38 191.62 172.001 191.074H167.601V188.634H175.94V190.767L175.94 190.682ZM186.852 197.986H183.8L183.321 196.638H180.145L179.666 197.986H176.614L180.163 188.531H183.144L186.852 197.986ZM182.132 192.986C181.978 192.516 181.854 192.037 181.76 191.552C181.6 192.201 181.547 192.423 181.351 193.003C181.351 193.003 181.138 193.651 180.819 194.607H182.593L182.132 192.986ZM192.761 188.531C194.393 188.531 196.309 188.941 196.309 190.904C196.322 191.711 195.843 192.451 195.085 192.798C196.181 193.059 196.927 194.035 196.859 195.119C196.859 197.338 195.085 197.986 193.097 197.986H187.934V188.531H192.884H192.761ZM190.738 192.149H192.512C192.938 192.216 193.339 191.937 193.408 191.528C193.413 191.496 193.416 191.464 193.417 191.432C193.417 190.937 193.062 190.682 192.371 190.682H190.809V192.149H190.738V192.149ZM190.738 195.751H192.512C193.006 195.873 193.509 195.588 193.637 195.113C193.657 195.037 193.667 194.959 193.666 194.88C193.667 194.371 193.239 193.957 192.71 193.956C192.644 193.956 192.578 193.962 192.513 193.975H190.738V195.751H190.738ZM207.967 193.259C207.859 195.906 205.541 197.967 202.789 197.863C200.038 197.759 197.895 195.529 198.003 192.883C198.109 190.284 200.349 188.241 203.052 188.276C205.687 188.191 207.894 190.176 207.983 192.71C207.988 192.893 207.983 193.076 207.967 193.259ZM201.065 193.259C201.065 194.966 201.775 195.921 203.017 195.921C204.259 195.921 204.915 194.983 204.915 193.191C204.915 191.399 204.205 190.665 203.017 190.665C201.828 190.665 201.065 191.586 201.065 193.208V193.259ZM217.62 190.972H214.852V198.003H211.835V190.972H209.085V188.549H217.602V190.972H217.62ZM220.175 197.986H217.336V195.256H220.175V197.986ZM227.68 188.531C229.331 188.257 230.901 189.322 231.186 190.911C231.21 191.044 231.224 191.178 231.229 191.313C231.255 192.289 230.686 193.19 229.774 193.617C230.685 194.061 231.246 194.973 231.211 195.955L231.3 196.945C231.296 197.301 231.382 197.653 231.548 197.969H228.461C228.354 197.684 228.294 197.385 228.283 197.081V196.552C228.283 195.46 228.017 194.641 226.615 194.641H225.338V198.054H222.357V188.599H227.68V188.531H227.68ZM225.374 192.662H227.024C227.57 192.775 228.108 192.441 228.226 191.916C228.244 191.836 228.252 191.754 228.248 191.672C228.248 191.04 227.787 190.716 226.847 190.716H225.356V192.662H225.374ZM241.804 194.129C241.804 197.116 240.154 198.174 237.333 198.174C234.512 198.174 232.879 196.809 232.879 194.3V188.548H235.896V194.334C235.768 195.021 236.244 195.677 236.957 195.799C237.105 195.825 237.256 195.825 237.404 195.802C238.116 195.87 238.75 195.37 238.821 194.685C238.833 194.568 238.828 194.45 238.805 194.334V188.548H241.822V194.146L241.804 194.129ZM180.056 159.928C184.262 159.928 189.07 160.986 189.07 166.038C189.095 168.132 187.847 170.046 185.876 170.936C188.649 171.669 190.499 174.184 190.294 176.943C190.294 182.678 185.521 184.35 180.553 184.35H167.263V159.928H180.056ZM174.733 169.263H179.116C180.194 169.461 181.235 168.781 181.441 167.744C181.463 167.632 181.475 167.517 181.476 167.403C181.476 166.14 180.589 165.474 178.761 165.474H174.822V169.246L174.733 169.263ZM174.733 178.564H179.542C181.511 178.564 182.505 177.814 182.505 176.295C182.505 174.775 181.564 173.991 179.63 173.991H174.822V178.581L174.733 178.564ZM215.437 165.867H202.058V168.871H214.266V174.537H202.147V178.104H215.881V184.316H194.411V159.928H215.455V165.867H215.437ZM241.166 165.457L232.897 174.127C231.726 175.356 230.856 176.192 228.834 178.138C231.726 178.035 232.897 177.967 234.317 177.967H241.663V184.35H218.986V178.376L227.858 169.109C228.78 168.153 229.419 167.539 231.034 166.088C228.106 166.088 228.993 166.191 226.367 166.191H219.66V159.876H241.201V165.457H241.166ZM185.504 155.217H179.932L179.045 152.76H173.26L172.373 155.217H166.784L173.456 137.963H178.921L185.504 155.217ZM176.863 146.087C176.584 145.225 176.359 144.347 176.188 143.458C175.886 144.653 175.78 145.046 175.425 146.104C175.425 146.104 175.052 147.299 174.431 149.039H177.821C177.501 148.101 176.863 146.138 176.863 146.138V146.087ZM203.62 148.203C203.62 153.664 200.621 155.593 195.44 155.593C189.833 155.593 187.278 153.084 187.278 148.493V137.963H192.779V148.561C192.545 149.814 193.411 151.011 194.714 151.236C194.983 151.282 195.259 151.284 195.529 151.241C196.825 151.376 197.989 150.475 198.129 149.228C198.154 149.006 198.145 148.781 198.102 148.561V137.963H203.62V148.203ZM221.665 142.417H216.608V155.217H211.108V142.417H206.086V137.98H221.665V142.417ZM242 146.684C242 152.094 238.451 155.746 232.95 155.746C227.732 155.528 223.685 151.283 223.912 146.264C224.124 141.55 228.049 137.774 232.95 137.57C238.397 137.502 242 141.171 242 146.684ZM229.366 146.581C229.366 149.67 230.679 151.446 232.915 151.446C235.15 151.446 236.464 149.739 236.464 146.445C236.464 143.561 235.168 141.82 232.915 141.82C230.661 141.82 229.366 143.561 229.366 146.53V146.581Z" fill="#181818"/>
<path d="M109.384 161.401H145.38V174.69H109.384V161.401Z" fill="#181713"/>
<path d="M115.925 170.147L115.105 172.378H112.405L115.925 163.687H119.342L122.911 172.378H120.11L119.222 170.147H115.925ZM118.847 168.677L118.128 166.833C117.923 166.317 117.718 165.672 117.547 165.156H117.514C117.344 165.672 117.172 166.33 116.984 166.833L116.3 168.677H118.847ZM124.136 163.802C124.82 163.699 126.203 163.622 127.501 163.622C129.089 163.622 130.062 163.737 130.899 164.112C131.703 164.434 132.284 165.027 132.284 165.813C132.284 166.588 131.686 167.31 130.387 167.671V167.696C131.703 167.968 132.676 168.716 132.676 169.837C132.676 170.624 132.199 171.243 131.481 171.682C130.644 172.185 129.242 172.468 126.954 172.468C125.673 172.468 124.716 172.404 124.136 172.34V163.802ZM126.714 167.129H127.569C128.936 167.129 129.669 166.704 129.669 166.059C129.669 165.401 129.004 165.053 127.826 165.053C127.261 165.053 126.936 165.079 126.714 165.105V167.129ZM126.714 170.985C126.971 171.011 127.279 171.011 127.722 171.011C128.901 171.011 129.942 170.676 129.942 169.76C129.942 168.883 128.901 168.535 127.602 168.535H126.714V170.985ZM133.405 171.321L138.888 165.363V165.311H133.917V163.686H142.271V164.82L136.906 170.702V170.753H142.356V172.378H133.405V171.321Z" fill="white"/>
<path d="M125.877 188.718C114.773 188.015 105.983 179.021 105.983 168C105.983 156.979 114.773 147.985 125.877 147.282V145.638C113.843 146.345 104.3 156.071 104.3 168C104.3 179.929 113.843 189.655 125.877 190.362V188.718ZM128.438 145.627V147.271C139.647 147.867 148.555 156.905 148.555 168C148.555 179.095 139.647 188.133 128.438 188.729V190.373C140.577 189.775 150.238 180.002 150.238 168C150.238 155.998 140.577 146.225 128.438 145.627Z" fill="#181713"/>
</svg>
