<svg width="198" height="48" viewBox="0 0 198 48" fill="none" xmlns="http://www.w3.org/2000/svg">
<g clip-path="url(#clip0)">
<path d="M44 0H93.4546V48H44V0Z" fill="#8E44AC"/>
<path d="M104.902 41.0115L102.515 43.5714C102.172 43.9297 101.934 44.1729 101.341 44.7363H105.033V46.5922H98.5188V44.8642L101.064 42.1762C101.328 41.8946 101.512 41.7153 101.974 41.3056H98.7036V39.4753H104.902V41.0752L104.902 41.0115ZM113.012 46.4899H110.744L110.388 45.4787H108.027L107.671 46.4899H105.403L108.04 39.3986H110.256L113.012 46.4899ZM109.504 42.7395C109.389 42.3873 109.297 42.0282 109.227 41.6644C109.108 42.1508 109.069 42.3173 108.924 42.7523C108.924 42.7523 108.765 43.2387 108.528 43.9555H109.847L109.504 42.7395ZM117.404 39.3986C118.617 39.3986 120.041 39.7057 120.041 41.1778C120.05 41.7832 119.695 42.3384 119.131 42.5986C119.946 42.7946 120.5 43.5266 120.45 44.3394C120.45 46.0035 119.131 46.4899 117.654 46.4899H113.816V39.3986H117.495H117.404ZM115.9 42.1122H117.219C117.535 42.162 117.833 41.9532 117.884 41.646C117.888 41.6223 117.891 41.5984 117.892 41.5744C117.892 41.2031 117.628 41.0113 117.114 41.0113H115.953V42.112H115.9V42.1122ZM115.9 44.813H117.219C117.586 44.9049 117.96 44.691 118.055 44.335C118.07 44.278 118.077 44.2192 118.076 44.1601C118.077 43.7784 117.759 43.4682 117.366 43.4673C117.317 43.4671 117.268 43.4719 117.219 43.4817H115.901V44.813H115.9ZM128.706 42.9444C128.625 44.9293 126.902 46.4752 124.857 46.3973C122.812 46.3195 121.22 44.647 121.3 42.6621C121.379 40.7132 123.043 39.1805 125.053 39.2068C127.011 39.1431 128.652 40.6323 128.717 42.5328C128.721 42.67 128.718 42.8074 128.706 42.9444ZM123.576 42.9444C123.576 44.2243 124.103 44.9411 125.026 44.9411C125.949 44.9411 126.437 44.2371 126.437 42.8932C126.437 41.5493 125.91 40.9987 125.026 40.9987C124.143 40.9987 123.576 41.69 123.576 42.906V42.9444ZM135.88 41.2291H133.823V46.5027H131.581V41.2291H129.536V39.4116H135.867V41.2291H135.88ZM137.779 46.4899H135.669V44.4419H137.779V46.4899ZM143.357 39.3986C144.584 39.1931 145.751 39.992 145.963 41.1831C145.981 41.2828 145.991 41.3838 145.995 41.4849C146.014 42.2168 145.592 42.8923 144.913 43.2129C145.591 43.5461 146.007 44.2301 145.982 44.9665L146.048 45.7089C146.045 45.9762 146.108 46.24 146.232 46.4769H143.937C143.858 46.2635 143.814 46.0387 143.806 45.8112V45.4143C143.806 44.5952 143.608 43.9806 142.566 43.9806H141.616V46.5406H139.401V39.4493H143.357V39.3986H143.357ZM141.643 42.4963H142.869C143.275 42.5814 143.675 42.3312 143.763 41.9374C143.777 41.8771 143.782 41.8155 143.78 41.7539C143.78 41.2803 143.437 41.0371 142.738 41.0371H141.63V42.4963H141.643ZM153.855 43.597C153.855 45.837 152.628 46.6305 150.532 46.6305C148.435 46.6305 147.221 45.6066 147.221 43.7249V39.4114H149.463V43.7507C149.369 44.2657 149.722 44.7577 150.252 44.8495C150.362 44.8686 150.474 44.8691 150.584 44.8514C151.113 44.9025 151.585 44.5277 151.638 44.0141C151.647 43.9262 151.643 43.8374 151.626 43.7505V39.4112H153.868V43.6096L153.855 43.597ZM107.961 17.946C111.087 17.946 114.661 18.7395 114.661 22.5285C114.679 24.0988 113.751 25.5348 112.287 26.2021C114.348 26.7522 115.722 28.6381 115.57 30.7077C115.57 35.0084 112.023 36.2628 108.33 36.2628H98.4526V17.946H107.961ZM104.005 24.9475H107.262C108.063 25.0961 108.837 24.5859 108.99 23.8082C109.007 23.7238 109.015 23.6382 109.016 23.5522C109.016 22.605 108.357 22.1058 106.998 22.1058H104.071V24.9345L104.005 24.9475ZM104.005 31.9235H107.579C109.042 31.9235 109.781 31.3603 109.781 30.221C109.781 29.0817 109.082 28.493 107.645 28.493H104.071V31.9362L104.005 31.9235ZM134.258 22.4004H124.314V24.6531H133.387V28.9027H124.38V31.5779H134.587V36.2372H118.63V17.946H134.271V22.4004H134.258ZM153.38 22.093L147.235 28.5953C146.364 29.517 145.718 30.1441 144.215 31.6033C146.364 31.5266 147.235 31.4752 148.29 31.4752H153.75V36.2623H136.895V31.7823L143.489 24.8319C144.175 24.1151 144.65 23.6543 145.85 22.5664C143.674 22.5664 144.333 22.6431 142.381 22.6431H137.396V17.9074H153.406V22.093H153.38ZM112.01 14.413H107.869L107.209 12.5699H102.91L102.251 14.413H98.0967L103.055 1.47227H107.117L112.01 14.413ZM105.587 7.56515C105.381 6.91884 105.213 6.26056 105.086 5.59395C104.862 6.49004 104.783 6.78439 104.519 7.57794C104.519 7.57794 104.242 8.47403 103.78 9.77957H106.299C106.062 9.07553 105.587 7.60352 105.587 7.60352V7.56515ZM125.475 9.15226C125.475 13.2484 123.246 14.6946 119.395 14.6946C115.228 14.6946 113.329 12.8129 113.329 9.36965V1.47227H117.417V9.42104C117.243 10.3604 117.887 11.2586 118.855 11.4269C119.055 11.4618 119.26 11.4629 119.461 11.4306C120.424 11.532 121.289 10.8563 121.394 9.9214C121.412 9.75445 121.405 9.58589 121.373 9.4208V1.47227H125.475V9.15226ZM138.887 4.81295H135.128V14.413H131.04V4.81295H127.308V1.48506H138.887V4.81295ZM154 8.01297C154 12.0705 151.362 14.8097 147.274 14.8097C143.396 14.6464 140.388 11.4627 140.556 7.69815C140.714 4.16239 143.631 1.3309 147.274 1.17745C151.323 1.12676 154 3.87873 154 8.01297ZM144.61 7.93624C144.61 10.253 145.586 11.5843 147.248 11.5843C148.909 11.5843 149.885 10.3043 149.885 7.83393C149.885 5.67067 148.923 4.36514 147.248 4.36514C145.573 4.36514 144.61 5.67067 144.61 7.89787V7.93624Z" fill="#181818"/>
<path d="M55.4331 19.0508H82.1871V29.0177H55.4331V19.0508Z" fill="#181713"/>
<path d="M60.2959 25.6106L59.6865 27.284H57.6797L60.2959 20.7651H62.8351L65.4882 27.284H63.4062L62.7459 25.6106H60.2959ZM62.4673 24.5078L61.9334 23.1249C61.7811 22.7382 61.6285 22.2544 61.5011 21.867H61.4765C61.3502 22.2544 61.2225 22.7477 61.0825 23.1249L60.5745 24.5078H62.4673ZM66.3986 20.8516C66.9065 20.7744 67.9345 20.7163 68.8994 20.7163C70.08 20.7163 70.8031 20.803 71.4251 21.0839C72.0222 21.3257 72.4545 21.7705 72.4545 22.3601C72.4545 22.941 72.0097 23.4827 71.0448 23.7533V23.7724C72.0222 23.9761 72.7454 24.5369 72.7454 25.3781C72.7454 25.9684 72.3914 26.4323 71.8574 26.7618C71.2357 27.1389 70.1937 27.3514 68.4931 27.3514C67.5406 27.3514 66.8294 27.3028 66.3986 27.2551V20.8516ZM68.3146 23.3469H68.95C69.9657 23.3469 70.5106 23.0279 70.5106 22.5441C70.5106 22.0507 70.0166 21.7898 69.1409 21.7898C68.7209 21.7898 68.4792 21.8096 68.3146 21.8289V23.3469ZM68.3146 26.2391C68.5054 26.2582 68.7346 26.2582 69.064 26.2582C69.9397 26.2582 70.714 26.0068 70.714 25.32C70.714 24.6627 69.9397 24.4011 68.9749 24.4011H68.3146V26.2391ZM73.2875 26.4907L77.3629 22.0221V21.983H73.6678V20.7647H79.8774V21.6154L75.8901 26.0266V26.0649H79.9406V27.2837H73.2875V26.4907Z" fill="white"/>
<path d="M67.6926 39.5387C59.4397 39.0111 52.9067 32.2661 52.9067 24.0001C52.9067 15.7342 59.4397 8.98916 67.6926 8.4616V7.22884C58.7486 7.75873 51.6558 15.0535 51.6558 24.0001C51.6558 32.9468 58.7488 40.2416 67.6926 40.7715V39.5387ZM69.5961 7.2207V8.45346C77.927 8.90058 84.5481 15.6791 84.5481 24.0001C84.5481 32.3212 77.927 39.1 69.5961 39.5468V40.7796C78.6182 40.3311 85.799 33.002 85.799 24.0001C85.799 14.9983 78.6182 7.66921 69.5961 7.2207Z" fill="#181713"/>
</g>
<defs>
<clipPath id="clip0">
<rect width="198" height="48" fill="white"/>
</clipPath>
</defs>
</svg>
