<svg width="36" height="30" viewBox="0 0 36 30" fill="none" xmlns="http://www.w3.org/2000/svg">
<path d="M18.7702 16.8679C18.8368 15.6368 19.4234 14.5534 20.3105 13.7837C21.2419 12.989 22.4171 12.5576 23.6286 12.5655C24.9061 12.5655 26.0757 13.027 26.9484 13.7837C27.8337 14.5534 28.4221 15.6386 28.4887 16.8679C28.5571 18.134 28.0622 19.3097 27.1913 20.1809C26.2327 21.119 24.9552 21.6368 23.6304 21.6242C22.3043 21.6376 21.0254 21.1198 20.0658 20.1809C19.1967 19.3097 18.7001 18.134 18.7702 16.8679Z" fill="#82A6DD"/>
<path d="M11.0271 19.3594C11.0361 19.8392 11.1873 20.775 11.4104 21.5077C11.8965 23.0836 12.712 24.5317 13.8 25.751C14.9662 27.0675 16.3907 28.1161 17.9799 28.8278C19.7086 29.61 21.5787 30.0094 23.468 29.9998C25.3591 30.0022 27.2296 29.5966 28.958 28.8094C30.5451 28.089 31.9677 27.0359 33.1343 25.7178C34.22 24.4946 35.034 23.0444 35.5203 21.4671C35.7576 20.6967 35.9085 19.901 35.9701 19.0954C36.1398 16.7661 35.58 14.4422 34.3723 12.462C33.6352 11.253 32.6938 10.1886 31.5922 9.31873L31.594 9.31688L20.3497 0.459351L20.3209 0.433512C19.5814 -0.146039 18.3398 -0.144193 17.5301 0.437204C16.7078 1.02598 16.616 1.99867 17.3429 2.61513L17.3411 2.61698L22.0303 6.53171L7.73786 6.54833H7.71626C6.53587 6.54833 5.40046 7.34567 5.17554 8.34973C4.94522 9.3741 5.74774 10.2231 6.97672 10.2268L6.97492 10.2323L14.221 10.2176L1.28708 20.3985L1.23849 20.4372C0.0203129 21.3952 -0.373751 22.988 0.392785 23.9976C1.17372 25.0238 2.82915 25.0238 4.06352 24.0013L11.1207 18.0784C11.1225 18.0784 11.0199 18.8776 11.0271 19.3594ZM29.1613 22.0356C27.7074 23.5565 25.6741 24.4184 23.4698 24.4221C21.2638 24.4258 19.2305 23.5712 17.7748 22.0541C17.0866 21.3475 16.5562 20.4961 16.2201 19.5587C15.9027 18.6673 15.7804 17.7151 15.8621 16.7698C15.9412 15.8377 16.2093 14.9481 16.643 14.1452C17.0676 13.3534 17.6542 12.641 18.374 12.0338C19.8177 10.843 21.6173 10.199 23.4698 10.2102C25.3206 10.1949 27.12 10.8336 28.5657 12.019C29.2836 12.6207 29.8702 13.3313 30.2949 14.1212C30.7267 14.926 30.9966 15.8119 31.0758 16.744C31.157 17.6891 31.0354 18.6411 30.7195 19.5328C30.38 20.4715 29.8487 21.3249 29.1613 22.0356Z" fill="#82A6DD"/>
</svg>
