<svg width="36" height="22" viewBox="0 0 36 22" fill="none" xmlns="http://www.w3.org/2000/svg">
<path d="M14.5696 10.2053H15.7071V5.11891H20.9066H21.2497L26.8645 10.2053H28.8143L27.713 9.19553L22.1163 4.10911L21.7371 3.77251H21.2497H20.9066H15.7071H14.5696V2.85621V1.6781V0.5H0V7.75562V10.2053H14.4072H14.5696Z" fill="#82A6DD"/>
<path d="M8.52124 14.824C6.75194 14.824 5.30762 16.32 5.30762 18.1526C5.30762 19.9852 6.75194 21.4812 8.52124 21.4812C10.2905 21.4812 11.7349 19.9852 11.7349 18.1526C11.7168 16.32 10.2905 14.824 8.52124 14.824Z" fill="#82A6DD"/>
<path d="M29.97 14.824C28.2007 14.824 26.7563 16.3013 26.7563 18.1526V18.1713C26.7563 20.0039 28.2007 21.4812 29.97 21.4999C31.7393 21.4999 33.1836 20.0039 33.1836 18.1713C33.1836 16.32 31.7393 14.8427 29.97 14.824Z" fill="#82A6DD"/>
<path d="M29.2837 12.0004H16.2126H15.7071H14.5696H0V18.3584H4.18855C4.18855 18.2836 4.17049 18.2275 4.17049 18.1714C4.17049 15.6843 6.12034 13.6647 8.52153 13.6647C10.7241 13.6647 12.5476 15.3664 12.8184 17.573H25.6549C25.9257 15.3664 27.7491 13.6647 29.9517 13.6647C32.3529 13.6647 34.3028 15.6843 34.3028 18.1714C34.3028 18.2462 34.3028 18.3023 34.2847 18.3771H35.9999V12.0191H29.2837V12.0004Z" fill="#82A6DD"/>
</svg>
