<svg width="198" height="48" viewBox="0 0 198 48" fill="none" xmlns="http://www.w3.org/2000/svg">
<g clip-path="url(#clip0)">
<path d="M120.218 18.235H114.227L114.237 29.4644C114.237 32.7459 112.833 35.4006 109.557 35.4006C106.28 35.4006 104.863 32.7459 104.863 29.4644V18.2456H98.8879L98.8862 29.4644C98.8862 35.949 103.047 41.2046 109.521 41.2046C115.993 41.2046 120.216 35.949 120.216 29.4644L120.218 18.235Z" fill="#009CDE"/>
<path d="M180.197 11.3923H174.235V40.6255H180.197V11.3923Z" fill="#009CDE"/>
<path d="M184.598 12.4706V11.4203H189.243V12.4706H187.544V17.0996H186.298V12.4706H184.598Z" fill="#009CDE"/>
<path d="M191.648 11.4207L192.975 15.3255H192.99L194.244 11.4207H196V17.0996H194.833V13.0748H194.816L193.427 17.0996H192.466L191.077 13.1147H191.061V17.0996H189.895V11.4207H191.648Z" fill="#009CDE"/>
<path d="M94.0149 17.991C88.8764 16.8028 85.6352 21.9172 85.4999 22.1914C85.4339 22.3261 85.4315 22.4044 85.2042 22.3987C85.016 22.3946 84.9949 22.1914 84.9949 22.1914L84.3571 18.2791H79.0166V40.6065H85.003V28.521C85.003 27.5335 87.657 22.7986 92.8003 24.017C95.4013 24.634 96.5051 25.7398 96.5051 25.7398V18.9377C95.7231 18.5073 94.8849 18.1887 94.0149 17.991Z" fill="#009CDE"/>
<path d="M134.143 23.6482C135.325 23.6479 136.48 23.9987 137.462 24.6561C138.444 25.3136 139.21 26.2481 139.662 27.3416C140.115 28.4351 140.233 29.6384 140.003 30.7992C139.772 31.9601 139.203 33.0265 138.368 33.8634C137.532 34.7004 136.468 35.2703 135.309 35.5012C134.151 35.732 132.949 35.6134 131.858 35.1604C130.767 34.7073 129.834 33.9401 129.177 32.9559C128.521 31.9716 128.171 30.8145 128.171 29.6309C128.172 28.0443 128.801 26.5228 129.921 25.401C131.041 24.2791 132.559 23.6486 134.143 23.6482ZM128.341 47.9602V39.9267L128.342 39.9283L128.344 36.9194C128.344 36.9194 128.353 36.6787 128.57 36.6762C128.763 36.6738 128.806 36.8019 128.853 36.9194C129.307 38.0513 131.803 42.3611 137.342 41.0096C139.455 40.4124 141.36 39.2363 142.843 37.6136C144.325 35.991 145.326 33.986 145.734 31.8244C146.141 29.6628 145.938 27.4302 145.148 25.3778C144.358 23.3254 143.011 21.5346 141.261 20.2069C139.51 18.8791 137.424 18.0671 135.238 17.8621C133.052 17.6571 130.852 18.0673 128.886 19.0466C126.92 20.0259 125.265 21.5353 124.109 23.4052C122.952 25.275 122.339 27.4311 122.339 29.6309V47.9603L128.341 47.9602Z" fill="#009CDE"/>
<path d="M165.984 29.631C165.985 30.8146 165.634 31.9717 164.978 32.9559C164.322 33.9401 163.389 34.7073 162.298 35.1604C161.206 35.6135 160.005 35.7321 158.847 35.5014C157.688 35.2706 156.624 34.7007 155.788 33.8638C154.953 33.027 154.384 31.9607 154.153 30.7999C153.923 29.639 154.041 28.4358 154.493 27.3423C154.945 26.2488 155.711 25.3142 156.693 24.6566C157.675 23.9991 158.83 23.6482 160.012 23.6483C161.596 23.6486 163.114 24.279 164.234 25.4009C165.354 26.5228 165.984 28.0443 165.984 29.631ZM165.814 40.6164H171.816V29.631C171.816 27.4313 171.203 25.2753 170.046 23.4055C168.89 21.5357 167.236 20.0262 165.27 19.0469C163.303 18.0677 161.104 17.6574 158.918 17.8623C156.731 18.0672 154.646 18.8792 152.895 20.2068C151.144 21.5344 149.798 23.3251 149.008 25.3774C148.218 27.4297 148.015 29.6621 148.422 31.8237C148.829 33.9853 149.83 35.9901 151.312 37.6128C152.795 39.2355 154.7 40.4117 156.813 41.0089C162.352 42.3612 164.848 38.0506 165.302 36.9195C165.349 36.802 165.391 36.6738 165.585 36.6755C165.802 36.6788 165.811 36.9195 165.811 36.9195" fill="#009CDE"/>
<path d="M61.8903 16.4403H59.484V35.5049L61.9555 35.5686C67.0247 35.5686 70.2896 35.1067 70.2896 25.9746C70.2896 17.218 67.4076 16.4402 61.8903 16.4402V16.4403ZM60.2652 40.5695H53.4561V11.3805H60.7621C69.6086 11.3805 76.3184 13.007 76.3184 25.9746C76.3184 38.8182 69.2111 40.5695 60.2652 40.5695" fill="#009CDE"/>
<path d="M27.8793 10.2237C24.508 6.84779 21.2914 3.62956 20.3341 0C19.3768 3.62956 16.1597 6.84779 12.7889 10.2237C7.73268 15.286 2 21.0234 2 29.6284C2 32.0406 2.47424 34.4291 3.39564 36.6577C4.31704 38.8862 5.66756 40.9112 7.37009 42.6168C9.07262 44.3225 11.0938 45.6755 13.3183 46.5986C15.5427 47.5217 17.9269 47.9968 20.3346 47.9968C22.7424 47.9968 25.1266 47.5217 27.351 46.5986C29.5755 45.6755 31.5967 44.3225 33.2992 42.6168C35.0017 40.9112 36.3523 38.8862 37.2737 36.6577C38.1951 34.4291 38.6693 32.0406 38.6693 29.6284C38.6693 21.0239 32.9371 15.286 27.8793 10.2237ZM9.7928 33.9086C8.6686 33.8703 4.51961 26.7058 12.2166 19.0774L17.3101 24.6513C17.3538 24.6946 17.3879 24.7467 17.4101 24.8041C17.4323 24.8615 17.4421 24.923 17.4389 24.9844C17.4357 25.0459 17.4195 25.106 17.3914 25.1608C17.3634 25.2156 17.3241 25.2638 17.2761 25.3022C16.0607 26.5511 10.8802 31.7556 10.2363 33.5551C10.1034 33.9266 9.90933 33.9125 9.7928 33.9086ZM20.3347 43.3512C19.5066 43.3512 18.6866 43.1878 17.9215 42.8703C17.1565 42.5528 16.4613 42.0875 15.8758 41.5009C15.2903 40.9142 14.8258 40.2178 14.5089 39.4514C14.192 38.6849 14.0289 37.8634 14.0289 37.0338C14.0522 35.502 14.608 34.0264 15.6006 32.861C16.7376 31.4681 20.3338 27.5505 20.3338 27.5505C20.3338 27.5505 23.875 31.5256 25.0586 32.8477C26.0896 33.9959 26.654 35.4894 26.6404 37.0338C26.6404 38.7093 25.9761 40.3161 24.7935 41.5008C23.611 42.6856 22.0071 43.3512 20.3347 43.3512ZM32.4039 33.1067C32.268 33.4044 31.9597 33.9016 31.5436 33.9167C30.8018 33.9438 30.7226 33.563 30.1744 32.7502C28.9708 30.9658 18.467 19.968 16.5024 17.841C14.7743 15.9702 16.259 14.6513 16.9478 13.9602C17.8118 13.093 20.334 10.5677 20.334 10.5677C20.334 10.5677 27.8546 17.7163 30.9874 22.6008C34.1201 27.4853 33.0405 31.7119 32.4039 33.1067Z" fill="#009CDE"/>
</g>
<defs>
<clipPath id="clip0">
<rect width="198" height="48" fill="white"/>
</clipPath>
</defs>
</svg>
