<svg width="120" height="120" viewBox="0 0 120 120" fill="none" xmlns="http://www.w3.org/2000/svg">
<path fill-rule="evenodd" clip-rule="evenodd" d="M112.792 0L120 0.129867V55.1949L0.00122231 55.1949L0.00122473 0.129861L7.20963 0.129862L7.20963 48.5066H55.718V8.24676L62.7568 8.24677V48.5066L112.792 48.5066V0ZM112.79 71.6233L62.3315 71.6233V113.506H55.1231V71.6233H0L9.83759e-06 64.9349L119.999 64.9349V120H112.79V71.6233ZM32.7095 24.4067C31.9172 25.0734 30.7455 25.4067 29.1944 25.4067H24.7537V17.9567H29.2069C29.9491 17.9567 30.6121 18.04 31.1959 18.2067C31.7796 18.3734 32.2717 18.615 32.6719 18.9317C33.0722 19.24 33.3766 19.6192 33.5851 20.0692C33.8019 20.5109 33.9103 21.0109 33.9103 21.5692C33.9103 22.7859 33.5101 23.7317 32.7095 24.4067ZM24.7537 17.0192V9.75671H28.5565C30.1326 9.75671 31.2959 10.065 32.0465 10.6817C32.8054 11.29 33.1848 12.19 33.1848 13.3817C33.1848 13.84 33.0973 14.2859 32.9221 14.7192C32.747 15.1525 32.4718 15.54 32.0965 15.8817C31.7296 16.2234 31.2543 16.4984 30.6705 16.7067C30.0951 16.915 29.3987 17.0192 28.5815 17.0192H24.7537ZM31.1834 9.04421C30.4412 8.84421 29.5655 8.74421 28.5565 8.74421H23.4653V26.4317H29.2069C30.1493 26.4317 30.9916 26.3234 31.7338 26.1067C32.476 25.8817 33.1014 25.5609 33.6101 25.1442C34.1188 24.7275 34.5066 24.2192 34.7735 23.6192C35.0403 23.0192 35.1738 22.3442 35.1738 21.5942C35.1738 20.4192 34.7985 19.4734 34.0479 18.7567C33.3057 18.0317 32.2383 17.5692 30.8456 17.3692C31.421 17.2275 31.9297 17.0234 32.3717 16.7567C32.8221 16.4817 33.1973 16.1609 33.4976 15.7942C33.8061 15.4275 34.0396 15.0275 34.1981 14.5942C34.3648 14.1609 34.4482 13.7109 34.4482 13.2442C34.4482 12.5359 34.3315 11.9025 34.098 11.3442C33.8645 10.7859 33.5059 10.315 33.0222 9.93171C32.5385 9.54004 31.9256 9.24421 31.1834 9.04421ZM99.1896 8.74421V26.4317H98.5892C98.4808 26.4317 98.389 26.4151 98.314 26.3817C98.2473 26.3401 98.1805 26.2734 98.1138 26.1817L86.618 10.8317C86.643 11.0817 86.6555 11.3192 86.6555 11.5442V26.4317H85.5297V8.74421L86.1676 8.74421C86.2844 8.74421 86.3719 8.76088 86.4303 8.79421C86.497 8.81921 86.5679 8.88171 86.643 8.98171L98.1138 24.2942C98.0888 24.0442 98.0763 23.8067 98.0763 23.5817L98.0763 8.74421H99.1896ZM28.1059 94.9747H29.3944L29.3944 77.2872H28.1059L28.1059 94.9747ZM94.524 81.9821H88.307V98.5822H87.0185V81.9821H80.764V80.8947H94.524V81.9821Z" fill="url(#paint0_linear)"/>
<defs>
<linearGradient id="paint0_linear" x1="242.915" y1="-44.3478" x2="9.29985" y2="137.234" gradientUnits="userSpaceOnUse">
<stop stop-color="#EB93B8"/>
<stop offset="0.1953" stop-color="#AB9EE1"/>
<stop offset="0.393225" stop-color="#A880FF"/>
<stop offset="0.617192" stop-color="#8AA1F4"/>
<stop offset="0.8047" stop-color="#8BABDA"/>
<stop offset="1" stop-color="#829ACA"/>
</linearGradient>
</defs>
</svg>
