<svg width="24" height="36" viewBox="0 0 24 36" fill="none" xmlns="http://www.w3.org/2000/svg">
<path d="M17.9744 11.9982C19.541 11.9514 21.0276 11.2988 22.1191 10.1789C23.2106 9.05893 23.8211 7.5597 23.8211 5.9991C23.8211 4.4385 23.2106 2.93927 22.1191 1.81932C21.0276 0.699384 19.541 0.0468151 17.9744 0H5.92307C4.3565 0.0468151 2.86985 0.699384 1.77837 1.81932C0.686882 2.93927 0.0764131 4.4385 0.0764131 5.9991C0.0764131 7.5597 0.686882 9.05893 1.77837 10.1789C2.86985 11.2988 4.3565 11.9514 5.92307 11.9982C4.34281 12.0255 2.83652 12.6697 1.72865 13.7921C0.62079 14.9145 0 16.4253 0 17.9991C0 19.5729 0.62079 21.0837 1.72865 22.2061C2.83652 23.3285 4.34281 23.9727 5.92307 24C4.35053 24.0384 2.85535 24.6873 1.75676 25.8084C0.658178 26.9294 0.0432386 28.4337 0.0432386 30C0.0432386 31.5663 0.658178 33.0706 1.75676 34.1916C2.85535 35.3126 4.35053 35.9616 5.92307 36C7.5212 35.999 9.05357 35.3663 10.1834 34.2409C11.3133 33.1155 11.9483 31.5895 11.9487 29.9982V11.9982H17.9744Z" fill="#82A6DD"/>
<path d="M17.9739 23.9985C21.3018 23.9985 23.9996 21.3122 23.9996 17.9985C23.9996 14.6848 21.3018 11.9985 17.9739 11.9985C14.646 11.9985 11.9482 14.6848 11.9482 17.9985C11.9482 21.3122 14.646 23.9985 17.9739 23.9985Z" fill="#82A6DD"/>
</svg>
