<svg width="36" height="36" viewBox="0 0 36 36" fill="none" xmlns="http://www.w3.org/2000/svg">
<path d="M18.8994 19.8746L21.2757 20.9135L21.4089 20.7554C21.6976 20.4392 21.9863 20.0779 22.2528 19.6714C22.4749 19.3326 22.697 18.9938 22.9413 18.5647L23.0523 18.3614L21.0536 16.2159L21.2757 15.5383L21.631 15.4706L24.2072 15.1544L24.2516 14.9286C24.4293 14.0929 24.4959 13.2573 24.4959 12.4442V12.0377L21.7865 11.2698L21.5644 10.5923L23.9629 8.7629L23.8963 8.55964C23.6298 7.724 23.2522 6.88836 22.8081 6.12048L22.697 5.9398L19.8987 6.61735L19.4102 6.07531L19.5434 5.71395L20.565 3.29738L20.4095 3.16187C20.0542 2.8231 19.7211 2.55208 19.3435 2.28106C18.9438 2.01005 18.5884 1.7842 18.2553 1.58094L18.0554 1.4906L15.9456 3.52323L15.3238 3.2748L15.2572 2.91344L14.9463 0.293602L14.7242 0.248433C13.9469 0.0903392 13.1252 0 12.3035 0H11.8815L11.082 2.77793L10.3269 3.00378L10.1715 2.68759L8.61687 0.56462L8.41699 0.632374C7.57307 0.903392 6.75136 1.28733 5.99627 1.76161L5.81861 1.87454L6.48486 4.72022L6.15173 5.01383L5.90744 5.17192L3.24243 3.99751L3.10918 4.17819C2.84268 4.49438 2.55397 4.83315 2.24305 5.26226C1.99876 5.6462 1.77667 6.00756 1.5768 6.36891L1.46576 6.57218L3.44231 8.67256L3.26464 9.35011L2.86489 9.41786L0.310918 9.73405L0.266501 9.9599C0.0888337 10.7729 0 11.6312 0 12.512V12.8508L2.86489 13.709V14.0477L2.95372 14.3639L0.555211 16.1933L0.621836 16.3966C0.910545 17.2774 1.28809 18.0904 1.73226 18.8357L1.8433 19.039L4.70819 18.3389L5.08573 18.9261L4.97469 19.2197L3.9531 21.6362L4.10856 21.7717C4.44168 22.0879 4.79702 22.3815 5.17456 22.6526C5.50769 22.901 5.88523 23.1268 6.26277 23.3527L6.46265 23.4656L8.59466 21.4104L9.21649 21.7266L9.26091 22.0428L9.57183 24.6626L9.79391 24.7078C10.5934 24.8884 11.4151 24.9562 12.2368 24.9562H12.6366L13.4805 22.0428H13.8136L14.1246 21.9298L15.9234 24.369L16.1233 24.3012C16.9672 24.0302 17.7889 23.6463 18.5218 23.1946L18.6995 23.0817L18.0332 20.236L18.5218 19.7391L18.8994 19.8746ZM12.259 17.0064C9.79391 17.0064 7.79516 14.9737 7.79516 12.4668C7.79516 9.9599 9.79391 7.92727 12.259 7.92727C14.7242 7.92727 16.7229 9.9599 16.7229 12.4668C16.7229 14.9737 14.7242 17.0064 12.259 17.0064Z" fill="#82A6DD"/>
<path d="M33.6233 29.0665C33.6455 28.9761 33.6677 28.8632 33.6899 28.7729L33.7565 28.4567L35.9996 27.5759V27.3726C35.9774 26.537 35.8441 25.7013 35.5998 24.8883L35.5332 24.685L33.0903 24.5947L32.9348 24.3237C32.8904 24.2333 32.8238 24.1656 32.7793 24.0752L32.6017 23.8268L33.5788 21.5457L33.4234 21.3876C33.1347 21.1166 32.8238 20.8456 32.4906 20.5972C32.1353 20.3487 31.78 20.1229 31.4246 19.9196L31.2248 19.8293L29.4037 21.5683L29.115 21.5006C29.0261 21.478 28.9373 21.4554 28.8485 21.4328L28.5597 21.3651L27.6492 19.0162H27.4493C26.6276 19.0388 25.8059 19.1743 25.0286 19.4453L24.8287 19.5131L24.7399 22.02L24.4734 22.1781C24.3846 22.2233 24.3179 22.2684 24.2291 22.3362L23.9848 22.5169L21.7418 21.5231L21.5863 21.6587C21.2976 21.9748 21.0533 22.3136 20.8534 22.562C20.5869 22.946 20.3648 23.3299 20.165 23.7139L20.0761 23.9171L21.7418 25.7239L21.6751 26.0175C21.6529 26.1079 21.6307 26.2208 21.6085 26.3111L21.5419 26.6273L19.2988 27.5081V27.7114C19.321 28.547 19.4765 29.3827 19.743 30.1957L19.8096 30.399L22.1637 30.4893L22.3192 30.7603C22.3858 30.8507 22.4302 30.9636 22.4968 31.0539L22.6745 31.325L21.7418 33.5157L21.8972 33.6738C22.2081 33.9674 22.4968 34.2158 22.7856 34.4191C23.1853 34.6901 23.5628 34.9385 23.9404 35.1192L24.1181 35.2095L25.8059 33.5834L26.0946 33.6738C26.2056 33.6964 26.3167 33.7189 26.4277 33.7415L26.7387 33.8093L27.5826 36H27.7824C28.6042 35.9774 29.4259 35.8419 30.2476 35.5709L30.4475 35.5031L30.5363 33.1317L30.8028 32.9736C30.8916 32.9059 30.9805 32.8607 31.0915 32.793L31.358 32.6123L33.5122 33.5608L33.6677 33.4028C33.9342 33.1092 34.2007 32.793 34.445 32.4542C34.6893 32.0928 34.9114 31.7315 35.1112 31.3475L35.2001 31.1669L33.5344 29.3601L33.6233 29.0665Z" fill="#82A6DD"/>
</svg>
