<svg width="336" height="336" viewBox="0 0 336 336" fill="none" xmlns="http://www.w3.org/2000/svg">
<path d="M0 12C0 5.37258 5.37258 0 12 0H324C330.627 0 336 5.37258 336 12V336H0V12Z" fill="#F5C7DA"/>
<g clip-path="url(#clip0)">
<rect width="264" height="64" transform="translate(36 144)" fill="#F5C7DA"/>
<path d="M123.732 191.347H131.851V203.041C130.585 203.45 129.302 203.752 127.995 203.959C126.688 204.167 125.175 204.273 123.449 204.273C119.834 204.273 117.014 203.189 115.001 201.025C112.987 198.862 111.98 195.821 111.98 191.922C111.98 189.42 112.481 187.233 113.476 185.348C114.471 183.47 115.907 182.029 117.78 181.039C119.652 180.05 121.848 179.552 124.368 179.552C126.917 179.552 129.29 180.026 131.492 180.968L130.415 183.434C128.26 182.515 126.181 182.053 124.191 182.053C121.283 182.053 119.01 182.924 117.379 184.667C115.743 186.409 114.93 188.828 114.93 191.922C114.93 195.17 115.719 197.629 117.291 199.306C118.863 200.984 121.177 201.826 124.227 201.826C125.881 201.826 127.5 201.636 129.078 201.251V193.848H123.732V191.347Z" fill="black"/>
<path d="M140.365 193.947V203.952H137.586V179.9H144.139C147.071 179.9 149.238 180.463 150.633 181.596C152.034 182.728 152.735 184.423 152.735 186.693C152.735 189.876 151.133 192.021 147.931 193.141L154.419 203.952H151.133L145.346 193.947H140.365ZM140.365 191.547H144.174C146.135 191.547 147.571 191.156 148.49 190.373C149.402 189.591 149.862 188.412 149.862 186.847C149.862 185.258 149.397 184.109 148.466 183.409C147.536 182.71 146.041 182.354 143.98 182.354H140.371V191.547H140.365Z" fill="black"/>
<path d="M179.011 191.891C179.011 195.737 178.045 198.766 176.108 200.971C174.177 203.176 171.486 204.278 168.042 204.278C164.521 204.278 161.807 203.194 159.894 201.03C157.98 198.867 157.026 195.808 157.026 191.861C157.026 187.943 157.986 184.909 159.905 182.757C161.825 180.6 164.545 179.527 168.077 179.527C171.51 179.527 174.189 180.623 176.12 182.816C178.045 185.003 179.011 188.032 179.011 191.891ZM159.976 191.891C159.976 195.151 160.665 197.616 162.043 199.3C163.42 200.983 165.422 201.824 168.048 201.824C170.697 201.824 172.693 200.983 174.047 199.305C175.396 197.628 176.073 195.157 176.073 191.885C176.073 188.649 175.402 186.195 174.053 184.523C172.705 182.852 170.715 182.016 168.077 182.016C165.428 182.016 163.42 182.858 162.037 184.541C160.665 186.23 159.976 188.678 159.976 191.891Z" fill="black"/>
<path d="M202.379 179.9V195.465C202.379 198.209 201.555 200.361 199.912 201.931C198.263 203.502 196.008 204.284 193.129 204.284C190.25 204.284 188.031 203.496 186.453 201.913C184.881 200.337 184.092 198.162 184.092 195.4V179.9H186.871V195.595C186.871 197.605 187.418 199.145 188.508 200.218C189.597 201.291 191.198 201.83 193.311 201.83C195.326 201.83 196.88 201.291 197.969 200.212C199.059 199.134 199.605 197.581 199.605 195.565V179.9H202.379Z" fill="black"/>
<path d="M223.852 186.906C223.852 189.342 223.027 191.215 221.373 192.525C219.724 193.835 217.363 194.493 214.289 194.493H211.482V203.952H208.702V179.9H214.897C220.867 179.9 223.852 182.236 223.852 186.906ZM211.482 192.086H213.984C216.445 192.086 218.229 191.683 219.33 190.883C220.431 190.083 220.978 188.797 220.978 187.037C220.978 185.448 220.461 184.263 219.423 183.48C218.388 182.704 216.775 182.313 214.584 182.313H211.482V192.086Z" fill="black"/>
<path d="M67.2561 188.536H102.376L92.5493 144H57.4355L67.2561 188.536Z" fill="#EA5284"/>
<path d="M56.5413 197.598H91.655L81.8344 153.068H46.7148L56.5413 197.598Z" fill="#E50051"/>
<path d="M45.8264 206.667H80.9401L71.1137 162.137H36L45.8264 206.667Z" fill="#B90833"/>
<path d="M122.637 157.442H133.129V170.63C130.279 171.614 127.147 172.106 123.738 172.106C119.993 172.106 117.097 171.015 115.054 168.828C113.011 166.641 111.986 163.523 111.986 159.475C111.986 155.528 113.105 152.451 115.342 150.252C117.579 148.054 120.718 146.957 124.751 146.957C126.281 146.957 127.724 147.105 129.084 147.39C130.444 147.68 131.627 148.048 132.634 148.492L130.556 153.678C128.807 152.807 126.882 152.374 124.786 152.374C122.867 152.374 121.389 153.003 120.341 154.259C119.293 155.516 118.769 157.306 118.769 159.641C118.769 161.929 119.24 163.671 120.188 164.868C121.136 166.066 122.502 166.67 124.285 166.67C125.263 166.67 126.158 166.576 126.976 166.386V162.551H122.637V157.442Z" fill="black"/>
<path d="M153.181 171.774L151.986 167.187H144.09L142.86 171.774H135.642L143.572 147.201H152.333L160.364 171.768H153.181V171.774ZM150.62 161.763L149.572 157.745C149.33 156.85 149.03 155.7 148.683 154.284C148.335 152.867 148.106 151.853 147.994 151.237C147.894 151.806 147.699 152.742 147.405 154.046C147.111 155.35 146.463 157.923 145.45 161.763H150.62Z" fill="black"/>
<path d="M173.012 152.375C171.452 152.375 170.227 153.021 169.356 154.307C168.479 155.599 168.043 157.371 168.043 159.636C168.043 164.342 169.821 166.701 173.377 166.701C174.455 166.701 175.497 166.552 176.504 166.25C177.51 165.948 178.529 165.586 179.547 165.16V170.749C177.516 171.656 175.226 172.106 172.665 172.106C168.997 172.106 166.183 171.033 164.228 168.894C162.273 166.754 161.296 163.654 161.296 159.606C161.296 157.075 161.767 154.846 162.715 152.926C163.663 151.006 165.023 149.53 166.807 148.499C168.585 147.467 170.675 146.952 173.083 146.952C175.709 146.952 178.223 147.527 180.613 148.676L178.6 153.88C177.705 153.454 176.804 153.098 175.909 152.808C175.008 152.517 174.043 152.375 173.012 152.375Z" fill="black"/>
<path d="M204.809 171.774H198.209V161.799H190.579V171.774H183.979V147.301H190.579V156.37H198.209V147.301H204.809V171.774Z" fill="black"/>
<path d="M225.11 171.774L223.916 167.187H216.019L214.789 171.774H207.571L215.502 147.201H224.263L232.293 171.768H225.11V171.774ZM222.548 161.763L221.5 157.745C221.259 156.85 220.958 155.7 220.611 154.284C220.264 152.867 220.035 151.853 219.923 151.237C219.823 151.806 219.629 152.742 219.334 154.046C219.04 155.35 218.392 157.923 217.38 161.763H222.548Z" fill="black"/>
<path d="M235.078 171.774V147.301H241.642V166.434H251.004V171.774H235.078Z" fill="black"/>
<path d="M270.652 171.774L269.458 167.187H261.561L260.331 171.774H253.113L261.044 147.201H269.805L277.835 171.768H270.652V171.774ZM268.09 161.763L267.042 157.745C266.801 156.85 266.502 155.7 266.155 154.284C265.806 152.867 265.577 151.853 265.465 151.237C265.365 151.806 265.171 152.742 264.876 154.046C264.582 155.35 263.934 157.923 262.922 161.763H268.09Z" fill="black"/>
<path d="M292.653 147.301H300L292.035 171.768H284.303L276.379 147.301H283.762L287.071 159.701C287.76 162.457 288.137 164.377 288.201 165.456C288.277 164.673 288.438 163.701 288.667 162.528C288.902 161.354 289.103 160.436 289.279 159.766L292.653 147.301Z" fill="black"/>
</g>
<defs>
<clipPath id="clip0">
<rect width="264" height="64" fill="white" transform="translate(36 144)"/>
</clipPath>
</defs>
</svg>
