<svg width="198" height="48" viewBox="0 0 198 48" fill="none" xmlns="http://www.w3.org/2000/svg">
<g clip-path="url(#clip0)">
<path d="M65.7986 35.5102H71.8878V44.2807C70.9384 44.5874 69.9758 44.8142 68.9955 44.9697C68.0153 45.1253 66.8804 45.2053 65.5866 45.2053C62.8754 45.2053 60.7602 44.3919 59.2501 42.7693C57.7399 41.1468 56.9849 38.8663 56.9849 35.9414C56.9849 34.0654 57.3601 32.4251 58.1064 31.0116C58.8527 29.6024 59.9301 28.5222 61.3343 27.7798C62.7385 27.0375 64.3856 26.6641 66.2755 26.6641C68.1874 26.6641 69.9669 27.0196 71.6185 27.7265L70.8104 29.5757C69.1943 28.8867 67.6355 28.54 66.143 28.54C63.9616 28.54 62.2572 29.1934 61.0341 30.5003C59.8065 31.8073 59.1971 33.6209 59.1971 35.9414C59.1971 38.3774 59.7887 40.2221 60.9677 41.4801C62.1468 42.7382 63.8821 43.3694 66.1695 43.3694C67.4103 43.3694 68.6246 43.2271 69.808 42.9382V37.3861H65.7986V35.5102Z" fill="black"/>
<path d="M78.2732 37.4606V44.9642H76.189V26.9253H81.1037C83.3027 26.9253 84.9277 27.3476 85.9742 28.1966C87.0252 29.0457 87.5506 30.317 87.5506 32.0196C87.5506 34.4066 86.3495 36.0159 83.9474 36.856L88.8135 44.9642H86.3495L82.0089 37.4606H78.2732ZM78.2732 35.6602H81.1302C82.6006 35.6602 83.6781 35.3668 84.3669 34.78C85.0513 34.1933 85.3957 33.3087 85.3957 32.1351C85.3957 30.9438 85.047 30.0815 84.3493 29.5568C83.6516 29.0323 82.5299 28.7656 80.9845 28.7656H78.2776V35.6602H78.2732Z" fill="black"/>
<path d="M107.258 35.9179C107.258 38.8029 106.534 41.0745 105.081 42.7281C103.632 44.3818 101.614 45.2086 99.0313 45.2086C96.3907 45.2086 94.3551 44.395 92.92 42.7726C91.4849 41.15 90.7695 38.8562 90.7695 35.8957C90.7695 32.9574 91.4893 30.6814 92.9288 29.0678C94.3684 27.4497 96.4083 26.645 99.0578 26.645C101.632 26.645 103.641 27.4674 105.09 29.1122C106.534 30.7525 107.258 33.0241 107.258 35.9179ZM92.9818 35.9179C92.9818 38.3628 93.4984 40.212 94.5317 41.4746C95.565 42.737 97.0663 43.3682 99.0358 43.3682C101.023 43.3682 102.52 42.737 103.535 41.4789C104.547 40.221 105.054 38.3673 105.054 35.9135C105.054 33.4863 104.551 31.6461 103.54 30.3924C102.529 29.1388 101.036 28.5121 99.0578 28.5121C97.0708 28.5121 95.565 29.1433 94.5273 30.4057C93.4984 31.6727 92.9818 33.5085 92.9818 35.9179Z" fill="black"/>
<path d="M124.783 26.9253V38.5986C124.783 40.6567 124.166 42.2704 122.933 43.4484C121.697 44.6264 120.006 45.2131 117.846 45.2131C115.687 45.2131 114.022 44.622 112.839 43.4351C111.66 42.2526 111.068 40.6212 111.068 38.5497V26.9253H113.153V38.6964C113.153 40.2034 113.563 41.3591 114.38 42.1637C115.197 42.9683 116.398 43.3728 117.983 43.3728C119.494 43.3728 120.66 42.9683 121.476 42.1593C122.293 41.3502 122.703 40.1855 122.703 38.6741V26.9253H124.783Z" fill="black"/>
<path d="M140.889 32.1795C140.889 34.0067 140.27 35.4113 139.03 36.3937C137.793 37.3761 136.022 37.8696 133.717 37.8696H131.611V44.9642H129.526V26.9253H134.172C138.65 26.9253 140.889 28.6767 140.889 32.1795ZM131.611 36.0648H133.488C135.333 36.0648 136.672 35.7625 137.497 35.1624C138.323 34.5623 138.733 33.5976 138.733 32.2774C138.733 31.0861 138.345 30.197 137.567 29.6102C136.791 29.0278 135.581 28.7346 133.938 28.7346H131.611V36.0648Z" fill="black"/>
<path d="M23.4421 33.4018H49.7818L42.412 0H16.0767L23.4421 33.4018Z" fill="#EA5284"/>
<path d="M15.4059 40.1987H41.7412L34.3758 6.80127H8.03613L15.4059 40.1987Z" fill="#E50051"/>
<path d="M7.36982 47H33.7051L26.3353 13.6025H0L7.36982 47Z" fill="#B90833"/>
<path d="M64.9777 10.0815H72.8465V19.9722C70.7093 20.7102 68.3601 21.0792 65.8035 21.0792C62.9951 21.0792 60.8225 20.2612 59.2903 18.6208C57.7581 16.9805 56.9897 14.6424 56.9897 11.6062C56.9897 8.64566 57.8286 6.33856 59.5067 4.68935C61.1846 3.04016 63.5382 2.21777 66.563 2.21777C67.711 2.21777 68.7929 2.32891 69.813 2.54229C70.8329 2.76011 71.7205 3.0357 72.4755 3.36911L70.9169 7.25873C69.6053 6.60527 68.1615 6.28077 66.5895 6.28077C65.1499 6.28077 64.0416 6.75197 63.2556 7.69437C62.4696 8.63676 62.0766 9.97925 62.0766 11.7307C62.0766 13.4466 62.4299 14.7534 63.1408 15.6514C63.8517 16.5494 64.8762 17.0027 66.2141 17.0027C66.9471 17.0027 67.6183 16.9317 68.2321 16.7895V13.9133H64.9777V10.0815Z" fill="black"/>
<path d="M87.8858 20.8306L86.9894 17.3898H81.068L80.1451 20.8306H74.7314L80.6794 2.40039H87.25L93.273 20.8261H87.8858V20.8306ZM85.965 13.3225L85.179 10.3086C84.9979 9.63731 84.7728 8.77493 84.5122 7.71251C84.2516 6.65008 84.0795 5.88994 83.9955 5.42762C83.9206 5.85437 83.7748 6.55673 83.5541 7.53469C83.3332 8.51266 82.8475 10.4419 82.088 13.3225H85.965Z" fill="black"/>
<path d="M102.759 6.28131C101.589 6.28131 100.671 6.76584 100.017 7.73047C99.3593 8.69954 99.0325 10.0287 99.0325 11.7268C99.0325 15.2563 100.366 17.0255 103.033 17.0255C103.841 17.0255 104.623 16.9144 105.378 16.6877C106.133 16.4611 106.897 16.1899 107.661 15.8698V20.0617C106.137 20.7418 104.42 21.0796 102.499 21.0796C99.7479 21.0796 97.6373 20.2751 96.1712 18.6703C94.7051 17.0656 93.9722 14.7406 93.9722 11.7046C93.9722 9.80641 94.3255 8.13499 95.0364 6.69472C95.7473 5.25444 96.7673 4.14756 98.1052 3.37409C99.4388 2.60061 101.006 2.21387 102.812 2.21387C104.782 2.21387 106.667 2.64506 108.46 3.50745L106.95 7.41041C106.279 7.09034 105.603 6.82363 104.932 6.60581C104.256 6.38798 103.532 6.28131 102.759 6.28131Z" fill="black"/>
<path d="M126.607 20.8307H121.657V13.3492H115.934V20.8307H110.984V2.47607H115.934V9.27736H121.657V2.47607H126.607V20.8307Z" fill="black"/>
<path d="M141.833 20.8306L140.937 17.3898H135.015L134.092 20.8306H128.679L134.627 2.40039H141.197L147.22 20.8261H141.833V20.8306ZM139.912 13.3225L139.126 10.3086C138.944 9.63731 138.719 8.77493 138.459 7.71251C138.198 6.65008 138.027 5.88994 137.942 5.42762C137.868 5.85437 137.722 6.55673 137.501 7.53469C137.28 8.51266 136.794 10.4419 136.035 13.3225H139.912Z" fill="black"/>
<path d="M149.308 20.8307V2.47607H154.231V16.8255H161.252V20.8307H149.308Z" fill="black"/>
<path d="M175.989 20.8306L175.093 17.3898H169.171L168.248 20.8306H162.835L168.783 2.40039H175.354L181.376 20.8261H175.989V20.8306ZM174.068 13.3225L173.282 10.3086C173.101 9.63731 172.877 8.77493 172.616 7.71251C172.354 6.65008 172.183 5.88994 172.099 5.42762C172.024 5.85437 171.878 6.55673 171.657 7.53469C171.436 8.51266 170.951 10.4419 170.192 13.3225H174.068Z" fill="black"/>
<path d="M192.49 2.47607H198L192.026 20.8262H186.228L180.284 2.47607H185.821L188.303 11.7756C188.82 13.8426 189.103 15.2829 189.151 16.092C189.208 15.5052 189.328 14.7761 189.5 13.896C189.676 13.0159 189.827 12.3269 189.959 11.8246L192.49 2.47607Z" fill="black"/>
</g>
<defs>
<clipPath id="clip0">
<rect width="198" height="48" fill="white"/>
</clipPath>
</defs>
</svg>
