<svg width="72" height="72" viewBox="0 0 72 72" fill="none" xmlns="http://www.w3.org/2000/svg">
<rect width="72" height="72" rx="12" fill="#82A6DD"/>
<path d="M36 12C22.7619 12 12 22.7619 12 36C12 49.2381 22.7619 60 36 60C49.2381 60 60 49.2381 60 36C60 22.7619 49.2381 12 36 12ZM30.9206 32.6032C30.1905 32.6032 29.619 32.0317 29.619 31.3016C29.619 29.2381 27.9365 27.5238 25.8413 27.5238C23.7778 27.5238 22.0635 29.2063 22.0635 31.3016C22.0635 32.0317 21.4921 32.6032 20.7619 32.6032C20.0317 32.6032 19.4603 32.0317 19.4603 31.3016C19.4603 27.7778 22.3175 24.9206 25.8413 24.9206C29.3651 24.9206 32.2222 27.7778 32.2222 31.3016C32.254 32.0317 31.6508 32.6032 30.9206 32.6032ZM51.1746 42.2857C48.9841 49.4603 42.2222 54.5079 34.6984 54.5079C33.9683 54.5079 33.3968 53.9365 33.3968 53.2063C33.3968 52.4762 33.9683 51.9048 34.6984 51.9048C41.0794 51.9048 46.8254 47.6508 48.6667 41.5556C48.8889 40.8571 49.619 40.4762 50.2857 40.6984C50.9841 40.8889 51.3968 41.619 51.1746 42.2857ZM51.4286 32.6032C50.6984 32.6032 50.127 32.0317 50.127 31.3016C50.127 29.2381 48.4444 27.5238 46.3492 27.5238C44.2857 27.5238 42.6032 29.2063 42.6032 31.3016C42.6032 32.0317 42.0317 32.6032 41.3016 32.6032C40.5714 32.6032 40 32.0317 40 31.3016C40 27.7778 42.8571 24.9206 46.381 24.9206C49.9048 24.9206 52.7619 27.7778 52.7619 31.3016C52.7302 32.0317 52.1587 32.6032 51.4286 32.6032Z" fill="#F6F6F6"/>
</svg>
