<svg width="198" height="48" viewBox="0 0 198 48" fill="none" xmlns="http://www.w3.org/2000/svg">
<g clip-path="url(#clip0)">
<path d="M84.5232 16.8511L78.6567 5.72644L72.79 16.8511L59.8378 18.6383L69.2472 27.3192L67.0377 39.6109L78.6567 33.775L90.2755 39.6109L88.066 27.3192L97.4756 18.6383L84.5232 16.8511ZM38.5427 0.83891V0.65653L28.2571 14.9544C26.2761 17.7263 24.9428 19.7326 24.257 20.8998V0.65653H11V47.3799H24.257V31.7689L28.1427 29.5441L37.7807 47.4529H52.5997L37.4378 21.7021L52.8283 0.83891H38.5427ZM137.018 18.6383C134.809 17.3617 132.256 16.7416 129.361 16.7416H127.38C126.618 16.7416 125.399 16.9604 123.723 17.2523L124.256 11.1246H140.866V0.620061H113.095L111.228 25.3131L116.104 27.6473C118.542 26.9179 120.751 26.4801 122.847 26.4801C125.628 26.4801 127.609 26.9909 128.942 27.9756C130.275 28.9604 130.923 30.4195 130.923 32.2067C130.923 34.1033 130.275 35.5988 128.942 36.5471C127.609 37.5319 125.742 38.0425 123.304 38.0425C121.551 38.0425 119.418 37.7142 116.98 37.2036C114.542 36.693 112.332 35.9271 110.466 35.088V45.4468C114.123 47.1246 118.771 48 124.409 48C131.037 48 136.028 46.614 139.342 43.8418C142.656 41.0698 144.218 37.0577 144.218 31.8784C144.218 28.924 143.57 26.2613 142.351 24.0364C141.094 21.6291 139.304 19.9148 137.018 18.6383ZM182.579 6.05471C179.608 2.00608 175.265 0 169.437 0C163.456 0 159.037 1.89665 156.18 5.83587C153.285 9.77506 151.837 15.7933 151.837 24.0364C151.837 31.9877 153.285 37.8966 156.256 41.9453C159.266 45.9939 163.57 48 169.399 48C175.38 48 179.799 46.1033 182.655 42.2736C185.513 38.4437 186.999 32.4255 186.999 24.1459C187.037 16.1215 185.59 10.0669 182.579 6.05471ZM172.865 34.8328C172.218 36.8389 170.999 37.8966 169.437 37.8966C167.761 37.8966 166.656 36.9118 166.008 34.9422C165.361 32.9361 164.98 29.3252 164.98 24.0364C164.98 18.7476 165.323 15.0273 166.008 13.0213C166.656 11.0152 167.875 10.0669 169.437 10.0669C171.113 10.0669 172.218 11.1246 172.865 13.1307C173.513 15.2462 173.894 18.8571 173.894 24.0364C173.97 29.2523 173.513 32.8268 172.865 34.8328Z" fill="#E93536"/>
</g>
<defs>
<clipPath id="clip0">
<rect width="198" height="48" fill="white"/>
</clipPath>
</defs>
</svg>
