<svg width="198" height="48" viewBox="0 0 198 48" fill="none" xmlns="http://www.w3.org/2000/svg">
<g clip-path="url(#clip0)">
<g clip-path="url(#clip1)">
<path fill-rule="evenodd" clip-rule="evenodd" d="M79.2685 11.0562V32.6987H87.1581V36.4317H75.068V11.0562H79.2685ZM101.986 21.8223V19.5399H105.967V36.4317H101.985V34.1474C101.45 34.9934 100.689 35.6583 99.702 36.1412C98.7169 36.6241 97.7244 36.8656 96.7262 36.8656C95.4354 36.8656 94.2542 36.6298 93.1833 36.1591C92.1408 35.7086 91.2021 35.0485 90.4254 34.22C89.6577 33.3975 89.0509 32.4384 88.6366 31.3925C88.206 30.3083 87.9888 29.1513 87.9969 27.9849C87.9969 26.8012 88.2101 25.6713 88.6366 24.5952C89.0482 23.5428 89.6552 22.5777 90.4254 21.7506C91.2021 20.922 92.1408 20.2616 93.1833 19.8106C94.2542 19.339 95.4354 19.1032 96.7262 19.1032C97.7244 19.1032 98.7169 19.3456 99.7029 19.8294C100.689 20.3123 101.45 20.9772 101.986 21.8223ZM101.62 30.0513C101.865 29.3903 101.989 28.6907 101.986 27.9858C101.986 27.2596 101.864 26.5711 101.62 25.9184C101.391 25.2906 101.045 24.7124 100.598 24.2151C100.152 23.726 99.6114 23.3315 99.0094 23.055C98.3877 22.7655 97.6999 22.6202 96.945 22.6202C96.1902 22.6202 95.5081 22.7655 94.8995 23.055C94.291 23.3455 93.7673 23.7322 93.3295 24.2151C92.8843 24.71 92.543 25.2892 92.3257 25.9184C92.0919 26.5822 91.9745 27.2812 91.9784 27.9849C91.9784 28.7101 92.0936 29.3996 92.3257 30.0504C92.5427 30.6799 92.8841 31.2595 93.3295 31.7546C93.7714 32.2409 94.3049 32.6351 94.8995 32.9147C95.5081 33.2052 96.1902 33.3495 96.945 33.3495C97.6999 33.3495 98.3886 33.2052 99.0094 32.9157C99.6115 32.6394 100.152 32.2449 100.598 31.7556C101.045 31.258 101.392 30.6795 101.62 30.0513ZM109.108 36.4308V19.5389H119.919V23.4266H113.088V36.4308H109.108ZM134.346 21.8223V19.5399H138.327V36.4317H134.346V34.1474C133.81 34.9934 133.049 35.6583 132.062 36.1412C131.077 36.6241 130.085 36.8656 129.086 36.8656C127.795 36.8656 126.614 36.6298 125.544 36.1591C124.501 35.7086 123.562 35.0485 122.786 34.22C122.018 33.3975 121.411 32.4384 120.997 31.3925C120.566 30.3083 120.349 29.1513 120.357 27.9849C120.357 26.8012 120.569 25.6713 120.997 24.5952C121.409 23.5428 122.015 22.5777 122.786 21.7506C123.562 20.922 124.501 20.2616 125.544 19.8106C126.614 19.339 127.795 19.1032 129.086 19.1032C130.085 19.1032 131.077 19.3456 132.063 19.8294C133.049 20.3123 133.81 20.9772 134.346 21.8223ZM133.98 30.0513C134.225 29.3903 134.349 28.6906 134.346 27.9858C134.346 27.2596 134.223 26.5711 133.98 25.9184C133.751 25.2906 133.404 24.7124 132.958 24.2151C132.511 23.726 131.971 23.3315 131.369 23.055C130.748 22.7655 130.06 22.6202 129.305 22.6202C128.551 22.6202 127.868 22.7655 127.26 23.055C126.651 23.3455 126.128 23.7322 125.69 24.2151C125.244 24.7099 124.903 25.2892 124.685 25.9184C124.451 26.5822 124.334 27.2812 124.338 27.9849C124.338 28.7101 124.453 29.3996 124.685 30.0504C124.902 30.68 125.244 31.2596 125.69 31.7546C126.132 32.2409 126.665 32.6351 127.26 32.9147C127.868 33.2052 128.551 33.3495 129.305 33.3495C130.06 33.3495 130.749 33.2052 131.369 32.9157C131.971 32.6394 132.511 32.2449 132.958 31.7556C133.404 31.2581 133.752 30.6795 133.98 30.0513ZM154.287 19.5389H158.32L151.785 36.4308H146.783L140.248 19.5389H144.281L149.284 32.4743L154.287 19.5389ZM167.002 19.1051C172.423 19.1051 176.12 23.8727 175.426 29.4533H162.219C162.219 30.9105 163.701 33.7277 167.221 33.7277C170.25 33.7277 172.278 31.0841 172.28 31.0822L174.969 33.1477C172.565 35.6961 170.596 36.8665 167.513 36.8665C162.002 36.8665 158.269 33.407 158.269 27.9858C158.269 23.0814 162.128 19.1051 167.002 19.1051ZM162.229 26.5173H171.77C171.74 26.1919 171.223 22.243 166.971 22.243C162.719 22.243 162.26 26.1919 162.229 26.5173ZM178.018 36.4308V11.0562H182V36.4308H178.018ZM62.9525 10.8582C62.9699 10.9221 62.9788 10.9881 62.9789 11.0543V21.3573C62.9787 21.4898 62.9434 21.6199 62.8767 21.7344C62.8099 21.8489 62.714 21.9436 62.5987 22.0091L53.8864 26.9879V36.8561C53.886 36.9885 53.8506 37.1184 53.7839 37.2327C53.7171 37.347 53.6213 37.4416 53.5061 37.5069L35.3211 47.8995C35.2796 47.924 35.2333 47.9382 35.189 47.9542C35.171 47.9599 35.155 47.9702 35.138 47.9749C35.0106 48.0084 34.8767 48.0084 34.7493 47.9749C34.7285 47.9693 34.7097 47.958 34.6899 47.9504C34.6474 47.9363 34.6049 47.9221 34.5653 47.8995L16.3793 37.5088C16.264 37.4432 16.1682 37.3482 16.1016 37.2336C16.035 37.1189 15.9999 36.9887 16 36.8561V5.94719C16.0001 5.88092 16.009 5.81496 16.0264 5.75101C16.0321 5.72838 16.0453 5.70857 16.0528 5.68782C16.0679 5.64821 16.0811 5.60765 16.1019 5.57087C16.1161 5.54635 16.1368 5.52654 16.1528 5.50485C16.1755 5.47467 16.1944 5.4426 16.2208 5.41619C16.2425 5.3945 16.2708 5.37847 16.2953 5.3596C16.3227 5.33885 16.3472 5.31433 16.3783 5.29641L16.3793 5.29547L25.4728 0.0996499C25.5878 0.0343367 25.7179 0 25.8502 0C25.9825 0 26.1125 0.0343367 26.2276 0.0996499L35.3211 5.29547H35.323C35.3531 5.31433 35.3777 5.33885 35.406 5.3596C35.4305 5.37847 35.4579 5.3945 35.4796 5.41619C35.506 5.4426 35.5249 5.47467 35.5475 5.50391C35.5645 5.52654 35.5852 5.54635 35.5994 5.57087C35.6202 5.60765 35.6334 5.64821 35.6485 5.68782C35.656 5.70857 35.6683 5.72838 35.6749 5.75101C35.6919 5.815 35.7005 5.88096 35.7004 5.94719V25.2525L43.2786 20.9225V11.0543C43.2784 10.9881 43.287 10.9222 43.304 10.8582C43.3106 10.8355 43.3229 10.8167 43.3314 10.795C43.3456 10.7554 43.3588 10.7148 43.3795 10.678C43.3937 10.6535 43.4144 10.6337 43.4314 10.612C43.4541 10.5818 43.4729 10.5498 43.4994 10.5243C43.5211 10.5026 43.5484 10.4866 43.5729 10.4677C43.6012 10.446 43.6258 10.4206 43.6569 10.4036V10.4026L52.7504 5.20681C52.8655 5.14115 52.9957 5.10661 53.1283 5.10661C53.2608 5.10661 53.391 5.14115 53.5061 5.20681L62.5987 10.4026H62.5996C62.6317 10.4215 62.6562 10.446 62.6846 10.4668C62.7081 10.4856 62.7364 10.5026 62.7581 10.5234C62.7846 10.5498 62.8034 10.5818 62.8251 10.6111C62.8421 10.6337 62.8629 10.6535 62.877 10.678C62.8987 10.7148 62.911 10.7554 62.9261 10.795C62.9346 10.8167 62.9468 10.8355 62.9525 10.8582ZM61.4637 20.9225V12.355L58.2812 14.1734L53.8864 16.685V25.2525L61.4627 20.9225H61.4637ZM52.3711 36.4213V27.8481L48.0461 30.2984L35.7004 37.2919V45.9453L52.3711 36.4195V36.4213ZM17.5153 7.24779V36.4213L34.1851 45.9472V37.2947L25.4765 32.4035L25.4747 32.4007L25.4709 32.3997C25.4407 32.3828 25.4171 32.3582 25.3897 32.3375C25.3652 32.3186 25.3388 32.3035 25.3171 32.2828L25.3152 32.28C25.2907 32.2564 25.2737 32.2271 25.2529 32.2007C25.2341 32.1762 25.2114 32.1545 25.1963 32.1281L25.1954 32.1253C25.1784 32.097 25.168 32.063 25.1558 32.031C25.1435 32.0036 25.1275 31.9772 25.1199 31.947V31.9461C25.1095 31.9103 25.1086 31.8725 25.1039 31.8357C25.101 31.8074 25.0925 31.7801 25.0925 31.7509V11.5769L20.6986 9.06619L17.5153 7.24779ZM25.8502 1.61907L18.2767 5.94813L25.8502 10.2753L33.4246 5.94719L25.8502 1.61907ZM29.7902 28.629L34.1851 26.1184V7.24779L31.0036 9.06619L26.6078 11.5778V30.4474L29.7902 28.629ZM53.1287 6.72717L45.5543 11.0543L53.1287 15.3825L60.7023 11.0543L53.1287 6.72717ZM52.3711 16.685L47.9753 14.1734L44.7938 12.355V20.9225L49.1887 23.4342L52.3711 25.2525V16.684V16.685ZM34.9418 35.9913L46.0515 29.6967L51.605 26.5503L44.0362 22.225L35.3211 27.2049L27.3787 31.7433L34.9418 35.9913Z" fill="#FF2D20"/>
</g>
</g>
<defs>
<clipPath id="clip0">
<rect width="198" height="48" fill="white"/>
</clipPath>
<clipPath id="clip1">
<rect width="198" height="48" fill="white"/>
</clipPath>
</defs>
</svg>
