<svg width="166" height="48" viewBox="0 0 166 48" fill="none" xmlns="http://www.w3.org/2000/svg">
<path fill-rule="evenodd" clip-rule="evenodd" d="M63.2685 11.0562V32.6987H71.1581V36.4317H59.068V11.0562H63.2685ZM85.9862 21.8223V19.5399H89.9668V36.4317H85.9852V34.1474C85.4503 34.9934 84.6889 35.6583 83.702 36.1412C82.7169 36.6241 81.7244 36.8656 80.7262 36.8656C79.4354 36.8656 78.2542 36.6298 77.1833 36.1591C76.1408 35.7086 75.2021 35.0485 74.4254 34.22C73.6577 33.3975 73.0509 32.4384 72.6366 31.3925C72.206 30.3083 71.9888 29.1513 71.9969 27.9849C71.9969 26.8012 72.2101 25.6713 72.6366 24.5952C73.0482 23.5428 73.6552 22.5777 74.4254 21.7506C75.2021 20.922 76.1408 20.2616 77.1833 19.8106C78.2542 19.339 79.4354 19.1032 80.7262 19.1032C81.7244 19.1032 82.7169 19.3456 83.7029 19.8294C84.6889 20.3123 85.4503 20.9772 85.9862 21.8223ZM85.6201 30.0513C85.8652 29.3903 85.9892 28.6907 85.9862 27.9858C85.9862 27.2596 85.8635 26.5711 85.6201 25.9184C85.3914 25.2906 85.0446 24.7124 84.5983 24.2151C84.1517 23.726 83.6114 23.3315 83.0094 23.055C82.3877 22.7655 81.6999 22.6202 80.945 22.6202C80.1902 22.6202 79.5081 22.7655 78.8995 23.055C78.291 23.3455 77.7673 23.7322 77.3295 24.2151C76.8843 24.71 76.543 25.2892 76.3257 25.9184C76.0919 26.5822 75.9745 27.2812 75.9784 27.9849C75.9784 28.7101 76.0936 29.3996 76.3257 30.0504C76.5427 30.6799 76.8841 31.2595 77.3295 31.7546C77.7714 32.2409 78.3049 32.6351 78.8995 32.9147C79.5081 33.2052 80.1902 33.3495 80.945 33.3495C81.6999 33.3495 82.3886 33.2052 83.0094 32.9157C83.6115 32.6394 84.1519 32.2449 84.5983 31.7556C85.0448 31.258 85.3916 30.6795 85.6201 30.0513ZM93.1077 36.4308V19.5389H103.919V23.4266H97.0884V36.4308H93.1077ZM118.346 21.8223V19.5399H122.327V36.4317H118.346V34.1474C117.81 34.9934 117.049 35.6583 116.062 36.1412C115.077 36.6241 114.085 36.8656 113.086 36.8656C111.795 36.8656 110.614 36.6298 109.544 36.1591C108.501 35.7086 107.562 35.0485 106.786 34.22C106.018 33.3975 105.411 32.4384 104.997 31.3925C104.566 30.3083 104.349 29.1513 104.357 27.9849C104.357 26.8012 104.569 25.6713 104.997 24.5952C105.409 23.5428 106.015 22.5777 106.786 21.7506C107.562 20.922 108.501 20.2616 109.544 19.8106C110.614 19.339 111.795 19.1032 113.086 19.1032C114.085 19.1032 115.077 19.3456 116.063 19.8294C117.049 20.3123 117.81 20.9772 118.346 21.8223ZM117.98 30.0513C118.225 29.3903 118.349 28.6906 118.346 27.9858C118.346 27.2596 118.223 26.5711 117.98 25.9184C117.751 25.2906 117.404 24.7124 116.958 24.2151C116.511 23.726 115.971 23.3315 115.369 23.055C114.748 22.7655 114.06 22.6202 113.305 22.6202C112.551 22.6202 111.868 22.7655 111.26 23.055C110.651 23.3455 110.128 23.7322 109.69 24.2151C109.244 24.7099 108.903 25.2892 108.685 25.9184C108.451 26.5822 108.334 27.2812 108.338 27.9849C108.338 28.7101 108.453 29.3996 108.685 30.0504C108.902 30.68 109.244 31.2596 109.69 31.7546C110.132 32.2409 110.665 32.6351 111.26 32.9147C111.868 33.2052 112.551 33.3495 113.305 33.3495C114.06 33.3495 114.749 33.2052 115.369 32.9157C115.971 32.6394 116.511 32.2449 116.958 31.7556C117.404 31.2581 117.752 30.6795 117.98 30.0513ZM138.287 19.5389H142.32L135.785 36.4308H130.783L124.248 19.5389H128.281L133.284 32.4743L138.287 19.5389ZM151.002 19.1051C156.423 19.1051 160.12 23.8727 159.426 29.4533H146.219C146.219 30.9105 147.701 33.7277 151.221 33.7277C154.25 33.7277 156.278 31.0841 156.28 31.0822L158.969 33.1477C156.565 35.6961 154.596 36.8665 151.513 36.8665C146.002 36.8665 142.269 33.407 142.269 27.9858C142.269 23.0814 146.128 19.1051 151.002 19.1051ZM146.229 26.5173H155.77C155.74 26.1919 155.223 22.243 150.971 22.243C146.719 22.243 146.26 26.1919 146.229 26.5173ZM162.018 36.4308V11.0562H166V36.4308H162.018ZM46.9525 10.8582C46.9699 10.9221 46.9788 10.9881 46.9789 11.0543V21.3573C46.9787 21.4898 46.9434 21.6199 46.8767 21.7344C46.8099 21.8489 46.714 21.9436 46.5987 22.0091L37.8864 26.9879V36.8561C37.886 36.9885 37.8506 37.1184 37.7839 37.2327C37.7171 37.347 37.6213 37.4416 37.5061 37.5069L19.3211 47.8995C19.2796 47.924 19.2333 47.9382 19.189 47.9542C19.171 47.9599 19.155 47.9702 19.138 47.9749C19.0106 48.0084 18.8767 48.0084 18.7493 47.9749C18.7285 47.9693 18.7097 47.958 18.6899 47.9504C18.6474 47.9363 18.6049 47.9221 18.5653 47.8995L0.379288 37.5088C0.264048 37.4432 0.168247 37.3482 0.101626 37.2336C0.0350057 37.1189 -5.82026e-05 36.9887 7.25201e-08 36.8561V5.94719C0.000149846 5.88092 0.0090323 5.81496 0.0264182 5.75101C0.0320792 5.72838 0.0452882 5.70857 0.0528363 5.68782C0.0679323 5.64821 0.0811414 5.60765 0.101898 5.57087C0.116051 5.54635 0.136808 5.52654 0.152848 5.50485C0.175492 5.47467 0.194362 5.4426 0.22078 5.41619C0.24248 5.3945 0.270786 5.37847 0.295317 5.3596C0.322678 5.33885 0.347209 5.31433 0.378345 5.29641L0.379288 5.29547L9.47277 0.0996499C9.58782 0.0343367 9.71787 0 9.85018 0C9.98248 0 10.1125 0.0343367 10.2276 0.0996499L19.3211 5.29547H19.323C19.3531 5.31433 19.3777 5.33885 19.406 5.3596C19.4305 5.37847 19.4579 5.3945 19.4796 5.41619C19.506 5.4426 19.5249 5.47467 19.5475 5.50391C19.5645 5.52654 19.5852 5.54635 19.5994 5.57087C19.6202 5.60765 19.6334 5.64821 19.6485 5.68782C19.656 5.70857 19.6683 5.72838 19.6749 5.75101C19.6919 5.815 19.7005 5.88096 19.7004 5.94719V25.2525L27.2786 20.9225V11.0543C27.2784 10.9881 27.287 10.9222 27.304 10.8582C27.3106 10.8355 27.3229 10.8167 27.3314 10.795C27.3456 10.7554 27.3588 10.7148 27.3795 10.678C27.3937 10.6535 27.4144 10.6337 27.4314 10.612C27.4541 10.5818 27.4729 10.5498 27.4994 10.5243C27.5211 10.5026 27.5484 10.4866 27.5729 10.4677C27.6012 10.446 27.6258 10.4206 27.6569 10.4036V10.4026L36.7504 5.20681C36.8655 5.14115 36.9957 5.10661 37.1283 5.10661C37.2608 5.10661 37.391 5.14115 37.5061 5.20681L46.5987 10.4026H46.5996C46.6317 10.4215 46.6562 10.446 46.6846 10.4668C46.7081 10.4856 46.7364 10.5026 46.7581 10.5234C46.7846 10.5498 46.8034 10.5818 46.8251 10.6111C46.8421 10.6337 46.8629 10.6535 46.877 10.678C46.8987 10.7148 46.911 10.7554 46.9261 10.795C46.9346 10.8167 46.9468 10.8355 46.9525 10.8582ZM45.4637 20.9225V12.355L42.2812 14.1734L37.8864 16.685V25.2525L45.4627 20.9225H45.4637ZM36.3711 36.4213V27.8481L32.0461 30.2984L19.7004 37.2919V45.9453L36.3711 36.4195V36.4213ZM1.51527 7.24779V36.4213L18.1851 45.9472V37.2947L9.47655 32.4035L9.47466 32.4007L9.47089 32.3997C9.4407 32.3828 9.41711 32.3582 9.38975 32.3375C9.36521 32.3186 9.3388 32.3035 9.3171 32.2828L9.31521 32.28C9.29068 32.2564 9.27369 32.2271 9.25294 32.2007C9.23407 32.1762 9.21142 32.1545 9.19633 32.1281L9.19538 32.1253C9.1784 32.097 9.16802 32.063 9.15576 32.031C9.14349 32.0036 9.12745 31.9772 9.1199 31.947V31.9461C9.10953 31.9103 9.10858 31.8725 9.10386 31.8357C9.10103 31.8074 9.09254 31.7801 9.09254 31.7509V11.5769L4.69865 9.06619L1.51527 7.24779ZM9.85018 1.61907L2.27667 5.94813L9.85018 10.2753L17.4246 5.94719L9.85018 1.61907ZM13.7902 28.629L18.1851 26.1184V7.24779L15.0036 9.06619L10.6078 11.5778V30.4474L13.7902 28.629ZM37.1287 6.72717L29.5543 11.0543L37.1287 15.3825L44.7023 11.0543L37.1287 6.72717ZM36.3711 16.685L31.9753 14.1734L28.7938 12.355V20.9225L33.1887 23.4342L36.3711 25.2525V16.684V16.685ZM18.9418 35.9913L30.0515 29.6967L35.605 26.5503L28.0362 22.225L19.3211 27.2049L11.3787 31.7433L18.9418 35.9913Z" fill="#FF2D20"/>
</svg>
