<svg width="198" height="48" viewBox="0 0 198 48" fill="none" xmlns="http://www.w3.org/2000/svg">
<g clip-path="url(#clip0)">
<path d="M49.2805 48C62.6902 48 73.5609 37.2548 73.5609 24C73.5609 10.7452 62.6902 0 49.2805 0C35.8707 0 25 10.7452 25 24C25 37.2548 35.8707 48 49.2805 48Z" fill="white"/>
<path d="M63.8183 44.853C63.3276 45.1888 62.8246 45.4972 62.3169 45.7965C62.8261 45.5018 63.326 45.1888 63.8183 44.853Z" fill="white"/>
<path d="M42.611 17.7858C42.6202 17.795 42.6865 17.8912 42.7205 17.8301C42.3488 15.4226 41.9339 13.0563 41.3711 10.8381C41.3557 10.7526 41.3264 10.6854 41.3063 10.5984V10.5801C41.274 10.5205 41.2755 10.4274 41.2462 10.3663V10.3511C41.1815 10.1526 41.1305 9.95262 41.0689 9.76178V9.73888C40.9039 9.30226 40.8021 8.8687 40.5923 8.40917C40.4381 8.07484 40.1298 7.4367 39.7441 7.43824C39.3586 7.43976 39.1551 8.04889 39.0039 8.38628C38.7966 8.79715 38.6646 9.24115 38.6138 9.69767V10.5388C38.7171 11.5785 39.0332 12.4197 39.3757 13.2272C39.5052 13.4318 39.6023 13.673 39.718 13.8929V13.9158C40.5378 15.3057 41.5078 16.6034 42.611 17.7858Z" fill="#2972FF"/>
<path d="M66.4409 6.99497C61.8802 2.50806 55.7053 -0.00751462 49.2709 1.6863e-05C42.8363 0.00754835 36.6675 2.53758 32.1176 7.03515C27.5676 11.5328 25.0079 17.6306 25 23.9913C24.9921 30.3519 27.5366 36.456 32.0754 40.9646C34.7785 43.6449 38.0875 45.6515 41.7295 46.8188C41.8276 46.1299 41.8894 45.3903 41.9316 44.6433C41.9422 44.5777 41.9029 44.4598 41.9482 44.433V44.1825C41.9618 44.0916 41.9241 43.9409 41.9723 43.8843V43.4817C41.9844 43.1835 41.9422 42.8374 41.995 42.578V42.5572C41.9422 42.2902 41.9844 41.9338 41.9723 41.6326V41.2628C41.9241 41.2002 41.9618 41.0437 41.9482 40.9482V40.7171C41.9029 40.6888 41.9482 40.568 41.9316 40.5054V40.3801C42.8518 40.6068 43.8262 40.7722 44.7163 41.0302C44.2396 41.1465 44.1279 41.6103 44.0752 42.1427C44.0645 42.2127 44.1068 42.3246 44.057 42.3529C44.0903 44.3629 44.5412 45.9659 44.9395 47.6137C50.557 48.6225 56.3545 47.6409 61.3122 44.8416C61.3272 44.8275 61.3413 44.8126 61.3544 44.7969C61.3796 44.6576 61.3932 44.5164 61.3951 44.3749C61.4458 43.9427 61.4744 43.5081 61.4812 43.0731V42.672C61.4389 41.4209 61.1674 40.0924 60.0134 39.967C59.2155 39.8731 58.6558 40.2489 58.0525 40.4681C59.3527 39.0022 60.3543 37.2352 60.4781 34.6064V33.8459C60.2487 30.6415 58.9319 28.5091 57.5245 26.4722C57.3916 26.3328 57.2701 26.1832 57.1609 26.0249C57.0355 25.8813 56.9229 25.7271 56.8246 25.5641V25.5209H56.9755C57.6994 25.2927 58.0223 24.6679 58.2742 23.9671C58.3878 23.511 58.4655 23.0468 58.5065 22.5789C58.5201 22.482 58.4763 22.3298 58.5306 22.2642V22.221C58.4763 22.1658 58.5201 22.0182 58.5065 21.9227C58.4838 21.7408 58.4507 21.5723 58.4205 21.3994C58.3822 21.3257 58.3533 21.2476 58.3345 21.1668V21.1458C58.2059 20.8912 58.0496 20.6512 57.8685 20.4301C57.6618 20.1826 57.3842 19.947 57.3148 19.6562C57.164 18.3619 57.526 17.2302 57.8895 16.3131C57.9375 16.1729 58.0029 16.0393 58.0841 15.915C58.0841 15.8165 58.14 15.7778 58.1656 15.7033C58.197 15.5997 58.2395 15.4997 58.2922 15.405C58.3509 15.1921 58.3937 14.9754 58.4205 14.7563V14.2837C58.3074 13.0087 58.0223 11.8979 57.7824 10.7526C57.7477 10.6959 57.7508 10.6035 57.719 10.5424V10.5201C56.8623 7.73309 55.5182 5.4263 53.0232 4.25724C53.0081 4.25724 52.9961 4.25724 53.0007 4.23339C52.7397 4.15882 52.5165 4.04103 52.2344 3.98138C52.2208 3.98138 52.2087 3.98138 52.2148 3.96348C52.0639 3.96348 51.9975 4.04103 51.8723 4.06787C51.8542 4.1126 51.7773 4.09918 51.741 4.129H51.6823C51.6189 4.38697 51.5314 4.65389 51.6189 4.92825C51.7131 5.16313 51.8422 5.38276 52.002 5.57988C52.9949 6.99729 53.8764 8.48782 54.6388 10.0384C54.7028 10.1538 54.7587 10.2733 54.8063 10.3963C54.8802 10.4723 54.8982 10.6035 54.9571 10.6945C54.9857 10.778 55.04 10.8436 55.0611 10.9271C55.1154 10.9837 55.1261 11.0763 55.1698 11.1389C55.8169 12.548 56.5274 13.899 56.6345 15.8449C56.6722 16.0389 56.6722 16.2383 56.6345 16.4324C56.6384 16.6821 56.6018 16.9308 56.5258 17.169C56.5183 17.2519 56.4903 17.3318 56.4444 17.4016C56.4444 17.4821 56.3976 17.5119 56.3796 17.5701C56.3005 17.7561 56.184 17.9243 56.0372 18.0644C55.8906 18.2047 55.7165 18.314 55.5258 18.3858C55.4542 18.4241 55.3748 18.4461 55.2935 18.4499C55.0522 18.4887 54.7113 18.2099 54.485 18.1159C54.4035 18.1159 54.3793 18.0697 54.3175 18.0533C54.2119 18.0231 54.1106 17.98 54.0159 17.925C53.7141 17.8356 53.4351 17.7387 53.144 17.6522C53.0118 17.6343 52.8825 17.5997 52.7593 17.5492C52.1852 17.4307 51.6044 17.3461 51.02 17.2957C50.9477 17.2808 50.8195 17.3212 50.7848 17.2749H49.682C49.6488 17.3212 49.5312 17.2749 49.4679 17.2957C48.5298 17.3552 47.5978 17.4863 46.6803 17.6879C46.5793 17.7279 46.4741 17.756 46.3665 17.7714C46.1854 17.8191 46.0225 17.8848 45.8325 17.9205C45.6949 17.9825 45.552 18.0324 45.4056 18.0697C45.3266 18.1113 45.2408 18.1391 45.1522 18.1517C44.8852 18.2859 44.5955 18.3873 44.321 18.5126C44.2969 18.5126 44.2939 18.5393 44.2592 18.5334C42.1881 19.5563 40.6223 21.0683 39.6689 23.1992C39.6294 23.3362 39.579 23.4698 39.5181 23.5988C39.493 23.7014 39.4576 23.8013 39.4125 23.8971C39.3794 24.076 39.3251 24.2281 39.2843 24.3995V24.4637C38.6942 24.7949 38.1348 25.1771 37.613 25.6059C37.4214 25.7684 37.2328 25.9444 37.0382 26.1084C36.8874 26.2799 36.72 26.4365 36.5495 26.593C36.1966 27.0076 35.6686 27.5443 35.3668 28.1303C35.2507 28.351 35.0275 28.8864 35.4272 28.9072H35.6641C35.9938 28.8437 36.3274 28.8003 36.6626 28.7775H37.0262C37.0985 28.7954 37.2207 28.7536 37.257 28.8029C38.0862 28.8517 38.9036 29.0215 39.6825 29.3069C40.0823 29.456 40.4624 29.6618 41.019 29.62C40.6178 29.7394 40.209 29.7021 39.8318 29.7468C38.6718 29.8959 37.898 30.4924 37.1936 31.0501C37.0506 31.2066 36.8995 31.3559 36.7411 31.4974C36.5902 31.7315 36.373 31.7956 36.4016 32.1266C36.4303 32.4577 36.8135 32.6515 37.1227 32.7977C37.9297 33.1854 38.9237 33.3941 39.8636 33.5536C40.074 33.5999 40.2879 33.6284 40.5032 33.6386C40.66 33.6133 40.8152 33.5785 40.9678 33.5342C41.458 33.4418 42.1745 33.3941 42.351 33.7833C42.5275 34.1725 42.2333 34.678 42.0945 34.9181C41.9558 35.1582 41.9151 35.2267 41.9919 35.4876C42.1202 35.9439 42.4129 36.281 42.6889 36.6448C42.8277 36.7584 42.9564 36.8836 43.0736 37.019C44.2607 38.027 45.7103 38.7666 47.2609 39.3959C48.6583 39.9661 50.0847 40.4638 51.5345 40.8871C51.7529 40.9278 51.9667 40.9902 52.1725 41.0735C51.7714 41.1847 51.3568 41.2414 50.9401 41.242C50.8979 41.2927 50.7621 41.2509 50.6836 41.2658H50.1723C50.0803 41.2509 49.9339 41.2927 49.8706 41.242C48.2835 41.1512 46.7095 40.9045 45.1718 40.5054C43.9439 40.1997 42.6708 39.8254 41.4972 39.4317C41.3318 39.359 41.162 39.2963 40.9889 39.2439C40.8069 39.2653 40.6282 39.3078 40.4564 39.3706C39.895 39.5288 39.3169 39.6214 38.7337 39.6465C38.5517 39.6792 38.3651 39.6792 38.1831 39.6465C36.382 39.5451 35.3729 38.6653 35.1014 37.0638C34.849 37.1617 34.5839 37.224 34.314 37.2487C32.8221 37.277 32.6954 35.2312 33.2279 34.1396C33.3787 33.8131 33.6518 33.6178 33.866 33.3851C34.2928 32.9125 34.4588 32.1058 34.0575 31.3244C33.9353 31.0858 33.6684 30.9397 33.5054 30.6116C33.249 30.0943 33.3938 29.5574 33.611 29.1205C33.8309 28.7162 34.0737 28.3244 34.3381 27.9469C34.8283 27.1551 35.6022 26.5081 36.0985 25.9056C36.1609 25.8272 36.2329 25.7566 36.3126 25.6953C36.3428 25.6342 36.4077 25.6103 36.4378 25.5462C36.501 25.4689 36.5723 25.3984 36.6506 25.336C36.7018 25.2525 36.7923 25.2093 36.8437 25.1287C36.9085 24.9021 37.3731 24.7336 37.4168 24.4771C37.4168 24.4354 37.4168 24.395 37.4168 24.3503V24.1148C37.4319 24.0507 37.3896 23.9343 37.4395 23.9075C37.4505 23.6606 37.5077 23.4179 37.6084 23.1918C38.2601 21.5768 39.5423 20.5778 40.8592 19.613C39.949 18.5552 39.1846 17.3828 38.5859 16.1267V16.1058C38.5154 16.0014 38.4582 15.8886 38.4154 15.7703C38.1706 15.2601 37.9639 14.7328 37.797 14.1927C37.7538 14.1143 37.7251 14.029 37.7125 13.9407C37.3818 12.906 37.1965 11.8313 37.1619 10.7467V10.0205C37.1619 9.95339 37.1468 9.87138 37.1815 9.82962C37.1951 9.74463 37.1544 9.60595 37.2042 9.55526V9.53438C37.2762 8.54315 37.5127 7.57039 37.9041 6.655C37.9972 6.37146 38.1184 6.09774 38.2661 5.83785C38.2752 5.82741 38.2797 5.80206 38.2902 5.79311C38.7835 5.30253 39.666 4.77914 40.4368 5.29209C41.0688 5.71557 41.375 6.52377 41.6269 7.41398C41.8575 8.31426 42.0418 9.22552 42.179 10.1443C42.3575 11.0276 42.6202 11.8925 42.9634 12.7269C43.0127 12.7891 43.0487 12.8607 43.069 12.9371V12.9595C43.2033 13.1758 43.3088 13.4233 43.431 13.65V13.6678C43.4991 13.7535 43.5563 13.8472 43.6015 13.9467V13.975C44.0625 14.7154 44.6279 15.3872 45.2804 15.9701C45.4689 16.1267 45.7586 16.4279 45.9833 16.4727C46.2488 16.5308 46.5188 16.4294 46.7693 16.4727H47.4058C47.519 16.4235 47.7256 16.4637 47.8749 16.4533H48.2355C48.3275 16.4041 48.5115 16.4533 48.6397 16.4294H48.8947C48.9595 16.3803 49.1149 16.4294 49.2129 16.4085H49.406C49.4528 16.3623 49.5961 16.4085 49.6835 16.3921H49.851C49.8947 16.3414 50.0289 16.3803 50.1074 16.3697C51.5541 16.2669 53.0353 16.1953 54.2104 15.821C54.3265 15.7589 54.4335 15.6817 54.5287 15.5914V15.2126C54.4819 15.162 54.5287 15.0247 54.5076 14.9383C54.3903 13.403 54.0609 11.8909 53.5286 10.444C53.4818 10.371 53.4607 10.271 53.42 10.1905V10.1711C53.3597 10.0429 53.3144 9.89971 53.2526 9.76998V9.74911C52.8975 8.93743 52.4857 8.15119 52.0201 7.39609C51.5676 6.68482 50.9642 6.00634 50.8934 4.95956V4.9372C50.8587 4.79258 50.8587 4.64194 50.8934 4.49731V4.47197C50.8957 4.35162 50.9171 4.23238 50.9566 4.11856C50.9853 4.06638 50.9929 3.98734 51.0412 3.95006C51.1002 3.81973 51.1851 3.70242 51.2908 3.6051C51.3965 3.50777 51.5209 3.43239 51.6566 3.38343C51.8708 3.25371 52.1952 3.23432 52.5089 3.19405H52.8105C53.4747 3.21377 54.1237 3.39454 54.7006 3.72043C55.8154 4.30347 56.6753 5.16534 57.443 6.09433C58.2338 7.04811 58.918 8.08349 59.484 9.18247V9.19738C59.6814 9.5542 59.8587 9.92158 60.015 10.2978V10.3157C60.0498 10.3767 60.0791 10.4405 60.1024 10.5066C60.647 11.6876 60.8008 13.2578 60.8672 14.9174C60.917 14.9666 60.8672 15.1053 60.8884 15.1903V15.3827C60.9396 15.4423 60.8974 15.5989 60.9109 15.6958V16.0328C60.9359 16.1991 60.9414 16.3677 60.9276 16.5353V17.9221C60.9413 18.1462 60.9358 18.3712 60.9109 18.5946V18.8495C60.8974 18.9554 60.9396 19.1135 60.8884 19.182V19.3311C60.8748 19.4072 60.917 19.5399 60.8672 19.5817V19.7084C60.8521 19.7711 60.8974 19.8889 60.8431 19.9202C60.825 20.6925 60.7187 21.4603 60.5263 22.2091C60.5156 22.3125 60.487 22.4134 60.4418 22.5073C60.4144 22.6577 60.3719 22.805 60.3152 22.9472C60.2792 23.1146 60.2225 23.2768 60.1461 23.4303C60.1469 23.4588 60.1401 23.4871 60.1265 23.5123C60.0964 23.5854 60.0904 23.6764 60.0375 23.7226C59.9289 24.085 59.7887 24.4115 59.6545 24.753C59.6283 24.8549 59.594 24.9547 59.5519 25.0512C59.5386 25.1524 59.5158 25.2523 59.484 25.3494V25.6014C59.4915 25.6313 59.5141 25.6417 59.5066 25.6879C59.6001 25.837 59.6755 25.9861 59.7615 26.1471C61.2277 28.2347 62.5476 30.4908 63.504 33.1034C64.4604 35.7158 65.0637 38.6355 65.3744 41.9085L63.4135 43.5205C64.4911 42.7511 65.5036 41.8963 66.4409 40.9646C68.6982 38.7345 70.4888 36.0865 71.7104 33.1721C72.9321 30.2577 73.5609 27.1338 73.5609 23.9791C73.5609 20.8243 72.9321 17.7005 71.7104 14.786C70.4888 11.8715 68.6982 9.22363 66.4409 6.99348V6.99497ZM51.8965 24.6844C51.4439 24.6023 51.0065 24.4562 50.6429 24.4099C50.1904 24.3518 49.8887 24.6083 49.4739 24.7083C49.5825 24.4476 49.7327 24.206 49.9189 23.9924C50.1545 23.7088 50.4433 23.4728 50.7697 23.2976C50.8692 23.2589 50.9341 23.1843 51.0638 23.1753C51.1411 23.1245 51.2306 23.0946 51.3233 23.0888C51.4955 23.0363 51.6759 23.0156 51.8557 23.0277C51.8754 22.9919 52.0458 22.9919 52.0684 23.0277C52.9478 23.0874 53.6161 23.3587 54.5332 23.3856H54.936C55.129 23.3721 55.2814 23.3379 55.4699 23.3215C55.5485 23.2773 55.6352 23.249 55.7249 23.2379C55.7207 23.3183 55.6986 23.3967 55.66 23.4676C55.6548 23.5417 55.6337 23.6139 55.5982 23.6793C55.5671 23.7799 55.5158 23.8733 55.4474 23.9537C55.4062 24.0454 55.3496 24.1297 55.2799 24.2027C55.2192 24.2822 55.1476 24.353 55.0672 24.413C54.666 24.7248 54.1716 24.8963 53.6614 24.9006H53.3174C52.8395 24.8588 52.3649 24.7866 51.8965 24.6844Z" fill="#2972FF"/>
<path d="M91.7233 27.0198C89.876 27.0198 88.047 28.427 88.047 30.2278C88.047 33.9095 93.1997 33.7537 96.2835 33.3618V35.0437C94.7624 36.0621 93.2336 36.5714 91.6772 36.5714C85.6252 36.5714 82.8125 31.129 82.8125 25.8872C82.8125 21.1036 85.9779 15.5486 91.4463 15.5486C95.8986 15.5486 99.6058 19.5436 99.6058 23.9676C99.6058 25.3733 97.4628 27.4904 96.1357 27.4904C94.6392 27.4951 93.1997 27.0198 91.7233 27.0198ZM88.5919 22.0819C88.5919 22.7471 90.387 24.233 91.2877 24.233C92.3777 24.233 94.1358 22.71 94.1358 21.6916C94.1358 20.4386 92.5748 19.1084 91.2877 19.1084C89.6511 19.1146 88.5919 20.366 88.5919 22.0943V22.0819Z" fill="#11213F"/>
<path d="M109.415 35.5191C106.994 35.5191 104.767 34.7368 104.488 31.5626C104.18 28.3546 104.059 25.0246 104.059 21.7749C104.059 18.2167 104.257 12.853 104.839 9.13416C105.27 8.67123 106.011 8 106.634 8L107.144 8.19443C108.28 10.8563 108.59 15.2401 108.59 17.709C108.59 20.5622 108.242 23.3844 108.242 26.1958C108.242 30.6569 110.115 31.6382 111.987 31.9052C113.002 32.1042 114.019 32.0256 114.803 32.1042C115.933 32.2231 116.56 32.6536 116.6 33.5918C116.754 34.5732 115.505 35.2737 113.71 35.4311C112.272 35.5946 110.509 35.5191 109.415 35.5191Z" fill="#11213F"/>
<path d="M131.019 35.5191C130.075 35.9111 127.54 36.0252 126.641 36.0252C122.461 36.0252 119.648 36.2983 118.327 31.0535C118.229 30.5912 118.189 30.1184 118.209 29.6461C118.209 25.6126 120.356 23.855 122.384 22.7564C123.321 22.2086 124.297 21.8151 125.044 21.3862C125.705 20.9942 125.98 20.6393 125.98 20.2134C125.98 19.3138 124.456 19.1965 123.792 18.9558C122.932 18.6472 122.233 18.175 122.233 17.118C122.233 15.7863 124.456 15.3589 125.466 15.3589C131.02 15.3589 132.072 20.019 132.072 24.2424C132.072 26.557 132.697 28.8638 132.697 31.1722C132.695 32.0538 132.603 32.9328 132.421 33.7955C131.835 34.3448 131.872 35.121 131.019 35.5191ZM122.302 29.4086C122.302 30.6584 123.124 31.9099 124.222 31.9099C126.368 31.9099 127.811 30.1909 127.732 27.9581C127.657 25.9614 126.02 25.7237 125.233 25.7237C124.026 25.7237 122.302 28.0383 122.302 29.4086Z" fill="#11213F"/>
<path d="M153.32 35.4759C152.927 35.4759 152.463 35.2413 152.072 35.1672C149.807 32.2678 150.818 28.9826 150.818 25.6542C150.818 24.9536 150.973 21.7039 150.118 21.7039C146.76 21.7039 147.962 28.1987 147.962 30.1568C147.962 31.2957 147.259 35.3617 145.624 35.3617C142.581 35.3617 143.396 28.1632 143.396 26.3224C143.396 25.2623 143.674 21.5481 142.068 21.5481C140.545 21.5481 140.112 24.1713 140.112 25.3425C140.112 27.1062 140.506 28.8669 140.506 30.6645C140.506 32.1938 139.879 35.482 137.85 35.482C136.713 35.482 135.86 31.7617 135.694 27.654C135.54 23.8581 135.654 19.7843 135.654 18.6904C135.654 16.7708 137.061 16.2631 138.425 16.2631C141.432 16.2631 144.4 15.5193 147.408 15.5193C154.631 15.5193 155.531 20.7241 155.531 26.4381C155.531 27.2235 155.645 29.3375 155.492 31.2957C155.31 33.5593 154.567 35.4759 153.32 35.4759Z" fill="#11213F"/>
<path d="M171.327 35.5191C170.386 35.9111 167.851 36.0252 166.951 36.0252C162.774 36.0252 159.966 36.2983 158.638 31.0535C158.54 30.5912 158.5 30.1184 158.519 29.6461C158.519 25.6126 160.675 23.855 162.696 22.7564C163.631 22.2086 164.612 21.8151 165.354 21.3862C166.021 20.9942 166.288 20.6393 166.288 20.2134C166.288 19.3138 164.766 19.1965 164.106 18.9558C163.243 18.6472 162.543 18.175 162.543 17.118C162.543 15.7863 164.766 15.3589 165.776 15.3589C171.318 15.3589 172.375 20.019 172.375 24.2424C172.375 26.557 173.001 28.8638 173.001 31.1722C172.999 32.0538 172.907 32.9328 172.726 33.7955C172.147 34.3448 172.183 35.121 171.327 35.5191ZM162.617 29.4086C162.617 30.6584 163.435 31.9099 164.528 31.9099C166.684 31.9099 168.122 30.1909 168.045 27.9581C167.969 25.9614 166.326 25.7237 165.554 25.7237C164.337 25.7237 162.617 28.0383 162.617 29.4086Z" fill="#11213F"/>
</g>
<defs>
<clipPath id="clip0">
<rect width="198" height="48" fill="white"/>
</clipPath>
</defs>
</svg>
