<svg width="198" height="48" viewBox="0 0 198 48" fill="none" xmlns="http://www.w3.org/2000/svg">
<g clip-path="url(#clip0)">
<path d="M75 0H123V48H75V0Z" fill="#EC2227"/>
<path d="M85.3433 41.0907V22.6665H87.4039V39.1918H92.6564V41.0907H85.3433Z" fill="#010101"/>
<path d="M98.2323 22.6665C101.141 22.6665 102.354 24.3635 102.354 27.1514V29.3736C102.354 32.2827 100.98 33.818 98.0707 33.818H96.2525V41.0907H94.1919V22.6665H98.2323ZM98.0707 31.9594C99.606 31.9594 100.333 31.2322 100.333 29.4948V27.0705C100.333 25.3736 99.7272 24.5251 98.2323 24.5251H96.2525V31.9594H98.0707ZM108.172 22.6665C111.081 22.6665 112.293 24.121 112.293 26.8685V28.3635C112.293 30.3837 111.566 31.6362 109.99 32.1615C111.687 32.6463 112.293 34.02 112.293 35.9998V38.8685C112.293 39.6766 112.333 40.4443 112.657 41.0907H110.556C110.313 40.5655 110.232 40.0806 110.232 38.8685V35.9594C110.232 33.8988 109.263 33.212 107.566 33.212H106.111V41.0907H104.05V22.6665H108.172ZM107.646 31.3534C109.263 31.3534 110.232 30.8281 110.232 28.8079V27.0705C110.232 25.414 109.626 24.5655 108.091 24.5655H106.111V31.3938H107.646V31.3534Z" fill="white"/>
</g>
<defs>
<clipPath id="clip0">
<rect width="198" height="48" fill="white"/>
</clipPath>
</defs>
</svg>
