<svg width="48" height="48" viewBox="0 0 48 48" fill="none" xmlns="http://www.w3.org/2000/svg">
<path d="M0 0H48V48H0V0Z" fill="#EC2227"/>
<path d="M10.3433 41.0907V22.6665H12.4039V39.1918H17.6564V41.0907H10.3433Z" fill="#010101"/>
<path d="M23.2323 22.6665C26.1414 22.6665 27.3535 24.3635 27.3535 27.1514V29.3736C27.3535 32.2827 25.9798 33.818 23.0707 33.818H21.2525V41.0907H19.1919V22.6665H23.2323ZM23.0707 31.9594C24.606 31.9594 25.3333 31.2322 25.3333 29.4948V27.0705C25.3333 25.3736 24.7272 24.5251 23.2323 24.5251H21.2525V31.9594H23.0707ZM33.1717 22.6665C36.0808 22.6665 37.2929 24.121 37.2929 26.8685V28.3635C37.2929 30.3837 36.5656 31.6362 34.9899 32.1615C36.6868 32.6463 37.2929 34.02 37.2929 35.9998V38.8685C37.2929 39.6766 37.3333 40.4443 37.6565 41.0907H35.5555C35.3131 40.5655 35.2323 40.0806 35.2323 38.8685V35.9594C35.2323 33.8988 34.2626 33.212 32.5656 33.212H31.1111V41.0907H29.0505V22.6665H33.1717ZM32.6464 31.3534C34.2626 31.3534 35.2323 30.8281 35.2323 28.8079V27.0705C35.2323 25.414 34.6262 24.5655 33.0909 24.5655H31.1111V31.3938H32.6464V31.3534Z" fill="white"/>
</svg>
