<svg width="336" height="336" viewBox="0 0 336 336" fill="none" xmlns="http://www.w3.org/2000/svg">
<path d="M0 12C0 5.37258 5.37258 0 12 0H324C330.627 0 336 5.37258 336 12V336H0V12Z" fill="#ABC3E8"/>
<path d="M104 104H232V232H104V104Z" fill="#EC2227"/>
<path d="M131.584 213.576V164.444H137.079V208.512H151.086V213.576H131.584Z" fill="#010101"/>
<path d="M165.954 164.444C173.712 164.444 176.944 168.97 176.944 176.404V182.33C176.944 190.087 173.281 194.182 165.523 194.182H160.675V213.576H155.18V164.444H165.954ZM165.523 189.225C169.617 189.225 171.557 187.286 171.557 182.653V176.188C171.557 171.663 169.941 169.401 165.954 169.401H160.675V189.225H165.523ZM192.459 164.444C200.217 164.444 203.449 168.323 203.449 175.65V179.636C203.449 185.023 201.51 188.364 197.308 189.764C201.833 191.057 203.449 194.72 203.449 200V207.65C203.449 209.805 203.557 211.852 204.419 213.576H198.816C198.17 212.175 197.954 210.882 197.954 207.65V199.892C197.954 194.397 195.368 192.566 190.843 192.566H186.964V213.576H181.469V164.444H192.459ZM191.058 187.609C195.368 187.609 197.954 186.209 197.954 180.821V176.188C197.954 171.771 196.338 169.508 192.244 169.508H186.964V187.717H191.058V187.609Z" fill="white"/>
</svg>
