<svg width="36" height="36" viewBox="0 0 36 36" fill="none" xmlns="http://www.w3.org/2000/svg">
<path fill-rule="evenodd" clip-rule="evenodd" d="M0.850144 4.25887C0 5.92738 0 8.11162 0 12.48V23.52C0 27.8884 0 30.0726 0.850144 31.7411C1.59796 33.2088 2.7912 34.402 4.25886 35.1499C5.92736 36 8.11159 36 12.4799 36H23.5199C27.8883 36 30.0725 36 31.741 35.1499C33.2087 34.402 34.4019 33.2088 35.1497 31.7411C35.9999 30.0726 35.9999 27.8884 35.9999 23.52V12.48C35.9999 8.11162 35.9999 5.92738 35.1497 4.25887C34.4019 2.79121 33.2087 1.59796 31.741 0.850147C30.0725 0 27.8883 0 23.5199 0H12.4799C8.11159 0 5.92736 0 4.25886 0.850147C2.7912 1.59796 1.59796 2.79121 0.850144 4.25887ZM20.6881 4.79956H24.5311L31.7996 8.83845L24.5311 31.1996H20.6881L24.0996 10.8425L16.8871 31.1996H13.0441L16.4555 12.4832L9.24303 31.1996H5.40012L8.75561 13.7439L5.40012 4.79956H9.24303L16.4555 11.7288L13.0441 4.79956H16.8871L24.0996 10.0881L20.6881 4.79956Z" fill="#82A6DD"/>
</svg>
