<svg width="198" height="38" viewBox="0 0 198 38" fill="none" xmlns="http://www.w3.org/2000/svg">
<path d="M19.6264 19.8098C19.6264 22.7295 18.747 25.1889 16.9819 27.1798C15.14 29.2658 12.7467 30.313 9.81687 30.313C6.87931 30.313 4.4937 29.2658 2.65172 27.1798C0.885966 25.1889 0 22.7295 0 19.8098C0 16.882 0.885966 14.4234 2.65172 12.4396C4.51415 10.3731 6.9076 9.34041 9.81687 9.34041C12.7467 9.34041 15.14 10.3731 16.9819 12.4396C18.747 14.4234 19.6264 16.882 19.6264 19.8098ZM13.7931 19.8098C13.7931 18.4873 13.4725 17.371 12.8306 16.4685C12.1124 15.4426 11.1073 14.933 9.81687 14.933C8.52596 14.933 7.52128 15.4426 6.80237 16.4685C6.15382 17.371 5.83288 18.4873 5.83288 19.8098C5.83288 21.1249 6.15382 22.2546 6.80237 23.1842C7.52128 24.2101 8.52596 24.7205 9.81687 24.7205C11.1073 24.7205 12.1124 24.2101 12.8306 23.1842C13.4725 22.2546 13.7931 21.1249 13.7931 19.8098ZM40.7176 19.8098C40.7176 22.5371 39.9221 24.9201 38.3242 26.9588C36.6149 29.1902 34.4102 30.313 31.7311 30.313C29.84 30.313 28.2359 29.769 26.9241 28.6947C26.9241 28.9421 26.952 29.5415 27.008 30.4998C27.0637 31.4629 27.0912 32.2482 27.0912 32.8682C27.0912 36.2924 26.0587 38 23.994 38C23.1494 38 22.4591 37.7037 21.9076 37.1181C21.3635 36.5263 21.0912 35.8155 21.0912 34.9763V12.7084C21.0912 11.8956 21.3705 11.1928 21.9285 10.601C22.4865 10.0154 23.1776 9.71991 24.0009 9.71991C25.2423 9.71991 26.1496 10.3315 26.7219 11.5516C27.9427 10.0777 29.6103 9.34041 31.7241 9.34041C34.4102 9.34041 36.6079 10.4418 38.3242 12.6534C39.9152 14.6994 40.7176 17.0824 40.7176 19.8098ZM34.8843 19.8098C34.8843 18.4873 34.5572 17.371 33.9152 16.4685C33.1959 15.4426 32.1916 14.933 30.9007 14.933C29.6103 14.933 28.6056 15.4426 27.8867 16.4685C27.2447 17.371 26.9241 18.4873 26.9241 19.8098C26.9241 21.1249 27.2447 22.2546 27.8867 23.1842C28.6056 24.2101 29.6103 24.7205 30.9007 24.7205C32.1916 24.7205 33.1959 24.2101 33.9152 23.1842C34.5572 22.2546 34.8843 21.1249 34.8843 19.8098ZM61.9411 19.1905C61.9411 20.1538 61.7106 20.815 61.2501 21.1876C60.7899 21.5522 60.0714 21.7381 59.1015 21.7381H48.5731C48.5731 22.8402 49.0966 23.687 50.1431 24.2788C50.9873 24.7411 52.0199 24.9759 53.2407 24.9759C54.1902 24.9759 55.3271 24.6648 56.6597 24.0528C57.9924 23.4324 58.8501 23.1288 59.2206 23.1288C59.8969 23.1288 60.4689 23.3702 60.9434 23.8661C61.4105 24.3555 61.6484 24.9476 61.6484 25.6298C61.6484 27.2062 60.4554 28.4336 58.0685 29.3147C56.2478 29.9755 54.399 30.313 52.5086 30.313C49.4667 30.313 47.0107 29.3147 45.134 27.3246C43.2568 25.3336 42.3155 22.8334 42.3155 19.8098C42.3155 16.9301 43.292 14.4715 45.2453 12.4198C47.1917 10.3663 49.6133 9.34041 52.5014 9.34041C55.1875 9.34041 57.4339 10.3117 59.2345 12.2538C61.0339 14.1966 61.9411 16.5105 61.9411 19.1905ZM56.1086 17.7432C56.0804 16.8613 55.669 16.0626 54.8735 15.3388C54.0779 14.6161 53.2341 14.2584 52.3408 14.2584C51.42 14.2584 50.5616 14.6161 49.7664 15.3388C48.9714 16.0626 48.5731 16.8613 48.5731 17.7432H56.1086ZM81.539 26.9099C81.539 27.751 81.2672 28.4599 80.7236 29.0524C80.172 29.6384 79.481 29.9347 78.637 29.9347C76.5997 29.9347 75.5807 28.3366 75.5807 25.1477C75.5807 24.5346 75.6228 23.5706 75.7064 22.2412C75.7973 20.9184 75.8394 19.9475 75.8394 19.3344C75.8394 15.9519 74.7299 14.2584 72.5182 14.2584C70.3063 14.2584 69.2041 15.9519 69.2041 19.3344C69.2041 19.9475 69.2389 20.9184 69.3016 22.2412C69.3716 23.5706 69.4063 24.5346 69.4063 25.1477C69.4063 28.3366 68.4017 29.9347 66.3926 29.9347C65.548 29.9347 64.8577 29.6384 64.3132 29.0524C63.7622 28.4599 63.4899 27.751 63.4899 26.9099V12.7023C63.4899 11.8674 63.7622 11.1592 64.3132 10.5873C64.8577 10.0085 65.5554 9.71991 66.3996 9.71991C67.7949 9.71991 68.7644 10.3315 69.3085 11.5516C70.2505 10.0777 71.9177 9.34041 74.3041 9.34041C76.5158 9.34041 78.2742 9.91846 79.565 11.0687C80.8837 12.3026 81.539 13.9961 81.539 16.1524V26.9099ZM99.8392 26.2979C99.8392 27.5994 98.9826 28.6321 97.2653 29.3907C95.9055 30.0028 94.4275 30.3175 92.9329 30.313C89.9945 30.313 87.6092 29.2658 85.7676 27.1798C84.002 25.1889 83.116 22.7295 83.116 19.8098C83.116 16.882 84.0162 14.41 85.823 12.3847C87.6298 10.3533 89.9945 9.34041 92.9329 9.34041C94.628 9.34041 96.0861 9.58825 97.301 10.0777C98.9952 10.7389 99.8392 11.7715 99.8392 13.1769C99.8392 13.8858 99.6165 14.5127 99.1696 15.0571C98.7234 15.5943 98.1505 15.8699 97.4539 15.8699C96.9784 15.8699 96.2945 15.7114 95.4022 15.4022C94.5091 15.0846 93.7983 14.933 93.2753 14.933C91.8861 14.933 90.8044 15.4221 90.0302 16.3997C89.3114 17.2816 88.9485 18.4113 88.9485 19.8098C88.9485 21.1249 89.2694 22.2412 89.9192 23.1434C90.6364 24.1974 91.6492 24.7205 92.9393 24.7205C93.5122 24.7205 94.2928 24.5552 95.2905 24.2169C96.289 23.8875 97.0078 23.7153 97.4539 23.7153C98.1029 23.7153 98.66 23.9902 99.1355 24.5277C99.6031 25.0717 99.8392 25.6566 99.8392 26.2979ZM121.042 26.9099C121.042 27.751 120.77 28.4599 120.226 29.0524C119.675 29.6384 118.978 29.9347 118.132 29.9347C116.863 29.9347 115.956 29.3212 115.412 28.1022C114.191 29.5766 112.523 30.313 110.41 30.313C107.704 30.313 105.485 29.1902 103.767 26.9588C102.205 24.9201 101.418 22.5371 101.418 19.8098C101.418 17.0824 102.205 14.6994 103.767 12.6534C105.512 10.4418 107.723 9.34041 110.41 9.34041C112.523 9.34041 114.191 10.0777 115.412 11.5516C115.956 10.3315 116.863 9.71991 118.132 9.71991C118.956 9.71991 119.647 10.0154 120.206 10.601C120.763 11.1928 121.042 11.8887 121.042 12.7023V26.9099ZM115.21 19.8098C115.21 18.4873 114.89 17.371 114.247 16.4685C113.5 15.4426 112.496 14.933 111.233 14.933C109.942 14.933 108.938 15.4426 108.219 16.4685C107.57 17.371 107.25 18.4873 107.25 19.8098C107.25 21.1249 107.562 22.2546 108.183 23.1842C108.924 24.2101 109.942 24.7205 111.233 24.7205C112.523 24.7205 113.528 24.2101 114.247 23.1842C114.89 22.2546 115.21 21.1249 115.21 19.8098ZM135.924 12.3224C135.924 13.5552 135.317 14.4023 134.103 14.8635C132.981 15.2361 131.863 15.6156 130.747 16.0069C129.525 16.6964 128.919 17.9773 128.919 19.8372V26.9099C128.919 27.751 128.639 28.4599 128.097 29.0524C127.544 29.6384 126.847 29.9347 126.003 29.9347C125.153 29.9347 124.454 29.6384 123.911 29.0524C123.359 28.4599 123.087 27.751 123.087 26.9099V12.7023C123.087 11.8674 123.359 11.1592 123.903 10.5873C124.454 10.0085 125.153 9.71991 125.997 9.71991C127.391 9.71991 128.361 10.3315 128.906 11.5516C130.155 10.0777 131.495 9.34041 132.939 9.34041C133.761 9.34041 134.466 9.63597 135.052 10.2215C135.63 10.8141 135.924 11.5165 135.924 12.3224ZM151.141 12.5844C151.141 13.8652 150.632 14.6711 149.621 15.0162C149.124 15.188 148.084 15.2773 146.501 15.2773V26.9099C146.501 27.751 146.222 28.4599 145.679 29.0524C145.127 29.6384 144.429 29.9347 143.585 29.9347C142.763 29.9347 142.064 29.6384 141.505 29.0524C140.948 28.4599 140.669 27.751 140.669 26.9099V15.2773C139.468 15.2773 138.597 15.1258 138.046 14.8303C137.293 14.4169 136.921 13.6659 136.921 12.5844C136.921 11.5035 137.305 10.7663 138.079 10.3731C138.603 10.0838 139.468 9.93293 140.669 9.93293V7.46707C140.669 4.56756 141.637 3.12137 143.585 3.12137C145.524 3.12137 146.501 4.56756 146.501 7.46707V9.93293C148.084 9.93293 149.124 10.0223 149.621 10.1941C150.632 10.5384 151.141 11.3382 151.141 12.5844ZM198 9.08694C197.984 7.31898 194.675 6.51647 186.108 6.51647C166.009 6.51647 160.909 5.66891 155.452 0C157.748 3.40387 159.004 9.78828 180.249 9.47058C202.415 9.13348 188.892 15.1128 184.958 21.8683C192.053 15.6164 197.979 11.4955 198 9.11252V9.08694ZM169.755 27.2413C169.754 28.8847 168.385 30.2367 166.72 30.2371C165.039 30.2371 163.679 28.8948 163.679 27.2413C163.679 27.2405 163.679 27.2398 163.679 27.239C163.679 25.5929 165.05 24.2383 166.719 24.2383C166.719 24.2383 166.719 24.2383 166.72 24.2383C168.396 24.2383 169.755 25.581 169.755 27.2413ZM183.597 27.2413C183.596 28.8847 182.227 30.2367 180.562 30.2371C178.882 30.2371 177.521 28.8948 177.521 27.2413C177.521 27.2405 177.521 27.2398 177.521 27.239C177.521 25.5929 178.893 24.2383 180.56 24.2383C180.561 24.2383 180.561 24.2383 180.562 24.2383C182.238 24.2383 183.597 25.581 183.597 27.2413Z" fill="url(#paint0_linear)"/>
<defs>
<linearGradient id="paint0_linear" x1="99" y1="30.0596" x2="99" y2="7.88341e-05" gradientUnits="userSpaceOnUse">
<stop stop-color="#04B6F0"/>
<stop offset="1" stop-color="#3ECAF0"/>
</linearGradient>
</defs>
</svg>
