<svg width="198" height="48" viewBox="0 0 198 48" fill="none" xmlns="http://www.w3.org/2000/svg">
<g clip-path="url(#clip0)">
<path d="M19.6264 24.8098C19.6264 27.7295 18.747 30.1889 16.9819 32.1798C15.14 34.2658 12.7467 35.313 9.81687 35.313C6.87931 35.313 4.4937 34.2658 2.65172 32.1798C0.885966 30.1889 0 27.7295 0 24.8098C0 21.882 0.885966 19.4234 2.65172 17.4396C4.51415 15.3731 6.9076 14.3404 9.81687 14.3404C12.7467 14.3404 15.14 15.3731 16.9819 17.4396C18.747 19.4234 19.6264 21.882 19.6264 24.8098ZM13.7931 24.8098C13.7931 23.4873 13.4725 22.371 12.8306 21.4685C12.1124 20.4426 11.1073 19.933 9.81687 19.933C8.52596 19.933 7.52128 20.4426 6.80237 21.4685C6.15382 22.371 5.83288 23.4873 5.83288 24.8098C5.83288 26.1249 6.15382 27.2546 6.80237 28.1842C7.52128 29.2101 8.52596 29.7205 9.81687 29.7205C11.1073 29.7205 12.1124 29.2101 12.8306 28.1842C13.4725 27.2546 13.7931 26.1249 13.7931 24.8098ZM40.7176 24.8098C40.7176 27.5371 39.9221 29.9201 38.3242 31.9588C36.6149 34.1902 34.4102 35.313 31.7311 35.313C29.84 35.313 28.2359 34.769 26.9241 33.6947C26.9241 33.9421 26.952 34.5415 27.008 35.4998C27.0637 36.4629 27.0912 37.2482 27.0912 37.8682C27.0912 41.2924 26.0587 43 23.994 43C23.1494 43 22.4591 42.7037 21.9076 42.1181C21.3635 41.5263 21.0912 40.8155 21.0912 39.9763V17.7084C21.0912 16.8956 21.3705 16.1928 21.9285 15.601C22.4865 15.0154 23.1776 14.7199 24.0009 14.7199C25.2423 14.7199 26.1496 15.3315 26.7219 16.5516C27.9427 15.0777 29.6103 14.3404 31.7241 14.3404C34.4102 14.3404 36.6079 15.4418 38.3242 17.6534C39.9152 19.6994 40.7176 22.0824 40.7176 24.8098ZM34.8843 24.8098C34.8843 23.4873 34.5572 22.371 33.9152 21.4685C33.1959 20.4426 32.1916 19.933 30.9007 19.933C29.6103 19.933 28.6056 20.4426 27.8867 21.4685C27.2447 22.371 26.9241 23.4873 26.9241 24.8098C26.9241 26.1249 27.2447 27.2546 27.8867 28.1842C28.6056 29.2101 29.6103 29.7205 30.9007 29.7205C32.1916 29.7205 33.1959 29.2101 33.9152 28.1842C34.5572 27.2546 34.8843 26.1249 34.8843 24.8098ZM61.9411 24.1905C61.9411 25.1538 61.7106 25.815 61.2501 26.1876C60.7899 26.5522 60.0714 26.7381 59.1015 26.7381H48.5731C48.5731 27.8402 49.0966 28.687 50.1431 29.2788C50.9873 29.7411 52.0199 29.9759 53.2407 29.9759C54.1902 29.9759 55.3271 29.6648 56.6597 29.0528C57.9924 28.4324 58.8501 28.1288 59.2206 28.1288C59.8969 28.1288 60.4689 28.3702 60.9434 28.8661C61.4105 29.3555 61.6484 29.9476 61.6484 30.6298C61.6484 32.2062 60.4554 33.4336 58.0685 34.3147C56.2478 34.9755 54.399 35.313 52.5086 35.313C49.4667 35.313 47.0107 34.3147 45.134 32.3246C43.2568 30.3336 42.3155 27.8334 42.3155 24.8098C42.3155 21.9301 43.292 19.4715 45.2453 17.4198C47.1917 15.3663 49.6133 14.3404 52.5014 14.3404C55.1875 14.3404 57.4339 15.3117 59.2345 17.2538C61.0339 19.1966 61.9411 21.5105 61.9411 24.1905ZM56.1086 22.7432C56.0804 21.8613 55.669 21.0626 54.8735 20.3388C54.0779 19.6161 53.2341 19.2584 52.3408 19.2584C51.42 19.2584 50.5616 19.6161 49.7664 20.3388C48.9714 21.0626 48.5731 21.8613 48.5731 22.7432H56.1086ZM81.539 31.9099C81.539 32.751 81.2672 33.4599 80.7236 34.0524C80.172 34.6384 79.481 34.9347 78.637 34.9347C76.5997 34.9347 75.5807 33.3366 75.5807 30.1477C75.5807 29.5346 75.6228 28.5706 75.7064 27.2412C75.7973 25.9184 75.8394 24.9475 75.8394 24.3344C75.8394 20.9519 74.7299 19.2584 72.5182 19.2584C70.3063 19.2584 69.2041 20.9519 69.2041 24.3344C69.2041 24.9475 69.2389 25.9184 69.3016 27.2412C69.3716 28.5706 69.4063 29.5346 69.4063 30.1477C69.4063 33.3366 68.4017 34.9347 66.3926 34.9347C65.548 34.9347 64.8577 34.6384 64.3132 34.0524C63.7622 33.4599 63.4899 32.751 63.4899 31.9099V17.7023C63.4899 16.8674 63.7622 16.1592 64.3132 15.5873C64.8577 15.0085 65.5554 14.7199 66.3996 14.7199C67.7949 14.7199 68.7644 15.3315 69.3085 16.5516C70.2505 15.0777 71.9177 14.3404 74.3041 14.3404C76.5158 14.3404 78.2742 14.9185 79.565 16.0687C80.8837 17.3026 81.539 18.9961 81.539 21.1524V31.9099ZM99.8392 31.2979C99.8392 32.5994 98.9826 33.6321 97.2653 34.3907C95.9055 35.0028 94.4275 35.3175 92.9329 35.313C89.9945 35.313 87.6092 34.2658 85.7676 32.1798C84.002 30.1889 83.116 27.7295 83.116 24.8098C83.116 21.882 84.0162 19.41 85.823 17.3847C87.6298 15.3533 89.9945 14.3404 92.9329 14.3404C94.628 14.3404 96.0861 14.5882 97.301 15.0777C98.9952 15.7389 99.8392 16.7715 99.8392 18.1769C99.8392 18.8858 99.6165 19.5127 99.1696 20.0571C98.7234 20.5943 98.1505 20.8699 97.4539 20.8699C96.9784 20.8699 96.2945 20.7114 95.4022 20.4022C94.5091 20.0846 93.7983 19.933 93.2753 19.933C91.8861 19.933 90.8044 20.4221 90.0302 21.3997C89.3114 22.2816 88.9485 23.4113 88.9485 24.8098C88.9485 26.1249 89.2694 27.2412 89.9192 28.1434C90.6364 29.1974 91.6492 29.7205 92.9393 29.7205C93.5122 29.7205 94.2928 29.5552 95.2905 29.2169C96.289 28.8875 97.0078 28.7153 97.4539 28.7153C98.1029 28.7153 98.66 28.9902 99.1355 29.5277C99.6031 30.0717 99.8392 30.6566 99.8392 31.2979ZM121.042 31.9099C121.042 32.751 120.77 33.4599 120.226 34.0524C119.675 34.6384 118.978 34.9347 118.132 34.9347C116.863 34.9347 115.956 34.3212 115.412 33.1022C114.191 34.5766 112.523 35.313 110.41 35.313C107.704 35.313 105.485 34.1902 103.767 31.9588C102.205 29.9201 101.418 27.5371 101.418 24.8098C101.418 22.0824 102.205 19.6994 103.767 17.6534C105.512 15.4418 107.723 14.3404 110.41 14.3404C112.523 14.3404 114.191 15.0777 115.412 16.5516C115.956 15.3315 116.863 14.7199 118.132 14.7199C118.956 14.7199 119.647 15.0154 120.206 15.601C120.763 16.1928 121.042 16.8887 121.042 17.7023V31.9099ZM115.21 24.8098C115.21 23.4873 114.89 22.371 114.247 21.4685C113.5 20.4426 112.496 19.933 111.233 19.933C109.942 19.933 108.938 20.4426 108.219 21.4685C107.57 22.371 107.25 23.4873 107.25 24.8098C107.25 26.1249 107.562 27.2546 108.183 28.1842C108.924 29.2101 109.942 29.7205 111.233 29.7205C112.523 29.7205 113.528 29.2101 114.247 28.1842C114.89 27.2546 115.21 26.1249 115.21 24.8098ZM135.924 17.3224C135.924 18.5552 135.317 19.4023 134.103 19.8635C132.981 20.2361 131.863 20.6156 130.747 21.0069C129.525 21.6964 128.919 22.9773 128.919 24.8372V31.9099C128.919 32.751 128.639 33.4599 128.097 34.0524C127.544 34.6384 126.847 34.9347 126.003 34.9347C125.153 34.9347 124.454 34.6384 123.911 34.0524C123.359 33.4599 123.087 32.751 123.087 31.9099V17.7023C123.087 16.8674 123.359 16.1592 123.903 15.5873C124.454 15.0085 125.153 14.7199 125.997 14.7199C127.391 14.7199 128.361 15.3315 128.906 16.5516C130.155 15.0777 131.495 14.3404 132.939 14.3404C133.761 14.3404 134.466 14.636 135.052 15.2215C135.63 15.8141 135.924 16.5165 135.924 17.3224ZM151.141 17.5844C151.141 18.8652 150.632 19.6711 149.621 20.0162C149.124 20.188 148.084 20.2773 146.501 20.2773V31.9099C146.501 32.751 146.222 33.4599 145.679 34.0524C145.127 34.6384 144.429 34.9347 143.585 34.9347C142.763 34.9347 142.064 34.6384 141.505 34.0524C140.948 33.4599 140.669 32.751 140.669 31.9099V20.2773C139.468 20.2773 138.597 20.1258 138.046 19.8303C137.293 19.4169 136.921 18.6659 136.921 17.5844C136.921 16.5035 137.305 15.7663 138.079 15.3731C138.603 15.0838 139.468 14.9329 140.669 14.9329V12.4671C140.669 9.56756 141.637 8.12137 143.585 8.12137C145.524 8.12137 146.501 9.56756 146.501 12.4671V14.9329C148.084 14.9329 149.124 15.0223 149.621 15.1941C150.632 15.5384 151.141 16.3382 151.141 17.5844ZM198 14.0869C197.984 12.319 194.675 11.5165 186.108 11.5165C166.009 11.5165 160.909 10.6689 155.452 5C157.748 8.40387 159.004 14.7883 180.249 14.4706C202.415 14.1335 188.892 20.1128 184.958 26.8683C192.053 20.6164 197.979 16.4955 198 14.1125V14.0869ZM169.755 32.2413C169.754 33.8847 168.385 35.2367 166.72 35.2371C165.039 35.2371 163.679 33.8948 163.679 32.2413C163.679 32.2405 163.679 32.2398 163.679 32.239C163.679 30.5929 165.05 29.2383 166.719 29.2383C166.719 29.2383 166.719 29.2383 166.72 29.2383C168.396 29.2383 169.755 30.581 169.755 32.2413ZM183.597 32.2413C183.596 33.8847 182.227 35.2367 180.562 35.2371C178.882 35.2371 177.521 33.8948 177.521 32.2413C177.521 32.2405 177.521 32.2398 177.521 32.239C177.521 30.5929 178.893 29.2383 180.56 29.2383C180.561 29.2383 180.561 29.2383 180.562 29.2383C182.238 29.2383 183.597 30.581 183.597 32.2413Z" fill="url(#paint0_linear)"/>
</g>
<defs>
<linearGradient id="paint0_linear" x1="99" y1="35.0596" x2="99" y2="5.00008" gradientUnits="userSpaceOnUse">
<stop stop-color="#04B6F0"/>
<stop offset="1" stop-color="#3ECAF0"/>
</linearGradient>
<clipPath id="clip0">
<rect width="198" height="48" fill="white"/>
</clipPath>
</defs>
</svg>
