<svg width="140" height="24" viewBox="0 0 140 24" fill="none" xmlns="http://www.w3.org/2000/svg">
<path d="M29.1832 4.49413C29.1832 4.49413 28.7414 2.71059 27.6678 1.65215C26.5941 0.593703 24.8171 0.486642 24.8171 0.486642C24.8171 0.486642 23.0301 0.243321 19.7451 0.107061C19.7451 0.107061 16.5365 0 14.6434 0C8.14484 0 4.84988 0.486642 4.84988 0.486642C4.84988 0.486642 3.25547 0.593703 2.17936 1.65458C1.10325 2.71546 0.661459 4.49413 0.661459 4.49413C0.661459 4.49413 0 7.32396 0 11.9227C0 13.0347 0.103662 14.9983 0.103662 14.9983C0.182868 16.443 0.369299 17.88 0.661459 19.2978C0.661459 19.2978 1.10325 21.2833 2.17936 22.3441C3.25547 23.405 5.02758 23.5097 5.02758 23.5097C8.51564 23.8513 12.0194 24.0138 15.5245 23.9963C22.0922 23.9963 25.1503 23.5097 25.1503 23.5097C25.1503 23.5097 26.5694 23.4342 27.8948 22.096C28.7315 21.2516 29.2202 19.3002 29.2202 19.3002C29.513 17.8421 29.6921 16.3641 29.7558 14.8791C29.7558 14.8791 29.8446 12.952 29.8446 11.7986C29.8372 6.92004 29.1832 4.49413 29.1832 4.49413ZM22.8969 8.72062L22.5489 15.2319C22.4032 17.9717 21.6998 18.8014 21.4727 19.0763C20.757 19.928 19.6932 20.3635 18.316 20.3635H10.6969C7.39946 20.3635 6.83919 18.3999 6.99469 15.2343L7.35503 8.72062C7.45623 6.84705 7.78942 5.55745 8.34229 4.87858C8.97659 4.11699 10.0996 3.70821 11.5805 3.70821H19.2021C20.6064 3.70821 21.6233 4.14375 22.2181 4.99781C22.766 5.78373 22.9906 7.00277 22.8969 8.72062Z" fill="#1E88E5"/>
<path d="M103.471 4.49413C103.471 4.49413 103.03 2.71059 101.956 1.65215C100.882 0.593703 99.1077 0.486642 99.1077 0.486642C99.1077 0.486642 97.3208 0.243321 94.0357 0.107061C94.0357 0.107061 90.8271 0 88.9316 0C82.4355 0 79.1381 0.486642 79.1381 0.486642C79.1381 0.486642 77.5436 0.593703 76.4675 1.65215C75.3914 2.71059 74.9496 4.49413 74.9496 4.49413C74.9496 4.49413 74.2906 7.32396 74.2906 11.9227C74.2906 13.0347 74.3943 14.9983 74.3943 14.9983C74.4734 16.4438 74.6598 17.8816 74.9521 19.3002C74.9521 19.3002 75.3939 21.2857 76.47 22.3466C77.5461 23.4075 79.3182 23.5121 79.3182 23.5121C82.8063 23.8538 86.31 24.0162 89.8152 23.9987C96.3829 23.9987 99.4409 23.5121 99.4409 23.5121C99.4409 23.5121 100.86 23.4367 102.185 22.0984C103.022 21.2541 103.511 19.3026 103.511 19.3026C103.804 17.8446 103.983 16.3665 104.046 14.8815C104.046 14.8815 104.135 12.9544 104.135 11.8011C104.128 6.92004 103.471 4.49413 103.471 4.49413ZM97.1875 8.72062L96.8395 15.2319C96.6939 17.9692 95.9929 18.8014 95.7634 19.0739C95.0476 19.9255 93.9839 20.3611 92.6067 20.3611H84.9875C81.6901 20.3611 81.1298 18.3975 81.2853 15.2319L81.6333 8.72062C81.7345 6.84705 82.0653 5.55745 82.6206 4.87858C83.2549 4.11699 84.3779 3.70821 85.8588 3.70821H93.4927C94.8971 3.70821 95.9139 4.14375 96.5088 4.99781C97.0567 5.78374 97.2788 7.00277 97.1875 8.72062Z" fill="#1E88E5"/>
<path d="M66.2545 0.776144C66.2545 0.776144 62.6906 9.50893 61.0394 13.5846C61.0209 13.627 60.9905 13.6635 60.9518 13.6896C60.9131 13.7156 60.8676 13.7303 60.8207 13.7318C60.7738 13.7334 60.7275 13.7217 60.6871 13.6982C60.6467 13.6747 60.6139 13.6403 60.5926 13.5992C58.7736 9.01985 55.765 1.43311 55.765 1.43311C55.5972 0.827241 55.0097 0.338166 54.0793 0.338166H49.8834C49.0566 0.338166 48.6494 0.936736 48.4025 1.67643C48.4025 1.67643 45.4581 9.07338 43.6539 13.6308C43.6389 13.6726 43.6112 13.7088 43.5745 13.7344C43.5378 13.76 43.494 13.7738 43.449 13.7738C43.404 13.7738 43.3602 13.76 43.3235 13.7344C43.2868 13.7088 43.2591 13.6726 43.2442 13.6308C41.6053 9.64519 38.0092 0.776144 38.0092 0.776144C37.9562 0.640715 37.861 0.525355 37.7373 0.446655C37.6135 0.367955 37.4677 0.329971 37.3206 0.338166H30.2001L39.4901 22.6069C39.7863 23.3369 40.2799 23.9379 41.2548 23.9379H45.3939C46.3811 23.9379 46.8748 23.4512 47.1611 22.7212C47.1611 22.7212 50.0537 15.4484 51.9024 10.7985C51.9231 10.7587 51.9545 10.7252 51.9933 10.7019C52.0321 10.6785 52.0766 10.6662 52.122 10.6662C52.1674 10.6662 52.212 10.6785 52.2507 10.7019C52.2895 10.7252 52.321 10.7587 52.3417 10.7985L57.0311 22.6045C57.3248 23.3344 57.8185 23.9354 58.7934 23.9354H63.0114C63.9271 23.9038 64.4183 23.4488 64.6922 22.7188L74.044 0.338166H66.9456C66.7969 0.321863 66.6471 0.356497 66.5212 0.436251C66.3954 0.516006 66.3012 0.636022 66.2545 0.776144Z" fill="#1E88E5"/>
<path d="M139.696 0.486873H130.191L122.498 7.29986C122.374 7.36043 122.236 7.3901 122.097 7.38629C121.958 7.38247 121.822 7.34528 121.701 7.27796L114.028 0.486873H104.55C104.476 0.479261 104.402 0.500416 104.343 0.545846C104.285 0.591277 104.246 0.657405 104.237 0.730193L116.824 11.9011C116.869 11.9681 116.892 12.0476 116.888 12.1281C116.885 12.2086 116.855 12.2859 116.804 12.3488L104.244 23.4929C104.054 23.6632 104.469 23.7532 104.469 23.7532H114.028L121.753 16.9037C121.864 16.8462 121.989 16.8161 122.114 16.8161C122.24 16.8161 122.364 16.8462 122.476 16.9037C124.754 18.9209 130.189 23.7459 130.189 23.7459H139.625C139.625 23.7459 140.081 23.5853 139.758 23.3006L127.417 12.3512C127.363 12.2949 127.328 12.2234 127.317 12.1467C127.306 12.07 127.32 11.9919 127.356 11.923L139.943 0.752092C140.158 0.576901 139.696 0.486873 139.696 0.486873Z" fill="#1E88E5"/>
</svg>
