<svg width="198" height="48" viewBox="0 0 198 48" fill="none" xmlns="http://www.w3.org/2000/svg">
<g clip-path="url(#clip0)">
<path d="M58.1832 16.4941C58.1832 16.4941 57.7414 14.7106 56.6678 13.6521C55.5941 12.5937 53.8171 12.4866 53.8171 12.4866C53.8171 12.4866 52.0301 12.2433 48.7451 12.1071C48.7451 12.1071 45.5365 12 43.6434 12C37.1448 12 33.8499 12.4866 33.8499 12.4866C33.8499 12.4866 32.2555 12.5937 31.1794 13.6546C30.1033 14.7155 29.6615 16.4941 29.6615 16.4941C29.6615 16.4941 29 19.324 29 23.9227C29 25.0347 29.1037 26.9983 29.1037 26.9983C29.1829 28.443 29.3693 29.88 29.6615 31.2978C29.6615 31.2978 30.1033 33.2833 31.1794 34.3441C32.2555 35.405 34.0276 35.5097 34.0276 35.5097C37.5156 35.8513 41.0194 36.0138 44.5245 35.9963C51.0922 35.9963 54.1503 35.5097 54.1503 35.5097C54.1503 35.5097 55.5694 35.4342 56.8948 34.096C57.7315 33.2516 58.2202 31.3002 58.2202 31.3002C58.513 29.8421 58.6921 28.3641 58.7558 26.8791C58.7558 26.8791 58.8446 24.952 58.8446 23.7986C58.8372 18.92 58.1832 16.4941 58.1832 16.4941ZM51.8969 20.7206L51.5489 27.2319C51.4032 29.9717 50.6998 30.8014 50.4727 31.0763C49.757 31.928 48.6932 32.3635 47.316 32.3635H39.6969C36.3995 32.3635 35.8392 30.3999 35.9947 27.2343L36.355 20.7206C36.4562 18.847 36.7894 17.5574 37.3423 16.8786C37.9766 16.117 39.0996 15.7082 40.5805 15.7082H48.2021C49.6064 15.7082 50.6233 16.1438 51.2181 16.9978C51.766 17.7837 51.9906 19.0028 51.8969 20.7206Z" fill="#1E88E5"/>
<path d="M132.471 16.4941C132.471 16.4941 132.03 14.7106 130.956 13.6521C129.882 12.5937 128.108 12.4866 128.108 12.4866C128.108 12.4866 126.321 12.2433 123.036 12.1071C123.036 12.1071 119.827 12 117.932 12C111.435 12 108.138 12.4866 108.138 12.4866C108.138 12.4866 106.544 12.5937 105.468 13.6521C104.391 14.7106 103.95 16.4941 103.95 16.4941C103.95 16.4941 103.291 19.324 103.291 23.9227C103.291 25.0347 103.394 26.9983 103.394 26.9983C103.473 28.4438 103.66 29.8816 103.952 31.3002C103.952 31.3002 104.394 33.2857 105.47 34.3466C106.546 35.4075 108.318 35.5121 108.318 35.5121C111.806 35.8538 115.31 36.0162 118.815 35.9987C125.383 35.9987 128.441 35.5121 128.441 35.5121C128.441 35.5121 129.86 35.4367 131.185 34.0984C132.022 33.2541 132.511 31.3026 132.511 31.3026C132.804 29.8446 132.983 28.3665 133.046 26.8815C133.046 26.8815 133.135 24.9544 133.135 23.8011C133.128 18.92 132.471 16.4941 132.471 16.4941ZM126.188 20.7206L125.839 27.2319C125.694 29.9692 124.993 30.8014 124.763 31.0739C124.048 31.9255 122.984 32.3611 121.607 32.3611H113.988C110.69 32.3611 110.13 30.3975 110.285 27.2319L110.633 20.7206C110.735 18.847 111.065 17.5574 111.621 16.8786C112.255 16.117 113.378 15.7082 114.859 15.7082H122.493C123.897 15.7082 124.914 16.1438 125.509 16.9978C126.057 17.7837 126.279 19.0028 126.188 20.7206Z" fill="#1E88E5"/>
<path d="M95.2545 12.7761C95.2545 12.7761 91.6906 21.5089 90.0394 25.5846C90.0209 25.627 89.9905 25.6635 89.9518 25.6896C89.9131 25.7156 89.8676 25.7303 89.8207 25.7318C89.7738 25.7334 89.7275 25.7217 89.6871 25.6982C89.6467 25.6747 89.6139 25.6403 89.5926 25.5992C87.7736 21.0199 84.765 13.4331 84.765 13.4331C84.5972 12.8272 84.0097 12.3382 83.0793 12.3382H78.8834C78.0566 12.3382 77.6494 12.9367 77.4025 13.6764C77.4025 13.6764 74.4581 21.0734 72.6539 25.6308C72.6389 25.6726 72.6112 25.7088 72.5745 25.7344C72.5378 25.76 72.494 25.7738 72.449 25.7738C72.404 25.7738 72.3602 25.76 72.3235 25.7344C72.2868 25.7088 72.2591 25.6726 72.2442 25.6308C70.6053 21.6452 67.0092 12.7761 67.0092 12.7761C66.9562 12.6407 66.861 12.5254 66.7373 12.4467C66.6135 12.368 66.4677 12.33 66.3206 12.3382H59.2001L68.4901 34.6069C68.7863 35.3369 69.2799 35.9379 70.2548 35.9379H74.3939C75.3811 35.9379 75.8748 35.4512 76.1611 34.7212C76.1611 34.7212 79.0537 27.4484 80.9024 22.7985C80.9231 22.7587 80.9545 22.7252 80.9933 22.7019C81.0321 22.6785 81.0766 22.6662 81.122 22.6662C81.1674 22.6662 81.212 22.6785 81.2507 22.7019C81.2895 22.7252 81.321 22.7587 81.3417 22.7985L86.0311 34.6045C86.3248 35.3344 86.8185 35.9354 87.7934 35.9354H92.0114C92.9271 35.9038 93.4183 35.4488 93.6922 34.7188L103.044 12.3382H95.9456C95.7969 12.3219 95.6471 12.3565 95.5212 12.4363C95.3954 12.516 95.3012 12.636 95.2545 12.7761Z" fill="#1E88E5"/>
<path d="M168.696 12.4869H159.191L151.498 19.2999C151.374 19.3604 151.236 19.3901 151.097 19.3863C150.958 19.3825 150.822 19.3453 150.701 19.278L143.028 12.4869H133.55C133.476 12.4793 133.402 12.5004 133.343 12.5458C133.285 12.5913 133.246 12.6574 133.237 12.7302L145.824 23.9011C145.869 23.9681 145.892 24.0476 145.888 24.1281C145.885 24.2086 145.855 24.2859 145.804 24.3488L133.244 35.4929C133.054 35.6632 133.469 35.7532 133.469 35.7532H143.028L150.753 28.9037C150.864 28.8462 150.989 28.8161 151.114 28.8161C151.24 28.8161 151.364 28.8462 151.476 28.9037C153.754 30.9209 159.189 35.7459 159.189 35.7459H168.625C168.625 35.7459 169.081 35.5853 168.758 35.3006L156.417 24.3512C156.363 24.2949 156.328 24.2234 156.317 24.1467C156.306 24.07 156.32 23.9919 156.356 23.923L168.943 12.7521C169.158 12.5769 168.696 12.4869 168.696 12.4869Z" fill="#1E88E5"/>
</g>
<defs>
<clipPath id="clip0">
<rect width="198" height="48" fill="white"/>
</clipPath>
</defs>
</svg>
