<svg width="198" height="48" viewBox="0 0 198 48" fill="none" xmlns="http://www.w3.org/2000/svg">
<g clip-path="url(#clip0)">
<path d="M7.92308 12.2188C10.2733 12.2188 12.0785 12.8267 13.3384 14.0426C14.6226 15.234 15.2646 16.9605 15.2646 19.2219C15.2646 21.848 14.453 23.9271 12.8296 25.459C11.2304 26.9909 9.02553 27.7568 6.21489 27.7568H3.63444V28.304L3.81616 35.6717H0L0.254411 28.6322L0 12.2553L7.92308 12.2188ZM7.30522 24.8389C8.63785 24.5714 9.64338 24 10.3218 23.1246C11.0245 22.2249 11.3758 21.0334 11.3758 19.5502C11.3758 18.0912 11.0002 17.0091 10.2491 16.304C9.52223 15.5988 8.40767 15.2219 6.90544 15.1733L3.81616 15.2827L3.67078 24.766L7.30522 24.8389Z" fill="#333333"/>
<path d="M39.4127 35.6717H35.5601L35.015 33.0456L33.9973 29.7994L29.0545 29.69L24.5841 29.7994L23.4938 32.8632L22.9123 35.6717H19.1688L27.4917 12.2553H31.8894L39.4127 35.6717ZM33.0524 26.7356L29.7087 15.9392H29.4543L25.6381 26.7356L29.3089 26.8085L33.0524 26.7356Z" fill="#333333"/>
<path d="M58.2723 26.2979C59.9199 28.9483 61.8704 31.7812 64.1237 34.7964L64.0874 35.234C62.9244 35.6231 61.725 35.8784 60.4893 36L60.0531 35.7082C58.0421 32.4012 56.4187 29.6049 55.183 27.3191H51.2215V28.304L51.4032 35.6717H47.587L47.8414 28.6322L47.587 12.2553L55.5101 12.2188C57.8604 12.2188 59.6776 12.8146 60.9618 14.0061C62.2459 15.1733 62.888 16.8511 62.888 19.0395C62.888 20.5957 62.4761 22.0061 61.6523 23.2705C60.8527 24.5106 59.7261 25.5198 58.2723 26.2979ZM51.2941 24.2553L55.292 24.3647C57.7392 23.6109 58.9628 21.9331 58.9628 19.3313C58.9628 17.9696 58.5873 16.9483 57.8361 16.2675C57.1093 15.5866 55.9947 15.2219 54.4925 15.1733L51.4032 15.2827L51.2941 24.2553Z" fill="#333333"/>
<path d="M90.194 35.6717H86.3415L85.7963 33.0456L84.7787 29.7994L79.8359 29.69L75.3655 29.7994L74.2752 32.8632L73.6936 35.6717H69.9502L78.273 12.2553H82.6707L90.194 35.6717ZM83.8337 26.7356L80.4901 15.9392H80.2356L76.4195 26.7356L80.0903 26.8085L83.8337 26.7356Z" fill="#333333"/>
<path d="M109.272 23.4894C110.895 23.8298 112.094 24.4742 112.87 25.4225C113.669 26.3465 114.069 27.5745 114.069 29.1064C114.069 33.5805 110.738 35.8176 104.074 35.8176C101.773 35.8176 99.8827 35.769 98.4047 35.6717H98.3684L98.6228 28.6322L98.3684 12.2553L105.637 12.2188C107.891 12.2188 109.635 12.7173 110.871 13.7143C112.131 14.6869 112.761 16.1094 112.761 17.9818C112.761 19.2948 112.458 20.4255 111.852 21.3739C111.246 22.2979 110.386 23.003 109.272 23.4894ZM108.908 18.4195C108.908 17.2523 108.581 16.4134 107.927 15.9027C107.273 15.3921 106.17 15.1368 104.62 15.1368H102.148L102.039 22.3222L105.783 22.4316C106.849 22.1641 107.636 21.7143 108.145 21.0821C108.654 20.4255 108.908 19.538 108.908 18.4195ZM104.692 32.8997C106.485 32.8997 107.866 32.5593 108.836 31.8784C109.805 31.1976 110.289 30.2006 110.289 28.8875C110.289 26.7964 108.945 25.5684 106.255 25.2036L102.003 25.2401L101.966 28.304L102.076 32.7903C103.02 32.8632 103.893 32.8997 104.692 32.8997Z" fill="#333333"/>
<path d="M140.372 35.6717H136.519L135.974 33.0456L134.957 29.7994L130.014 29.69L125.543 29.7994L124.453 32.8632L123.872 35.6717H120.128L128.451 12.2553H132.849L140.372 35.6717ZM134.012 26.7356L130.668 15.9392H130.414L126.597 26.7356L130.268 26.8085L134.012 26.7356Z" fill="#333333"/>
<path d="M155.379 12C157.221 12 159.062 12.3891 160.903 13.1672L160.286 16.5957L159.704 16.8146C158.929 16.2553 158.129 15.8176 157.305 15.5015C156.482 15.1854 155.694 15.0274 154.943 15.0274C153.756 15.0274 152.811 15.3556 152.108 16.0122C151.405 16.6687 151.054 17.4347 151.054 18.31C151.054 19.1611 151.405 19.8663 152.108 20.4255C152.811 20.9605 153.913 21.5805 155.415 22.2857C156.724 22.9179 157.778 23.4894 158.577 24C159.401 24.5106 160.104 25.1915 160.685 26.0426C161.267 26.8693 161.558 27.8663 161.558 29.0334C161.558 30.2979 161.206 31.465 160.504 32.535C159.825 33.5805 158.856 34.4195 157.596 35.0517C156.36 35.6596 154.943 35.9635 153.344 35.9635C152.278 35.9635 151.175 35.8298 150.036 35.5623C148.898 35.2948 147.819 34.9058 146.802 34.3951L147.274 30.6748L147.747 30.4559C148.643 31.307 149.625 31.9514 150.691 32.3891C151.781 32.8024 152.787 33.0091 153.707 33.0091C154.967 33.0091 155.973 32.6809 156.724 32.0243C157.475 31.3435 157.851 30.541 157.851 29.617C157.851 28.693 157.487 27.9514 156.76 27.3921C156.033 26.8085 154.919 26.1641 153.416 25.459C152.132 24.8511 151.09 24.304 150.291 23.8176C149.491 23.307 148.801 22.6383 148.219 21.8116C147.662 20.9848 147.383 19.9878 147.383 18.8207C147.383 17.5562 147.723 16.4012 148.401 15.3556C149.079 14.31 150.024 13.4954 151.236 12.9119C152.447 12.304 153.828 12 155.379 12Z" fill="#333333"/>
<path d="M174.111 28.304L174.293 35.6717H170.477L170.731 28.6322L170.477 12.2553H174.329L174.111 28.304Z" fill="#333333"/>
<path d="M191.821 12C193.663 12 195.504 12.3891 197.346 13.1672L196.728 16.5957L196.146 16.8146C195.371 16.2553 194.572 15.8176 193.748 15.5015C192.924 15.1854 192.136 15.0274 191.385 15.0274C190.198 15.0274 189.253 15.3556 188.55 16.0122C187.848 16.6687 187.496 17.4347 187.496 18.31C187.496 19.1611 187.848 19.8663 188.55 20.4255C189.253 20.9605 190.356 21.5805 191.858 22.2857C193.166 22.9179 194.22 23.4894 195.02 24C195.844 24.5106 196.546 25.1915 197.128 26.0426C197.709 26.8693 198 27.8663 198 29.0334C198 30.2979 197.649 31.465 196.946 32.535C196.268 33.5805 195.298 34.4195 194.038 35.0517C192.803 35.6596 191.385 35.9635 189.786 35.9635C188.72 35.9635 187.618 35.8298 186.479 35.5623C185.34 35.2948 184.262 34.9058 183.244 34.3951L183.717 30.6748L184.189 30.4559C185.086 31.307 186.067 31.9514 187.133 32.3891C188.223 32.8024 189.229 33.0091 190.15 33.0091C191.41 33.0091 192.415 32.6809 193.166 32.0243C193.917 31.3435 194.293 30.541 194.293 29.617C194.293 28.693 193.929 27.9514 193.203 27.3921C192.476 26.8085 191.361 26.1641 189.859 25.459C188.575 24.8511 187.533 24.304 186.733 23.8176C185.934 23.307 185.243 22.6383 184.662 21.8116C184.104 20.9848 183.826 19.9878 183.826 18.8207C183.826 17.5562 184.165 16.4012 184.843 15.3556C185.522 14.31 186.467 13.4954 187.678 12.9119C188.89 12.304 190.271 12 191.821 12Z" fill="#333333"/>
</g>
<defs>
<clipPath id="clip0">
<rect width="198" height="48" fill="white"/>
</clipPath>
</defs>
</svg>
