<svg width="198" height="24" viewBox="0 0 198 24" fill="none" xmlns="http://www.w3.org/2000/svg">
<path d="M7.92308 0.218847C10.2733 0.218847 12.0785 0.826749 13.3384 2.04255C14.6226 3.23404 15.2646 4.96049 15.2646 7.22188C15.2646 9.84802 14.453 11.9271 12.8296 13.459C11.2304 14.9909 9.02553 15.7568 6.21489 15.7568H3.63444V16.304L3.81616 23.6717H0L0.254411 16.6322L0 0.255319L7.92308 0.218847ZM7.30522 12.8389C8.63785 12.5714 9.64338 12 10.3218 11.1246C11.0245 10.2249 11.3758 9.03344 11.3758 7.55015C11.3758 6.09119 11.0002 5.00912 10.2491 4.30395C9.52223 3.59879 8.40767 3.22189 6.90544 3.17325L3.81616 3.28268L3.67078 12.766L7.30522 12.8389Z" fill="#333333"/>
<path d="M39.4127 23.6717H35.5601L35.015 21.0456L33.9973 17.7994L29.0545 17.69L24.5841 17.7994L23.4938 20.8632L22.9123 23.6717H19.1688L27.4917 0.255319H31.8894L39.4127 23.6717ZM33.0524 14.7356L29.7087 3.93921H29.4543L25.6381 14.7356L29.3089 14.8085L33.0524 14.7356Z" fill="#333333"/>
<path d="M58.2723 14.2979C59.9199 16.9483 61.8704 19.7812 64.1237 22.7964L64.0874 23.234C62.9244 23.6231 61.725 23.8784 60.4893 24L60.0531 23.7082C58.0421 20.4012 56.4187 17.6049 55.183 15.3191H51.2215V16.304L51.4032 23.6717H47.587L47.8414 16.6322L47.587 0.255319L55.5101 0.218847C57.8604 0.218847 59.6776 0.814591 60.9618 2.00608C62.2459 3.17325 62.888 4.85107 62.888 7.03952C62.888 8.59575 62.4761 10.0061 61.6523 11.2705C60.8527 12.5106 59.7261 13.5198 58.2723 14.2979ZM51.2941 12.2553L55.292 12.3647C57.7392 11.6109 58.9628 9.93313 58.9628 7.33131C58.9628 5.96961 58.5873 4.94833 57.8361 4.26748C57.1093 3.58663 55.9947 3.22189 54.4925 3.17325L51.4032 3.28268L51.2941 12.2553Z" fill="#333333"/>
<path d="M90.194 23.6717H86.3415L85.7963 21.0456L84.7787 17.7994L79.8359 17.69L75.3655 17.7994L74.2752 20.8632L73.6936 23.6717H69.9502L78.273 0.255319H82.6707L90.194 23.6717ZM83.8337 14.7356L80.4901 3.93921H80.2356L76.4195 14.7356L80.0903 14.8085L83.8337 14.7356Z" fill="#333333"/>
<path d="M109.272 11.4894C110.895 11.8298 112.094 12.4742 112.87 13.4225C113.669 14.3465 114.069 15.5745 114.069 17.1064C114.069 21.5805 110.738 23.8176 104.074 23.8176C101.773 23.8176 99.8827 23.769 98.4047 23.6717H98.3684L98.6228 16.6322L98.3684 0.255319L105.637 0.218847C107.891 0.218847 109.635 0.717325 110.871 1.71428C112.131 2.68693 112.761 4.10942 112.761 5.98176C112.761 7.29483 112.458 8.42553 111.852 9.37386C111.246 10.2979 110.386 11.003 109.272 11.4894ZM108.908 6.41945C108.908 5.25228 108.581 4.41337 107.927 3.90274C107.273 3.3921 106.17 3.13678 104.62 3.13678H102.148L102.039 10.3222L105.783 10.4316C106.849 10.1641 107.636 9.71429 108.145 9.08207C108.654 8.42553 108.908 7.538 108.908 6.41945ZM104.692 20.8997C106.485 20.8997 107.866 20.5593 108.836 19.8784C109.805 19.1976 110.289 18.2006 110.289 16.8875C110.289 14.7964 108.945 13.5684 106.255 13.2036L102.003 13.2401L101.966 16.304L102.076 20.7903C103.02 20.8632 103.893 20.8997 104.692 20.8997Z" fill="#333333"/>
<path d="M140.372 23.6717H136.519L135.974 21.0456L134.957 17.7994L130.014 17.69L125.543 17.7994L124.453 20.8632L123.872 23.6717H120.128L128.451 0.255319H132.849L140.372 23.6717ZM134.012 14.7356L130.668 3.93921H130.414L126.597 14.7356L130.268 14.8085L134.012 14.7356Z" fill="#333333"/>
<path d="M155.379 0C157.221 0 159.062 0.389059 160.903 1.16717L160.286 4.59575L159.704 4.81459C158.929 4.25532 158.129 3.81763 157.305 3.50152C156.482 3.18541 155.694 3.02735 154.943 3.02735C153.756 3.02735 152.811 3.35562 152.108 4.01216C151.405 4.66869 151.054 5.43465 151.054 6.31003C151.054 7.1611 151.405 7.86626 152.108 8.42553C152.811 8.96049 153.913 9.58055 155.415 10.2857C156.724 10.9179 157.778 11.4894 158.577 12C159.401 12.5106 160.104 13.1915 160.685 14.0426C161.267 14.8693 161.558 15.8663 161.558 17.0334C161.558 18.2979 161.206 19.465 160.504 20.535C159.825 21.5805 158.856 22.4195 157.596 23.0517C156.36 23.6596 154.943 23.9635 153.344 23.9635C152.278 23.9635 151.175 23.8298 150.036 23.5623C148.898 23.2948 147.819 22.9058 146.802 22.3951L147.274 18.6748L147.747 18.4559C148.643 19.307 149.625 19.9514 150.691 20.3891C151.781 20.8024 152.787 21.0091 153.707 21.0091C154.967 21.0091 155.973 20.6809 156.724 20.0243C157.475 19.3435 157.851 18.541 157.851 17.617C157.851 16.693 157.487 15.9514 156.76 15.3921C156.033 14.8085 154.919 14.1641 153.416 13.459C152.132 12.8511 151.09 12.304 150.291 11.8176C149.491 11.307 148.801 10.6383 148.219 9.81155C147.662 8.9848 147.383 7.98784 147.383 6.82067C147.383 5.55623 147.723 4.40122 148.401 3.35562C149.079 2.31003 150.024 1.49544 151.236 0.911856C152.447 0.303953 153.828 0 155.379 0Z" fill="#333333"/>
<path d="M174.111 16.304L174.293 23.6717H170.477L170.731 16.6322L170.477 0.255319H174.329L174.111 16.304Z" fill="#333333"/>
<path d="M191.821 0C193.663 0 195.504 0.389059 197.346 1.16717L196.728 4.59575L196.146 4.81459C195.371 4.25532 194.572 3.81763 193.748 3.50152C192.924 3.18541 192.136 3.02735 191.385 3.02735C190.198 3.02735 189.253 3.35562 188.55 4.01216C187.848 4.66869 187.496 5.43465 187.496 6.31003C187.496 7.1611 187.848 7.86626 188.55 8.42553C189.253 8.96049 190.356 9.58055 191.858 10.2857C193.166 10.9179 194.22 11.4894 195.02 12C195.844 12.5106 196.546 13.1915 197.128 14.0426C197.709 14.8693 198 15.8663 198 17.0334C198 18.2979 197.649 19.465 196.946 20.535C196.268 21.5805 195.298 22.4195 194.038 23.0517C192.803 23.6596 191.385 23.9635 189.786 23.9635C188.72 23.9635 187.618 23.8298 186.479 23.5623C185.34 23.2948 184.262 22.9058 183.244 22.3951L183.717 18.6748L184.189 18.4559C185.086 19.307 186.067 19.9514 187.133 20.3891C188.223 20.8024 189.229 21.0091 190.15 21.0091C191.41 21.0091 192.415 20.6809 193.166 20.0243C193.917 19.3435 194.293 18.541 194.293 17.617C194.293 16.693 193.929 15.9514 193.203 15.3921C192.476 14.8085 191.361 14.1641 189.859 13.459C188.575 12.8511 187.533 12.304 186.733 11.8176C185.934 11.307 185.243 10.6383 184.662 9.81155C184.104 8.9848 183.826 7.98784 183.826 6.82067C183.826 5.55623 184.165 4.40122 184.843 3.35562C185.522 2.31003 186.467 1.49544 187.678 0.911856C188.89 0.303953 190.271 0 191.821 0Z" fill="#333333"/>
</svg>
