<svg width="72" height="72" viewBox="0 0 72 72" fill="none" xmlns="http://www.w3.org/2000/svg">
<rect width="71.9997" height="71.9997" rx="12" fill="#AF8AFF"/>
<path d="M19.6566 12.1373C19.9116 11.9804 20.4534 12.0745 20.9952 12.4198L30.5883 17.818L31.2895 16.5313C32.2775 14.6481 34.126 13.5183 36.1657 13.5183C38.2055 13.5183 40.054 14.6168 41.0738 16.4999L41.775 17.7867L51.3044 12.3256C51.8781 12.0118 52.388 11.9176 52.643 12.0745C52.8979 12.2315 53.0891 12.7023 53.0891 13.33L53.121 18.4144H19.2742V13.4555C19.2423 12.765 19.4017 12.2942 19.6566 12.1373Z" fill="#F6F6F6"/>
<path d="M44.6755 22.8085V29.8388H26.3816V22.8085H44.6755ZM10 29.8074V22.8085H23.7363V29.8388H13.0915H10V29.8074ZM15.928 60V32.632H23.7363V60H15.928ZM26.3816 60V32.632H44.6755V60H26.3816ZM56.4358 60H47.3208V32.632H56.4358V60ZM62.3638 29.8074H59.2723H47.3208V22.8085H62.3638V29.8074Z" fill="#F6F6F6"/>
</svg>
