<svg width="28" height="36" viewBox="0 0 28 36" fill="none" xmlns="http://www.w3.org/2000/svg">
<path fill-rule="evenodd" clip-rule="evenodd" d="M0.5 30.432V13.1429C0.5 5.88423 6.5441 0 13.9999 0C21.4558 0 27.4999 5.88423 27.4999 13.1429C27.4999 20.3059 21.6137 26.1306 14.2934 26.2826V26.2857C12.1863 26.2857 10.4782 24.6229 10.4782 22.5714C10.4782 20.5392 12.1547 18.8881 14.2347 18.8576V18.8527C17.3675 18.7327 19.8695 16.2222 19.8695 13.1429C19.8695 9.98697 17.2416 7.42857 13.9999 7.42857C10.7583 7.42857 8.1304 9.98697 8.1304 13.1429V32.2857C8.1304 34.3371 6.42237 36 4.3152 36C3.53031 36.0012 2.76432 35.7657 2.12258 35.3257C3.21994 35.0135 4.02172 34.0265 4.02172 32.8571C4.02172 31.437 2.83913 30.2857 1.38043 30.2857C1.07169 30.2857 0.775399 30.3373 0.5 30.432ZM14.2934 25.1429C15.7521 25.1429 16.9347 23.9915 16.9347 22.5714C16.9347 21.1513 15.7521 20 14.2934 20C12.8347 20 11.6521 21.1513 11.6521 22.5714C11.6521 23.9915 12.8347 25.1429 14.2934 25.1429Z" fill="#82A6DD"/>
</svg>
