<svg width="30" height="36" viewBox="0 0 30 36" fill="none" xmlns="http://www.w3.org/2000/svg">
<path d="M26.9289 12.6678C28.2032 12.425 29.1642 11.3322 29.1642 10.0371C29.1642 8.53963 27.9107 7.3457 26.3857 7.3457C25.0069 7.3457 23.8578 8.33727 23.6489 9.61214C21.9985 8.47892 20.0765 7.64924 18.0083 7.24452C18.8439 6.47555 19.3453 5.40303 19.3453 4.20911C19.3453 1.88196 17.4024 0 14.9999 0C12.5974 0 10.6546 1.88196 10.6546 4.20911C10.6546 5.40303 11.1559 6.47555 11.9707 7.22428C9.90247 7.629 8.00136 8.45868 6.33006 9.5919C6.12114 8.31703 4.97212 7.32546 3.5933 7.32546C2.06824 7.32546 0.81476 8.53963 0.81476 10.0169C0.81476 11.312 1.77576 12.4047 3.05013 12.6476C1.14902 15.1164 0 18.172 0 21.4705C0 29.484 6.7061 36 14.9999 36C23.2729 36 29.9999 29.5042 29.9999 21.4705C29.9999 18.172 28.8509 15.1164 26.9289 12.6678ZM14.9999 1.457C16.5877 1.457 17.862 2.6914 17.862 4.22934C17.862 5.64587 16.7548 6.79932 15.3342 6.96121C15.2297 6.96121 15.1044 6.96121 14.9999 6.96121C14.8955 6.96121 14.7701 6.96121 14.6657 6.96121C13.2451 6.77909 12.1378 5.62563 12.1378 4.20911C12.1378 2.6914 13.4122 1.457 14.9999 1.457ZM17.7994 21.4098C17.7994 22.968 16.5041 24.2226 14.8955 24.2226C13.2869 24.2226 11.9916 22.968 11.9916 21.4098C11.9916 19.8516 13.2869 18.597 14.8955 18.597C15.376 18.597 15.8147 18.7184 16.2116 18.9207L20.4943 14.7723L21.7687 16.0067L17.486 20.1349C17.674 20.5194 17.7994 20.9443 17.7994 21.4098Z" fill="#82A6DD"/>
</svg>
