<svg width="130" height="48" viewBox="0 0 130 48" fill="none" xmlns="http://www.w3.org/2000/svg">
<path d="M98.898 4.28418C94.764 4.28418 91.41 7.63889 91.41 11.7738C91.41 15.9086 94.764 19.2633 98.898 19.2633C103.032 19.2633 106.386 15.9086 106.386 11.7738C106.386 7.63889 103.032 4.28418 98.898 4.28418ZM102.382 16.7668C103.214 15.7006 103.734 14.3483 103.734 12.892C103.734 9.84935 101.55 7.30081 98.664 6.72869C98.95 6.36462 99.236 6.00054 99.574 5.66247C102.538 6.15657 104.8 8.73112 104.8 11.8258C104.774 13.8282 103.838 15.5966 102.382 16.7668Z" fill="#BA4818"/>
<path d="M106.802 3.50458C103.864 0.435931 99.834 -0.604289 94.738 0.331909C94.738 0.331909 88.602 1.78822 83.194 1.89224C80.88 1.94425 78.93 1.2421 77.292 0.878024C78.202 2.30832 79.58 3.29653 81.114 3.89466C82.57 4.44077 84.598 5.24694 83.688 6.65124C82.674 8.23757 81.114 6.91129 80.698 6.57322C79.242 5.48099 78.54 4.62281 75.94 3.08849C73.054 1.39813 69.024 1.34612 64.994 1.76221C64.994 1.76221 68.296 2.46436 69.778 3.94667C69.778 3.94667 63.382 2.6464 59.222 4.67482C65.28 4.90887 71.936 5.87107 73.08 6.36518C74.224 6.85928 73.652 7.27537 72.56 7.50942C69.856 8.08154 64.89 8.28958 61.796 7.4054C57.35 6.13113 53.58 2.41235 47.21 3.42656C52.826 4.59681 55.816 9.87592 61.952 11.1242C68.088 12.3724 72.196 9.92793 73.6 9.58986C75.004 9.25179 76.226 9.71988 76.564 10.6821C76.876 11.6443 75.654 12.8145 73.99 13.1266C72.742 13.3607 72.326 13.3867 70.09 13.6207C65.41 14.1148 62.03 13.5167 59.04 12.7105C53.32 11.2022 49.368 7.4314 47.496 6.44319C45.598 5.42898 43.518 4.96088 41.906 4.72683C41.906 4.72683 45 6.33917 46.17 8.31559C43.414 7.24936 39.332 6.62523 34.002 7.71746C31.168 8.26358 25.734 9.56385 19 12.2164C22.354 13.2046 26.618 12.4505 28.464 12.2944C38.5 11.4883 41.854 13.6987 45.026 14.817C54.802 18.3017 58.156 15.155 58.832 16.1952C59.3 16.9234 56.18 18.2237 55.322 18.3797C50.928 19.2119 48.77 18.4317 44.688 17.4435C46.716 19.4719 50.564 20.9282 54.958 20.7462C59.43 20.5122 64.136 19.836 67.88 18.2497C72.3 16.3773 74.146 15.8052 76.122 15.207C76.98 14.973 80.022 14.1668 80.672 14.999C81.036 15.4671 80.438 15.8832 79.476 16.2733C78.722 16.5853 77.734 16.9234 76.798 17.2875C74.64 18.1197 70.584 19.628 69.284 20.6942C69.284 20.6942 75.004 19.81 80.568 19.81C86.132 19.81 89.954 20.9803 94.166 22.5666C98.69 24.2309 102.616 23.6588 105.996 20.8502C109.012 18.3277 110.468 15.3371 110.39 11.9043C110.286 8.60165 109.064 5.79306 106.802 3.50458ZM98.898 21.2663C93.646 21.2663 89.408 17.0274 89.408 11.7743C89.408 6.52121 93.646 2.28232 98.898 2.28232C104.15 2.28232 108.388 6.52121 108.388 11.7743C108.388 17.0274 104.15 21.2663 98.898 21.2663Z" fill="#BA4818"/>
<path d="M60.71 33.7229H40.56L35.386 47.9739H39.312L43.238 37.1556H48.152C48.698 37.1556 48.984 37.5977 48.776 38.1438L45.188 47.9739H49.14L52.728 38.1438C52.936 37.5977 53.534 37.1556 54.08 37.1556H57.98C58.526 37.1556 58.812 37.5977 58.604 38.1438L55.016 47.9739H58.942L63.05 36.6615C63.674 35.0492 62.608 33.7229 60.71 33.7229Z" fill="#BA4818"/>
<path d="M88.088 43.553C87.88 44.0991 87.282 44.5412 86.736 44.5412H81.822C81.276 44.5412 80.99 44.0991 81.198 43.553L84.786 33.7229H80.86L76.752 45.0353C76.154 46.6736 77.22 47.9739 79.118 47.9739H87.958C89.31 47.9739 90.74 47.0897 91.13 45.9975L95.602 33.7229H91.676L88.088 43.553Z" fill="#BA4818"/>
<path d="M22.75 43.5531L23.114 42.5649H34.918L36.166 39.1322L37.05 36.6876C37.648 35.0493 36.582 33.749 34.684 33.749H24.83C23.478 33.749 22.048 34.6332 21.658 35.7254L18.252 45.0614C17.654 46.6997 18.72 48 20.618 48H32.89L34.138 44.5673H23.322C22.828 44.5413 22.542 44.0992 22.75 43.5531ZM24.7 38.17C24.908 37.6238 25.506 37.1817 26.052 37.1817H31.954C32.5 37.1817 32.786 37.6238 32.578 38.17L32.214 39.1582H24.362L24.7 38.17Z" fill="#BA4818"/>
<path d="M126.074 33.7229L124.098 39.132H117.234L119.184 33.7229H115.258L110.084 47.9999H114.01L115.96 42.5908H122.85L120.874 47.9999H124.826L130 33.7229H126.074Z" fill="#BA4818"/>
<path d="M65.884 35.6993L61.412 47.9739H65.338L68.926 38.1438C69.134 37.5977 69.732 37.1556 70.278 37.1556H77.168L78.416 33.7229H69.082C67.704 33.7229 66.3 34.6071 65.884 35.6993Z" fill="#BA4818"/>
<path d="M4.472 35.6993L3.042 39.6261C2.444 41.2644 3.51 42.5647 5.408 42.5647H11.804C12.35 42.5647 12.636 43.0068 12.428 43.5529C12.22 44.099 11.622 44.5411 11.076 44.5411H1.248L0 47.9999H12.272C13.624 47.9999 15.054 47.1157 15.444 46.0234L16.874 42.0966C17.472 40.4583 16.406 39.158 14.508 39.158H8.138C7.592 39.158 7.306 38.7159 7.514 38.1698C7.722 37.6237 8.32 37.1816 8.866 37.1816H18.694L19.942 33.7489H7.644C6.292 33.7228 4.862 34.607 4.472 35.6993Z" fill="#BA4818"/>
<path d="M97.344 35.6993L95.914 39.6261C95.316 41.2645 96.382 42.5648 98.28 42.5648H104.676C105.222 42.5648 105.508 43.0069 105.3 43.553C105.092 44.0991 104.494 44.5412 103.948 44.5412H94.12L92.872 47.9739H105.144C106.496 47.9739 107.926 47.0897 108.316 45.9975L109.746 42.0707C110.344 40.4323 109.278 39.132 107.38 39.132H100.984C100.438 39.132 100.152 38.6899 100.36 38.1438C100.568 37.5977 101.166 37.1556 101.712 37.1556H111.54L112.788 33.7229H100.516C99.164 33.7229 97.734 34.6071 97.344 35.6993Z" fill="#BA4818"/>
</svg>
