<svg width="36" height="36" viewBox="0 0 36 36" fill="none" xmlns="http://www.w3.org/2000/svg">
<path d="M35.9999 30.8086L24.3022 21.4685C26.0024 19.1562 26.9545 16.3904 26.9545 13.466C26.9545 9.86146 25.549 6.48363 23.01 3.94458C17.7506 -1.31486 9.20399 -1.31486 3.94457 3.94458C-1.31486 9.20403 -1.31486 17.7506 3.94457 23.0101C6.57428 25.6398 10.0201 26.9547 13.4659 26.9547C16.277 26.9547 19.0881 26.0705 21.4684 24.3023L30.8084 36L35.9999 30.8086ZM20.2442 20.471C18.3853 22.3526 15.937 23.3955 13.3072 23.3955C10.7002 23.3955 8.22918 22.3753 6.37025 20.4937C2.53903 16.6171 2.53903 10.2922 6.37025 6.41562C8.22918 4.51133 10.7002 3.49118 13.3299 3.49118C15.937 3.49118 18.408 4.51133 20.2669 6.39295C24.0981 10.2695 24.0755 16.5945 20.2442 20.471ZM17.3652 9.24937L18.7934 10.4055L11.5617 19.2242L7.18637 13.738L8.61457 12.5819L11.5843 16.2997L17.3652 9.24937Z" fill="#82A6DD"/>
</svg>
