<svg width="198" height="48" viewBox="0 0 198 48" fill="none" xmlns="http://www.w3.org/2000/svg">
<g clip-path="url(#clip0)">
<g clip-path="url(#clip1)">
<path fill-rule="evenodd" clip-rule="evenodd" d="M43.8847 14.5443C42.6652 15.0113 41.722 15.6624 41.054 16.4989C40.3872 17.3373 40.0525 18.3046 40.0525 19.3983C40.0525 21.597 41.3924 23.3256 44.0683 24.584C44.8921 24.9712 45.9497 25.3763 47.2463 25.7907C48.5418 26.209 49.4485 26.6103 49.9626 27.0003C50.4794 27.3894 50.7351 27.9311 50.7351 28.629C50.7351 29.2441 50.4963 29.7217 50.0188 30.0609C49.5405 30.4 48.8917 30.5705 48.0671 30.5705C46.7822 30.5705 45.8514 30.3192 45.2797 29.8174C44.7062 29.3156 44.4208 28.5346 44.4208 27.477H39.428C39.428 28.78 39.7714 29.9308 40.4561 30.9318C41.1418 31.9311 42.164 32.7189 43.5227 33.2926C44.8787 33.868 46.395 34.1556 48.069 34.1556C50.4433 34.1556 52.3119 33.664 53.673 32.6774C55.0349 31.6882 55.7138 30.3301 55.7138 28.6023C55.7138 26.4403 54.5995 24.7421 52.3666 23.5126C51.4501 23.0058 50.2778 22.532 48.848 22.094C47.4224 21.654 46.424 21.2303 45.8556 20.8176C45.2873 20.406 45.0051 19.9464 45.0051 19.4386C45.0051 18.8602 45.2627 18.3826 45.7777 18.0077C46.2937 17.6318 46.9952 17.4434 47.8851 17.4434C48.7644 17.4434 49.463 17.6657 49.9779 18.1093C50.492 18.5531 50.7516 19.1767 50.7516 19.9822H55.7138C55.7138 18.7799 55.3892 17.707 54.736 16.7719C54.0837 15.8352 53.1683 15.1137 51.9911 14.6069C50.8118 14.0995 49.4815 13.8462 47.9969 13.8462C46.4755 13.8462 45.104 14.0789 43.8845 14.5443H43.8847ZM61.7138 13.8462V34.1539H75.4016V30.387H66.5039V25.5341H74.0378V21.9085H66.5034V17.6257H75.4281V13.8462H61.7138ZM81.4281 13.8462V34.1539H86.2982V26.9714H88.9319L92.4984 34.1539H97.7139V33.9439L93.498 25.7441C94.7088 25.1682 95.5972 24.4172 96.1665 23.488C96.7348 22.5581 97.0194 21.387 97.0194 19.9765C97.0194 18.0253 96.3439 16.5157 94.9943 15.4479C93.6442 14.3801 91.7722 13.8462 89.3782 13.8462H81.4281ZM86.2982 17.6122H89.3776C90.2921 17.6122 90.9858 17.8599 91.4576 18.3603C91.9303 18.8587 92.1656 19.5466 92.1656 20.4224C92.1656 21.2982 91.9332 21.9802 91.4643 22.4693C90.9974 22.96 90.3018 23.2046 89.3776 23.2046H86.2982V17.6116V17.6122ZM102.857 13.8462V34.1539H107.844V27.2628H111.03C113.547 27.2628 115.529 26.6703 116.975 25.4857C118.419 24.3011 119.143 22.7167 119.143 20.7364C119.143 19.397 118.809 18.1996 118.139 17.1447C117.471 16.0887 116.53 15.2757 115.313 14.7047C114.094 14.1317 112.694 13.8462 111.113 13.8462H102.857ZM107.844 17.6257H111.17C112.069 17.6353 112.78 17.9238 113.301 18.49C113.822 19.0586 114.082 19.815 114.082 20.7627C114.082 21.6292 113.83 22.2985 113.323 22.7732C112.815 23.2479 112.079 23.4848 111.113 23.4848H107.844V17.626L107.844 17.6257Z" fill="#004683"/>
<path fill-rule="evenodd" clip-rule="evenodd" d="M127.025 14.5443C125.805 15.0113 124.863 15.6624 124.196 16.4989C123.527 17.3373 123.195 18.3046 123.195 19.3983C123.195 21.597 124.532 23.3256 127.209 24.584C128.032 24.9712 129.091 25.3763 130.387 25.7907C131.682 26.209 132.587 26.6103 133.103 27.0003C133.618 27.3894 133.877 27.9311 133.877 28.629C133.877 29.2441 133.638 29.7217 133.16 30.0609C132.681 30.4 132.033 30.5705 131.21 30.5705C129.923 30.5705 128.996 30.3192 128.422 29.8174C127.85 29.3156 127.564 28.5346 127.564 27.477H122.571C122.571 28.78 122.915 29.9308 123.599 30.9318C124.286 31.9311 125.307 32.7189 126.665 33.2926C128.02 33.868 129.535 34.1556 131.21 34.1556C133.584 34.1556 135.451 33.664 136.814 32.6774C138.176 31.6882 138.857 30.3301 138.857 28.6023C138.857 26.4403 137.74 24.7419 135.509 23.5126C134.591 23.0058 133.418 22.532 131.991 22.0939C130.563 21.6539 129.564 21.2302 128.998 20.8176C128.43 20.4055 128.146 19.946 128.146 19.4383C128.146 18.8596 128.403 18.3823 128.919 18.0075C129.434 17.6309 130.136 17.4431 131.026 17.4431C131.905 17.4431 132.602 17.6656 133.12 18.109C133.633 18.5524 133.891 19.176 133.891 19.9816H138.855C138.855 18.7792 138.529 17.7063 137.877 16.7713C137.225 15.8346 136.309 15.1128 135.132 14.606C133.954 14.0991 132.623 13.8462 131.141 13.8462C129.616 13.8462 128.244 14.0789 127.025 14.5443ZM142.286 13.8462V17.6257H148.329V34.1539H153.273V17.6257H159.428V13.8462H142.286ZM167.794 13.8462L160.286 34.1539H165.559L166.74 30.3599H173.503L174.699 34.1539H180L172.434 13.8462H167.794H167.794ZM170.114 19.5362L172.322 26.5805H167.921L170.114 19.5362H170.114ZM180.857 13.8462V17.6257H186.901V34.1539H191.844V17.6257H198V13.8462" fill="#006EC2"/>
<path fill-rule="evenodd" clip-rule="evenodd" d="M31.0709 13H11.0418L11.0428 13.0047C10.7012 13.018 10.4268 13.2924 10.4268 13.6326C10.4268 13.8128 10.5046 13.9734 10.6274 14.0883L10.6245 14.0912L14.9599 18.3429C15.2119 18.5909 15.2119 18.9945 14.9608 19.2424L7.82675 26.2443C7.64332 26.4257 7.68789 26.7315 7.91589 26.8531L8.80304 27.3278C8.96589 27.415 9.22132 27.3972 9.38075 27.3033C9.60104 27.173 9.85733 27.0968 10.1325 27.0968C10.321 27.0968 10.4993 27.1349 10.6648 27.2001C10.7573 27.2373 10.8636 27.2254 10.9382 27.1586L12.631 25.644C12.6293 25.6127 12.6216 25.5822 12.6216 25.5501C12.6216 24.7428 13.2825 24.0879 14.0976 24.0879C14.7842 24.0879 15.3568 24.5533 15.5213 25.182L17.1628 25.8716C17.2133 25.8919 17.2691 25.8834 17.3153 25.853C17.5519 25.6897 17.8382 25.5915 18.1476 25.5915C18.2942 25.5915 18.4365 25.6152 18.5702 25.6558C18.6202 25.6719 18.6739 25.6601 18.7122 25.6245L21.5477 22.8906C21.5888 22.8517 21.6098 22.7933 21.6089 22.7374C21.584 21.3015 22.6557 21.1351 23.0769 21.1213C23.7163 21.0976 24.2538 21.5334 24.4523 22.1045C24.4727 22.1587 24.514 22.2035 24.5697 22.223L26.3659 22.8305C26.434 22.8542 26.506 22.8353 26.5596 22.7888C26.8207 22.5553 27.1651 22.4119 27.5442 22.4119C27.6788 22.4119 27.9127 22.4957 28.049 22.3493L31.613 18.7549C31.675 18.6931 31.7099 18.6093 31.7099 18.5208V13.6363C31.7138 13.2849 31.4258 13 31.0709 13Z" fill="#004683"/>
<path fill-rule="evenodd" clip-rule="evenodd" d="M31.7031 21.6761C31.7031 21.4847 31.468 21.389 31.3326 21.5268L29.0341 23.8433C28.9837 23.8931 28.9644 23.9649 28.976 24.0348C29.035 24.4157 28.9567 24.8417 28.4449 25.3108C28.175 25.5587 27.8316 25.7291 27.463 25.7205C26.8621 25.7043 26.3563 25.3338 26.1357 24.8139C26.1126 24.7594 26.0689 24.7144 26.0109 24.6943L24.1119 24.0501C24.0461 24.0281 23.9756 24.045 23.9203 24.089C23.6649 24.2938 23.3409 24.4182 22.9869 24.4182C22.8262 24.4182 22.6743 24.3869 22.5292 24.3395C22.5292 24.3395 20.3623 26.4143 19.5922 27.164C19.4983 27.257 19.4974 27.2638 19.5186 27.4508C19.5186 28.2648 18.8531 28.9239 18.0298 28.9239C17.3343 28.9239 16.7538 28.4509 16.5904 27.8138C16.5732 27.7486 16.5304 27.6936 16.4678 27.6666L15.0578 27.0751C14.9866 27.0438 14.9061 27.059 14.8435 27.1064C14.5941 27.2951 14.2846 27.4102 13.9478 27.4102C13.7875 27.4102 13.6324 27.3848 13.4875 27.3366C13.4018 27.3086 13.3075 27.323 13.2398 27.3823L11.5238 28.9172C11.4655 28.9688 11.4346 29.0407 11.4261 29.1177C11.3506 29.8606 10.7198 30.4411 9.94834 30.4411C9.35091 30.4411 8.84091 30.0908 8.60434 29.5873C8.54262 29.4553 8.42862 29.3555 8.30091 29.2861L6.3689 28.2538C6.21719 28.1726 6.03033 28.2005 5.90862 28.3198L0.190514 33.9086L0.188457 33.9105L0.180742 33.9181L0.1828 33.919C0.0705135 34.034 -2.95826e-05 34.1889 -2.95826e-05 34.3615C-0.000629584 34.7138 0.287628 35.0001 0.645658 35.0001H19.3966C19.7555 35.0001 20.2576 34.7962 20.513 34.5464L20.8807 34.1855L20.8913 34.1749L25.2918 29.8606C25.5464 29.6119 25.9613 29.6119 26.2159 29.8606L30.604 34.1659C30.722 34.286 30.8846 34.3613 31.0674 34.3613C31.4231 34.3613 31.7137 34.0762 31.7137 33.7242L31.7025 21.6775L31.7031 21.6761Z" fill="#006EC2"/>
</g>
</g>
<defs>
<clipPath id="clip0">
<rect width="198" height="48" fill="white"/>
</clipPath>
<clipPath id="clip1">
<rect width="198" height="44" fill="white" transform="translate(0 2)"/>
</clipPath>
</defs>
</svg>
