<svg width="36" height="34" viewBox="0 0 36 34" fill="none" xmlns="http://www.w3.org/2000/svg">
<path d="M4.05516 4.8405C4.82067 4.45513 5.33791 3.68439 5.33791 2.79195C5.31722 1.53442 4.26205 0.5 2.9793 0.5C1.69654 0.5 0.641377 1.53442 0.641377 2.79195C0.641377 3.68439 1.15862 4.45513 1.92413 4.8405C0.827583 4.9622 0 5.85464 0 6.92962V9.66779H5.9586V6.92962C5.9586 5.85464 5.11032 4.9622 4.05516 4.8405Z" fill="#82A6DD"/>
<path d="M30.2272 4.71912H9.80664V9.68838H30.2272V4.71912Z" fill="#82A6DD"/>
<path d="M4.05516 16.7466C4.79998 16.3613 5.31722 15.5905 5.31722 14.6981C5.31722 13.4405 4.26205 12.4061 2.9793 12.4061C1.69654 12.4061 0.641377 13.4405 0.641377 14.6981C0.641377 15.5905 1.15862 16.3613 1.92413 16.7466C0.827583 16.8683 0 17.7608 0 18.8358V21.5739H5.9586V18.8358C5.9586 17.7608 5.11032 16.8683 4.05516 16.7466Z" fill="#82A6DD"/>
<path d="M24.6204 16.6245H9.80664V21.5938H24.6204V16.6245Z" fill="#82A6DD"/>
<path d="M4.05516 28.6524C4.82067 28.267 5.33791 27.4963 5.33791 26.6038C5.33791 25.3463 4.28274 24.3119 2.99999 24.3119C1.71723 24.3119 0.662066 25.3463 0.662066 26.6038C0.662066 27.4963 1.17931 28.267 1.94482 28.6524C0.827583 28.7741 0 29.6665 0 30.7415V33.4797H5.9586V30.7415C5.9586 29.6665 5.11032 28.7741 4.05516 28.6524Z" fill="#82A6DD"/>
<path d="M35.9996 28.531H9.80664V33.5003H35.9996V28.531Z" fill="#82A6DD"/>
</svg>
