<svg width="72" height="72" viewBox="0 0 72 72" fill="none" xmlns="http://www.w3.org/2000/svg">
<rect width="71.9997" height="71.9997" rx="12" fill="#ED9DBF"/>
<path d="M56.5714 32.1255H41.0437C40.732 32.8403 40.137 33.4122 39.4852 33.784C38.4652 34.3844 37.1617 34.7276 35.745 34.7276C34.3282 34.7276 33.0531 34.3844 32.0331 33.784C31.0413 33.1835 30.2196 32.2113 30.1913 30.9245C30.1913 29.6378 31.0413 28.6656 32.0331 28.0651C33.0531 27.4647 34.3282 27.1215 35.745 27.1215C37.1617 27.1215 38.4368 27.4647 39.4569 28.0651C40.1653 28.494 40.7887 29.0945 41.1004 29.8666H58.3566L36.085 18L12 31.1247L35.4333 43.6489L56.5714 32.1255Z" fill="#FAFAFA"/>
<path d="M35.745 29.3519C34.6966 29.3519 33.7615 29.6092 33.1665 29.9809C32.5714 30.3527 32.4014 30.7244 32.4297 30.9245C32.4297 31.1247 32.5714 31.4964 33.1948 31.8681C33.7898 32.2399 34.7249 32.4972 35.7733 32.4972C36.8217 32.4972 37.7568 32.2399 38.3518 31.8681C38.9752 31.4964 39.1169 31.1247 39.1169 30.9245C39.1169 30.7244 38.9752 30.3527 38.3518 29.9809C37.7284 29.6092 36.7934 29.3519 35.745 29.3519Z" fill="#FAFAFA"/>
<path d="M35.4616 46.1652L20.9256 38.4162V50.7975H50.5927V37.9015L35.9716 45.8793L35.4616 46.1652Z" fill="#FAFAFA"/>
<path d="M60 43.7061C60 42.7911 59.405 42.019 58.5833 41.7617V32.0969H57.3932V41.7331C56.5715 41.9905 55.9764 42.7625 55.9764 43.6775C55.9764 44.5067 56.4581 45.193 57.1382 45.5361L56.3164 53.3423C56.3164 53.3709 56.3731 53.4853 56.6281 53.6569C56.9115 53.857 57.4498 54 58.0165 54C58.6116 54 59.1216 53.8284 59.405 53.6569C59.6317 53.5139 59.6883 53.3995 59.7167 53.3423L58.8666 45.5361C59.5183 45.2216 60 44.5067 60 43.7061Z" fill="#FAFAFA"/>
</svg>
