<svg width="36" height="34" viewBox="0 0 36 34" fill="none" xmlns="http://www.w3.org/2000/svg">
<path d="M24.1455 15.4086L25.0606 16.3299L25.6845 16.9581L26.2876 16.309L35.0016 6.73985C35.6255 6.11167 35.9998 5.21129 35.9998 4.26903C35.9998 3.26396 35.6047 2.3217 34.8976 1.60977C34.1697 0.897842 33.2338 0.5 32.2564 0.5C31.3205 0.5 30.447 0.855964 29.8023 1.50508L20.9635 11.0324L20.3812 11.6396L20.9635 12.2259L21.7954 13.0634L21.2131 13.6497L18.1975 16.6859L17.6152 16.0996L15.4107 13.901L14.8076 13.3147L14.9531 13.1681L15.3899 12.7284L15.7434 12.3725L16.3466 11.7652L15.7642 11.1789L6.23914 1.56789C5.57363 0.918782 4.67936 0.541878 3.74349 0.541878C2.76602 0.541878 1.83015 0.939721 1.10225 1.65165C0.395146 2.36358 0 3.32678 0 4.31091C0 5.27411 0.374349 6.15355 1.01906 6.8236L10.461 16.4975L11.0641 17.1047L11.6672 16.4975L12.4783 15.6808L13.0814 16.2671L15.2859 18.4657L15.8682 19.052L10.8561 24.0774L8.29806 24.203L7.88212 24.224L7.63255 24.5799L4.22182 29.5634L3.82667 30.1497L4.32581 30.6523L6.69668 33.0184L7.17501 33.5L7.75733 33.1231L12.811 29.7938L13.1854 29.5425V29.0818V26.4435L18.1767 21.4181L18.759 22.0044L21.2755 24.5799C20.9011 25.3547 20.6932 26.2341 20.6932 27.1136C20.6932 28.7468 21.3587 30.2754 22.5233 31.3851C23.5632 32.3693 24.9358 32.9346 26.3916 32.9556L28.5753 32.9975L26.9739 31.4898L25.7469 30.3382L24.915 27.5952L26.8699 25.5013L29.6567 26.1504L30.8838 27.302L32.4851 28.8096L32.298 26.611C32.1732 25.1662 31.5285 23.8261 30.4886 22.842C29.4072 21.816 27.993 21.2716 26.5164 21.2716C25.4557 21.2716 24.4158 21.5647 23.5008 22.1091L21.1091 19.6593L20.5268 19.073L23.5632 16.0159L24.1455 15.4086Z" fill="#82A6DD"/>
</svg>
