<svg width="198" height="48" viewBox="0 0 198 48" fill="none" xmlns="http://www.w3.org/2000/svg">
<g clip-path="url(#clip0)">
<g clip-path="url(#clip1)">
<path d="M35.2102 21.2963V37.9376H32.1016V20.1287L35.2102 21.2963Z" fill="black"/>
<path d="M22.7915 19.7446C22.7915 15.4893 25.1151 13.1696 27.8391 13.1696C30.563 13.1696 30.9477 13.5615 34.0406 15.1053C37.1335 16.6491 37.9185 17.041 39.4728 17.041C41.0271 17.041 41.7964 15.8655 41.7964 13.5536H44.5047C44.8972 18.193 42.1811 20.1286 39.4571 20.1286C36.7331 20.1286 35.9638 19.7368 33.2556 18.193C30.5473 16.6491 29.7623 16.2573 28.208 16.2573C26.6537 16.2573 25.8844 17.4328 25.4998 20.1286L22.7915 19.7446Z" fill="black"/>
<path d="M34.0407 48C29.2859 48 24.6379 46.5924 20.6844 43.9553C16.7309 41.3181 13.6496 37.5698 11.83 33.1844C10.0104 28.799 9.53433 23.9734 10.4619 19.3178C11.3896 14.6623 13.6792 10.3859 17.0414 7.02945C20.4035 3.67299 24.6872 1.38721 29.3506 0.461164C34.014 -0.464881 38.8478 0.0103989 43.2407 1.8269C47.6335 3.64341 51.3882 6.71955 54.0298 10.6663C56.6714 14.6131 58.0814 19.2533 58.0814 24C58.0741 30.363 55.5389 36.4633 51.032 40.9626C46.5251 45.4619 40.4144 47.9928 34.0407 48ZM34.0407 1.56736C29.5933 1.56736 25.2458 2.88393 21.5479 5.35058C17.8501 7.81724 14.9679 11.3232 13.266 15.4251C11.564 19.527 11.1187 24.0406 11.9864 28.3951C12.854 32.7497 14.9956 36.7496 18.1404 39.8891C21.2852 43.0285 25.2919 45.1665 29.6538 46.0327C34.0157 46.8988 38.537 46.4543 42.6459 44.7552C46.7547 43.0562 50.2666 40.1789 52.7374 36.4873C55.2083 32.7957 56.5271 28.4555 56.5271 24.0157C56.5229 18.0633 54.1525 12.3559 49.9364 8.14691C45.7203 3.93793 40.0032 1.57151 34.0407 1.56736Z" fill="black"/>
<path d="M73.3342 20.3011V31.9974H71.878V20.3011H68.6987V18.9297H76.5134V20.3011H73.3342Z" fill="black"/>
<path d="M79.08 19.7877C79.2789 19.787 79.4735 19.8451 79.6393 19.9549C79.805 20.0646 79.9344 20.221 80.0111 20.4042C80.0877 20.5875 80.1082 20.7893 80.0699 20.9841C80.0315 21.179 79.9361 21.3581 79.7958 21.4987C79.6554 21.6394 79.4764 21.7353 79.2814 21.7744C79.0864 21.8134 78.8841 21.7938 78.7003 21.7179C78.5165 21.6421 78.3593 21.5136 78.2487 21.3485C78.1381 21.1835 78.0791 20.9894 78.0791 20.7908C78.0801 20.5258 78.1858 20.2718 78.3731 20.084C78.5605 19.8963 78.8145 19.7898 79.08 19.7877ZM79.7865 23.8667V31.9974H78.3735V23.8667H79.7865Z" fill="black"/>
<path d="M84.1239 17.7111V31.9974H82.7109V17.7111H84.1239Z" fill="black"/>
<path d="M93.2886 17.7111H94.7016V31.9974H93.2886V30.8611C92.9647 31.2922 92.5436 31.6411 92.0595 31.8794C91.5753 32.1177 91.0416 32.2387 90.5019 32.2325C88.4412 32.2325 86.5376 30.7827 86.5376 27.9223C86.5376 25.0619 88.4216 23.6709 90.5019 23.6709C91.0408 23.6571 91.5753 23.7726 92.0602 24.0079C92.5451 24.2431 92.9664 24.5912 93.2886 25.0227V17.7111ZM87.9898 27.9223C87.9898 29.666 88.9711 30.9786 90.6589 30.9786C92.3466 30.9786 93.3671 29.5484 93.3671 27.9419C93.3671 25.8456 91.9149 24.9248 90.6589 24.9248C89.2851 24.9248 87.9898 25.9435 87.9898 27.9223Z" fill="black"/>
<path d="M103.867 23.8668H105.28V31.9974H103.867V30.8611C103.543 31.2923 103.122 31.6411 102.638 31.8794C102.153 32.1177 101.62 32.2387 101.08 32.2325C99.0194 32.2325 97.1157 30.7827 97.1157 27.9223C97.1157 25.0619 98.9997 23.6709 101.08 23.6709C101.619 23.6571 102.153 23.7726 102.638 24.0079C103.123 24.2431 103.545 24.5912 103.867 25.0227V23.8668ZM98.568 27.9223C98.568 29.666 99.5492 30.9787 101.237 30.9787C102.925 30.9787 103.945 29.5485 103.945 27.9419C103.945 25.8456 102.493 24.9248 101.237 24.9248C99.8436 24.9248 98.568 25.9436 98.568 27.9223Z" fill="black"/>
<path d="M115.759 18.9297C117.074 18.9297 118.173 19.0825 119.056 19.8505C119.443 20.2053 119.749 20.6393 119.952 21.1228C120.155 21.6064 120.251 22.128 120.234 22.6521C120.234 24.4938 119.076 26.3158 116.093 26.3158H114.837V31.9974H113.385V18.9297H115.759ZM114.837 24.9444H116.015C117.742 24.9444 118.782 24.0823 118.782 22.5934C118.782 20.5166 116.839 20.3207 115.897 20.3207H114.837V24.9444Z" fill="black"/>
<path d="M123.649 28.6041C123.649 29.1723 123.649 29.8384 124.041 30.3478C124.225 30.5435 124.447 30.6996 124.693 30.8063C124.94 30.9129 125.205 30.968 125.474 30.968C125.743 30.968 126.008 30.9129 126.255 30.8063C126.501 30.6996 126.723 30.5435 126.907 30.3478C127.299 29.8384 127.299 29.1723 127.299 28.6041V23.8668H128.712V28.7648C128.712 29.764 128.614 30.5085 127.966 31.2138C127.302 31.867 126.407 32.2332 125.474 32.2332C124.541 32.2332 123.646 31.867 122.982 31.2138C122.334 30.5085 122.236 29.764 122.236 28.7648V23.8668H123.649V28.6041Z" fill="black"/>
<path d="M133.049 31.9974H131.636V17.7111H133.049V25.0031C133.38 24.5831 133.804 24.2445 134.287 24.0135C134.77 23.7826 135.3 23.6653 135.835 23.6709C138.387 23.6709 139.8 25.7868 139.8 27.9811C139.8 30.1754 138.367 32.2325 135.894 32.2325C135.345 32.2461 134.8 32.1288 134.305 31.8903C133.811 31.6518 133.38 31.299 133.049 30.8611V31.9974ZM138.347 27.9811C138.347 25.9827 136.993 24.9248 135.678 24.9248C134.364 24.9248 132.97 26.0023 132.97 27.9615C132.97 29.6268 134.03 30.9787 135.698 30.9787C137.366 30.9787 138.347 29.6072 138.347 27.9811Z" fill="black"/>
<path d="M143.627 17.7111V31.9974H142.214V17.7111H143.627Z" fill="black"/>
<path d="M147.258 19.7877C147.457 19.787 147.651 19.8451 147.817 19.9549C147.983 20.0646 148.112 20.221 148.189 20.4042C148.265 20.5875 148.286 20.7893 148.248 20.9841C148.209 21.179 148.114 21.3581 147.974 21.4987C147.833 21.6394 147.654 21.7353 147.459 21.7744C147.264 21.8134 147.062 21.7938 146.878 21.7179C146.694 21.6421 146.537 21.5136 146.426 21.3485C146.316 21.1835 146.257 20.9894 146.257 20.7908C146.258 20.5258 146.364 20.2718 146.551 20.084C146.738 19.8963 146.992 19.7898 147.258 19.7877ZM147.964 23.8667V31.9974H146.551V23.8667H147.964Z" fill="black"/>
<path d="M154.244 25.7476C154.159 25.5122 154.005 25.3078 153.802 25.161C153.599 25.0143 153.356 24.9319 153.106 24.9247C152.978 24.9128 152.849 24.9285 152.727 24.9707C152.605 25.013 152.494 25.0808 152.401 25.1696C152.308 25.2584 152.235 25.3661 152.188 25.4854C152.14 25.6047 152.118 25.7329 152.125 25.8612C152.125 26.449 152.517 26.6449 153.44 27.0367C154.617 27.5265 155.166 27.8988 155.48 28.2906C155.782 28.6597 155.936 29.1274 155.912 29.6033C155.912 31.3078 154.676 32.2678 153.106 32.2678C152.469 32.2796 151.847 32.083 151.333 31.708C150.819 31.3329 150.442 30.8001 150.26 30.191L151.477 29.6816C151.634 30.1127 152.105 31.0139 153.125 31.0139C153.3 31.0237 153.475 30.9973 153.638 30.9363C153.802 30.8753 153.951 30.7811 154.077 30.6595C154.202 30.538 154.301 30.3919 154.367 30.2303C154.433 30.0687 154.465 29.8952 154.46 29.7208C154.46 28.9371 153.911 28.702 153.145 28.369C152.164 27.938 151.536 27.6245 151.163 27.1935C150.897 26.8539 150.764 26.4288 150.79 25.9984C150.79 24.5682 151.791 23.7257 153.165 23.7257C153.643 23.7148 154.113 23.8495 154.513 24.112C154.913 24.3745 155.223 24.7523 155.402 25.1951L154.244 25.7476Z" fill="black"/>
<path d="M158.051 17.7111H159.464V24.8072C159.737 24.448 160.09 24.1579 160.496 23.9605C160.902 23.7631 161.348 23.6639 161.8 23.6709C162.251 23.6511 162.7 23.7426 163.107 23.9374C163.515 24.1322 163.868 24.4242 164.135 24.7876C164.547 25.395 164.606 26.0611 164.606 26.9623V31.9974H163.193V27.0015C163.236 26.4778 163.105 25.9544 162.82 25.5125C162.66 25.3158 162.456 25.1599 162.224 25.0577C161.992 24.9555 161.739 24.9099 161.486 24.9248C161.215 24.9136 160.945 24.9643 160.697 25.0729C160.448 25.1816 160.228 25.3453 160.053 25.5517C159.504 26.1982 159.464 27.1582 159.464 27.746V31.9974H158.051V17.7111Z" fill="black"/>
<path d="M168.237 19.7877C168.436 19.787 168.63 19.8451 168.796 19.9549C168.962 20.0646 169.091 20.221 169.168 20.4042C169.244 20.5875 169.265 20.7893 169.227 20.9841C169.188 21.179 169.093 21.3581 168.953 21.4987C168.812 21.6394 168.633 21.7353 168.438 21.7744C168.243 21.8134 168.041 21.7938 167.857 21.7179C167.673 21.6421 167.516 21.5136 167.405 21.3485C167.295 21.1835 167.236 20.9894 167.236 20.7908C167.237 20.5258 167.343 20.2718 167.53 20.084C167.717 19.8963 167.971 19.7898 168.237 19.7877ZM168.963 23.8667V31.9974H167.55V23.8667H168.963Z" fill="black"/>
<path d="M171.867 23.8668H173.28V24.8072C173.553 24.448 173.906 24.1579 174.312 23.9605C174.718 23.763 175.164 23.6638 175.616 23.6709C176.067 23.651 176.516 23.7426 176.923 23.9373C177.331 24.1321 177.684 24.4242 177.951 24.7876C178.363 25.3949 178.422 26.0611 178.422 26.9623V31.9974H177.009V27.0015C177.052 26.4777 176.921 25.9544 176.636 25.5125C176.476 25.3158 176.272 25.1599 176.04 25.0577C175.808 24.9555 175.555 24.9099 175.302 24.9247C175.031 24.9136 174.761 24.9643 174.513 25.0729C174.264 25.1815 174.044 25.3453 173.869 25.5517C173.319 26.1982 173.28 27.1582 173.28 27.746V31.9974H171.867V23.8668Z" fill="black"/>
<path d="M187.587 23.8668H189V31.8015C189 32.6832 189 33.937 188.215 34.995C187.83 35.4849 187.334 35.8769 186.767 36.1391C186.201 36.4013 185.581 36.5262 184.957 36.5036C184.425 36.5213 183.894 36.4334 183.395 36.2451C182.897 36.0568 182.441 35.7718 182.053 35.4064C181.711 35.0609 181.441 34.6508 181.259 34.2001C181.077 33.7494 180.987 33.267 180.993 32.7811H182.387C182.385 33.4001 182.608 33.9987 183.015 34.466C183.265 34.7305 183.571 34.9375 183.91 35.0728C184.248 35.2081 184.613 35.2685 184.977 35.2497C185.408 35.2834 185.839 35.1946 186.221 34.9934C186.603 34.7923 186.92 34.4872 187.136 34.1134C187.482 33.4784 187.639 32.7577 187.587 32.0366V30.8611C187.263 31.2923 186.842 31.6411 186.358 31.8794C185.874 32.1177 185.34 32.2387 184.8 32.2325C184.286 32.242 183.776 32.1499 183.297 31.9616C182.819 31.7733 182.383 31.4926 182.014 31.1354C181.613 30.7053 181.302 30.1995 181.1 29.6477C180.897 29.0959 180.808 28.5092 180.836 27.9223C180.808 27.3443 180.897 26.7666 181.1 26.2243C181.302 25.682 181.613 25.1865 182.014 24.7681C182.766 24.0572 183.765 23.6641 184.8 23.6709C185.339 23.6587 185.873 23.775 186.358 24.0101C186.842 24.2452 187.264 24.5924 187.587 25.0228V23.8668ZM183.113 25.6889C182.834 25.9884 182.618 26.34 182.477 26.7234C182.335 27.1067 182.271 27.5142 182.288 27.9223C182.265 28.3631 182.335 28.8039 182.494 29.2158C182.653 29.6277 182.897 30.0014 183.211 30.3125C183.683 30.755 184.31 30.9942 184.957 30.9787C185.286 30.9922 185.614 30.9383 185.921 30.8203C186.229 30.7024 186.508 30.5229 186.743 30.293C187.044 29.9809 187.281 29.6126 187.439 29.2091C187.597 28.8057 187.674 28.3751 187.666 27.9419C187.692 27.094 187.382 26.27 186.802 25.6497C186.307 25.1753 185.644 24.9148 184.957 24.9248C184.614 24.9202 184.273 24.9855 183.956 25.1169C183.639 25.2483 183.352 25.4429 183.113 25.6889Z" fill="black"/>
</g>
</g>
<defs>
<clipPath id="clip0">
<rect width="198" height="48" fill="white"/>
</clipPath>
<clipPath id="clip1">
<rect width="198" height="48" fill="white"/>
</clipPath>
</defs>
</svg>
