<svg width="198" height="48" viewBox="0 0 198 48" fill="none" xmlns="http://www.w3.org/2000/svg">
<g clip-path="url(#clip0)">
<path d="M5.30435 30.2502C3.72664 30.2502 2.4751 31.4588 2.4751 33.1069C2.4751 33.7668 2.60202 34.3575 2.9996 34.7821L8.88617 40.985C9.28787 41.4095 10.0485 41.5 10.6484 41.5C12.2013 41.5 13.6126 40.1253 13.6126 38.4815V32.9617C13.6116 31.3138 12.0646 30.25 10.5135 30.25C8.78621 30.2502 7.03276 30.2502 5.30435 30.2502Z" fill="#607081"/>
<path d="M27.225 23.999C27.225 19.8542 23.9041 16.5 19.7995 16.5C15.6949 16.5 12.375 19.8519 12.375 23.999C12.375 28.146 15.6948 31.5 19.7995 31.5C23.9031 31.4989 27.225 28.1437 27.225 23.999ZM21.9645 19.625C23.1702 19.625 24.1313 20.5942 24.1313 21.8125C24.1313 23.0308 23.1722 24 21.9645 24C20.7588 24 19.8 23.0298 19.8 21.8125C19.7989 20.594 20.7567 19.625 21.9645 19.625Z" fill="#607081"/>
<path d="M19.9114 4C9.06129 4 0 13.127 0 24.0623V24.6555C0 26.5846 1.86543 28.173 3.7811 28.173C5.69793 28.173 7.56221 26.5868 7.56221 24.6555V24.0623C7.56221 17.0527 12.6585 11.3523 19.6139 11.3523C26.5684 11.3523 32.1751 16.8591 32.1751 23.8678C32.1751 30.8765 26.4665 36.3813 19.5121 36.3813H18.9223C17.0075 36.3813 15.8878 38.2616 15.8878 40.1916C15.8878 42.1216 17.4644 44 19.3802 44H19.97C30.8209 44 39.6 34.9354 39.6 24.0001C39.6 13.0667 30.8209 4 19.97 4H19.9114Z" fill="#607081"/>
<path d="M63.118 33.3977C63.118 33.754 62.8345 34 62.5146 34L58.7612 34.0017C58.4058 34.0017 58.1578 33.7173 58.1578 33.3977L58.1626 19L52.5785 19.0039C52.2231 19.0039 51.9751 18.7196 51.9751 18.3989V15.856C51.9751 15.5009 52.2598 15.25 52.5785 15.25H68.6955C69.0509 15.25 69.2989 15.5358 69.2989 15.856V18.3989C69.2989 18.7554 69.0153 19.0039 68.6955 19.0039L63.1126 19L63.118 33.3977Z" fill="#607081"/>
<path d="M172.978 38.4158C172.978 38.7593 172.706 39 172.402 39H168.873C168.535 39 168.3 38.7267 168.3 38.4158V21.1056C168.3 20.7643 168.57 20.5242 168.873 20.5242H172.402C172.639 20.5242 172.843 20.6593 172.943 20.8656C173.145 20.764 173.381 20.6593 173.616 20.5578C174.189 20.3526 174.795 20.25 175.47 20.25C176.339 20.25 177.137 20.3311 177.859 20.4917C179.127 20.7735 180.161 21.3002 180.934 22.0627C182.183 23.2617 182.79 25.0745 182.79 27.4369C182.79 28.5311 182.619 29.4882 182.284 30.3428C181.946 31.2004 181.408 31.9502 180.733 32.5662C180.058 33.1829 179.249 33.6279 178.305 33.9349C177.391 34.2437 176.349 34.3789 175.235 34.3789C174.697 34.3789 174.19 34.3454 173.652 34.2427C173.416 34.2072 173.177 34.1382 172.979 34.0701L172.978 34.0386L172.978 38.4158ZM172.94 30.4098C173.127 30.5146 173.351 30.587 173.577 30.6563C173.912 30.7622 174.246 30.7969 174.657 30.7969C175.447 30.7969 176.083 30.7255 176.608 30.585C177.094 30.4444 177.505 30.2326 177.806 29.9828C178.105 29.7384 178.331 29.3849 178.478 28.959C178.627 28.5016 178.741 27.9371 178.741 27.3012C178.741 26.6287 178.666 26.0632 178.515 25.6026C178.366 25.1799 178.177 24.8252 177.878 24.5788C177.618 24.3312 177.202 24.1191 176.717 23.9775C176.156 23.8369 175.48 23.7656 174.655 23.7656C174.282 23.7656 173.944 23.8358 173.646 23.9428C173.447 24.0142 173.212 24.1204 172.941 24.2617L172.94 30.4098Z" fill="#607081"/>
<path d="M148.217 27.2819C148.526 27.5912 148.737 27.9028 148.875 28.2479C149.048 28.5942 149.119 28.9732 149.119 29.3533C149.119 30.1105 148.945 30.7682 148.632 31.3531C148.319 31.9401 147.831 32.4216 147.171 32.8356C146.58 33.2168 145.851 33.4923 145.017 33.6644C144.216 33.8375 143.313 33.9432 142.302 33.9432C139.976 33.9432 137.995 33.4576 136.392 32.4566C136.116 32.2836 136.046 31.9053 136.219 31.6278C136.219 31.595 136.252 31.595 136.252 31.595L137.922 29.3166C138.13 29.0421 138.475 29.0052 138.754 29.1803C139.278 29.5573 139.868 29.8698 140.495 30.0421C141.117 30.2522 141.812 30.3198 142.542 30.3198C143.797 30.3198 144.386 30.0084 144.386 29.3537C144.386 29.0085 144.245 28.7675 143.968 28.5965C143.586 28.3547 142.961 28.2513 142.092 28.2513C141.709 28.2513 141.36 28.2513 141.081 28.2513C140.804 28.2513 140.646 28.285 140.33 28.3189C140.021 28.3537 139.708 28.113 139.672 27.7676V25.4204C139.672 25.0752 139.952 24.8342 140.262 24.8342C140.296 24.8342 140.597 24.8342 140.909 24.8342C141.118 24.8342 141.605 24.8342 142.298 24.8342C142.962 24.8342 143.446 24.7318 143.723 24.5565H143.757C143.932 24.4531 144.037 24.2801 144.037 24.038C144.037 23.9346 144.001 23.8311 143.967 23.7277C143.931 23.6253 143.829 23.5567 143.723 23.4859C143.586 23.4174 143.445 23.3486 143.272 23.279H143.239C143.031 23.2462 142.787 23.2105 142.473 23.2105C141.883 23.2105 141.29 23.279 140.703 23.4174C140.112 23.5577 139.519 23.7986 138.927 24.1089C138.649 24.2472 138.268 24.1427 138.129 23.8672L136.913 21.5539C136.776 21.2784 136.88 20.8982 137.156 20.761C137.191 20.761 137.191 20.7272 137.225 20.7272C138.129 20.383 139.031 20.1063 139.936 19.9014C140.878 19.7284 141.781 19.625 142.682 19.625C143.554 19.625 144.317 19.7284 145.014 19.9014H145.047C145.744 20.0744 146.367 20.3481 146.926 20.7272C147.481 21.1075 147.899 21.5539 148.214 22.0375C148.523 22.557 148.662 23.1071 148.662 23.7288C148.662 24.904 148.176 25.8342 147.204 26.4539C147.692 26.8228 148.03 27.0988 148.217 27.2819Z" fill="#607081"/>
<path d="M133.063 33.7237H129.669C129.323 33.7237 129.081 33.4455 129.081 33.1328V26.8475L121.359 33.8618C121.255 33.9649 121.119 34 120.943 34H120.009C119.663 34 119.419 33.7218 119.419 33.4091V20.492C119.419 20.1455 119.698 19.9019 120.009 19.9019H123.4C123.748 19.9019 123.989 20.1801 123.989 20.492V26.7785L131.71 19.7632C131.814 19.6601 131.952 19.625 132.124 19.625H133.061C133.406 19.625 133.65 19.9032 133.65 20.2179V33.1339C133.649 33.4814 133.373 33.724 133.063 33.724L133.063 33.7237Z" fill="#607081"/>
<path d="M95.9697 34C95.5914 34 95.3292 33.7232 95.3292 33.4121L95.2877 24H90.3377L90.3601 33.4271C90.3601 33.7739 90.0578 34 89.7182 34H86.0283C85.6521 34 85.3877 33.7382 85.3877 33.4271V20.8229C85.3877 20.4783 85.6669 20.25 86.0064 20.25H99.6189C99.9963 20.25 100.239 20.5127 100.239 20.8229V33.4271C100.239 33.7739 99.9552 34 99.6189 34H95.9697Z" fill="#607081"/>
<path d="M68.5718 24.3538C68.9078 23.5202 69.4142 22.7857 70.0892 22.1513C70.7642 21.517 71.5413 21.0502 72.4511 20.717C73.3273 20.4167 74.3402 20.25 75.4194 20.25C76.5671 20.25 77.579 20.4155 78.4909 20.717C79.3999 21.0172 80.2104 21.4851 80.8518 22.1177C81.4921 22.752 81.9996 23.4875 82.3366 24.3211C82.6746 25.1576 82.8094 26.0913 82.8094 27.0945C82.8094 28.1591 82.6398 29.1274 82.304 29.962C81.966 30.8322 81.4605 31.5648 80.75 32.1663L80.7163 32.1981C80.0444 32.7997 79.2673 33.2329 78.3891 33.5342C77.513 33.8325 76.501 34 75.4197 34C73.1242 34 71.3382 33.3675 70.023 32.1297C69.348 31.4973 68.8762 30.7619 68.5382 29.8936C68.2002 29.0598 68.0618 28.0924 68.0625 27.0915C68.0633 26.0906 68.2329 25.1895 68.5718 24.3538ZM73.3266 29.7585C73.7765 30.2947 74.501 30.5625 75.4356 30.5625C75.8855 30.5625 76.2655 30.4947 76.612 30.3613C76.9554 30.2278 77.2327 30.0276 77.4766 29.7238L77.5111 29.6919C77.7539 29.4239 77.9265 29.0881 78.0647 28.6518C78.2037 28.2165 78.2719 27.6774 78.2719 27.0766C78.2719 25.8991 78.0312 25.0292 77.5475 24.4576C77.0965 23.9215 76.372 23.6875 75.4019 23.6875C74.5385 23.6875 73.8465 23.9544 73.3274 24.5272C73.0855 24.796 72.8774 25.1639 72.7413 25.5644C72.6478 25.856 72.6007 26.3604 72.6 27.0776C72.6002 28.284 72.843 29.1876 73.3266 29.7585Z" fill="#607081"/>
<path d="M151.484 24.3538C151.82 23.5202 152.327 22.7857 153.002 22.1513C153.677 21.517 154.454 21.0502 155.364 20.717C156.24 20.4167 157.253 20.25 158.332 20.25C159.48 20.25 160.492 20.4155 161.404 20.717C162.313 21.0172 163.123 21.4851 163.764 22.1177C164.405 22.752 164.912 23.4875 165.249 24.3211C165.587 25.1576 165.722 26.0913 165.722 27.0945C165.722 28.1591 165.552 29.1274 165.217 29.962C164.879 30.8322 164.373 31.5648 163.663 32.1663L163.629 32.1981C162.957 32.7997 162.18 33.2329 161.302 33.5342C160.426 33.8325 159.414 34 158.332 34C156.037 34 154.251 33.3675 152.936 32.1297C152.261 31.4973 151.789 30.7619 151.451 29.8936C151.113 29.0598 150.974 28.0924 150.975 27.0915C150.976 26.0906 151.145 25.1895 151.484 24.3538ZM156.239 29.7585C156.689 30.2947 157.414 30.5625 158.348 30.5625C158.798 30.5625 159.178 30.4947 159.525 30.3613C159.868 30.2278 160.145 30.0276 160.389 29.7238L160.424 29.6919C160.667 29.4239 160.839 29.0881 160.977 28.6518C161.116 28.2165 161.184 27.6774 161.184 27.0766C161.184 25.8991 160.944 25.0292 160.46 24.4576C160.009 23.9215 159.285 23.6875 158.315 23.6875C157.451 23.6875 156.759 23.9544 156.24 24.5272C155.998 24.796 155.79 25.1639 155.654 25.5644C155.56 25.856 155.513 26.3604 155.513 27.0776C155.513 28.284 155.756 29.1876 156.239 29.7585Z" fill="#607081"/>
<path d="M116.325 27.4273C116.927 28.1019 117.211 28.883 117.211 29.8063C117.211 30.4809 117.071 31.0502 116.748 31.5824C116.467 32.1148 116.041 32.5733 115.434 32.9294C114.868 33.2835 114.193 33.5693 113.375 33.7485C112.593 33.9214 111.707 33.994 110.676 33.994H103.997C103.643 33.994 103.395 33.7105 103.395 33.39V20.5051C103.395 20.151 103.678 19.901 103.997 19.901H104.033C105.382 19.8313 106.625 19.7956 107.725 19.7597C108.86 19.725 109.822 19.725 110.531 19.725C111.418 19.725 112.239 19.7955 112.949 19.9737C113.693 20.1528 114.331 20.4333 114.866 20.7906L114.902 20.8253C115.432 21.2166 115.86 21.6422 116.109 22.1387V22.1755C116.393 22.7079 116.532 23.276 116.532 23.8778C116.532 24.2343 116.463 24.5535 116.355 24.9096C116.25 25.2269 116.072 25.5127 115.821 25.8319C115.61 26.0806 115.396 26.2924 115.148 26.4707V26.5044C115.615 26.7549 116.006 27.0732 116.325 27.4273ZM107.662 24.7654H108.052C108.335 24.7654 108.969 24.7654 109.959 24.7654C110.597 24.7654 111.055 24.6461 111.339 24.4468C111.549 24.2885 111.622 24.0489 111.622 23.769C111.622 23.6498 111.588 23.5305 111.551 23.4504V23.4103C111.515 23.3323 111.446 23.2533 111.34 23.1718C111.235 23.0938 111.057 23.0125 110.879 22.9724C110.669 22.9323 110.422 22.8909 110.139 22.8909C109.504 22.8909 108.938 22.8909 108.478 22.9321C108.195 22.9321 107.947 22.9722 107.666 22.9722V24.7659H107.663L107.662 24.7654ZM107.662 30.6082C108.035 30.6082 108.374 30.6409 108.679 30.6409C109.085 30.6409 109.523 30.6409 109.996 30.6409C110.742 30.6409 111.281 30.538 111.621 30.3311C111.856 30.1589 111.994 29.9204 111.994 29.5788C111.994 29.4057 111.961 29.2679 111.893 29.1681C111.826 29.0633 111.724 28.9602 111.554 28.8572C111.35 28.7543 111.15 28.6514 110.878 28.6188C110.608 28.5484 110.304 28.5159 109.999 28.5159H109.964L107.7 28.5485V30.6085H107.662L107.662 30.6082Z" fill="#607081"/>
<path d="M191.194 17.75C194.953 17.75 198 14.672 198 10.875C198 7.07804 194.953 4 191.194 4C187.435 4 184.388 7.07804 184.388 10.875C184.388 14.672 187.435 17.75 191.194 17.75ZM191.194 16.5C188.118 16.5 185.625 13.9816 185.625 10.875C185.625 7.7684 188.118 5.25 191.194 5.25C194.269 5.25 196.763 7.7684 196.763 10.875C196.763 13.9816 194.269 16.5 191.194 16.5Z" fill="#607081"/>
<path d="M190.416 10.6134H191.165C191.667 10.6134 192.031 10.5074 192.257 10.2953C192.482 10.0833 192.595 9.76864 192.595 9.3514C192.595 8.92732 192.473 8.62295 192.23 8.43827C191.986 8.25359 191.619 8.16125 191.129 8.16125H190.416V10.6134ZM190.416 11.6291V14.625H189.337V7.125H191.201C192.052 7.125 192.683 7.30626 193.092 7.66878C193.501 8.03129 193.705 8.57848 193.705 9.31036C193.705 10.244 193.278 10.9092 192.424 11.3059L194.287 14.625H193.06L191.481 11.6291H190.416Z" fill="#607081"/>
</g>
<defs>
<clipPath id="clip0">
<rect width="198" height="48" fill="white"/>
</clipPath>
</defs>
</svg>
