<svg width="30" height="36" viewBox="0 0 30 36" fill="none" xmlns="http://www.w3.org/2000/svg">
<path d="M24.3037 5.33134L20.1807 7.70082L16.0578 5.33134L20.1807 2.96185L24.3037 5.33134ZM19.1229 8.29319L14.9999 10.6627L10.877 8.29319L14.9999 5.92371L16.7359 6.91997L19.1229 8.29319ZM14.9999 0L19.1229 2.36948L17.6039 3.25804L14.9999 4.73897L10.877 2.36948L14.9999 0ZM9.81913 2.96185L12.0705 4.2543L13.9421 5.33134L9.81913 7.70082L5.69618 5.33134L9.81913 2.96185ZM4.12295 30.0494L0 27.6799V22.3216L4.12295 24.6911V30.0494ZM4.12295 23.4794L0 21.1099V15.7517L4.12295 18.1212V23.4794ZM4.12295 16.9364L0 14.5669V9.18175L4.12295 11.5512V16.9364ZM0.515369 8.29319L4.66544 5.92371L7.9204 7.7816L8.78839 8.29319L4.66544 10.6627L0.515369 8.29319ZM9.30376 33.0112L5.18081 30.6417V25.2835L5.80468 25.6604L9.30376 27.653V33.0112ZM9.30376 26.4413L5.18081 24.0987V18.7135L9.30376 21.083V26.4413ZM9.30376 19.8983L8.67989 19.5213L5.18081 17.5288V12.1705L9.30376 14.54V19.8983ZM8.62564 12.9514L5.69618 11.255L9.81913 8.88556L13.9421 11.255L12.0705 12.3321L9.81913 13.6245L8.62564 12.9514ZM14.4846 35.9731L10.3616 33.6036V28.2453L14.4846 30.6148V35.9731ZM14.4846 29.4301L10.3616 27.0606V21.6754L14.4846 24.0449V29.4301ZM14.4846 22.8601L10.3616 20.4906V15.1324L14.4846 17.5019V22.8601ZM14.9999 16.5864L10.877 14.2169L14.9999 11.8474L19.1229 14.2169L16.7359 15.5901L14.9999 16.5864ZM19.6383 33.6305L15.5153 36V30.6417L19.6383 28.2722V33.6305ZM19.6383 27.0606L16.7088 28.73L15.5153 29.4031V24.0718L17.414 22.9678L19.6383 21.7023V27.0606ZM19.6383 20.4906L18.3905 21.2176L15.5153 22.8601V17.5019L17.414 16.4248L19.6383 15.1324V20.4906ZM20.1807 13.6245L16.0578 11.255L20.1807 8.88556L24.3037 11.255L21.3742 12.9245L20.1807 13.6245ZM24.8191 30.6417L20.6961 33.0112V27.653L23.49 26.0643L24.8462 25.2835V30.6417H24.8191ZM24.8191 24.0987L20.6961 26.4413V21.083L24.1138 19.1174L24.8191 18.7135V24.0987ZM24.8191 17.5288L21.6184 19.3598L20.6961 19.8983V14.5131L24.8191 12.1436V17.5288ZM25.3616 10.6627L21.2115 8.29319L25.3616 5.92371L29.4845 8.29319L25.3616 10.6627ZM29.9999 27.6799L25.8769 30.0494V24.6911L29.9999 22.3216V27.6799ZM29.9999 21.1099L25.8769 23.4794V18.1212L27.1247 17.3942L29.9727 15.7517V21.1099H29.9999ZM29.9999 14.5669L25.8769 16.9364V11.5512L29.9999 9.18175V14.5669Z" fill="#82A6DD"/>
</svg>
