<svg width="198" height="32" viewBox="0 0 198 32" fill="none" xmlns="http://www.w3.org/2000/svg">
<path d="M15.7368 0.96C18.6953 0.96 21.5751 1.856 24.0143 3.536C26.3906 5.168 28.2632 7.472 29.3805 10.16C31.3319 14.848 30.8126 20.208 28.0114 24.416C26.4063 26.832 24.1402 28.736 21.4964 29.872C16.8856 31.856 11.6137 31.328 7.47496 28.48C5.09871 26.848 3.22604 24.544 2.10873 21.856C0.157368 17.168 0.676681 11.808 3.47783 7.6C5.08298 5.184 7.34907 3.28 9.99285 2.144C11.8026 1.36 13.7697 0.96 15.7368 0.96ZM15.7368 0C7.05007 0 0 7.168 0 16C0 24.832 7.05007 32 15.7368 32C24.4235 32 31.4735 24.832 31.4735 16C31.4735 7.168 24.4235 0 15.7368 0Z" fill="#007CBA"/>
<path d="M2.62793 16.0001C2.62793 21.1041 5.49202 25.7761 10.0242 28.0001L3.76098 10.5761C3.00561 12.2881 2.62793 14.1281 2.62793 16.0001ZM24.5965 15.3281C24.5965 13.6801 24.0142 12.5441 23.5106 11.6481C23.007 10.7521 22.2202 9.61606 22.2202 8.52806C22.2202 7.44006 23.1329 6.16006 24.4234 6.16006H24.5965C19.2617 1.18406 10.9684 1.55206 6.07428 6.99206C5.60218 7.52006 5.16155 8.08006 4.78387 8.67206H5.63365C7.00275 8.67206 9.12721 8.49606 9.12721 8.49606C9.83537 8.44806 9.91405 9.50406 9.2059 9.60006C9.2059 9.60006 8.49774 9.68006 7.71091 9.72806L12.4791 24.1761L15.3432 15.4241L13.2975 9.72806C12.5893 9.68006 11.9284 9.60006 11.9284 9.60006C11.2202 9.55206 11.2989 8.46406 12.007 8.49606C12.007 8.49606 14.1787 8.67206 15.4534 8.67206C16.7281 8.67206 18.947 8.49606 18.947 8.49606C19.6551 8.44806 19.7338 9.50406 19.0256 9.60006C19.0256 9.60006 18.3175 9.68006 17.5306 9.72806L22.2674 24.0641L23.6208 19.7121C24.2188 17.8081 24.5807 16.4641 24.5807 15.3121L24.5965 15.3281ZM15.957 17.1521L12.0228 28.784C14.6666 29.5681 17.4834 29.5041 20.08 28.5761L19.9856 28.4001L15.957 17.1521ZM27.2402 9.60006C27.3032 10.0481 27.3347 10.5121 27.3347 10.9761C27.3347 12.3361 27.0829 13.8561 26.3432 15.7441L22.3304 27.5201C28.4677 23.8881 30.6551 15.9361 27.2402 9.60006Z" fill="#007CBA"/>
<path d="M87.7325 11.872H81.485V12.544C83.4363 12.544 83.7511 12.976 83.7511 15.488V20.032C83.7511 22.56 83.4363 23.024 81.485 23.024C79.9742 22.816 78.9671 22 77.5665 20.432L75.9614 18.656C78.133 18.272 79.2818 16.88 79.2818 15.312C79.2818 13.36 77.6452 11.856 74.5608 11.856H68.4077V12.528C70.3591 12.528 70.6738 12.96 70.6738 15.472V20.016C70.6738 22.544 70.3591 23.008 68.4077 23.008V23.68H75.3634V23.04C73.412 23.04 73.0973 22.576 73.0973 20.048V18.768H73.6953L77.5822 23.712H87.7639C92.7682 23.712 94.9399 21.008 94.9399 17.776C94.9399 14.544 92.7682 11.872 87.7639 11.872H87.7325ZM73.113 17.664V12.944H74.5451C76.1187 12.944 76.8111 14.048 76.8111 15.328C76.8111 16.608 76.1187 17.68 74.5451 17.68L73.113 17.664ZM87.8741 22.608H87.6223C86.3634 22.608 86.1903 22.288 86.1903 20.656V12.944H87.8741C91.5093 12.944 92.1702 15.648 92.1702 17.744C92.1702 19.84 91.5093 22.608 87.8741 22.608Z" fill="#007CBA"/>
<path d="M48.9254 18.9919L51.3331 11.7439C52.0255 9.64795 51.7108 9.03995 49.4762 9.03995V8.31995H56.0541V9.02395C53.851 9.02395 53.3317 9.55195 52.4504 12.1599L48.469 24.3199H48.0127L44.4404 13.1839L40.8052 24.3199H40.3488L36.4619 12.1599C35.6278 9.56795 35.0613 9.02395 33.0312 9.02395V8.31995H40.7895V9.02395C38.728 9.02395 38.1614 9.51995 38.9011 11.7279L41.2458 18.9759L44.8024 8.31995H45.4633L48.9254 18.9919Z" fill="#007CBA"/>
<path d="M60.8069 24.176C56.9672 24.176 53.8198 21.296 53.8198 17.776C53.8198 14.256 56.9672 11.408 60.8069 11.408C64.6467 11.408 67.7941 14.288 67.7941 17.776C67.7941 21.264 64.6467 24.176 60.8069 24.176ZM60.8069 12.512C57.5966 12.512 56.4636 15.456 56.4636 17.776C56.4636 20.096 57.5966 23.04 60.8069 23.04C64.0172 23.04 65.1818 20.128 65.1818 17.776C65.1818 15.424 64.0644 12.512 60.8069 12.512Z" fill="#007CBA"/>
<path d="M103.548 23.0079V23.7119H95.5381V23.0079C97.8829 23.0079 98.3078 22.3999 98.3078 18.8479V13.1519C98.3078 9.59995 97.8829 9.02395 95.5381 9.02395V8.31995H102.777C106.381 8.31995 108.379 10.2079 108.379 12.7359C108.379 15.2639 106.381 17.1039 102.777 17.1039H100.778V18.8479C100.778 22.3999 101.203 23.0079 103.548 23.0079ZM102.777 9.59995H100.778V15.7919H102.777C104.728 15.7919 105.641 14.3999 105.641 12.7359C105.641 11.0719 104.728 9.59995 102.777 9.59995Z" fill="#007CBA"/>
<path d="M132.393 20.368L132.22 21.008C131.906 22.176 131.528 22.608 129.041 22.608H128.554C126.728 22.608 126.413 22.176 126.413 19.664V18.032C129.136 18.032 129.356 18.288 129.356 20.128H130.017V14.832H129.356C129.356 16.688 129.152 16.928 126.413 16.928V12.944H128.333C130.82 12.944 131.197 13.376 131.512 14.544L131.685 15.216H132.252L132 11.872H121.724V12.544C123.675 12.544 123.99 12.976 123.99 15.488V20.032C123.99 22.336 123.722 22.928 122.18 23.008C120.717 22.784 119.71 21.968 118.325 20.432L116.72 18.656C118.891 18.272 120.04 16.88 120.04 15.312C120.04 13.36 118.403 11.856 115.319 11.856H109.182V12.528C111.133 12.528 111.448 12.96 111.448 15.472V20.016C111.448 22.544 111.133 23.008 109.182 23.008V23.68H116.137V23.04C114.186 23.04 113.871 22.576 113.871 20.048V18.768H114.469L118.34 23.712H132.708L132.913 20.368H132.393ZM113.855 17.664V12.944H115.288C116.861 12.944 117.554 14.048 117.554 15.328C117.554 16.608 116.861 17.68 115.288 17.68L113.855 17.664Z" fill="#007CBA"/>
<path d="M139.491 24.176C138.09 24.176 136.863 23.424 136.343 22.96C136.044 23.312 135.855 23.728 135.777 24.176H135.116V19.264H135.808C136.092 21.616 137.697 22.992 139.758 22.992C140.875 22.992 141.788 22.352 141.788 21.28C141.788 20.208 140.986 19.648 139.554 18.976L137.555 18.016C136.154 17.344 135.1 16.16 135.1 14.608C135.1 13.056 136.674 11.44 138.845 11.44C139.837 11.424 140.797 11.76 141.568 12.368C141.741 12.224 141.914 11.84 142.024 11.408H142.685V15.6H141.946C141.694 13.936 140.797 12.544 138.94 12.544C137.964 12.544 137.051 13.12 137.051 14C137.051 14.88 137.791 15.424 139.459 16.208L141.379 17.168C143.063 17.984 143.724 19.296 143.724 20.368C143.724 22.608 141.804 24.176 139.459 24.176" fill="#007CBA"/>
<path d="M150.066 24.176C148.665 24.176 147.438 23.424 146.919 22.96C146.62 23.312 146.431 23.728 146.352 24.176H145.691V19.264H146.383C146.667 21.616 148.272 22.992 150.333 22.992C151.451 22.992 152.363 22.352 152.363 21.28C152.363 20.208 151.561 19.648 150.129 18.976L148.13 18.016C146.73 17.344 145.675 16.16 145.675 14.608C145.675 13.056 147.249 11.44 149.421 11.44C150.412 11.424 151.372 11.76 152.143 12.368C152.316 12.224 152.489 11.84 152.6 11.408H153.26V15.6H152.521C152.269 13.936 151.372 12.544 149.515 12.544C148.539 12.544 147.627 13.12 147.627 14C147.627 14.88 148.366 15.424 150.034 16.208L151.954 17.168C153.638 17.984 154.299 19.296 154.299 20.368C154.299 22.608 152.379 24.176 150.034 24.176" fill="#007CBA"/>
<path d="M167.471 24.048C163.914 24.048 161.003 21.232 161.003 17.792C161.003 14.352 163.914 11.536 167.471 11.536C171.027 11.536 173.954 14.352 173.954 17.792C173.954 21.232 171.043 24.048 167.471 24.048ZM162.844 17.792C162.844 20.24 164.119 23.264 167.471 23.264C170.823 23.264 172.113 20.24 172.113 17.792C172.113 15.344 170.838 12.304 167.471 12.304C164.103 12.304 162.844 15.344 162.844 17.792Z" fill="#007CBA"/>
<path d="M182.09 20.8001C183.239 22.1761 184.529 23.1681 185.694 23.3121V23.7281H182.484L178.644 18.5441H177.731V21.0081C177.731 22.9761 177.967 23.3121 179.572 23.3121V23.7281H174.332V23.3121C175.937 23.3121 176.173 22.9761 176.173 21.0081V14.5761C176.173 12.6081 175.937 12.2881 174.332 12.2881V11.8721H179.462C182.153 11.8721 183.632 13.3761 183.632 15.2001C183.632 17.0241 182.374 18.2721 180.17 18.5121L182.09 20.8001ZM181.917 15.2161C181.917 13.7921 181.146 12.6081 179.446 12.6081H177.731V17.8241H179.446C181.13 17.8241 181.917 16.6561 181.917 15.2161Z" fill="#007CBA"/>
<path d="M192.917 19.216V18.816H198V19.216C196.395 19.216 196.159 19.552 196.159 21.52V23.024C194.003 23.024 193.137 24.048 191.107 24.048C187.834 24.048 185.143 21.232 185.143 17.792C185.143 14.352 187.818 11.536 191.107 11.536C192.461 11.536 193.735 12.144 194.711 13.216C195.042 12.928 195.278 12.528 195.372 12.096H195.765V16.432H195.372C194.853 13.872 193.326 12.304 191.155 12.304C188.054 12.304 186.921 15.344 186.921 17.792C186.921 20.24 187.928 23.2 191.516 23.2C193.2 23.2 194.727 22.272 194.727 20.496C194.727 19.648 194.239 19.216 192.917 19.216Z" fill="#007CBA"/>
<path d="M157.997 23.92C157.305 23.92 156.754 23.36 156.754 22.656C156.754 21.952 157.305 21.392 157.997 21.392C158.69 21.392 159.24 21.952 159.24 22.656C159.24 23.36 158.69 23.92 157.997 23.92Z" fill="#007CBA"/>
</svg>
