<svg width="198" height="48" viewBox="0 0 198 48" fill="none" xmlns="http://www.w3.org/2000/svg">
<g clip-path="url(#clip0)">
<path d="M15.7368 8.96C18.6953 8.96 21.5751 9.856 24.0143 11.536C26.3906 13.168 28.2632 15.472 29.3805 18.16C31.3319 22.848 30.8126 28.208 28.0114 32.416C26.4063 34.832 24.1402 36.736 21.4964 37.872C16.8856 39.856 11.6137 39.328 7.47496 36.48C5.09871 34.848 3.22604 32.544 2.10873 29.856C0.157368 25.168 0.676681 19.808 3.47783 15.6C5.08298 13.184 7.34907 11.28 9.99285 10.144C11.8026 9.36 13.7697 8.96 15.7368 8.96ZM15.7368 8C7.05007 8 0 15.168 0 24C0 32.832 7.05007 40 15.7368 40C24.4235 40 31.4735 32.832 31.4735 24C31.4735 15.168 24.4235 8 15.7368 8Z" fill="#007CBA"/>
<path d="M2.62793 24.0001C2.62793 29.1041 5.49202 33.7761 10.0242 36.0001L3.76098 18.5761C3.00561 20.2881 2.62793 22.1281 2.62793 24.0001ZM24.5965 23.3281C24.5965 21.6801 24.0142 20.5441 23.5106 19.6481C23.007 18.7521 22.2202 17.6161 22.2202 16.5281C22.2202 15.4401 23.1329 14.1601 24.4234 14.1601H24.5965C19.2617 9.18406 10.9684 9.55206 6.07428 14.9921C5.60218 15.5201 5.16155 16.0801 4.78387 16.6721H5.63365C7.00275 16.6721 9.12721 16.4961 9.12721 16.4961C9.83537 16.4481 9.91405 17.5041 9.2059 17.6001C9.2059 17.6001 8.49774 17.6801 7.71091 17.7281L12.4791 32.1761L15.3432 23.4241L13.2975 17.7281C12.5893 17.6801 11.9284 17.6001 11.9284 17.6001C11.2202 17.5521 11.2989 16.4641 12.007 16.4961C12.007 16.4961 14.1787 16.6721 15.4534 16.6721C16.7281 16.6721 18.947 16.4961 18.947 16.4961C19.6551 16.4481 19.7338 17.5041 19.0256 17.6001C19.0256 17.6001 18.3175 17.6801 17.5306 17.7281L22.2674 32.0641L23.6208 27.7121C24.2188 25.8081 24.5807 24.4641 24.5807 23.3121L24.5965 23.3281ZM15.957 25.1521L12.0228 36.784C14.6666 37.5681 17.4834 37.5041 20.08 36.5761L19.9856 36.4001L15.957 25.1521ZM27.2402 17.6001C27.3032 18.0481 27.3347 18.5121 27.3347 18.9761C27.3347 20.3361 27.0829 21.8561 26.3432 23.7441L22.3304 35.5201C28.4677 31.8881 30.6551 23.9361 27.2402 17.6001Z" fill="#007CBA"/>
<path d="M87.7325 19.872H81.485V20.544C83.4363 20.544 83.7511 20.976 83.7511 23.488V28.032C83.7511 30.56 83.4363 31.024 81.485 31.024C79.9742 30.816 78.9671 30 77.5665 28.432L75.9614 26.656C78.133 26.272 79.2818 24.88 79.2818 23.312C79.2818 21.36 77.6452 19.856 74.5608 19.856H68.4077V20.528C70.3591 20.528 70.6738 20.96 70.6738 23.472V28.016C70.6738 30.544 70.3591 31.008 68.4077 31.008V31.68H75.3634V31.04C73.412 31.04 73.0973 30.576 73.0973 28.048V26.768H73.6953L77.5822 31.712H87.7639C92.7682 31.712 94.9399 29.008 94.9399 25.776C94.9399 22.544 92.7682 19.872 87.7639 19.872H87.7325ZM73.113 25.664V20.944H74.5451C76.1187 20.944 76.8111 22.048 76.8111 23.328C76.8111 24.608 76.1187 25.68 74.5451 25.68L73.113 25.664ZM87.8741 30.608H87.6223C86.3634 30.608 86.1903 30.288 86.1903 28.656V20.944H87.8741C91.5093 20.944 92.1702 23.648 92.1702 25.744C92.1702 27.84 91.5093 30.608 87.8741 30.608Z" fill="#007CBA"/>
<path d="M48.9254 26.9919L51.3331 19.7439C52.0255 17.6479 51.7108 17.0399 49.4762 17.0399V16.3199H56.0541V17.0239C53.851 17.0239 53.3317 17.5519 52.4504 20.1599L48.469 32.3199H48.0127L44.4404 21.1839L40.8052 32.3199H40.3488L36.4619 20.1599C35.6278 17.5679 35.0613 17.0239 33.0312 17.0239V16.3199H40.7895V17.0239C38.728 17.0239 38.1614 17.5199 38.9011 19.7279L41.2458 26.9759L44.8024 16.3199H45.4633L48.9254 26.9919Z" fill="#007CBA"/>
<path d="M60.8069 32.176C56.9672 32.176 53.8198 29.296 53.8198 25.776C53.8198 22.256 56.9672 19.408 60.8069 19.408C64.6467 19.408 67.7941 22.288 67.7941 25.776C67.7941 29.264 64.6467 32.176 60.8069 32.176ZM60.8069 20.512C57.5966 20.512 56.4636 23.456 56.4636 25.776C56.4636 28.096 57.5966 31.04 60.8069 31.04C64.0172 31.04 65.1818 28.128 65.1818 25.776C65.1818 23.424 64.0644 20.512 60.8069 20.512Z" fill="#007CBA"/>
<path d="M103.548 31.0079V31.7119H95.5381V31.0079C97.8829 31.0079 98.3078 30.3999 98.3078 26.8479V21.1519C98.3078 17.5999 97.8829 17.0239 95.5381 17.0239V16.3199H102.777C106.381 16.3199 108.379 18.2079 108.379 20.7359C108.379 23.2639 106.381 25.1039 102.777 25.1039H100.778V26.8479C100.778 30.3999 101.203 31.0079 103.548 31.0079ZM102.777 17.5999H100.778V23.7919H102.777C104.728 23.7919 105.641 22.3999 105.641 20.7359C105.641 19.0719 104.728 17.5999 102.777 17.5999Z" fill="#007CBA"/>
<path d="M132.393 28.368L132.22 29.008C131.906 30.176 131.528 30.608 129.041 30.608H128.554C126.728 30.608 126.413 30.176 126.413 27.664V26.032C129.136 26.032 129.356 26.288 129.356 28.128H130.017V22.832H129.356C129.356 24.688 129.152 24.928 126.413 24.928V20.944H128.333C130.82 20.944 131.197 21.376 131.512 22.544L131.685 23.216H132.252L132 19.872H121.724V20.544C123.675 20.544 123.99 20.976 123.99 23.488V28.032C123.99 30.336 123.722 30.928 122.18 31.008C120.717 30.784 119.71 29.968 118.325 28.432L116.72 26.656C118.891 26.272 120.04 24.88 120.04 23.312C120.04 21.36 118.403 19.856 115.319 19.856H109.182V20.528C111.133 20.528 111.448 20.96 111.448 23.472V28.016C111.448 30.544 111.133 31.008 109.182 31.008V31.68H116.137V31.04C114.186 31.04 113.871 30.576 113.871 28.048V26.768H114.469L118.34 31.712H132.708L132.913 28.368H132.393ZM113.855 25.664V20.944H115.288C116.861 20.944 117.554 22.048 117.554 23.328C117.554 24.608 116.861 25.68 115.288 25.68L113.855 25.664Z" fill="#007CBA"/>
<path d="M139.491 32.176C138.09 32.176 136.863 31.424 136.343 30.96C136.044 31.312 135.855 31.728 135.777 32.176H135.116V27.264H135.808C136.092 29.616 137.697 30.992 139.758 30.992C140.875 30.992 141.788 30.352 141.788 29.28C141.788 28.208 140.986 27.648 139.554 26.976L137.555 26.016C136.154 25.344 135.1 24.16 135.1 22.608C135.1 21.056 136.674 19.44 138.845 19.44C139.837 19.424 140.797 19.76 141.568 20.368C141.741 20.224 141.914 19.84 142.024 19.408H142.685V23.6H141.946C141.694 21.936 140.797 20.544 138.94 20.544C137.964 20.544 137.051 21.12 137.051 22C137.051 22.88 137.791 23.424 139.459 24.208L141.379 25.168C143.063 25.984 143.724 27.296 143.724 28.368C143.724 30.608 141.804 32.176 139.459 32.176" fill="#007CBA"/>
<path d="M150.066 32.176C148.665 32.176 147.438 31.424 146.919 30.96C146.62 31.312 146.431 31.728 146.352 32.176H145.691V27.264H146.383C146.667 29.616 148.272 30.992 150.333 30.992C151.451 30.992 152.363 30.352 152.363 29.28C152.363 28.208 151.561 27.648 150.129 26.976L148.13 26.016C146.73 25.344 145.675 24.16 145.675 22.608C145.675 21.056 147.249 19.44 149.421 19.44C150.412 19.424 151.372 19.76 152.143 20.368C152.316 20.224 152.489 19.84 152.6 19.408H153.26V23.6H152.521C152.269 21.936 151.372 20.544 149.515 20.544C148.539 20.544 147.627 21.12 147.627 22C147.627 22.88 148.366 23.424 150.034 24.208L151.954 25.168C153.638 25.984 154.299 27.296 154.299 28.368C154.299 30.608 152.379 32.176 150.034 32.176" fill="#007CBA"/>
<path d="M167.471 32.048C163.914 32.048 161.003 29.232 161.003 25.792C161.003 22.352 163.914 19.536 167.471 19.536C171.027 19.536 173.954 22.352 173.954 25.792C173.954 29.232 171.043 32.048 167.471 32.048ZM162.844 25.792C162.844 28.24 164.119 31.264 167.471 31.264C170.823 31.264 172.113 28.24 172.113 25.792C172.113 23.344 170.838 20.304 167.471 20.304C164.103 20.304 162.844 23.344 162.844 25.792Z" fill="#007CBA"/>
<path d="M182.09 28.8001C183.239 30.1761 184.529 31.1681 185.694 31.3121V31.7281H182.484L178.644 26.5441H177.731V29.0081C177.731 30.9761 177.967 31.3121 179.572 31.3121V31.7281H174.332V31.3121C175.937 31.3121 176.173 30.9761 176.173 29.0081V22.5761C176.173 20.6081 175.937 20.2881 174.332 20.2881V19.8721H179.462C182.153 19.8721 183.632 21.3761 183.632 23.2001C183.632 25.0241 182.374 26.2721 180.17 26.5121L182.09 28.8001ZM181.917 23.2161C181.917 21.7921 181.146 20.6081 179.446 20.6081H177.731V25.8241H179.446C181.13 25.8241 181.917 24.6561 181.917 23.2161Z" fill="#007CBA"/>
<path d="M192.917 27.216V26.816H198V27.216C196.395 27.216 196.159 27.552 196.159 29.52V31.024C194.003 31.024 193.137 32.048 191.107 32.048C187.834 32.048 185.143 29.232 185.143 25.792C185.143 22.352 187.818 19.536 191.107 19.536C192.461 19.536 193.735 20.144 194.711 21.216C195.042 20.928 195.278 20.528 195.372 20.096H195.765V24.432H195.372C194.853 21.872 193.326 20.304 191.155 20.304C188.054 20.304 186.921 23.344 186.921 25.792C186.921 28.24 187.928 31.2 191.516 31.2C193.2 31.2 194.727 30.272 194.727 28.496C194.727 27.648 194.239 27.216 192.917 27.216Z" fill="#007CBA"/>
<path d="M157.997 31.92C157.305 31.92 156.754 31.36 156.754 30.656C156.754 29.952 157.305 29.392 157.997 29.392C158.69 29.392 159.24 29.952 159.24 30.656C159.24 31.36 158.69 31.92 157.997 31.92Z" fill="#007CBA"/>
</g>
<defs>
<clipPath id="clip0">
<rect width="198" height="48" fill="white"/>
</clipPath>
</defs>
</svg>
